<svg id="Capa_1" enable-background="new 0 0 510 510" height="512" viewBox="0 0 510 510" width="512" xmlns="http://www.w3.org/2000/svg" xmlns:xlink="http://www.w3.org/1999/xlink"><linearGradient id="SVGID_1_" gradientTransform="matrix(.707 .707 -.707 .707 -48.132 39.318)" gradientUnits="userSpaceOnUse" x1="328.818" x2="428.233" y1="172.842" y2="172.842"><stop offset="0" stop-color="#ffdecf"/><stop offset="1" stop-color="#faa68e"/></linearGradient><linearGradient id="SVGID_2_" gradientTransform="matrix(.707 .707 -.707 .707 -48.132 39.318)" gradientUnits="userSpaceOnUse" x1="413.453" x2="353.475" y1="176.496" y2="48.236"><stop offset="0" stop-color="#faa68e" stop-opacity="0"/><stop offset="1" stop-color="#d07972"/></linearGradient><linearGradient id="lg1"><stop offset="0" stop-color="#ffda2d"/><stop offset="1" stop-color="#ff9100"/></linearGradient><linearGradient id="SVGID_3_" gradientTransform="matrix(.707 .707 -.707 .707 1921.615 143.987)" gradientUnits="userSpaceOnUse" x1="-1095.429" x2="-1106.453" xlink:href="#lg1" y1="1308.083" y2="1339.413"/><linearGradient id="lg2"><stop offset="0" stop-color="#9b62cd"/><stop offset="1" stop-color="#833ac1"/></linearGradient><linearGradient id="SVGID_4_" gradientTransform="matrix(.707 .707 -.707 .707 1921.615 143.987)" gradientUnits="userSpaceOnUse" x1="-1095.429" x2="-1106.453" xlink:href="#lg2" y1="1230.312" y2="1261.642"/><linearGradient id="SVGID_5_" gradientTransform="matrix(.707 .707 -.707 .707 1921.615 143.987)" gradientUnits="userSpaceOnUse" x1="-1095.429" x2="-1106.453" xlink:href="#lg1" y1="1152.541" y2="1183.871"/><linearGradient id="SVGID_6_" gradientTransform="matrix(.707 .707 -.707 .707 1921.615 143.987)" gradientUnits="userSpaceOnUse" x1="-1095.429" x2="-1106.453" xlink:href="#lg2" y1="1074.77" y2="1106.1"/><linearGradient id="SVGID_7_" gradientUnits="userSpaceOnUse" x1="431.02" x2="431.02" y1="234.5" y2="160.041"><stop offset="0" stop-color="#07485e" stop-opacity="0"/><stop offset=".3884" stop-color="#05394a" stop-opacity=".388"/><stop offset="1" stop-color="#03232e"/></linearGradient><linearGradient id="SVGID_8_" gradientUnits="userSpaceOnUse" x1="435.853" x2="430.186" xlink:href="#lg1" y1="97.41" y2="232.743"/><linearGradient id="SVGID_9_" gradientTransform="matrix(.707 .707 -.707 .707 1921.615 143.987)" gradientUnits="userSpaceOnUse" x1="-1097.107" x2="-1097.107" xlink:href="#lg2" y1="1372.064" y2="1405.348"/><linearGradient id="SVGID_10_" gradientUnits="userSpaceOnUse" x1="429.654" x2="506.321" xlink:href="#lg1" y1="129.435" y2="174.102"/><linearGradient id="lg3"><stop offset="0" stop-color="#ff9100" stop-opacity="0"/><stop offset="1" stop-color="#ff9100"/></linearGradient><linearGradient id="SVGID_11_" gradientUnits="userSpaceOnUse" x1="472.868" x2="387.118" xlink:href="#lg3" y1="151.472" y2="202.972"/><linearGradient id="SVGID_12_" gradientUnits="userSpaceOnUse" x1="483.998" x2="441.748" xlink:href="#lg3" y1="158.992" y2="168.742"/><g><g><g><path d="m17.031 497.027c-17.297-17.297-17.297-45.341 0-62.637l116.793-116.793 62.637 62.637-116.793 116.793c-17.297 17.297-45.34 17.297-62.637 0z" fill="url(#SVGID_1_)"/><path d="m112.784 338.636v125.275l83.677-83.676-62.638-62.638z" fill="url(#SVGID_2_)"/></g><g><path d="m219.158 385.06-64.061-132.793c-4.879-10.114-2.829-22.207 5.112-30.147l20.126-20.126c10.763-10.763 28.929-7.683 35.542 6.026l64.061 132.793c4.879 10.114 2.829 22.207-5.112 30.147l-20.126 20.127c-10.763 10.763-28.929 7.683-35.542-6.027z" fill="url(#SVGID_3_)"/><path d="m274.15 330.068-64.06-132.793c-4.879-10.114-2.829-22.207 5.112-30.147l20.126-20.126c10.763-10.763 28.929-7.683 35.542 6.026l64.061 132.793c4.879 10.114 2.829 22.207-5.112 30.147l-20.126 20.126c-10.763 10.763-28.929 7.683-35.543-6.026z" fill="url(#SVGID_4_)"/><path d="m329.143 275.076-64.061-132.793c-4.879-10.114-2.829-22.207 5.112-30.147l20.126-20.126c10.763-10.763 28.929-7.683 35.542 6.026l64.061 132.793c4.879 10.114 2.829 22.207-5.112 30.147l-20.126 20.126c-10.763 10.763-28.929 7.683-35.542-6.026z" fill="url(#SVGID_5_)"/><path d="m384.135 220.083-64.061-132.793c-4.879-10.114-2.829-22.207 5.112-30.147l20.126-20.126c10.763-10.763 28.929-7.683 35.542 6.026l64.061 132.793c4.879 10.114 2.829 22.207-5.112 30.147l-20.126 20.126c-10.762 10.763-28.928 7.683-35.542-6.026z" fill="url(#SVGID_6_)"/><path d="m414.5 229.965c1.845-.995 3.593-2.271 5.178-3.856l20.126-20.126c7.94-7.94 9.991-20.034 5.112-30.147l-6.313-13.086h-24.103z" fill="url(#SVGID_7_)"/><path d="m376.514 5.815c-5.746 5.746-7.229 14.496-3.699 21.815l70.779 146.72c4.43 9.183 16.598 11.246 23.807 4.037l21.865-21.865c18.234-18.234 18.234-47.798 0-66.032l-84.674-84.675c-7.753-7.753-20.324-7.753-28.078 0z" fill="url(#SVGID_8_)"/><path d="m223.499 422.288c5.746-5.746 7.229-14.496 3.699-21.815l-70.779-146.719c-4.43-9.183-16.598-11.246-23.807-4.037l-21.865 21.865c-18.234 18.234-18.234 47.798 0 66.032l84.674 84.674c7.753 7.754 20.324 7.754 28.078 0z" fill="url(#SVGID_9_)"/></g></g><g><path d="m505.942 126.93v101.9c0 4.6-1.86 8.76-4.88 11.78-3.04 3.04-7.235 4.905-11.882 4.88-9.234-.05-16.568-7.844-16.568-17.077v-38.173c0-2.83-.93-5.45-2.5-7.56-.37-.49-.77-.96-1.2-1.39-2.281-2.281-5.425-3.699-8.909-3.71-6.982-.022-12.691 6.043-12.691 13.025v3.635c0 4.61-1.87 8.77-4.88 11.78-3.01 3.02-7.18 4.88-11.78 4.88-9.2 0-16.66-7.45-16.66-16.66v-101.975c0-27.69 33.121-42.665 53.382-23.79.421.393.838.794 1.248 1.205l23.23 23.23c9.39 9.4 14.09 21.7 14.09 34.02z" fill="url(#SVGID_10_)"/><path d="m468.622 69.68c-.411-.411-.827-.812-1.248-1.205-5.927-5.522-12.955-8.128-19.932-8.385v128.796c.844-6.228 6.161-11.327 12.561-11.307 3.484.011 6.628 1.429 8.909 3.71.43.43.83.9 1.2 1.39 1.57 2.11 2.5 4.73 2.5 7.56v38.172c0 9.234 7.334 17.028 16.568 17.077 4.647.025 8.842-1.84 11.882-4.88 3.02-3.02 4.88-7.18 4.88-11.78v-101.9c0-12.32-4.7-24.62-14.09-34.02z" fill="url(#SVGID_11_)"/><path d="m472.442 73.5v114.661c.112.677.17 1.371.17 2.079v38.172c0 9.234 7.334 17.028 16.568 17.077 4.647.025 8.842-1.84 11.882-4.88 3.02-3.02 4.88-7.18 4.88-11.78v-101.9c0-12.32-4.7-24.62-14.09-34.02z" fill="url(#SVGID_12_)"/></g></g></svg>