<svg id="Capa_1" enable-background="new 0 0 510 510" height="512" viewBox="0 0 510 510" width="512" xmlns="http://www.w3.org/2000/svg" xmlns:xlink="http://www.w3.org/1999/xlink"><linearGradient id="SVGID_1_" gradientTransform="matrix(.707 .707 .707 -.707 259.911 -578.151)" gradientUnits="userSpaceOnUse" x1="556.461" x2="659.252" y1="-567.391" y2="-567.391"><stop offset="0" stop-color="#ff9100"/><stop offset="1" stop-color="#e63950"/></linearGradient><linearGradient id="SVGID_2_" gradientTransform="matrix(.707 .707 -.707 .707 -75.491 -242.749)" gradientUnits="userSpaceOnUse" x1="591.86" x2="583.627" y1="77.493" y2="-31.964"><stop offset="0" stop-color="#e63950" stop-opacity="0"/><stop offset=".0467" stop-color="#e4354b" stop-opacity=".047"/><stop offset=".4669" stop-color="#d31822" stop-opacity=".467"/><stop offset=".7991" stop-color="#c90709" stop-opacity=".799"/><stop offset="1" stop-color="#c50000"/></linearGradient><linearGradient id="lg1"><stop offset="0" stop-color="#ffda2d"/><stop offset="1" stop-color="#fdbf00"/></linearGradient><linearGradient id="SVGID_3_" gradientTransform="matrix(.707 .707 .707 -.707 259.911 -578.151)" gradientUnits="userSpaceOnUse" x1="551.99" x2="670.595" xlink:href="#lg1" y1="-466.894" y2="-466.894"/><linearGradient id="SVGID_4_" gradientTransform="matrix(.707 .707 -.707 .707 106.823 -425.062)" gradientUnits="userSpaceOnUse" x1="551.99" x2="670.595" xlink:href="#lg1" y1="482.223" y2="482.223"/><linearGradient id="lg2"><stop offset="0" stop-color="#ff9100" stop-opacity="0"/><stop offset="1" stop-color="#ff9100"/></linearGradient><linearGradient id="SVGID_5_" gradientTransform="matrix(.707 .707 -.707 .707 -75.491 -242.749)" gradientUnits="userSpaceOnUse" x1="585.52" x2="585.52" xlink:href="#lg2" y1="25.575" y2="-24.395"/><linearGradient id="SVGID_6_" gradientTransform="matrix(.707 .707 -.707 .707 -75.491 -242.749)" gradientUnits="userSpaceOnUse" x1="533.441" x2="688.758" xlink:href="#lg1" y1="-144.166" y2="11.151"/><linearGradient id="SVGID_7_" gradientTransform="matrix(.707 .707 -.707 .707 -75.491 -242.749)" gradientUnits="userSpaceOnUse" x1="605.011" x2="563.844" xlink:href="#lg1" y1="-22.631" y2="-174.708"/><linearGradient id="SVGID_8_" gradientTransform="matrix(.707 .707 -.707 .707 -75.491 -242.749)" gradientUnits="userSpaceOnUse" x1="551.549" x2="693.081" xlink:href="#lg1" y1="263.931" y2="405.463"/><linearGradient id="SVGID_9_" gradientTransform="matrix(.707 .707 -.707 .707 -75.491 -242.749)" gradientUnits="userSpaceOnUse" x1="585.79" x2="585.79" xlink:href="#lg2" y1="351.055" y2="157.677"/><linearGradient id="SVGID_10_" gradientTransform="matrix(.707 .707 -.707 .707 -75.491 -242.749)" gradientUnits="userSpaceOnUse" x1="581.375" x2="439.307" xlink:href="#lg2" y1="347.291" y2="425.429"/><g><path d="m396.019 167.217-53.425-53.425-193.152 193.152 53.425 53.425z" fill="url(#SVGID_1_)"/><path d="m290.655 165.731v106.85l105.364-105.364-53.425-53.425z" fill="url(#SVGID_2_)"/><path d="m336.838 214.886-41.914-41.914c-5.449-5.449-5.449-14.282 0-19.731l45.957-45.957 61.644 61.644-45.957 45.957c-5.447 5.45-14.281 5.45-19.73.001z" fill="url(#SVGID_3_)"/><path d="m228.732 322.992-41.914-41.914c-5.449-5.449-14.282-5.449-19.731 0l-45.957 45.957 61.644 61.644 45.957-45.957c5.45-5.448 5.45-14.281.001-19.73z" fill="url(#SVGID_4_)"/><path d="m340.882 107.285-23.856 23.856v63.932l19.813 19.813c5.448 5.448 14.282 5.448 19.731 0l45.957-45.957z" fill="url(#SVGID_5_)"/><g><path d="m457.061 196.587 42.322-42.322c6.952-6.952 10.425-16.069 10.425-25.178.007-9.116-3.473-18.226-10.425-25.178-3.829-3.829-9.281-5.486-14.616-4.576-8.26 1.411-17.062-1.075-23.439-7.452l-43.398-43.398c-6.377-6.377-8.863-15.178-7.452-23.439.459-2.664.267-5.363-.507-7.877-.781-2.507-2.151-4.822-4.069-6.74-13.904-13.904-36.452-13.904-50.357 0l-42.321 42.323c-20.98 20.98-20.973 54.987 0 75.96l67.877 67.877c20.973 20.973 54.98 20.98 75.96 0zm-27.418-27.418c-5.822 5.822-15.302 5.822-21.13-.007l-67.863-67.864c-5.829-5.829-5.829-15.308-.007-21.13l26.431-26.431c2.964-2.964 7.999-2.029 9.659 1.82 3.243 7.519 7.886 14.451 13.78 20.344l43.398 43.398c5.894 5.894 12.826 10.537 20.344 13.78 3.849 1.66 4.783 6.695 1.82 9.659z" fill="url(#SVGID_6_)"/><path d="m443.348 182.875 42.322-42.322c2.283-2.283 3.743-5.084 4.377-8.028 1.461-6.776-3.749-13.295-10.68-13.43-11.821-.231-23.254-5.002-31.753-13.501l-43.398-43.398c-8.499-8.499-13.27-19.932-13.501-31.753-.135-6.93-6.654-12.141-13.43-10.68-2.944.635-5.745 2.094-8.028 4.377l-42.322 42.322c-13.384 13.384-13.391 35.158 0 48.548l67.864 67.864c13.391 13.391 35.166 13.384 48.549.001zm-13.705-13.706c-5.822 5.822-15.302 5.822-21.13-.007l-67.863-67.864c-5.829-5.829-5.829-15.308-.007-21.13l26.431-26.431c2.964-2.964 7.999-2.029 9.659 1.82 3.243 7.519 7.886 14.451 13.78 20.344l43.398 43.398c5.894 5.894 12.826 10.537 20.344 13.78 3.849 1.66 4.783 6.695 1.82 9.659z" fill="url(#SVGID_7_)"/></g><path d="m2.712 444.572c-4.709-29.652-2.793-59.786 5.541-87.145s23.184-52.265 42.946-72.026l28.352-28.352c3.438-3.438 9.498-3.195 13.528.471 17.626 16.033 37.961 28.637 59.591 37.079 24.913 9.723 53.201 38.011 62.924 62.924 8.442 21.63 21.046 41.966 37.08 59.592 3.666 4.03 3.909 10.088.471 13.526l-28.351 28.351c-19.762 19.762-44.668 34.612-72.027 42.947-27.359 8.334-57.494 10.251-87.145 5.542-29.859-4.743-58.168-33.052-62.91-62.909z" fill="url(#SVGID_8_)"/><path d="m225.182 429.151c3.385-3.385 3.632-8.865.616-12.239-13.19-14.758-23.059-32.24-29.051-51.219-6.902-21.864-30.385-45.346-52.249-52.248-18.978-5.991-36.46-15.86-51.218-29.05-3.374-3.016-8.855-2.769-12.241.617l-27.917 27.918c-9.816 9.816-18.595 20.725-26.129 32.394-3.324 5.149-6.093 10.647-8.139 16.425-.01.028-.02.057-.03.085-9.32 26.373-12.698 55.044-9.77 82.916-1.594 29.161 20.959 54.376 50.117 56.032l6.272.356c27.871 2.928 56.543-.45 82.916-9.771.029-.01.057-.02.086-.03 5.777-2.045 11.275-4.814 16.423-8.138 11.671-7.535 22.58-16.315 32.396-26.131z" fill="url(#SVGID_9_)"/><path d="m230.378 427.655c-14.806-16.374-26.257-35.438-33.692-55.86-4.307-11.831-13.08-24.34-23.728-34.942l-148.397 148.398c11.43 11.501 26.048 19.845 41.06 22.23 29.652 4.709 59.786 2.793 87.145-5.542 2.955-.9 5.876-1.891 8.771-2.942 15.072-8.18 28.941-18.474 40.979-30.513l27.918-27.918c3.385-3.385 3.329-9.167-.056-12.911z" fill="url(#SVGID_10_)"/></g></svg>