<svg id="Capa_1" enable-background="new 0 0 510 510" height="512" viewBox="0 0 510 510" width="512" xmlns="http://www.w3.org/2000/svg" xmlns:xlink="http://www.w3.org/1999/xlink"><linearGradient id="lg1"><stop offset="0" stop-color="#ffdecf"/><stop offset="1" stop-color="#faa68e"/></linearGradient><linearGradient id="SVGID_1_" gradientTransform="matrix(.707 .707 -.707 .707 -61.274 693.595)" gradientUnits="userSpaceOnUse" x1="-179.072" x2="-110.909" xlink:href="#lg1" y1="-322.066" y2="-322.066"/><linearGradient id="lg2"><stop offset="0" stop-color="#faa68e" stop-opacity="0"/><stop offset="1" stop-color="#d07972"/></linearGradient><linearGradient id="SVGID_2_" gradientTransform="matrix(.707 .707 -.707 .707 -61.274 693.595)" gradientUnits="userSpaceOnUse" x1="-121.043" x2="-162.167" xlink:href="#lg2" y1="-319.561" y2="-407.503"/><linearGradient id="SVGID_3_" gradientTransform="matrix(.707 .707 -.707 .707 -61.274 693.595)" gradientUnits="userSpaceOnUse" x1="-50.013" x2="18.151" xlink:href="#lg1" y1="-322.066" y2="-322.066"/><linearGradient id="SVGID_4_" gradientTransform="matrix(.707 .707 -.707 .707 -61.274 693.595)" gradientUnits="userSpaceOnUse" x1="8.017" x2="-33.107" xlink:href="#lg2" y1="-319.561" y2="-407.503"/><linearGradient id="lg3"><stop offset="0" stop-color="#b9dd39"/><stop offset="1" stop-color="#90cc1c"/></linearGradient><linearGradient id="SVGID_5_" gradientTransform="matrix(.707 .707 -.707 .707 -61.274 693.595)" gradientUnits="userSpaceOnUse" x1="-215.554" x2="-86.494" xlink:href="#lg3" y1="-582.844" y2="-582.844"/><linearGradient id="SVGID_6_" gradientTransform="matrix(-.707 -.707 -.707 .707 -1360.763 -605.894)" gradientUnits="userSpaceOnUse" x1="-1715.393" x2="-1658.07" xlink:href="#lg3" y1="-582.844" y2="-582.844"/><linearGradient id="lg4"><stop offset="0" stop-color="#6b0" stop-opacity="0"/><stop offset="1" stop-color="#6b0"/></linearGradient><linearGradient id="SVGID_7_" gradientTransform="matrix(.707 .707 -.707 .707 -61.274 693.595)" gradientUnits="userSpaceOnUse" x1="-151.024" x2="-151.024" xlink:href="#lg4" y1="-442.801" y2="-378.685"/><linearGradient id="SVGID_8_" gradientTransform="matrix(.707 .707 -.707 .707 -61.274 693.595)" gradientUnits="userSpaceOnUse" x1="-86.494" x2="42.565" xlink:href="#lg3" y1="-582.844" y2="-582.844"/><linearGradient id="SVGID_9_" gradientTransform="matrix(-.707 -.707 -.707 .707 -1360.763 -605.894)" gradientUnits="userSpaceOnUse" x1="-1844.452" x2="-1787.129" xlink:href="#lg3" y1="-582.844" y2="-582.844"/><linearGradient id="SVGID_10_" gradientTransform="matrix(.707 .707 -.707 .707 -61.274 693.595)" gradientUnits="userSpaceOnUse" x1="-21.964" x2="-21.964" xlink:href="#lg4" y1="-442.801" y2="-378.685"/><linearGradient id="SVGID_11_" gradientUnits="userSpaceOnUse" x1="450.271" x2="450.271" xlink:href="#lg4" y1="294.25" y2="194.329"/><linearGradient id="SVGID_12_" gradientUnits="userSpaceOnUse" x1="433.713" x2="510.379" xlink:href="#lg3" y1="165.105" y2="209.772"/><linearGradient id="SVGID_13_" gradientUnits="userSpaceOnUse" x1="476.926" x2="391.176" xlink:href="#lg4" y1="187.142" y2="238.642"/><linearGradient id="SVGID_14_" gradientUnits="userSpaceOnUse" x1="488.057" x2="445.807" xlink:href="#lg4" y1="194.662" y2="204.412"/><g><g><path d="m8.895 409.846c-11.86-11.86-11.86-31.088 0-42.947l80.079-80.079 42.947 42.947-80.079 80.079c-11.859 11.86-31.088 11.86-42.947 0z" fill="url(#SVGID_1_)"/><path d="m74.548 301.245v85.895l57.373-57.373-42.947-42.947z" fill="url(#SVGID_2_)"/></g><g><path d="m100.154 501.105c-11.86-11.86-11.86-31.088 0-42.947l80.079-80.079 42.947 42.947-80.079 80.079c-11.86 11.86-31.088 11.86-42.947 0z" fill="url(#SVGID_3_)"/><path d="m165.807 392.504v85.895l57.373-57.373-42.947-42.947z" fill="url(#SVGID_4_)"/></g><g><path d="m106.72 335.256-23.234-23.234c-18.785-18.784-18.785-49.24 0-68.025l229.908-229.909c18.784-18.785 49.24-18.785 68.025 0l23.234 23.234c18.785 18.785 18.785 49.24 0 68.025l-229.909 229.909c-18.784 18.784-49.24 18.784-68.024 0z" fill="url(#SVGID_5_)"/><path d="m122.077 296.664c11.193 11.193 29.34 11.193 40.533 0l203.45-203.45c11.193-11.193 11.193-29.34 0-40.533-11.193-11.193-29.34-11.193-40.533 0l-203.45 203.45c-11.193 11.192-11.193 29.34 0 40.533z" fill="url(#SVGID_6_)"/><path d="m114.924 212.559-31.438 31.438c-18.784 18.785-18.785 49.24 0 68.025l23.234 23.234c18.784 18.784 49.24 18.784 68.025 0l31.438-31.438z" fill="url(#SVGID_7_)"/></g><g><path d="m197.979 426.514-23.234-23.234c-18.785-18.784-18.785-49.24 0-68.025l229.908-229.908c18.785-18.785 49.24-18.785 68.025 0l23.234 23.234c18.784 18.785 18.784 49.24 0 68.025l-229.909 229.908c-18.784 18.785-49.24 18.785-68.024 0z" fill="url(#SVGID_8_)"/><path d="m213.336 387.923c11.193 11.193 29.34 11.193 40.533 0l203.45-203.45c11.193-11.193 11.193-29.34 0-40.533-11.193-11.193-29.34-11.193-40.533 0l-203.45 203.45c-11.193 11.192-11.193 29.34 0 40.533z" fill="url(#SVGID_9_)"/><path d="m206.182 303.818-31.438 31.438c-18.785 18.784-18.785 49.24 0 68.025l23.234 23.234c18.784 18.784 49.24 18.784 68.025 0l31.438-31.438z" fill="url(#SVGID_10_)"/></g><path d="m482.493 210.025h-57.993-6.45v64.443z" fill="url(#SVGID_11_)"/><path d="m510 162.6v101.9c0 4.6-1.86 8.76-4.88 11.78-3.04 3.04-7.235 4.905-11.882 4.88-9.234-.05-16.568-7.844-16.568-17.077v-38.173c0-2.83-.93-5.45-2.5-7.56-.37-.49-.77-.96-1.2-1.39-2.281-2.281-5.425-3.699-8.909-3.71-6.982-.022-12.691 6.043-12.691 13.025v3.635c0 4.61-1.87 8.77-4.88 11.78-3.01 3.02-7.18 4.88-11.78 4.88-9.2 0-16.66-7.45-16.66-16.66v-101.975c0-27.69 33.121-42.665 53.382-23.79.421.393.838.794 1.248 1.205l23.23 23.23c9.39 9.4 14.09 21.7 14.09 34.02z" fill="url(#SVGID_12_)"/><path d="m472.68 105.35c-.411-.411-.827-.812-1.248-1.205-5.927-5.522-12.955-8.128-19.932-8.385v128.796c.844-6.228 6.161-11.327 12.561-11.307 3.484.011 6.628 1.429 8.909 3.71.43.43.83.9 1.2 1.39 1.57 2.11 2.5 4.73 2.5 7.56v38.172c0 9.234 7.334 17.028 16.568 17.077 4.647.025 8.842-1.84 11.882-4.88 3.02-3.02 4.88-7.18 4.88-11.78v-101.898c0-12.32-4.7-24.62-14.09-34.02z" fill="url(#SVGID_13_)"/><path d="m476.5 109.17v114.661c.112.677.17 1.371.17 2.079v38.172c0 9.234 7.334 17.028 16.568 17.077 4.647.025 8.842-1.84 11.882-4.88 3.02-3.02 4.88-7.18 4.88-11.78v-101.899c0-12.32-4.7-24.62-14.09-34.02z" fill="url(#SVGID_14_)"/></g></svg>