<svg id="Capa_1" enable-background="new 0 0 510 510" height="512" viewBox="0 0 510 510" width="512" xmlns="http://www.w3.org/2000/svg" xmlns:xlink="http://www.w3.org/1999/xlink"><linearGradient id="lg1"><stop offset="0" stop-color="#ffda2d"/><stop offset="1" stop-color="#fdbf00"/></linearGradient><linearGradient id="SVGID_1_" gradientUnits="userSpaceOnUse" x1="197.132" x2="355.863" xlink:href="#lg1" y1="197.132" y2="355.863"/><linearGradient id="SVGID_2_" gradientUnits="userSpaceOnUse" x1="213.687" x2="503.798" y1="192.52" y2="631.274"><stop offset="0" stop-color="#ff9100" stop-opacity="0"/><stop offset="1" stop-color="#ff9100"/></linearGradient><linearGradient id="SVGID_3_" gradientUnits="userSpaceOnUse" x1="279.492" x2="48.839" y1="289.506" y2="-35.459"><stop offset="0" stop-color="#fff" stop-opacity="0"/><stop offset="1" stop-color="#fff"/></linearGradient><linearGradient id="SVGID_4_" gradientUnits="userSpaceOnUse" x1="245.311" x2="271.888" xlink:href="#lg1" y1="27.728" y2="54.305"/><linearGradient id="SVGID_5_" gradientUnits="userSpaceOnUse" x1="245.311" x2="271.888" xlink:href="#lg1" y1="462.894" y2="489.471"/><linearGradient id="SVGID_6_" gradientTransform="matrix(0 1 -1 0 510 0)" gradientUnits="userSpaceOnUse" x1="245.311" x2="271.888" xlink:href="#lg1" y1="27.728" y2="54.305"/><linearGradient id="SVGID_7_" gradientTransform="matrix(0 1 -1 0 510 0)" gradientUnits="userSpaceOnUse" x1="245.311" x2="271.888" xlink:href="#lg1" y1="462.894" y2="489.471"/><linearGradient id="SVGID_8_" gradientTransform="matrix(.707 .707 -.707 .707 255 -105.625)" gradientUnits="userSpaceOnUse" x1="245.311" x2="271.888" xlink:href="#lg1" y1="27.728" y2="54.305"/><linearGradient id="SVGID_9_" gradientTransform="matrix(.707 .707 -.707 .707 255 -105.625)" gradientUnits="userSpaceOnUse" x1="245.311" x2="271.888" xlink:href="#lg1" y1="462.894" y2="489.471"/><linearGradient id="SVGID_10_" gradientTransform="matrix(-.707 .707 -.707 -.707 615.625 255)" gradientUnits="userSpaceOnUse" x1="245.311" x2="271.888" xlink:href="#lg1" y1="27.728" y2="54.305"/><linearGradient id="SVGID_11_" gradientTransform="matrix(-.707 .707 -.707 -.707 615.625 255)" gradientUnits="userSpaceOnUse" x1="245.311" x2="271.888" xlink:href="#lg1" y1="462.894" y2="489.471"/><linearGradient id="lg2"><stop offset="0" stop-color="#ff9100"/><stop offset="1" stop-color="#e63950"/></linearGradient><linearGradient id="SVGID_12_" gradientTransform="matrix(.921 -.39 .39 .921 -79.197 119.492)" gradientUnits="userSpaceOnUse" x1="254.231" x2="274.379" xlink:href="#lg2" y1="42.799" y2="62.947"/><linearGradient id="SVGID_13_" gradientTransform="matrix(.921 -.39 .39 .921 -79.197 119.492)" gradientUnits="userSpaceOnUse" x1="254.231" x2="274.379" xlink:href="#lg2" y1="465.663" y2="485.811"/><linearGradient id="SVGID_14_" gradientTransform="matrix(.39 .921 -.921 .39 390.508 -79.197)" gradientUnits="userSpaceOnUse" x1="254.231" x2="274.379" xlink:href="#lg2" y1="42.799" y2="62.947"/><linearGradient id="SVGID_15_" gradientTransform="matrix(.39 .921 -.921 .39 390.508 -79.197)" gradientUnits="userSpaceOnUse" x1="254.231" x2="274.379" xlink:href="#lg2" y1="465.663" y2="485.811"/><linearGradient id="SVGID_16_" gradientTransform="matrix(.376 -.927 .927 .376 -77.132 395.494)" gradientUnits="userSpaceOnUse" x1="254.231" x2="274.379" xlink:href="#lg2" y1="42.799" y2="62.947"/><linearGradient id="SVGID_17_" gradientTransform="matrix(.376 -.927 .927 .376 -77.132 395.494)" gradientUnits="userSpaceOnUse" x1="254.231" x2="274.379" xlink:href="#lg2" y1="465.663" y2="485.811"/><linearGradient id="SVGID_18_" gradientTransform="matrix(.927 .376 -.376 .927 114.506 -77.132)" gradientUnits="userSpaceOnUse" x1="254.231" x2="274.379" xlink:href="#lg2" y1="42.799" y2="62.947"/><linearGradient id="SVGID_19_" gradientTransform="matrix(.927 .376 -.376 .927 114.506 -77.132)" gradientUnits="userSpaceOnUse" x1="254.231" x2="274.379" xlink:href="#lg2" y1="465.663" y2="485.811"/><g><circle cx="255" cy="255" fill="url(#SVGID_1_)" r="167.071"/><circle cx="255" cy="255" fill="url(#SVGID_2_)" r="121.405"/><circle cx="255" cy="255" fill="url(#SVGID_3_)" r="152.744"/><g><g><ellipse cx="255" cy="37.417" fill="url(#SVGID_4_)" rx="12.814" ry="37.417"/><ellipse cx="255" cy="472.583" fill="url(#SVGID_5_)" rx="12.814" ry="37.417"/></g><g><ellipse cx="472.583" cy="255" fill="url(#SVGID_6_)" rx="37.417" ry="12.814"/><ellipse cx="37.417" cy="255" fill="url(#SVGID_7_)" rx="37.417" ry="12.814"/></g></g><g><g><path d="m417.915 110.207c-14.612 14.612-30.515 22.401-35.519 17.397s2.785-20.907 17.397-35.519 30.515-22.401 35.519-17.397-2.784 20.906-17.397 35.519z" fill="url(#SVGID_8_)"/><path d="m110.207 417.915c-14.612 14.612-30.515 22.401-35.519 17.397s2.785-20.906 17.397-35.519c14.612-14.612 30.515-22.401 35.519-17.397 5.004 5.005-2.785 20.907-17.397 35.519z" fill="url(#SVGID_9_)"/></g><g><path d="m399.793 417.915c-14.612-14.612-22.401-30.515-17.397-35.519s20.906 2.785 35.519 17.397c14.612 14.612 22.401 30.515 17.397 35.519s-20.906-2.784-35.519-17.397z" fill="url(#SVGID_10_)"/><path d="m92.085 110.207c-14.613-14.613-22.401-30.515-17.397-35.519s20.907 2.785 35.519 17.397 22.401 30.515 17.397 35.519c-5.005 5.004-20.907-2.785-35.519-17.397z" fill="url(#SVGID_11_)"/></g></g><g><g><path d="m183.015 55.88c4.522 10.689 3.537 21.322-2.198 23.748-5.736 2.426-14.051-4.272-18.573-14.962-4.522-10.689-3.537-21.322 2.198-23.748s14.051 4.273 18.573 14.962z" fill="url(#SVGID_12_)"/><path d="m347.756 445.334c4.522 10.689 3.537 21.322-2.198 23.748-5.736 2.426-14.051-4.272-18.573-14.962-4.522-10.689-3.537-21.322 2.198-23.748 5.736-2.426 14.052 4.273 18.573 14.962z" fill="url(#SVGID_13_)"/></g><g><path d="m454.12 183.015c-10.689 4.522-21.322 3.537-23.748-2.198-2.426-5.736 4.272-14.051 14.962-18.573 10.689-4.522 21.322-3.537 23.748 2.198 2.426 5.736-4.273 14.051-14.962 18.573z" fill="url(#SVGID_14_)"/><path d="m64.666 347.756c-10.689 4.522-21.322 3.537-23.748-2.198s4.272-14.051 14.962-18.573c10.689-4.522 21.322-3.537 23.748 2.198 2.426 5.736-4.273 14.052-14.962 18.573z" fill="url(#SVGID_15_)"/></g><g><path d="m63.299 165.102c10.756 4.361 17.578 12.575 15.238 18.347-2.34 5.771-12.956 6.915-23.712 2.553-10.756-4.361-17.578-12.575-15.238-18.347s12.957-6.914 23.712-2.553z" fill="url(#SVGID_16_)"/><path d="m455.175 323.998c10.756 4.361 17.578 12.575 15.238 18.347-2.34 5.771-12.956 6.915-23.712 2.553s-17.578-12.575-15.238-18.347c2.34-5.771 12.956-6.914 23.712-2.553z" fill="url(#SVGID_17_)"/></g><g><path d="m344.898 63.299c-4.361 10.756-12.575 17.578-18.347 15.238-5.771-2.34-6.915-12.956-2.553-23.712 4.361-10.756 12.575-17.578 18.347-15.238 5.771 2.34 6.914 12.957 2.553 23.712z" fill="url(#SVGID_18_)"/><path d="m186.002 455.175c-4.361 10.756-12.575 17.578-18.347 15.238s-6.915-12.956-2.553-23.712 12.575-17.578 18.347-15.238c5.771 2.34 6.914 12.956 2.553 23.712z" fill="url(#SVGID_19_)"/></g></g></g></svg>