<svg id="Capa_1" enable-background="new 0 0 510 510" height="512" viewBox="0 0 510 510" width="512" xmlns="http://www.w3.org/2000/svg" xmlns:xlink="http://www.w3.org/1999/xlink"><linearGradient id="lg1"><stop offset="0" stop-color="#ffdecf"/><stop offset="1" stop-color="#faa68e"/></linearGradient><linearGradient id="SVGID_1_" gradientUnits="userSpaceOnUse" x1="248.218" x2="262.895" xlink:href="#lg1" y1="103.047" y2="174.902"/><linearGradient id="lg2"><stop offset="0" stop-color="#faa68e" stop-opacity="0"/><stop offset="1" stop-color="#d07972"/></linearGradient><linearGradient id="SVGID_2_" gradientUnits="userSpaceOnUse" x1="255" x2="255" xlink:href="#lg2" y1="162.75" y2="85.996"/><linearGradient id="SVGID_3_" gradientUnits="userSpaceOnUse" x1="248.045" x2="263.504" xlink:href="#lg1" y1="54.141" y2="129.828"/><linearGradient id="SVGID_4_" gradientUnits="userSpaceOnUse" x1="98.021" x2="110.688" y1="58.524" y2="76.191"><stop offset="0" stop-color="#b9dd39"/><stop offset="1" stop-color="#90cc1c"/></linearGradient><linearGradient id="lg3"><stop offset="0" stop-color="#edf5ff"/><stop offset="1" stop-color="#d5e8fe"/></linearGradient><linearGradient id="SVGID_5_" gradientUnits="userSpaceOnUse" x1="84.25" x2="98.579" xlink:href="#lg3" y1="90.25" y2="90.25"/><linearGradient id="SVGID_6_" gradientUnits="userSpaceOnUse" x1="428.688" x2="441.354" y1="58.524" y2="76.191"><stop offset="0" stop-color="#9b62cd"/><stop offset="1" stop-color="#833ac1"/></linearGradient><linearGradient id="SVGID_7_" gradientUnits="userSpaceOnUse" x1="414.917" x2="429.245" xlink:href="#lg3" y1="90.25" y2="90.25"/><linearGradient id="SVGID_8_" gradientUnits="userSpaceOnUse" x1="162.5" x2="329.593" xlink:href="#lg1" y1="212.25" y2="379.343"/><linearGradient id="SVGID_9_" gradientUnits="userSpaceOnUse" x1="177" x2="133.896" xlink:href="#lg2" y1="304.75" y2="304.75"/><linearGradient id="SVGID_10_" gradientUnits="userSpaceOnUse" x1="255" x2="255" xlink:href="#lg1" y1="164.417" y2="198.417"/><linearGradient id="SVGID_11_" gradientUnits="userSpaceOnUse" x1="11.131" x2="144.131" xlink:href="#lg1" y1="262.298" y2="326.298"/><linearGradient id="SVGID_12_" gradientUnits="userSpaceOnUse" x1="90" x2="90" xlink:href="#lg2" y1="259.417" y2="147.29"/><linearGradient id="SVGID_13_" gradientUnits="userSpaceOnUse" x1="62.738" x2="109.988" xlink:href="#lg1" y1="116.624" y2="181.624"/><linearGradient id="SVGID_14_" gradientUnits="userSpaceOnUse" x1="341.131" x2="474.131" xlink:href="#lg1" y1="262.298" y2="326.298"/><linearGradient id="SVGID_15_" gradientUnits="userSpaceOnUse" x1="420" x2="420" xlink:href="#lg2" y1="259.417" y2="147.29"/><linearGradient id="SVGID_16_" gradientUnits="userSpaceOnUse" x1="392.738" x2="439.988" xlink:href="#lg1" y1="116.624" y2="181.624"/><linearGradient id="SVGID_17_" gradientUnits="userSpaceOnUse" x1="255" x2="255" xlink:href="#lg2" y1="416.511" y2="257.168"/><linearGradient id="SVGID_18_" gradientUnits="userSpaceOnUse" x1="140.023" x2="255.469" xlink:href="#lg1" y1="343.535" y2="505.41"/><linearGradient id="SVGID_19_" gradientUnits="userSpaceOnUse" x1="303.656" x2="279.036" y1="361.039" y2="415.328"><stop offset="0" stop-color="#faa68e" stop-opacity="0"/><stop offset="1" stop-color="#faa68e"/></linearGradient><linearGradient id="SVGID_20_" gradientUnits="userSpaceOnUse" x1="362.161" x2="370.134" xlink:href="#lg1" y1="384.968" y2="443.896"/><linearGradient id="SVGID_21_" gradientUnits="userSpaceOnUse" x1="255" x2="255" xlink:href="#lg2" y1="451.429" y2="474.768"/><g><path d="m124.333 110.417h261.333v51.667h-261.333z" fill="url(#SVGID_1_)"/><path d="m124.333 110.417v7l44.667 44.666h216.667v-51.666z" fill="url(#SVGID_2_)"/><path d="m390.623 61.686h-13.413c-4.074 0-7.377 3.303-7.377 7.377v3.475c0 4.074-3.303 7.377-7.377 7.377-4.074 0-7.377-3.303-7.377-7.377v-3.475c0-4.074-3.303-7.377-7.377-7.377h-13.413c-4.074 0-7.377 3.303-7.377 7.377v3.475c0 4.074-3.303 7.377-7.377 7.377-4.074 0-7.377-3.303-7.377-7.377v-3.475c0-4.074-3.303-7.377-7.377-7.377h-.148-13.266-.148c-4.074 0-7.377 3.303-7.377 7.377v3.475c0 4.074-3.303 7.377-7.377 7.377-4.074 0-7.377-3.303-7.377-7.377v-3.475c0-4.074-3.303-7.377-7.377-7.377h-13.413c-4.074 0-7.377 3.303-7.377 7.377v3.475c0 4.074-3.303 7.377-7.377 7.377-4.074 0-7.377-3.303-7.377-7.377v-3.475c0-4.074-3.303-7.377-7.377-7.377h-.148-13.266-.148c-4.074 0-7.377 3.303-7.377 7.377v3.475c0 4.074-3.303 7.377-7.377 7.377-4.074 0-7.377-3.303-7.377-7.377v-3.475c0-4.074-3.303-7.377-7.377-7.377h-13.42c-4.074 0-7.377 3.303-7.377 7.377v3.475c0 4.074-3.303 7.377-7.377 7.377-4.074 0-7.377-3.303-7.377-7.377v-3.475c0-4.074-3.303-7.377-7.377-7.377h-13.413c-4.074 0-7.377 3.303-7.377 7.377v37.985c0 5.559 4.507 10.066 10.066 10.066h265.868c5.559 0 10.066-4.507 10.066-10.066v-37.985c-.002-4.074-3.305-7.377-7.379-7.377z" fill="url(#SVGID_3_)"/><g><path d="m92.933 40.5v53.25l37.577-21.859c3.655-2.126 3.655-7.406 0-9.532z" fill="url(#SVGID_4_)"/><path d="m97.75 147.75h-15.5v-107.25c0-4.28 3.47-7.75 7.75-7.75 4.28 0 7.75 3.47 7.75 7.75z" fill="url(#SVGID_5_)"/></g><g><path d="m423.599 40.5v53.25l37.577-21.859c3.655-2.126 3.655-7.406 0-9.532z" fill="url(#SVGID_6_)"/><path d="m428.417 147.75h-15.5v-107.25c0-4.28 3.47-7.75 7.75-7.75 4.28 0 7.75 3.47 7.75 7.75z" fill="url(#SVGID_7_)"/></g><path d="m119.5 182.75h271v244h-271z" fill="url(#SVGID_8_)"/><path d="m119.5 182.75h271v244h-271z" fill="url(#SVGID_9_)"/><path d="m119.5 158.005h271v39.255h-271z" fill="url(#SVGID_10_)"/><g><g><path d="m41.5 166.75h97v267h-97z" fill="url(#SVGID_11_)"/><path d="m41.5 183.832 97 97v-114.082h-97z" fill="url(#SVGID_12_)"/><path d="m141.365 126.383h-13.882c-4.217 0-7.635 3.418-7.635 7.635v3.596c0 4.217-3.418 7.635-7.635 7.635-4.217 0-7.635-3.418-7.635-7.635v-3.596c0-4.217-3.418-7.635-7.635-7.635h-13.884c-4.217 0-7.635 3.418-7.635 7.635v3.596c0 4.217-3.418 7.635-7.635 7.635-4.217 0-7.635-3.418-7.635-7.635v-3.596c0-4.217-3.418-7.635-7.635-7.635h-13.884c-4.217 0-7.635 3.418-7.635 7.635v39.314c0 5.754 4.664 10.418 10.418 10.418h97.164c5.754 0 10.418-4.664 10.418-10.418v-39.314c0-4.216-3.418-7.635-7.635-7.635z" fill="url(#SVGID_13_)"/></g><g><path d="m371.5 166.75h97v267h-97z" fill="url(#SVGID_14_)"/><path d="m371.5 183.832 97 97v-114.082h-97z" fill="url(#SVGID_15_)"/><path d="m471.365 126.383h-13.882c-4.217 0-7.635 3.418-7.635 7.635v3.596c0 4.217-3.418 7.635-7.635 7.635-4.217 0-7.635-3.418-7.635-7.635v-3.596c0-4.217-3.418-7.635-7.635-7.635h-13.882c-4.217 0-7.635 3.418-7.635 7.635v3.596c0 4.217-3.418 7.635-7.635 7.635-4.217 0-7.635-3.418-7.635-7.635v-3.596c0-4.217-3.418-7.635-7.635-7.635h-13.882c-4.217 0-7.635 3.418-7.635 7.635v39.314c0 5.754 4.664 10.418 10.418 10.418h97.164c5.754 0 10.418-4.664 10.418-10.418v-39.314c-.004-4.216-3.422-7.635-7.639-7.635z" fill="url(#SVGID_16_)"/></g></g><path d="m319.588 403.25h-129.176v-116.642c0-32.482 26.331-58.813 58.813-58.813h11.55c32.482 0 58.813 26.331 58.813 58.813z" fill="url(#SVGID_17_)"/><g><path d="m373.278 477.25h-322.65c-39.737 0-63.935-28.421-42.821-50.295l37.428-38.775c77.129-79.907 256.308-79.907 333.437 0l37.428 38.775c21.112 21.874-3.086 50.295-42.822 50.295z" fill="url(#SVGID_18_)"/><path d="m378.671 388.18c-45.868-47.52-127.821-66.768-202.943-57.767-15.339 1.838-26.36 10.654-26.36 20.789 0 11.696 14.592 21.177 32.592 21.177 35.233 0 69.022 9.094 93.936 25.282l118.121 76.752c26.547-7.72 39.189-29.736 22.083-47.458z" fill="url(#SVGID_19_)"/><path d="m476.892 477.25h-210.994c-25.986 0-41.81-20.75-28.003-36.721l24.476-28.31c50.438-58.34 167.611-58.34 218.049 0l24.475 28.31c13.807 15.971-2.017 36.721-28.003 36.721z" fill="url(#SVGID_20_)"/><path d="m485.733 418.365h-469.635l-8.291 8.59c-21.113 21.874 3.084 50.295 42.821 50.295h215.27 107.38 103.615c25.986 0 41.81-20.75 28.003-36.721z" fill="url(#SVGID_21_)"/></g></g></svg>