<svg id="Capa_1" enable-background="new 0 0 510 510" height="512" viewBox="0 0 510 510" width="512" xmlns="http://www.w3.org/2000/svg" xmlns:xlink="http://www.w3.org/1999/xlink"><linearGradient id="lg1"><stop offset="0" stop-color="#ffda2d"/><stop offset="1" stop-color="#fdbf00"/></linearGradient><linearGradient id="SVGID_1_" gradientUnits="userSpaceOnUse" x1="267.268" x2="348.813" xlink:href="#lg1" y1="101.272" y2="182.816"/><linearGradient id="lg2"><stop offset="0" stop-color="#ff9100" stop-opacity="0"/><stop offset="1" stop-color="#ff9100"/></linearGradient><linearGradient id="SVGID_2_" gradientUnits="userSpaceOnUse" x1="275.773" x2="424.811" xlink:href="#lg2" y1="98.902" y2="324.301"/><linearGradient id="lg3"><stop offset="0" stop-color="#fff" stop-opacity="0"/><stop offset="1" stop-color="#fff"/></linearGradient><linearGradient id="SVGID_3_" gradientUnits="userSpaceOnUse" x1="309.579" x2="191.086" xlink:href="#lg3" y1="148.727" y2="-18.216"/><linearGradient id="SVGID_4_" gradientUnits="userSpaceOnUse" x1="292.019" x2="305.673" xlink:href="#lg1" y1="14.245" y2="27.898"/><linearGradient id="SVGID_5_" gradientUnits="userSpaceOnUse" x1="292.019" x2="305.673" xlink:href="#lg1" y1="237.8" y2="251.454"/><linearGradient id="SVGID_6_" gradientTransform="matrix(0 1 -1 0 -554 1064)" gradientUnits="userSpaceOnUse" x1="-937.978" x2="-924.324" xlink:href="#lg1" y1="-967.752" y2="-954.099"/><linearGradient id="SVGID_7_" gradientTransform="matrix(0 1 -1 0 -554 1064)" gradientUnits="userSpaceOnUse" x1="-937.978" x2="-924.324" xlink:href="#lg1" y1="-744.197" y2="-730.543"/><linearGradient id="SVGID_8_" gradientTransform="matrix(.707 .707 -.707 .707 -56.638 646.737)" gradientUnits="userSpaceOnUse" x1="-119.601" x2="-105.948" xlink:href="#lg1" y1="-731.495" y2="-717.841"/><linearGradient id="SVGID_9_" gradientTransform="matrix(.707 .707 -.707 .707 -56.638 646.737)" gradientUnits="userSpaceOnUse" x1="-119.601" x2="-105.948" xlink:href="#lg1" y1="-507.939" y2="-494.285"/><linearGradient id="SVGID_10_" gradientTransform="matrix(-.707 .707 -.707 -.707 -1200.737 1007.362)" gradientUnits="userSpaceOnUse" x1="-1683.717" x2="-1670.063" xlink:href="#lg1" y1="-556.132" y2="-542.479"/><linearGradient id="SVGID_11_" gradientTransform="matrix(-.707 .707 -.707 -.707 -1200.737 1007.362)" gradientUnits="userSpaceOnUse" x1="-1683.717" x2="-1670.063" xlink:href="#lg1" y1="-332.576" y2="-318.923"/><linearGradient id="lg4"><stop offset="0" stop-color="#ff9100"/><stop offset="1" stop-color="#e63950"/></linearGradient><linearGradient id="SVGID_12_" gradientTransform="matrix(.921 -.39 .39 .921 -163.263 -295.027)" gradientUnits="userSpaceOnUse" x1="257.526" x2="267.876" xlink:href="#lg4" y1="462.664" y2="473.015"/><linearGradient id="SVGID_13_" gradientTransform="matrix(.921 -.39 .39 .921 -163.263 -295.027)" gradientUnits="userSpaceOnUse" x1="257.526" x2="267.876" xlink:href="#lg4" y1="679.901" y2="690.251"/><linearGradient id="SVGID_14_" gradientTransform="matrix(.39 .921 -.921 .39 -258.973 900.737)" gradientUnits="userSpaceOnUse" x1="-492.718" x2="-482.367" xlink:href="#lg4" y1="-920.934" y2="-910.584"/><linearGradient id="SVGID_15_" gradientTransform="matrix(.39 .921 -.921 .39 -258.973 900.737)" gradientUnits="userSpaceOnUse" x1="-492.718" x2="-482.367" xlink:href="#lg4" y1="-703.698" y2="-693.347"/><linearGradient id="SVGID_16_" gradientTransform="matrix(.376 -.927 .927 .376 -741.323 -590.533)" gradientUnits="userSpaceOnUse" x1="-278.893" x2="-268.542" xlink:href="#lg4" y1="1124.339" y2="1134.689"/><linearGradient id="SVGID_17_" gradientTransform="matrix(.376 -.927 .927 .376 -741.323 -590.533)" gradientUnits="userSpaceOnUse" x1="-278.893" x2="-268.542" xlink:href="#lg4" y1="1341.575" y2="1351.925"/><linearGradient id="SVGID_18_" gradientTransform="matrix(.927 .376 -.376 .927 36.533 322.677)" gradientUnits="userSpaceOnUse" x1="168.957" x2="179.307" xlink:href="#lg4" y1="-384.515" y2="-374.165"/><linearGradient id="SVGID_19_" gradientTransform="matrix(.927 .376 -.376 .927 36.533 322.677)" gradientUnits="userSpaceOnUse" x1="168.957" x2="179.307" xlink:href="#lg4" y1="-167.279" y2="-156.929"/><linearGradient id="SVGID_20_" gradientUnits="userSpaceOnUse" x1="325.997" x2="250.89" xlink:href="#lg2" y1="133.176" y2="133.176"/><linearGradient id="SVGID_21_" gradientUnits="userSpaceOnUse" x1="122.464" x2="320.464" y1="206.306" y2="325.306"><stop offset="0" stop-color="#edf5ff"/><stop offset="1" stop-color="#d5e8fe"/></linearGradient><linearGradient id="SVGID_22_" gradientUnits="userSpaceOnUse" x1="169.09" x2="291.09" y1="245.621" y2="275.621"><stop offset="0" stop-color="#ff637b"/><stop offset="1" stop-color="#e63950"/></linearGradient><linearGradient id="SVGID_23_" gradientTransform="matrix(0 -1 1 0 -122.78 632.78)" gradientUnits="userSpaceOnUse" x1="274.081" x2="94.383" xlink:href="#lg3" y1="363.66" y2="110.485"/><linearGradient id="SVGID_24_" gradientUnits="userSpaceOnUse" x1="206.069" x2="235.276" y1="361.742" y2="463.237"><stop offset="0" stop-color="#ff9100" stop-opacity="0"/><stop offset=".1948" stop-color="#fc860a" stop-opacity=".195"/><stop offset=".5332" stop-color="#f46a23" stop-opacity=".533"/><stop offset=".9723" stop-color="#e73c4d" stop-opacity=".972"/><stop offset="1" stop-color="#e63950"/></linearGradient><linearGradient id="lg5"><stop offset="0" stop-color="#ffda2d" stop-opacity="0"/><stop offset="1" stop-color="#fbed21"/></linearGradient><linearGradient id="SVGID_25_" gradientUnits="userSpaceOnUse" x1="179.93" x2="294.597" xlink:href="#lg5" y1="325.155" y2="521.155"/><linearGradient id="SVGID_26_" gradientUnits="userSpaceOnUse" x1="199.64" x2="147.64" xlink:href="#lg5" y1="388.149" y2="327.149"/><linearGradient id="SVGID_27_" gradientUnits="userSpaceOnUse" x1="214.051" x2="214.051" y1="394.667" y2="487.355"><stop offset="0" stop-color="#e63950" stop-opacity="0"/><stop offset=".0467" stop-color="#e4354b" stop-opacity=".047"/><stop offset=".4669" stop-color="#d31822" stop-opacity=".467"/><stop offset=".7991" stop-color="#c90709" stop-opacity=".799"/><stop offset="1" stop-color="#c50000"/></linearGradient><linearGradient id="SVGID_28_" gradientUnits="userSpaceOnUse" x1="213.997" x2="213.997" y1="385.624" y2="586.619"><stop offset="0" stop-color="#e63950" stop-opacity="0"/><stop offset=".2738" stop-color="#df2c3e" stop-opacity=".274"/><stop offset=".818" stop-color="#cc0c11" stop-opacity=".818"/><stop offset="1" stop-color="#c50000"/></linearGradient><g><g><circle cx="296.997" cy="131" fill="url(#SVGID_1_)" r="85.829"/><circle cx="296.997" cy="131" fill="url(#SVGID_2_)" r="62.369"/><circle cx="296.997" cy="131" fill="url(#SVGID_3_)" r="78.468"/><g><g><ellipse cx="296.997" cy="19.222" fill="url(#SVGID_4_)" rx="6.583" ry="19.222"/><ellipse cx="296.997" cy="242.778" fill="url(#SVGID_5_)" rx="6.583" ry="19.222"/></g><g><ellipse cx="408.775" cy="131" fill="url(#SVGID_6_)" rx="19.222" ry="6.583"/><ellipse cx="185.219" cy="131" fill="url(#SVGID_7_)" rx="19.222" ry="6.583"/></g></g><g><g><path d="m380.69 56.616c-7.507 7.507-15.676 11.508-18.247 8.937s1.431-10.74 8.937-18.247c7.507-7.507 15.676-11.508 18.247-8.937s-1.43 10.74-8.937 18.247z" fill="url(#SVGID_8_)"/><path d="m222.613 214.694c-7.507 7.507-15.676 11.508-18.247 8.937s1.431-10.74 8.937-18.247c7.507-7.507 15.676-11.508 18.247-8.937s-1.431 10.74-8.937 18.247z" fill="url(#SVGID_9_)"/></g><g><path d="m371.381 214.694c-7.507-7.507-11.508-15.676-8.937-18.247s10.74 1.431 18.247 8.937c7.507 7.507 11.508 15.676 8.937 18.247s-10.741-1.431-18.247-8.937z" fill="url(#SVGID_10_)"/><path d="m213.303 56.616c-7.507-7.507-11.508-15.676-8.937-18.247s10.74 1.431 18.247 8.937c7.507 7.507 11.508 15.676 8.937 18.247s-10.74-1.43-18.247-8.937z" fill="url(#SVGID_11_)"/></g></g><g><g><path d="m260.016 28.707c2.323 5.491 1.817 10.953-1.129 12.2-2.947 1.246-7.218-2.195-9.541-7.686s-1.817-10.953 1.129-12.2 7.218 2.195 9.541 7.686z" fill="url(#SVGID_12_)"/><path d="m344.648 228.779c2.323 5.491 1.817 10.953-1.129 12.2-2.947 1.246-7.218-2.195-9.541-7.686s-1.817-10.953 1.129-12.2 7.218 2.195 9.541 7.686z" fill="url(#SVGID_13_)"/></g><g><path d="m399.29 94.019c-5.491 2.323-10.953 1.817-12.2-1.129s2.195-7.218 7.686-9.541 10.953-1.817 12.2 1.129-2.195 7.218-7.686 9.541z" fill="url(#SVGID_14_)"/><path d="m199.217 178.651c-5.491 2.323-10.953 1.817-12.2-1.129-1.246-2.947 2.195-7.218 7.686-9.541s10.953-1.817 12.2 1.129c1.247 2.947-2.194 7.218-7.686 9.541z" fill="url(#SVGID_15_)"/></g><g><path d="m198.515 84.817c5.526 2.24 9.03 6.46 7.828 9.425s-6.656 3.552-12.182 1.312c-5.525-2.24-9.03-6.46-7.828-9.425s6.657-3.552 12.182-1.312z" fill="url(#SVGID_16_)"/><path d="m399.832 166.446c5.526 2.24 9.03 6.46 7.828 9.425s-6.656 3.552-12.182 1.312-9.03-6.46-7.828-9.425 6.656-3.553 12.182-1.312z" fill="url(#SVGID_17_)"/></g><g><path d="m343.179 32.519c-2.24 5.526-6.46 9.03-9.425 7.828s-3.552-6.656-1.312-12.182 6.46-9.03 9.425-7.828c2.966 1.202 3.553 6.656 1.312 12.182z" fill="url(#SVGID_18_)"/><path d="m261.551 233.835c-2.24 5.526-6.46 9.03-9.425 7.828s-3.552-6.656-1.312-12.182c2.24-5.525 6.46-9.03 9.425-7.828s3.552 6.656 1.312 12.182z" fill="url(#SVGID_19_)"/></g></g></g><path d="m378.474 157.978-108.455-108.456c-34.18 11.312-58.851 43.504-58.851 81.478 0 47.402 38.427 85.829 85.829 85.829 37.973 0 70.165-24.671 81.477-58.851z" fill="url(#SVGID_20_)"/><path d="m288.775 269.234c-12.145-8.364-19.281-22.268-19.281-37.014v-176.723c0-30.65-24.847-55.497-55.497-55.497-30.65 0-55.497 24.847-55.497 55.497v176.724c0 14.888-7.375 28.76-19.611 37.241-35.545 24.639-58.407 66.282-56.806 113.166 2.404 70.402 60.518 126.87 130.96 127.368 73.336.519 132.948-58.774 132.948-131.99-.001-45.134-22.658-84.971-57.216-108.772z" fill="url(#SVGID_21_)"/><path d="m239.997 259.781v-200.24c0-14.167-11.108-26.142-25.269-26.531-14.693-.403-26.731 11.388-26.731 25.99v200.786c0 11.987-6.891 22.87-17.675 28.105-34.063 16.538-57.342 51.815-56.424 92.432 1.232 54.51 46.609 98.352 101.13 97.802 54.823-.553 99.094-45.166 99.094-100.12 0-39.556-22.94-73.749-56.241-90.013-10.848-5.296-17.884-16.138-17.884-28.211z" fill="url(#SVGID_22_)"/><circle cx="213.997" cy="377.78" fill="url(#SVGID_23_)" r="119"/><g fill="#fff"><path d="m252.683 228h-25.744c-4.96 0-8.981-4.021-8.981-8.981 0-4.96 4.021-8.981 8.981-8.981h25.744c4.96 0 8.981 4.021 8.981 8.981-.001 4.96-4.021 8.981-8.981 8.981z"/><path d="m252.683 180.001h-25.744c-4.96 0-8.981-4.021-8.981-8.981 0-4.96 4.021-8.981 8.981-8.981h25.744c4.96 0 8.981 4.021 8.981 8.981-.001 4.96-4.021 8.981-8.981 8.981z"/><path d="m252.683 132.001h-25.744c-4.96 0-8.981-4.021-8.981-8.981 0-4.96 4.021-8.981 8.981-8.981h25.744c4.96 0 8.981 4.021 8.981 8.981-.001 4.961-4.021 8.981-8.981 8.981z"/><path d="m252.683 84.002h-25.744c-4.96 0-8.981-4.021-8.981-8.981 0-4.96 4.021-8.981 8.981-8.981h25.744c4.96 0 8.981 4.021 8.981 8.981-.001 4.96-4.021 8.981-8.981 8.981z"/></g><g><path d="m266.521 304.931c-1.491 1.985-3.359 4.659-5.374 7.984-.985 1.625-3.691 1.695-4.786.122-12.285-17.641-26.994-30.157-42.804-30.157-25.189 0-47.585 22.195-61.831 55.853-1.932 4.564-9.637 4.538-11.41-.072-.027-.07-.054-.141-.08-.211-.756-2.019-4.186-1.921-4.836.124-5.888 18.528-16 73.635 12.114 108.562 13.783 18.613 38.2 30.996 66.043 30.996 22.187 0 42.193-7.871 56.386-20.481 6.411-6.546 29.359-24.925 29.359-64.87 0-51.578-27.067-65.531-29.291-87.141-.16-1.53-2.518-2.004-3.49-.709z" fill="url(#SVGID_24_)"/><path d="m161.473 304.931c1.491 1.985 3.359 4.659 5.374 7.984.985 1.625 3.691 1.695 4.786.122 12.285-17.641 26.994-30.157 42.804-30.157 25.189 0 47.585 22.195 61.831 55.853 1.932 4.564 9.637 4.538 11.41-.072.027-.07.054-.141.08-.211.756-2.019 4.186-1.921 4.836.124 5.888 18.528 16 73.635-12.114 108.562-13.783 18.613-38.2 30.996-66.043 30.996-22.187 0-42.193-7.871-56.386-20.481-6.411-6.546-29.359-24.925-29.359-64.87 0-51.578 27.067-65.531 29.291-87.141.159-1.53 2.518-2.004 3.49-.709z" fill="url(#SVGID_25_)"/><path d="m271.925 418.949c0 27.087-25.911 49.046-57.875 49.046s-57.875-21.959-57.875-49.046 25.911-95.955 57.875-95.955 57.875 68.867 57.875 95.955z" fill="url(#SVGID_26_)"/><path d="m256.088 432.37c0 19.675-18.821 35.625-42.038 35.625s-42.038-15.95-42.038-35.625 18.821-69.697 42.038-69.697c23.218-.001 42.038 50.022 42.038 69.697z" fill="url(#SVGID_27_)"/></g><path d="m82.082 382.628c2.404 70.402 60.518 126.87 130.96 127.368 73.336.519 132.948-58.774 132.948-131.99 0-11.519-1.484-22.69-4.257-33.34h-255.481c-3.141 12.069-4.619 24.809-4.17 37.962z" fill="url(#SVGID_28_)"/></g></svg>