<svg id="Capa_1" enable-background="new 0 0 510 510" height="512" viewBox="0 0 510 510" width="512" xmlns="http://www.w3.org/2000/svg" xmlns:xlink="http://www.w3.org/1999/xlink"><linearGradient id="lg1"><stop offset="0" stop-color="#ff637b"/><stop offset="1" stop-color="#e63950"/></linearGradient><linearGradient id="SVGID_1_" gradientUnits="userSpaceOnUse" x1="104.693" x2="149.237" xlink:href="#lg1" y1="157.506" y2="229.165"/><linearGradient id="lg2"><stop offset="0" stop-color="#e63950" stop-opacity="0"/><stop offset=".0467" stop-color="#e4354b" stop-opacity=".047"/><stop offset=".4669" stop-color="#d31822" stop-opacity=".467"/><stop offset=".7991" stop-color="#c90709" stop-opacity=".799"/><stop offset="1" stop-color="#c50000"/></linearGradient><linearGradient id="SVGID_2_" gradientUnits="userSpaceOnUse" x1="267.446" x2="164.883" xlink:href="#lg2" y1="153.142" y2="245.593"/><linearGradient id="lg3"><stop offset="0" stop-color="#b9dd39"/><stop offset="1" stop-color="#90cc1c"/></linearGradient><linearGradient id="SVGID_3_" gradientUnits="userSpaceOnUse" x1="105.866" x2="151.056" xlink:href="#lg3" y1="216.558" y2="249.483"/><linearGradient id="lg4"><stop offset="0" stop-color="#6b0"/><stop offset="1" stop-color="#0b799d"/></linearGradient><linearGradient id="SVGID_4_" gradientUnits="userSpaceOnUse" x1="106.813" x2="157.167" xlink:href="#lg4" y1="205.662" y2="254.08"/><linearGradient id="lg5"><stop offset="0" stop-color="#07485e" stop-opacity="0"/><stop offset="1" stop-color="#03232e"/></linearGradient><linearGradient id="SVGID_5_" gradientUnits="userSpaceOnUse" x1="334.554" x2="234.159" xlink:href="#lg5" y1="263.413" y2="311.083"/><linearGradient id="SVGID_6_" gradientTransform="matrix(.988 .153 -.153 .988 55.163 -16.136)" gradientUnits="userSpaceOnUse" x1="123.521" x2="123.521" xlink:href="#lg2" y1="126.405" y2="105.444"/><linearGradient id="lg6"><stop offset="0" stop-color="#0b799d"/><stop offset="1" stop-color="#07485e"/></linearGradient><linearGradient id="SVGID_7_" gradientTransform="matrix(.988 .153 -.153 .988 55.163 -16.136)" gradientUnits="userSpaceOnUse" x1="115.461" x2="140.032" xlink:href="#lg6" y1="97.987" y2="116.416"/><linearGradient id="SVGID_8_" gradientTransform="matrix(.988 .153 -.153 .988 55.163 -16.136)" gradientUnits="userSpaceOnUse" x1="91.803" x2="91.803" xlink:href="#lg2" y1="184.23" y2="163.269"/><linearGradient id="SVGID_9_" gradientTransform="matrix(.988 .153 -.153 .988 55.163 -16.136)" gradientUnits="userSpaceOnUse" x1="83.743" x2="108.314" xlink:href="#lg6" y1="155.812" y2="174.24"/><linearGradient id="SVGID_10_" gradientTransform="matrix(.988 .153 -.153 .988 55.163 -16.136)" gradientUnits="userSpaceOnUse" x1="155.239" x2="155.239" xlink:href="#lg2" y1="184.23" y2="163.269"/><linearGradient id="SVGID_11_" gradientTransform="matrix(.988 .153 -.153 .988 55.163 -16.136)" gradientUnits="userSpaceOnUse" x1="147.179" x2="171.75" xlink:href="#lg6" y1="155.812" y2="174.24"/><linearGradient id="SVGID_12_" gradientTransform="matrix(.988 .153 -.153 .988 55.163 -16.136)" gradientUnits="userSpaceOnUse" x1="60.085" x2="60.085" xlink:href="#lg2" y1="239.645" y2="218.684"/><linearGradient id="SVGID_13_" gradientTransform="matrix(.988 .153 -.153 .988 55.163 -16.136)" gradientUnits="userSpaceOnUse" x1="52.025" x2="76.596" xlink:href="#lg6" y1="211.227" y2="229.656"/><linearGradient id="SVGID_14_" gradientTransform="matrix(.988 .153 -.153 .988 55.163 -16.136)" gradientUnits="userSpaceOnUse" x1="123.521" x2="123.521" xlink:href="#lg2" y1="253.296" y2="232.335"/><linearGradient id="SVGID_15_" gradientTransform="matrix(.988 .153 -.153 .988 55.163 -16.136)" gradientUnits="userSpaceOnUse" x1="115.461" x2="140.032" xlink:href="#lg6" y1="224.878" y2="243.307"/><linearGradient id="SVGID_16_" gradientTransform="matrix(.988 .153 -.153 .988 55.163 -16.136)" gradientUnits="userSpaceOnUse" x1="186.957" x2="186.957" xlink:href="#lg2" y1="239.645" y2="218.684"/><linearGradient id="SVGID_17_" gradientTransform="matrix(.988 .153 -.153 .988 55.163 -16.136)" gradientUnits="userSpaceOnUse" x1="178.897" x2="203.468" xlink:href="#lg6" y1="211.227" y2="229.656"/><linearGradient id="SVGID_18_" gradientUnits="userSpaceOnUse" x1="270.197" x2="320.155" xlink:href="#lg1" y1="237.036" y2="318.05"/><linearGradient id="SVGID_19_" gradientUnits="userSpaceOnUse" x1="346.482" x2="312.032" xlink:href="#lg2" y1="280.151" y2="304.469"/><linearGradient id="SVGID_20_" gradientUnits="userSpaceOnUse" x1="419.455" x2="316.893" xlink:href="#lg2" y1="208.981" y2="301.432"/><linearGradient id="SVGID_21_" gradientUnits="userSpaceOnUse" x1="297.652" x2="353.989" xlink:href="#lg3" y1="270.954" y2="377.128"/><linearGradient id="SVGID_22_" gradientUnits="userSpaceOnUse" x1="318.209" x2="351.433" xlink:href="#lg4" y1="301.802" y2="384.863"/><linearGradient id="SVGID_23_" gradientUnits="userSpaceOnUse" x1="359.289" x2="316.057" y1="300.036" y2="329.082"><stop offset="0" stop-color="#07485e" stop-opacity="0"/><stop offset=".1761" stop-color="#064053" stop-opacity=".176"/><stop offset=".6953" stop-color="#042b38" stop-opacity=".695"/><stop offset="1" stop-color="#03232e"/></linearGradient><linearGradient id="SVGID_24_" gradientUnits="userSpaceOnUse" x1="486.611" x2="386.215" xlink:href="#lg5" y1="319.304" y2="366.974"/><linearGradient id="SVGID_25_" gradientTransform="matrix(.988 .153 -.153 .988 55.163 -16.136)" gradientUnits="userSpaceOnUse" x1="282.323" x2="282.323" xlink:href="#lg2" y1="158.449" y2="137.488"/><linearGradient id="SVGID_26_" gradientTransform="matrix(.988 .153 -.153 .988 55.163 -16.136)" gradientUnits="userSpaceOnUse" x1="274.263" x2="298.835" xlink:href="#lg6" y1="130.031" y2="148.46"/><linearGradient id="SVGID_27_" gradientTransform="matrix(.988 .153 -.153 .988 55.163 -16.136)" gradientUnits="userSpaceOnUse" x1="250.605" x2="250.605" xlink:href="#lg2" y1="216.274" y2="195.313"/><linearGradient id="SVGID_28_" gradientTransform="matrix(.988 .153 -.153 .988 55.163 -16.136)" gradientUnits="userSpaceOnUse" x1="242.545" x2="267.117" xlink:href="#lg6" y1="187.856" y2="206.284"/><linearGradient id="SVGID_29_" gradientTransform="matrix(.988 .153 -.153 .988 55.163 -16.136)" gradientUnits="userSpaceOnUse" x1="314.041" x2="314.041" xlink:href="#lg2" y1="216.274" y2="195.313"/><linearGradient id="SVGID_30_" gradientTransform="matrix(.988 .153 -.153 .988 55.163 -16.136)" gradientUnits="userSpaceOnUse" x1="305.981" x2="330.553" xlink:href="#lg6" y1="187.856" y2="206.284"/><linearGradient id="SVGID_31_" gradientTransform="matrix(.988 .153 -.153 .988 55.163 -16.136)" gradientUnits="userSpaceOnUse" x1="218.887" x2="218.887" xlink:href="#lg2" y1="271.689" y2="250.728"/><linearGradient id="SVGID_32_" gradientTransform="matrix(.988 .153 -.153 .988 55.163 -16.136)" gradientUnits="userSpaceOnUse" x1="210.827" x2="235.399" xlink:href="#lg6" y1="243.271" y2="261.7"/><linearGradient id="SVGID_33_" gradientTransform="matrix(.988 .153 -.153 .988 55.163 -16.136)" gradientUnits="userSpaceOnUse" x1="282.323" x2="282.323" xlink:href="#lg2" y1="285.34" y2="264.379"/><linearGradient id="SVGID_34_" gradientTransform="matrix(.988 .153 -.153 .988 55.163 -16.136)" gradientUnits="userSpaceOnUse" x1="274.263" x2="298.835" xlink:href="#lg6" y1="256.922" y2="275.351"/><linearGradient id="SVGID_35_" gradientTransform="matrix(.988 .153 -.153 .988 55.163 -16.136)" gradientUnits="userSpaceOnUse" x1="345.759" x2="345.759" xlink:href="#lg2" y1="271.689" y2="250.728"/><linearGradient id="SVGID_36_" gradientTransform="matrix(.988 .153 -.153 .988 55.163 -16.136)" gradientUnits="userSpaceOnUse" x1="337.699" x2="362.271" xlink:href="#lg6" y1="243.271" y2="261.7"/><linearGradient id="SVGID_37_" gradientUnits="userSpaceOnUse" x1="176.236" x2="227.748" xlink:href="#lg1" y1="331.165" y2="414.697"/><linearGradient id="SVGID_38_" gradientUnits="userSpaceOnUse" x1="315.093" x2="212.531" xlink:href="#lg2" y1="297.823" y2="390.273"/><linearGradient id="SVGID_39_" gradientUnits="userSpaceOnUse" x1="197.828" x2="254.165" xlink:href="#lg3" y1="364.831" y2="471.004"/><linearGradient id="SVGID_40_" gradientUnits="userSpaceOnUse" x1="218.385" x2="251.61" xlink:href="#lg4" y1="395.679" y2="478.74"/><linearGradient id="SVGID_41_" gradientUnits="userSpaceOnUse" x1="386.787" x2="286.391" xlink:href="#lg5" y1="413.181" y2="460.851"/><linearGradient id="SVGID_42_" gradientTransform="matrix(.988 .153 -.153 .988 55.163 -16.136)" gradientUnits="userSpaceOnUse" x1="197.986" x2="197.986" xlink:href="#lg2" y1="266.453" y2="245.492"/><linearGradient id="SVGID_43_" gradientTransform="matrix(.988 .153 -.153 .988 55.163 -16.136)" gradientUnits="userSpaceOnUse" x1="189.926" x2="214.498" xlink:href="#lg6" y1="238.035" y2="256.464"/><linearGradient id="SVGID_44_" gradientTransform="matrix(.988 .153 -.153 .988 55.163 -16.136)" gradientUnits="userSpaceOnUse" x1="166.268" x2="166.268" xlink:href="#lg2" y1="324.278" y2="303.317"/><linearGradient id="SVGID_45_" gradientTransform="matrix(.988 .153 -.153 .988 55.163 -16.136)" gradientUnits="userSpaceOnUse" x1="158.208" x2="182.78" xlink:href="#lg6" y1="295.86" y2="314.288"/><linearGradient id="SVGID_46_" gradientTransform="matrix(.988 .153 -.153 .988 55.163 -16.136)" gradientUnits="userSpaceOnUse" x1="229.704" x2="229.704" xlink:href="#lg2" y1="324.278" y2="303.317"/><linearGradient id="SVGID_47_" gradientTransform="matrix(.988 .153 -.153 .988 55.163 -16.136)" gradientUnits="userSpaceOnUse" x1="221.644" x2="246.216" xlink:href="#lg6" y1="295.86" y2="314.288"/><linearGradient id="SVGID_48_" gradientTransform="matrix(.988 .153 -.153 .988 55.163 -16.136)" gradientUnits="userSpaceOnUse" x1="134.55" x2="134.55" xlink:href="#lg2" y1="379.693" y2="358.732"/><linearGradient id="SVGID_49_" gradientTransform="matrix(.988 .153 -.153 .988 55.163 -16.136)" gradientUnits="userSpaceOnUse" x1="126.49" x2="151.062" xlink:href="#lg6" y1="351.275" y2="369.704"/><linearGradient id="SVGID_50_" gradientTransform="matrix(.988 .153 -.153 .988 55.163 -16.136)" gradientUnits="userSpaceOnUse" x1="197.986" x2="197.986" xlink:href="#lg2" y1="393.344" y2="372.383"/><linearGradient id="SVGID_51_" gradientTransform="matrix(.988 .153 -.153 .988 55.163 -16.136)" gradientUnits="userSpaceOnUse" x1="189.926" x2="214.498" xlink:href="#lg6" y1="364.926" y2="383.355"/><linearGradient id="SVGID_52_" gradientTransform="matrix(.988 .153 -.153 .988 55.163 -16.136)" gradientUnits="userSpaceOnUse" x1="261.422" x2="261.422" xlink:href="#lg2" y1="379.693" y2="358.732"/><linearGradient id="SVGID_53_" gradientTransform="matrix(.988 .153 -.153 .988 55.163 -16.136)" gradientUnits="userSpaceOnUse" x1="253.362" x2="277.934" xlink:href="#lg6" y1="351.275" y2="369.704"/><g><g><g><path d="m5.555 288.116c105.279 67.812 241.555 67.812 346.834 0 5.705-3.675 7.291-11.314 3.466-16.92l-166.953-244.693c-4.772-6.995-15.088-6.995-19.86 0l-143.658 210.551c-3.825 5.606-25.535 47.387-19.829 51.062z" fill="url(#SVGID_1_)"/><path d="m263.35 327.729c31.086-8.446 61.15-21.649 89.039-39.613 5.706-3.675 7.291-11.314 3.466-16.92l-166.953-244.693c-2.417-3.542-6.254-5.283-10.074-5.238z" fill="url(#SVGID_2_)"/><path d="m332.56 237.054c-95.433 52.108-211.743 52.108-307.176 0l-23.295 34.142c-3.825 5.606-2.24 13.245 3.466 16.92 105.279 67.812 241.555 67.812 346.834 0 5.706-3.675 7.291-11.314 3.466-16.92z" fill="url(#SVGID_3_)"/><path d="m343.544 253.153c-101.012 60.489-228.132 60.489-329.144 0l-12.311 18.043c-3.825 5.606-2.24 13.245 3.466 16.92 105.279 67.812 241.555 67.812 346.834 0 5.706-3.675 7.291-11.314 3.466-16.92z" fill="url(#SVGID_4_)"/><path d="m355.854 271.196-23.295-34.142c-27.117 14.806-55.922 25.392-85.452 31.784l16.242 58.89c31.086-8.446 61.15-21.649 89.039-39.613 5.706-3.674 7.291-11.313 3.466-16.919z" fill="url(#SVGID_5_)"/></g><g><g><path d="m174.302 116.489c-1.476 9.566-9.069 16.333-16.958 15.116s-13.088-9.959-11.612-19.525 10.822-27.692 18.711-26.474 11.335 21.318 9.859 30.883z" fill="url(#SVGID_6_)"/><path d="m175.077 111.463c-1.218 7.889-8.6 13.298-16.489 12.08s-13.298-8.6-12.08-16.489 10.046-22.665 17.935-21.448c7.889 1.218 11.852 17.968 10.634 25.857z" fill="url(#SVGID_7_)"/></g><g><path d="m134.135 168.799c-1.476 9.566-9.069 16.333-16.958 15.116-7.889-1.218-13.088-9.959-11.612-19.525s10.822-27.692 18.711-26.474 11.335 21.318 9.859 30.883z" fill="url(#SVGID_8_)"/><path d="m134.911 163.773c-1.218 7.889-8.6 13.298-16.489 12.08s-13.298-8.6-12.08-16.489 10.046-22.665 17.935-21.448 11.851 17.968 10.634 25.857z" fill="url(#SVGID_9_)"/></g><g><path d="m196.829 178.475c-1.476 9.566-9.069 16.333-16.958 15.115s-13.088-9.959-11.612-19.525 10.822-27.692 18.711-26.474c7.889 1.219 11.335 21.319 9.859 30.884z" fill="url(#SVGID_10_)"/><path d="m197.604 173.449c-1.218 7.889-8.6 13.298-16.489 12.08s-13.298-8.6-12.08-16.489 10.046-22.665 17.935-21.448c7.889 1.218 11.852 17.968 10.634 25.857z" fill="url(#SVGID_11_)"/></g><g><path d="m94.336 218.729c-1.476 9.566-9.069 16.333-16.958 15.115s-13.088-9.959-11.612-19.525 10.822-27.692 18.711-26.474 11.335 21.318 9.859 30.884z" fill="url(#SVGID_12_)"/><path d="m95.111 213.702c-1.218 7.889-8.6 13.298-16.489 12.08s-13.298-8.6-12.08-16.489 10.046-22.665 17.935-21.448c7.889 1.218 11.852 17.968 10.634 25.857z" fill="url(#SVGID_13_)"/></g><g><path d="m154.947 241.895c-1.476 9.566-9.069 16.333-16.958 15.115s-13.088-9.959-11.612-19.525 10.822-27.692 18.711-26.474c7.89 1.219 11.335 21.319 9.859 30.884z" fill="url(#SVGID_14_)"/><path d="m155.723 236.869c-1.218 7.889-8.6 13.298-16.489 12.08s-13.298-8.6-12.08-16.489 10.046-22.665 17.935-21.448c7.889 1.218 11.851 17.968 10.634 25.857z" fill="url(#SVGID_15_)"/></g><g><path d="m219.723 238.08c-1.476 9.566-9.069 16.333-16.958 15.116-7.889-1.218-13.088-9.959-11.612-19.525s10.822-27.692 18.711-26.474c7.89 1.218 11.335 21.318 9.859 30.883z" fill="url(#SVGID_16_)"/><path d="m220.499 233.054c-1.218 7.889-8.6 13.298-16.489 12.08s-13.298-8.6-12.08-16.489 10.046-22.665 17.935-21.448c7.889 1.218 11.851 17.968 10.634 25.857z" fill="url(#SVGID_17_)"/></g></g></g><g><g><path d="m157.611 344.007c105.279 67.812 224.056 54.028 329.335-13.784 5.705-3.675 1.495-31.671-2.33-37.277l-143.658-210.552c-4.772-6.995-15.087-6.995-19.86 0l-166.952 244.693c-3.825 5.606-2.24 13.245 3.465 16.92z" fill="url(#SVGID_18_)"/><path d="m248.943 188.148-94.797 138.939c-3.825 5.606-2.24 13.245 3.466 16.92 84.064 54.147 187.891 65.054 279.92 32.729z" fill="url(#SVGID_19_)"/><path d="m415.406 383.62c31.086-8.446 61.15-21.649 89.039-39.613 5.706-3.675-16.004-45.456-19.829-51.062l-143.658-210.551c-2.417-3.542-6.254-5.283-10.074-5.238z" fill="url(#SVGID_20_)"/><path d="m484.616 292.946c-95.433 52.108-211.743 52.108-307.176 0l-23.295 34.142c-3.825 5.606-2.24 13.245 3.466 16.92 105.279 67.812 241.555 67.812 346.834 0 5.706-3.675 7.291-11.314 3.466-16.92z" fill="url(#SVGID_21_)"/><path d="m495.6 309.044c-101.012 60.489-228.132 60.489-329.144 0l-12.311 18.043c-3.825 5.606-2.24 13.245 3.466 16.92 105.279 67.812 241.555 67.812 346.834 0 5.706-3.675 7.291-11.314 3.466-16.92z" fill="url(#SVGID_22_)"/><path d="m387.778 326.984c-71.02 12.706-145.497 1.366-210.338-34.038l-23.295 34.142c-3.825 5.606-2.24 13.245 3.466 16.92 84.064 54.147 187.89 65.054 279.92 32.729z" fill="url(#SVGID_23_)"/><path d="m507.911 327.087-23.295-34.142c-27.117 14.806-55.922 25.392-85.452 31.784l16.242 58.89c31.086-8.446 61.15-21.649 89.039-39.613 5.706-3.674 7.291-11.313 3.466-16.919z" fill="url(#SVGID_24_)"/></g><g><g><path d="m326.358 172.38c-1.476 9.566-9.069 16.333-16.958 15.115s-13.088-9.959-11.612-19.525 10.822-27.692 18.711-26.474 11.336 21.319 9.859 30.884z" fill="url(#SVGID_25_)"/><path d="m327.134 167.354c-1.218 7.889-8.6 13.298-16.489 12.08s-13.298-8.6-12.08-16.489 10.046-22.665 17.935-21.448 11.852 17.968 10.634 25.857z" fill="url(#SVGID_26_)"/></g><g><path d="m286.191 224.691c-1.476 9.566-9.069 16.333-16.958 15.115s-13.088-9.959-11.612-19.525 10.822-27.692 18.711-26.474c7.89 1.218 11.336 21.318 9.859 30.884z" fill="url(#SVGID_27_)"/><path d="m286.967 219.664c-1.218 7.889-8.6 13.298-16.489 12.08s-13.298-8.6-12.08-16.489 10.046-22.665 17.935-21.448c7.889 1.218 11.852 17.968 10.634 25.857z" fill="url(#SVGID_28_)"/></g><g><path d="m348.885 234.366c-1.476 9.566-9.069 16.333-16.958 15.115s-13.088-9.959-11.612-19.525 10.822-27.692 18.711-26.474 11.335 21.319 9.859 30.884z" fill="url(#SVGID_29_)"/><path d="m349.661 229.34c-1.218 7.889-8.6 13.298-16.489 12.08s-13.298-8.6-12.08-16.489 10.046-22.665 17.935-21.448 11.851 17.968 10.634 25.857z" fill="url(#SVGID_30_)"/></g><g><path d="m246.392 274.62c-1.476 9.566-9.069 16.333-16.958 15.115s-13.088-9.959-11.612-19.525 10.822-27.692 18.711-26.474c7.89 1.218 11.335 21.318 9.859 30.884z" fill="url(#SVGID_31_)"/><path d="m247.168 269.594c-1.218 7.889-8.6 13.298-16.489 12.08s-13.298-8.6-12.08-16.489 10.046-22.665 17.935-21.448 11.851 17.967 10.634 25.857z" fill="url(#SVGID_32_)"/></g><g><path d="m307.004 297.787c-1.476 9.566-9.069 16.333-16.958 15.116s-13.088-9.959-11.612-19.525 10.822-27.692 18.711-26.474c7.889 1.217 11.335 21.317 9.859 30.883z" fill="url(#SVGID_33_)"/><path d="m307.779 292.761c-1.218 7.889-8.6 13.298-16.489 12.08s-13.298-8.6-12.08-16.489 10.046-22.665 17.935-21.448 11.852 17.967 10.634 25.857z" fill="url(#SVGID_34_)"/></g><g><path d="m371.779 293.972c-1.476 9.566-9.069 16.333-16.958 15.116-7.889-1.218-13.088-9.959-11.612-19.525s10.822-27.692 18.711-26.474c7.89 1.217 11.336 21.317 9.859 30.883z" fill="url(#SVGID_35_)"/><path d="m372.555 288.945c-1.218 7.889-8.6 13.298-16.489 12.08s-13.298-8.6-12.08-16.489 10.046-22.665 17.935-21.448c7.889 1.218 11.852 17.968 10.634 25.857z" fill="url(#SVGID_36_)"/></g></g></g><g><g><path d="m64.941 430.73c105.279 67.812 225.967 66.532 331.246-1.28 5.705-3.675 4.275-2.88.45-8.486l-11.845-34.141-143.658-210.552c-4.772-6.995-15.087-6.995-19.86 0l-143.658 210.551-12.1 34.69c-3.825 5.606-6.28 5.543-.575 9.218z" fill="url(#SVGID_37_)"/><path d="m315.582 477.496c31.086-8.446 47.242-27.374 75.131-45.337 5.706-3.675-2.096-39.731-5.921-45.337l-143.658-210.551c-2.417-3.542-6.254-5.283-10.074-5.238z" fill="url(#SVGID_38_)"/><path d="m384.792 386.822c-95.433 52.108-211.743 52.108-307.176 0l-23.295 34.142c-3.825 5.606-2.24 13.245 3.466 16.92 105.279 67.812 241.555 67.812 346.834 0 5.706-3.675 7.291-11.314 3.466-16.92z" fill="url(#SVGID_39_)"/><path d="m395.776 402.921c-101.012 60.489-228.132 60.489-329.144 0l-12.311 18.043c-3.825 5.606-2.24 13.245 3.466 16.92 105.279 67.812 241.555 67.812 346.834 0 5.706-3.675 7.291-11.314 3.466-16.92z" fill="url(#SVGID_40_)"/><path d="m408.087 420.964-23.295-34.142c-27.117 14.806-55.922 25.392-85.452 31.784l16.242 58.89c31.086-8.446 61.15-21.649 89.039-39.613 5.706-3.674 7.291-11.313 3.466-16.919z" fill="url(#SVGID_41_)"/></g><g><g><path d="m226.534 266.257c-1.476 9.566-9.069 16.333-16.958 15.116s-13.088-9.959-11.612-19.525 10.822-27.692 18.711-26.474c7.89 1.217 11.336 21.317 9.859 30.883z" fill="url(#SVGID_42_)"/><path d="m227.31 261.231c-1.218 7.889-8.6 13.298-16.489 12.08s-13.298-8.6-12.08-16.489 10.046-22.665 17.935-21.448 11.852 17.968 10.634 25.857z" fill="url(#SVGID_43_)"/></g><g><path d="m186.367 318.567c-1.476 9.566-9.069 16.333-16.958 15.115s-13.088-9.959-11.612-19.525 10.822-27.692 18.711-26.474c7.89 1.218 11.336 21.318 9.859 30.884z" fill="url(#SVGID_44_)"/><path d="m187.143 313.541c-1.218 7.889-8.6 13.298-16.489 12.08s-13.298-8.6-12.08-16.489 10.046-22.665 17.935-21.448 11.852 17.968 10.634 25.857z" fill="url(#SVGID_45_)"/></g><g><path d="m249.061 328.243c-1.476 9.566-9.069 16.333-16.958 15.116s-13.088-9.959-11.612-19.525 10.822-27.692 18.711-26.474 11.335 21.317 9.859 30.883z" fill="url(#SVGID_46_)"/><path d="m249.837 323.217c-1.218 7.889-8.6 13.298-16.489 12.08s-13.298-8.6-12.08-16.489 10.046-22.665 17.935-21.448 11.851 17.967 10.634 25.857z" fill="url(#SVGID_47_)"/></g><g><path d="m146.568 368.496c-1.476 9.566-9.069 16.333-16.958 15.116-7.889-1.218-13.088-9.959-11.612-19.525s10.822-27.692 18.711-26.474 11.335 21.318 9.859 30.883z" fill="url(#SVGID_48_)"/><path d="m147.344 363.47c-1.218 7.889-8.6 13.298-16.489 12.08s-13.298-8.6-12.08-16.489 10.046-22.665 17.935-21.448 11.851 17.968 10.634 25.857z" fill="url(#SVGID_49_)"/></g><g><path d="m207.18 391.663c-1.476 9.566-9.069 16.333-16.958 15.116s-13.088-9.959-11.612-19.525 10.822-27.692 18.711-26.474 11.335 21.317 9.859 30.883z" fill="url(#SVGID_50_)"/><path d="m207.955 386.637c-1.218 7.889-8.6 13.298-16.489 12.08s-13.298-8.6-12.08-16.489 10.046-22.665 17.935-21.448 11.852 17.968 10.634 25.857z" fill="url(#SVGID_51_)"/></g><g><path d="m271.955 387.848c-1.476 9.566-9.069 16.333-16.958 15.116-7.889-1.218-13.088-9.959-11.612-19.525s10.822-27.692 18.711-26.474c7.89 1.217 11.336 21.317 9.859 30.883z" fill="url(#SVGID_52_)"/><path d="m272.731 382.822c-1.218 7.889-8.6 13.298-16.489 12.08s-13.298-8.6-12.08-16.489 10.046-22.665 17.935-21.448 11.852 17.968 10.634 25.857z" fill="url(#SVGID_53_)"/></g></g></g></g></svg>