<svg id="Capa_1" enable-background="new 0 0 510 510" height="512" viewBox="0 0 510 510" width="512" xmlns="http://www.w3.org/2000/svg" xmlns:xlink="http://www.w3.org/1999/xlink"><linearGradient id="SVGID_1_" gradientUnits="userSpaceOnUse" x1="229.991" x2="310.774" y1="311.891" y2="333.724"><stop offset="0" stop-color="#c59b6d"/><stop offset="1" stop-color="#a57c52"/></linearGradient><linearGradient id="lg1"><stop offset="0" stop-color="#8c6239" stop-opacity="0"/><stop offset=".5198" stop-color="#734a23" stop-opacity=".52"/><stop offset="1" stop-color="#603813"/></linearGradient><linearGradient id="SVGID_2_" gradientUnits="userSpaceOnUse" x1="290.183" x2="114.061" xlink:href="#lg1" y1="368.411" y2="219.944"/><linearGradient id="SVGID_3_" gradientUnits="userSpaceOnUse" x1="308.114" x2="268.864" xlink:href="#lg1" y1="245.457" y2="172.957"/><linearGradient id="SVGID_4_" gradientUnits="userSpaceOnUse" x1="253.857" x2="253.857" y1="37.077" y2="132.89"><stop offset="0" stop-color="#6b0"/><stop offset="1" stop-color="#0b799d"/></linearGradient><linearGradient id="lg2"><stop offset="0" stop-color="#b9dd39"/><stop offset="1" stop-color="#90cc1c"/></linearGradient><linearGradient id="SVGID_5_" gradientTransform="matrix(-.499 .665 .8 .6 -1830.066 905.17)" gradientUnits="userSpaceOnUse" x1="-2474.716" x2="-2225.57" xlink:href="#lg2" y1="1241.501" y2="1241.501"/><linearGradient id="lg3"><stop offset="0" stop-color="#6b0" stop-opacity="0"/><stop offset="1" stop-color="#6b0"/></linearGradient><linearGradient id="SVGID_6_" gradientTransform="matrix(-.499 .665 .8 .6 -1830.066 905.17)" gradientUnits="userSpaceOnUse" x1="-2346.209" x2="-2337.209" xlink:href="#lg3" y1="1270.314" y2="1105.314"/><linearGradient id="SVGID_7_" gradientTransform="matrix(-.499 .665 .8 .6 -1830.066 905.17)" gradientUnits="userSpaceOnUse" x1="-2367.481" x2="-2430.981" xlink:href="#lg3" y1="1241.586" y2="1272.086"/><linearGradient id="SVGID_8_" gradientUnits="userSpaceOnUse" x1="284.439" x2="282.439" y1="75.847" y2="127.347"><stop offset="0" stop-color="#07485e" stop-opacity="0"/><stop offset=".2687" stop-color="#074459" stop-opacity=".269"/><stop offset=".6092" stop-color="#053849" stop-opacity=".609"/><stop offset=".9869" stop-color="#03242f" stop-opacity=".987"/><stop offset="1" stop-color="#03232e"/></linearGradient><linearGradient id="SVGID_9_" gradientTransform="matrix(.758 .572 -.589 .781 116.489 698.815)" gradientUnits="userSpaceOnUse" x1="-448.194" x2="-199.048" xlink:href="#lg2" y1="-521.952" y2="-521.952"/><linearGradient id="SVGID_10_" gradientTransform="matrix(.758 .572 -.589 .781 116.489 698.815)" gradientUnits="userSpaceOnUse" x1="-319.687" x2="-310.687" xlink:href="#lg3" y1="-493.139" y2="-658.139"/><linearGradient id="SVGID_11_" gradientTransform="matrix(.758 .572 -.589 .781 116.489 698.815)" gradientUnits="userSpaceOnUse" x1="-340.959" x2="-404.459" xlink:href="#lg3" y1="-521.867" y2="-491.367"/><linearGradient id="SVGID_12_" gradientUnits="userSpaceOnUse" x1="256.692" x2="235.692" y1="77.376" y2="145.376"><stop offset="0" stop-color="#07485e" stop-opacity="0"/><stop offset=".3024" stop-color="#07455a" stop-opacity=".302"/><stop offset=".578" stop-color="#063d4f" stop-opacity=".578"/><stop offset=".8424" stop-color="#042e3d" stop-opacity=".842"/><stop offset="1" stop-color="#03232e"/></linearGradient><linearGradient id="SVGID_13_" gradientUnits="userSpaceOnUse" x1="63.44" x2="273.586" xlink:href="#lg2" y1="172.229" y2="172.229"/><linearGradient id="SVGID_14_" gradientUnits="userSpaceOnUse" x1="171.874" x2="180.812" xlink:href="#lg3" y1="200.459" y2="36.589"/><linearGradient id="SVGID_15_" gradientUnits="userSpaceOnUse" x1="151.58" x2="97.286" xlink:href="#lg3" y1="168.688" y2="194.766"/><linearGradient id="SVGID_16_" gradientUnits="userSpaceOnUse" x1="216.113" x2="181.246" xlink:href="#lg3" y1="144.328" y2="164.574"/><linearGradient id="SVGID_17_" gradientTransform="matrix(-.78 .199 .248 .969 -1773.573 236.735)" gradientUnits="userSpaceOnUse" x1="-2713.942" x2="-2464.796" xlink:href="#lg2" y1="442.828" y2="442.828"/><linearGradient id="SVGID_18_" gradientTransform="matrix(-.78 .199 .248 .969 -1773.573 236.735)" gradientUnits="userSpaceOnUse" x1="-2585.435" x2="-2576.435" xlink:href="#lg3" y1="471.642" y2="306.642"/><linearGradient id="SVGID_19_" gradientTransform="matrix(-.78 .199 .248 .969 -1773.573 236.735)" gradientUnits="userSpaceOnUse" x1="-2606.707" x2="-2670.207" xlink:href="#lg3" y1="442.914" y2="473.414"/><linearGradient id="SVGID_20_" gradientTransform="matrix(-.78 .199 .248 .969 -1773.573 236.735)" gradientUnits="userSpaceOnUse" x1="-2531.937" x2="-2573.271" xlink:href="#lg3" y1="415.811" y2="439.811"/><linearGradient id="lg4"><stop offset="0" stop-color="#ffdecf"/><stop offset=".3591" stop-color="#fdc5b2"/><stop offset=".7611" stop-color="#fbae98"/><stop offset="1" stop-color="#faa68e"/></linearGradient><linearGradient id="SVGID_21_" gradientUnits="userSpaceOnUse" x1="238.063" x2="271.501" xlink:href="#lg4" y1="126.979" y2="160.418"/><linearGradient id="SVGID_22_" gradientUnits="userSpaceOnUse" x1="246.563" x2="231.28" xlink:href="#lg4" y1="140.604" y2="125.321"/><linearGradient id="SVGID_23_" gradientUnits="userSpaceOnUse" x1="254.077" x2="250.011" xlink:href="#lg4" y1="126.089" y2="122.023"/><linearGradient id="SVGID_24_" gradientUnits="userSpaceOnUse" x1="256.827" x2="252.761" xlink:href="#lg4" y1="137.214" y2="133.148"/><linearGradient id="SVGID_25_" gradientUnits="userSpaceOnUse" x1="228.563" x2="262.001" xlink:href="#lg4" y1="160.729" y2="194.168"/><linearGradient id="SVGID_26_" gradientUnits="userSpaceOnUse" x1="237.063" x2="221.78" xlink:href="#lg4" y1="174.354" y2="159.071"/><linearGradient id="SVGID_27_" gradientUnits="userSpaceOnUse" x1="244.577" x2="240.511" xlink:href="#lg4" y1="159.839" y2="155.773"/><linearGradient id="SVGID_28_" gradientUnits="userSpaceOnUse" x1="247.327" x2="243.261" xlink:href="#lg4" y1="170.964" y2="166.898"/><linearGradient id="SVGID_29_" gradientUnits="userSpaceOnUse" x1="269.313" x2="302.751" xlink:href="#lg4" y1="146.729" y2="180.168"/><linearGradient id="SVGID_30_" gradientUnits="userSpaceOnUse" x1="277.813" x2="262.53" xlink:href="#lg4" y1="160.354" y2="145.071"/><linearGradient id="SVGID_31_" gradientUnits="userSpaceOnUse" x1="285.327" x2="281.261" xlink:href="#lg4" y1="145.839" y2="141.773"/><linearGradient id="SVGID_32_" gradientUnits="userSpaceOnUse" x1="288.077" x2="284.011" xlink:href="#lg4" y1="156.964" y2="152.898"/><linearGradient id="SVGID_33_" gradientUnits="userSpaceOnUse" x1="320.991" x2="342.14" xlink:href="#lg4" y1="427.146" y2="506.859"/><linearGradient id="SVGID_34_" gradientUnits="userSpaceOnUse" x1="65.149" x2="334.79" y1="372.49" y2="534.763"><stop offset="0" stop-color="#ffdecf"/><stop offset="1" stop-color="#faa68e"/></linearGradient><linearGradient id="SVGID_35_" gradientUnits="userSpaceOnUse" x1="245.534" x2="157.687" y1="396.728" y2="306.441"><stop offset="0" stop-color="#faa68e" stop-opacity="0"/><stop offset="1" stop-color="#faa68e"/></linearGradient><linearGradient id="SVGID_36_" gradientUnits="userSpaceOnUse" x1="255" x2="255" y1="471.199" y2="504.198"><stop offset="0" stop-color="#faa68e" stop-opacity="0"/><stop offset="1" stop-color="#d07972"/></linearGradient><g><g><g><path d="m179.173 497.663c-7.178 0-14.208-3.536-18.381-10.021-6.525-10.141-3.594-23.65 6.546-30.175 62.709-40.352 94.171-103.78 93.508-188.521-.51-65.186-20.387-118.146-20.588-118.673-4.289-11.27 1.369-23.882 12.638-28.172 11.275-4.29 23.882 1.369 28.172 12.638.934 2.453 22.873 60.911 23.443 133.865.775 99.281-38.488 177.286-113.544 225.583-3.654 2.353-7.748 3.476-11.794 3.476z" fill="url(#SVGID_1_)"/><path d="m281.069 134.739c-3.927-10.316-14.823-15.905-25.287-13.491.703 1.146 1.321 2.364 1.816 3.666.934 2.453 22.873 60.911 23.443 133.865.775 99.281-38.488 177.286-113.544 225.583-2.183 1.404-4.523 2.362-6.915 2.912.075.121.134.247.211.367 4.173 6.485 11.202 10.021 18.381 10.021 4.046 0 8.14-1.124 11.795-3.475 75.057-48.298 114.319-126.303 113.544-225.583-.571-72.954-22.51-131.412-23.444-133.865z" fill="url(#SVGID_2_)"/><path d="m252.897 122.101c-11.269 4.29-16.927 16.903-12.638 28.172.134.35 8.96 23.873 15.014 58.75l49.006 49.006c-2.431-67.952-22.322-120.958-23.21-123.29-4.29-11.269-16.897-16.928-28.172-12.638z" fill="url(#SVGID_3_)"/></g><g><ellipse cx="253.857" cy="64" fill="url(#SVGID_4_)" rx="38.75" ry="64"/><g><path d="m376.196 57.987 2.513 3.937c3.273 5.128 1.747 10.829-3.336 12.77-12.045 4.598-23.401 10.586-33.82 17.947-2.708 1.913-6.57 2.079-10.078.384l-21.487-10.381c-1.898-.917-3.635.624-2.772 2.459l9.885 21.04c1.572 3.346 1.212 6.915-.911 9.342-1.286 1.47-3.203 3.846-4.659 5.675-1.238 1.555-3.569 1.947-5.722.964-1.225-.559-2.625-1.202-3.984-1.828-2.039-.939-3.75.909-2.565 2.771l1.775 2.79c2.021 3.176 2.216 6.845.545 9.599-6.221 10.255-11.049 21.118-14.526 32.399-1.837 5.958-10.586 6.124-14.7.206-28.52-41.025-32.291-91.937-5.434-128.052 35.224-47.366 110.713-51.301 167.502-8.722 8.958 6.717 16.935 14.185 23.882 22.184 4.056 4.671 1.451 10.801-4.409 10.375-17.544-1.275-34.788-.259-51.217 3.012-2.608.519-5.527-.1-8.036-1.679l-15.555-9.79c-2.082-1.308-4.18.579-2.891 2.598z" fill="url(#SVGID_5_)"/><path d="m250.946 75.453c3.202-14.891 11.566-27.524 23.481-36.613 45.385-34.621 117.361-31.743 173.984 10.742 4.103 3.079 8.029 6.294 11.774 9.628-.416 2.758-2.753 4.895-6.291 4.637-17.544-1.275-34.789-.259-51.22 3.012-2.607.519-5.525-.101-8.034-1.68l-15.555-9.79c-2.08-1.309-4.178.578-2.889 2.597l2.513 3.937c3.273 5.128 1.747 10.829-3.336 12.77-12.045 4.598-23.401 10.585-33.82 17.947-2.708 1.913-6.57 2.079-10.078.384l-21.487-10.381c-1.898-.917-3.635.624-2.772 2.459l9.885 21.04c1.572 3.346 1.212 6.915-.911 9.342-1.286 1.47-3.203 3.846-4.659 5.675-1.238 1.555-3.569 1.947-5.722.964-1.225-.559-2.625-1.202-3.985-1.828-2.04-.939-3.75.909-2.565 2.771l1.775 2.79c2.021 3.176 2.216 6.845.545 9.599-6.221 10.255-11.05 21.119-14.527 32.4-1.843 5.979-10.607 6.099-14.733.159-20.025-28.832-27.828-62.539-21.373-92.561z" fill="url(#SVGID_6_)"/><path d="m287.052 167.851c3.477-11.282 8.31-22.139 14.528-32.392 1.671-2.76 1.47-6.425-.547-9.601l-1.773-2.786c-1.187-1.868.524-3.714 2.56-2.779 1.366.629 2.76 1.27 3.991 1.83 2.147.987 4.479.595 5.72-.959 1.45-1.833 3.37-4.209 4.658-5.675 2.124-2.43 2.485-5.995.913-9.348l-9.883-21.035c-.871-1.839.873-3.379 2.773-2.463l21.48 10.378c3.513 1.7 7.372 1.539 10.084-.377 10.415-7.365 21.769-13.35 33.82-17.949 5.08-1.938 6.609-7.642 3.333-12.773l-2.512-3.933c-1.296-2.022.806-3.907 2.886-2.597l-56.465-37.781c-17.778 3.483-34.243 10.582-48.196 21.229-11.91 9.092-20.272 21.72-23.474 36.618-6.457 30.016 1.345 63.724 21.369 92.555 4.132 5.939 12.898 5.82 14.735-.162z" fill="url(#SVGID_7_)"/><path d="m287.052 167.851c3.477-11.282 8.31-22.139 14.528-32.392 1.671-2.76 1.47-6.425-.547-9.601l-1.773-2.786c-1.187-1.868.524-3.714 2.56-2.779 1.366.629 2.76 1.27 3.991 1.83 2.147.987 4.479.595 5.72-.959 1.45-1.833 3.37-4.209 4.658-5.675 2.124-2.43 2.485-5.995.913-9.348l-9.883-21.035c-.871-1.839.873-3.379 2.773-2.463l-50.897-27.157c-3.814 6.017-6.584 12.724-8.147 19.973-6.457 30.016 1.345 63.724 21.369 92.555 4.132 5.938 12.898 5.819 14.735-.163z" fill="url(#SVGID_8_)"/></g><g><path d="m126.819 84.849-1.081 4.546c-1.408 5.921 2.29 11.408 8.197 12.307 13.999 2.131 27.818 5.823 41.199 11.115 3.478 1.375 7.474.725 10.412-1.748l17.989-15.141c1.589-1.337 3.937-.136 3.748 1.918l-2.165 23.542c-.344 3.744 1.364 7.305 4.439 9.328 1.862 1.225 4.708 3.24 6.879 4.795 1.846 1.322 4.368 1.227 6.192-.231 1.038-.83 2.222-1.782 3.372-2.709 1.725-1.39 4.162.131 3.654 2.28l-.76 3.22c-.866 3.666.314 7.447 3.051 9.899 10.191 9.131 19.192 19.179 26.973 29.938 4.11 5.683 13.086 3.995 15.054-2.91 13.64-47.866-1.648-100.554-42.58-131.663-53.684-40.8-132.069-28.79-173.925 26.658-6.603 8.747-11.924 18.051-15.994 27.679-2.377 5.622 2.58 11.316 8.39 9.639 17.394-5.023 35.344-7.647 53.311-7.8 2.852-.024 5.593-1.274 7.556-3.417l12.169-13.279c1.627-1.776 4.474-.298 3.92 2.034z" fill="url(#SVGID_9_)"/><path d="m260.984 76.069c-8.857-14.497-22.126-25.598-37.679-32.333-59.247-25.654-131.493-7.445-173.216 47.872-3.024 4.009-5.815 8.118-8.377 12.312 1.46 2.723 4.644 4.404 8.152 3.391 17.395-5.023 35.345-7.647 53.314-7.8 2.851-.024 5.591-1.275 7.554-3.417l12.169-13.279c1.627-1.775 4.474-.298 3.919 2.034l-1.081 4.546c-1.408 5.921 2.29 11.408 8.197 12.307 13.999 2.131 27.818 5.822 41.199 11.115 3.478 1.376 7.474.725 10.412-1.748l17.989-15.141c1.589-1.337 3.937-.136 3.748 1.918l-2.165 23.542c-.344 3.744 1.364 7.305 4.439 9.328 1.862 1.225 4.708 3.24 6.879 4.795 1.846 1.323 4.368 1.227 6.192-.231 1.038-.83 2.222-1.782 3.372-2.709 1.725-1.39 4.162.131 3.654 2.28l-.76 3.22c-.866 3.666.314 7.447 3.051 9.899 10.192 9.131 19.193 19.179 26.974 29.939 4.124 5.703 13.098 3.965 15.069-2.965 9.568-33.636 4.852-69.647-13.005-98.875z" fill="url(#SVGID_10_)"/><path d="m258.918 177.904c-7.781-10.761-16.784-20.8-26.972-29.931-2.739-2.458-3.911-6.236-3.05-9.902l.759-3.215c.507-2.155-1.929-3.674-3.652-2.289-1.155.931-2.334 1.88-3.378 2.712-1.817 1.462-4.34 1.557-6.188.237-2.167-1.561-5.015-3.574-6.878-4.796-3.077-2.026-4.785-5.583-4.443-9.334l2.165-23.537c.196-2.059-2.159-3.259-3.751-1.922l-17.984 15.136c-2.94 2.478-6.932 3.133-10.415 1.756-13.378-5.297-27.194-8.987-41.2-11.116-5.903-.897-9.605-6.386-8.195-12.311l1.082-4.542c.56-2.336-2.29-3.811-3.916-2.034l43.329-50.49c19.421-.223 38.863 3.518 57.078 11.409 15.55 6.739 28.814 17.834 37.674 32.339 17.857 29.222 22.574 65.232 13.007 98.866-1.977 6.931-10.952 8.67-15.072 2.964z" fill="url(#SVGID_11_)"/><path d="m258.918 177.904c-7.781-10.761-16.784-20.8-26.972-29.931-2.739-2.458-3.911-6.236-3.05-9.902l.759-3.215c.507-2.155-1.929-3.674-3.652-2.289-1.155.931-2.334 1.88-3.378 2.712-1.817 1.462-4.34 1.557-6.188.237-2.167-1.561-5.015-3.574-6.878-4.796-3.077-2.026-4.785-5.583-4.443-9.334l2.165-23.537c.196-2.059-2.159-3.259-3.751-1.922l41.649-38.48c6.147 5.323 11.489 11.571 15.805 18.627 17.857 29.222 22.574 65.232 13.007 98.866-1.978 6.931-10.953 8.67-15.073 2.964z" fill="url(#SVGID_12_)"/></g><g><path d="m120.542 187.031 1.664 4.373c2.168 5.696 7.722 7.896 12.39 4.995 11.062-6.875 22.832-12.365 35.146-16.281 3.201-1.018 5.685-4.007 6.446-7.831l4.657-23.417c.411-2.068 2.718-2.533 3.682-.741l11.052 20.534c1.757 3.265 4.873 5.119 8.133 4.878 1.975-.146 5.07-.254 7.44-.321 2.015-.057 3.752-1.687 4.265-3.998.292-1.315.622-2.821.942-4.284.479-2.195 3.02-2.454 3.809-.389l1.183 3.095c1.346 3.523 4.204 5.881 7.455 6.197 12.106 1.178 23.858 3.836 35.126 7.825 5.952 2.107 11.412-4.793 9.115-11.635-15.922-47.434-54.929-81.005-100.576-81.197-59.865-.252-109.006 57.769-109.031 128.747-.004 11.197 1.199 22.059 3.461 32.417 1.321 6.048 7.879 7.643 11.101 2.7 9.644-14.798 20.965-27.982 33.619-39.16 2.009-1.775 3.283-4.48 3.529-7.436l1.526-18.318c.204-2.449 3.012-2.996 3.866-.753z" fill="url(#SVGID_13_)"/><path d="m210.951 97.329c-14.029-6.376-29.369-7.267-43.995-3.192-55.712 15.524-97.189 74.824-97.189 145.613 0 5.13.219 10.199.644 15.196 2.491 1.323 5.647.735 7.591-2.249 9.645-14.799 20.966-27.983 33.621-39.162 2.008-1.774 3.281-4.48 3.527-7.434l1.526-18.318c.204-2.449 3.012-2.995 3.866-.752l1.664 4.373c2.168 5.696 7.722 7.896 12.39 4.995 11.062-6.875 22.832-12.365 35.146-16.281 3.201-1.018 5.685-4.007 6.446-7.831l4.657-23.417c.411-2.068 2.718-2.533 3.683-.741l11.052 20.534c1.757 3.265 4.873 5.119 8.133 4.878 1.975-.146 5.07-.254 7.44-.321 2.015-.057 3.752-1.687 4.265-3.998.292-1.315.622-2.821.942-4.285.479-2.195 3.02-2.454 3.809-.388l1.183 3.095c1.346 3.523 4.204 5.881 7.455 6.197 12.106 1.178 23.859 3.836 35.127 7.825 5.973 2.114 11.404-4.824 9.097-11.689-11.2-33.322-33.796-59.794-62.08-72.648z" fill="url(#SVGID_14_)"/><path d="m263.932 181.663c-11.269-3.99-23.018-6.64-35.122-7.82-3.256-.32-6.107-2.68-7.456-6.2l-1.181-3.09c-.793-2.07-3.332-1.81-3.812.38-.321 1.47-.649 2.97-.945 4.29-.506 2.31-2.244 3.94-4.259 4-2.37.06-5.466.17-7.439.32-3.264.24-6.377-1.61-8.139-4.88l-11.049-20.53c-.962-1.8-3.273-1.33-3.686.74l-4.656 23.41c-.759 3.83-3.239 6.82-6.444 7.84-12.315 3.91-24.081 9.4-35.147 16.28-4.664 2.9-10.223.7-12.391-5l-1.662-4.37c-.852-2.25-3.661-1.7-3.863.75l3.72-67.84c13.647-12.13 29.428-21.04 46.559-25.81 14.626-4.07 29.96-3.18 43.995 3.2 28.281 12.85 50.878 39.32 62.079 72.64 2.302 6.87-3.13 13.81-9.102 11.69z" fill="url(#SVGID_15_)"/><path d="m263.932 181.663c-11.269-3.99-23.018-6.64-35.122-7.82-3.256-.32-6.107-2.68-7.456-6.2l-1.181-3.09c-.793-2.07-3.332-1.81-3.812.38-.321 1.47-.649 2.97-.945 4.29-.506 2.31-2.244 3.94-4.259 4-2.37.06-5.466.17-7.439.32-3.264.24-6.377-1.61-8.139-4.88l-11.049-20.53c-.962-1.8-3.273-1.33-3.686.74l8.949-57.01c7.203.56 14.33 2.37 21.163 5.47 28.281 12.85 50.878 39.32 62.079 72.64 2.301 6.87-3.131 13.81-9.103 11.69z" fill="url(#SVGID_16_)"/></g><g><path d="m403.927 152.553-.456 4.63c-.594 6.031-5.186 9.476-10.222 7.768-11.933-4.046-24.177-6.584-36.535-7.467-3.212-.23-6.25-2.539-7.9-6.064l-10.105-21.587c-.893-1.907-3.141-1.812-3.589.152l-5.136 22.507c-.817 3.579-3.239 6.112-6.314 6.648-1.863.325-4.752.952-6.96 1.448-1.878.421-3.888-.747-4.935-2.865-.596-1.205-1.274-2.586-1.932-3.928-.987-2.013-3.4-1.663-3.619.524l-.328 3.278c-.373 3.731-2.432 6.691-5.36 7.766-10.904 4.003-21.114 9.356-30.547 15.884-4.983 3.448-11.741-1.946-11.311-9.118 2.979-49.721 30.741-91.466 72.907-102.441 55.303-14.394 115.117 30.204 132.715 98.966 2.776 10.847 4.354 21.656 4.826 32.225.276 6.171-5.394 9.268-9.598 5.24-12.584-12.058-26.317-22.155-40.788-29.994-2.297-1.244-4.146-3.565-5.105-6.37l-5.947-17.387c-.795-2.325-3.527-2.19-3.761.185z" fill="url(#SVGID_17_)"/><path d="m298.105 87.013c11.395-9.493 25.362-13.983 39.897-13.491 55.367 1.872 108.409 49.522 125.938 118.106 1.27 4.97 2.323 9.933 3.167 14.875-1.976 1.87-5.04 2.047-7.578-.384-12.584-12.058-26.318-22.156-40.79-29.995-2.296-1.244-4.144-3.565-5.103-6.369l-5.947-17.387c-.795-2.324-3.527-2.19-3.761.185l-.456 4.63c-.594 6.031-5.186 9.476-10.222 7.768-11.933-4.046-24.177-6.584-36.535-7.467-3.212-.229-6.25-2.539-7.9-6.064l-10.105-21.587c-.893-1.907-3.141-1.812-3.589.152l-5.136 22.507c-.817 3.579-3.239 6.112-6.314 6.648-1.863.325-4.752.952-6.96 1.448-1.878.421-3.888-.747-4.935-2.865-.596-1.205-1.274-2.586-1.932-3.928-.987-2.013-3.4-1.664-3.619.524l-.327 3.278c-.373 3.731-2.432 6.691-5.36 7.766-10.904 4.003-21.115 9.356-30.548 15.884-5 3.46-11.741-1.978-11.307-9.175 2.104-34.932 16.446-65.92 39.422-85.059z" fill="url(#SVGID_18_)"/><path d="m269.99 181.243c9.433-6.529 19.643-11.874 30.545-15.878 2.932-1.08 4.984-4.04 5.36-7.769l.327-3.273c.221-2.193 2.633-2.541 3.62-.533.66 1.348 1.336 2.724 1.936 3.933 1.04 2.118 3.051 3.287 4.93 2.869 2.207-.502 5.097-1.127 6.959-1.448 3.078-.539 5.498-3.067 6.319-6.652l5.135-22.502c.444-1.971 2.697-2.062 3.592-.154l10.103 21.58c1.65 3.531 4.684 5.842 7.901 6.073 12.357.878 24.598 3.415 36.536 7.466 5.032 1.707 9.627-1.738 10.221-7.773l.455-4.627c.231-2.381 2.964-2.512 3.758-.186l-20.24-64.849c-15.625-8.527-32.426-13.429-49.449-14.001-14.534-.486-28.495 4-39.895 13.499-22.973 19.134-37.316 50.121-39.424 85.051-.429 7.2 6.313 12.64 11.311 9.174z" fill="url(#SVGID_19_)"/><path d="m269.99 181.243c9.433-6.529 19.643-11.874 30.545-15.878 2.932-1.08 4.984-4.04 5.36-7.769l.327-3.273c.221-2.193 2.633-2.541 3.62-.533.66 1.348 1.336 2.724 1.936 3.933 1.04 2.118 3.051 3.287 4.93 2.869 2.207-.502 5.097-1.127 6.959-1.448 3.078-.539 5.498-3.067 6.319-6.652l5.135-22.502c.444-1.971 2.697-2.062 3.592-.154l-22.393-53.119c-6.523 2.245-12.666 5.683-18.217 10.302-22.973 19.134-37.316 50.121-39.424 85.051-.429 7.199 6.313 12.639 11.311 9.173z" fill="url(#SVGID_20_)"/></g></g><g><g><circle cx="257.25" cy="146.167" fill="url(#SVGID_21_)" r="30"/><path d="m245.419 139.461c-3.368 3.368-8.077 4.12-10.518 1.679s-1.689-7.15 1.679-10.518 8.077-4.12 10.518-1.679 1.69 7.15-1.679 10.518z" fill="url(#SVGID_22_)"/><path d="m254.808 126.82c-1.685 1.685-4.204 1.898-5.626.476s-1.209-3.941.476-5.626 4.204-1.898 5.626-.476 1.209 3.941-.476 5.626z" fill="url(#SVGID_23_)"/><path d="m257.558 137.945c-1.685 1.685-4.204 1.898-5.626.476s-1.209-3.941.476-5.626 4.204-1.898 5.626-.476 1.209 3.941-.476 5.626z" fill="url(#SVGID_24_)"/></g><g><circle cx="247.75" cy="179.917" fill="url(#SVGID_25_)" r="30"/><path d="m235.919 173.211c-3.368 3.368-8.077 4.12-10.518 1.679s-1.689-7.15 1.679-10.518 8.077-4.12 10.518-1.679 1.69 7.15-1.679 10.518z" fill="url(#SVGID_26_)"/><path d="m245.308 160.57c-1.685 1.685-4.204 1.898-5.626.476s-1.209-3.941.476-5.626 4.204-1.898 5.626-.476 1.209 3.941-.476 5.626z" fill="url(#SVGID_27_)"/><path d="m248.058 171.695c-1.685 1.685-4.204 1.898-5.626.476s-1.209-3.941.476-5.626 4.204-1.898 5.626-.476 1.209 3.941-.476 5.626z" fill="url(#SVGID_28_)"/></g><g><circle cx="288.5" cy="165.917" fill="url(#SVGID_29_)" r="30"/><path d="m276.669 159.211c-3.368 3.368-8.077 4.12-10.518 1.679s-1.689-7.15 1.679-10.518 8.077-4.12 10.518-1.679c2.442 2.441 1.69 7.15-1.679 10.518z" fill="url(#SVGID_30_)"/><path d="m286.058 146.57c-1.685 1.685-4.204 1.898-5.626.476s-1.209-3.941.476-5.626 4.204-1.898 5.626-.476 1.209 3.941-.476 5.626z" fill="url(#SVGID_31_)"/><path d="m288.808 157.695c-1.685 1.685-4.204 1.898-5.626.476s-1.209-3.941.476-5.626 4.204-1.898 5.626-.476 1.209 3.941-.476 5.626z" fill="url(#SVGID_32_)"/></g></g></g><g><path d="m498.202 506.34v.647c-3.38 1.915-7.296 3.014-11.457 3.014h-302.413c-.061-1.22-.098-2.44-.098-3.66 0-41.142 35.981-76.707 88.201-93.606 20.778-6.735 44.119-10.505 68.789-10.505 63.665 0 118.484 25.134 143.117 61.261 8.907 13.066 13.861 27.573 13.861 42.849z" fill="url(#SVGID_33_)"/><path d="m17.013 380.661c84.465-23.54 174.806-12.817 251.415 29.84l12.021 6.694c54.523 30.359 115.894 46.294 178.299 46.294h27.996c12.844 0 23.256 10.412 23.256 23.256 0 12.843-10.412 23.255-23.256 23.255h-463.488c-12.844 0-23.256-10.412-23.256-23.256v-83.681c0-10.439 6.956-19.599 17.013-22.402z" fill="url(#SVGID_34_)"/><path d="m486.744 463.489h-27.996c-62.405 0-123.776-15.934-178.299-46.293l-12.022-6.694c-42.14-23.464-88.435-37.254-135.622-41.001-20.303-1.612-37.638 14.53-37.638 34.897 0 39.455 31.985 71.44 71.44 71.44h340.672c-3.909-7.345-11.634-12.349-20.535-12.349z" fill="url(#SVGID_35_)"/><path d="m0 486.744c0 12.844 10.412 23.256 23.256 23.256h463.489c12.843 0 23.255-10.412 23.255-23.256s-10.412-23.256-23.256-23.256h-27.996c-38.433 0-76.472-6.053-112.763-17.788h-345.985z" fill="url(#SVGID_36_)"/></g></g></svg>