<svg id="Capa_1" enable-background="new 0 0 510 510" height="512" viewBox="0 0 510 510" width="512" xmlns="http://www.w3.org/2000/svg" xmlns:xlink="http://www.w3.org/1999/xlink"><linearGradient id="lg1"><stop offset="0" stop-color="#edf5ff"/><stop offset="1" stop-color="#d5e8fe"/></linearGradient><linearGradient id="SVGID_1_" gradientUnits="userSpaceOnUse" x1="398.421" x2="511.923" xlink:href="#lg1" y1="229.046" y2="341.561"/><linearGradient id="SVGID_2_" gradientUnits="userSpaceOnUse" x1="344.093" x2="461.051" xlink:href="#lg1" y1="241.376" y2="241.376"/><linearGradient id="lg2"><stop offset="0" stop-color="#b5dbff" stop-opacity="0"/><stop offset=".2428" stop-color="#93cef6" stop-opacity=".243"/><stop offset=".5763" stop-color="#6abfec" stop-opacity=".576"/><stop offset=".8403" stop-color="#51b5e5" stop-opacity=".84"/><stop offset="1" stop-color="#48b2e3"/></linearGradient><linearGradient id="SVGID_3_" gradientUnits="userSpaceOnUse" x1="412.934" x2="356.823" xlink:href="#lg2" y1="362.943" y2="362.943"/><linearGradient id="SVGID_4_" gradientUnits="userSpaceOnUse" x1="412.934" x2="356.823" xlink:href="#lg2" y1="119.81" y2="119.81"/><linearGradient id="SVGID_5_" gradientUnits="userSpaceOnUse" x1="117.853" x2="391.737" xlink:href="#lg1" y1="199.762" y2="355.21"/><linearGradient id="SVGID_6_" gradientUnits="userSpaceOnUse" x1="137.095" x2="357.964" y1="158.671" y2="423.907"><stop offset="0" stop-color="#b5dbff" stop-opacity="0"/><stop offset=".4063" stop-color="#8bcbf4" stop-opacity=".406"/><stop offset="1" stop-color="#48b2e3"/></linearGradient><linearGradient id="SVGID_7_" gradientUnits="userSpaceOnUse" x1="199.295" x2="199.295" xlink:href="#lg2" y1="421.038" y2="523.932"/><linearGradient id="lg3"><stop offset="0" stop-color="#ffda2d"/><stop offset="1" stop-color="#fdbf00"/></linearGradient><linearGradient id="SVGID_8_" gradientUnits="userSpaceOnUse" x1="164.991" x2="347.9" xlink:href="#lg3" y1="303.982" y2="407.795"/><linearGradient id="SVGID_9_" gradientUnits="userSpaceOnUse" x1="199.748" x2="199.748" xlink:href="#lg1" y1="-5.087" y2="88.37"/><linearGradient id="SVGID_10_" gradientUnits="userSpaceOnUse" x1="221.392" x2="221.392" xlink:href="#lg3" y1="291.004" y2="201.42"/><linearGradient id="SVGID_11_" gradientUnits="userSpaceOnUse" x1="199.293" x2="199.293" y1="414.376" y2="585.133"><stop offset="0" stop-color="#ff9100" stop-opacity="0"/><stop offset="1" stop-color="#ff9100"/></linearGradient><linearGradient id="lg4"><stop offset="0" stop-color="#fff" stop-opacity="0"/><stop offset="1" stop-color="#fff"/></linearGradient><linearGradient id="SVGID_12_" gradientUnits="userSpaceOnUse" x1="88.949" x2="106.616" xlink:href="#lg4" y1="384.793" y2="479.713"/><linearGradient id="SVGID_13_" gradientUnits="userSpaceOnUse" x1="140.752" x2="209.022" xlink:href="#lg4" y1="387.608" y2="483.426"/><linearGradient id="SVGID_14_" gradientUnits="userSpaceOnUse" x1="113.623" x2="135.988" xlink:href="#lg4" y1="336.288" y2="410.837"/><linearGradient id="SVGID_15_" gradientTransform="matrix(.707 .707 -.707 .707 -774.435 -560.022)" gradientUnits="userSpaceOnUse" x1="1371.593" x2="1389.26" xlink:href="#lg4" y1="-105.775" y2="-10.855"/><linearGradient id="SVGID_16_" gradientTransform="matrix(.707 .707 -.707 .707 -774.435 -560.022)" gradientUnits="userSpaceOnUse" x1="1423.396" x2="1491.666" xlink:href="#lg4" y1="-102.961" y2="-7.143"/><linearGradient id="SVGID_17_" gradientTransform="matrix(.707 .707 -.707 .707 -774.435 -560.022)" gradientUnits="userSpaceOnUse" x1="1396.267" x2="1418.632" xlink:href="#lg4" y1="-154.28" y2="-79.731"/><linearGradient id="SVGID_18_" gradientTransform="matrix(.707 -.707 .707 .707 943.412 -194.126)" gradientUnits="userSpaceOnUse" x1="-881.904" x2="-864.238" xlink:href="#lg4" y1="-210.264" y2="-115.343"/><linearGradient id="SVGID_19_" gradientTransform="matrix(.707 -.707 .707 .707 943.412 -194.126)" gradientUnits="userSpaceOnUse" x1="-830.102" x2="-761.831" xlink:href="#lg4" y1="-207.449" y2="-111.631"/><linearGradient id="SVGID_20_" gradientTransform="matrix(.707 -.707 .707 .707 943.412 -194.126)" gradientUnits="userSpaceOnUse" x1="-857.231" x2="-834.866" xlink:href="#lg4" y1="-258.768" y2="-184.219"/><linearGradient id="SVGID_21_" gradientUnits="userSpaceOnUse" x1="134.682" x2="-126.866" xlink:href="#lg4" y1="287.957" y2="408.367"/><linearGradient id="SVGID_22_" gradientUnits="userSpaceOnUse" x1="199.748" x2="199.748" xlink:href="#lg2" y1="8.731" y2="97.695"/><g><path d="m420.792 389.142h-53.752v-51.397h53.752c17.122 0 31.053-13.93 31.053-31.052v-130.633c0-17.122-13.93-31.053-31.053-31.053h-53.752v-51.397h53.752c45.463 0 82.45 36.987 82.45 82.45v130.633c0 45.462-36.987 82.449-82.45 82.449z" fill="url(#SVGID_1_)"/><path d="m477.334 296.441v-110.129c0-38.327-29.951-69.508-66.766-69.508h-43.528v28.203h53.752c17.122 0 31.053 13.93 31.053 31.053v130.633c0 17.122-13.93 31.052-31.053 31.052h-53.752v28.203h43.528c36.814 0 66.766-31.181 66.766-69.507z" fill="url(#SVGID_2_)"/><g><path d="m428.479 336.743c-2.463.631-5.029 1.002-7.687 1.002h-53.752v51.397h53.752c2.593 0 5.154-.135 7.687-.371z" fill="url(#SVGID_3_)"/><path d="m367.04 93.61v51.397h53.752c2.657 0 5.223.371 7.687 1.002v-52.028c-2.533-.235-5.094-.371-7.687-.371z" fill="url(#SVGID_4_)"/></g><path d="m378.609 160.298c6.903-29.45 13.218-71.463 13.218-126.61h-384.158c0 98.979 118.057 87.558 52.917 182.307s-52.917 214.443-52.917 214.443c0 106.083 384.159 106.083 384.159 0 0-80.991-6.848-133.97-14.077-167.333-7.35-33.923-7.063-69.013.858-102.807z" fill="url(#SVGID_5_)"/><path d="m355.523 156.13c6.014-28.48 11.517-69.11 11.517-122.443h-334.7c0 95.721 102.857 84.676 46.104 176.306s-46.104 207.385-46.104 207.385c0 102.59 334.7 102.59 334.7 0 0-78.325-8.635-129.095-14.933-161.36-4.091-20.957-2.203-42.944-.864-64.201.757-12.019 1.787-23.883 4.28-35.687z" fill="url(#SVGID_6_)"/><path d="m7.669 430.438c0 106.083 384.159 106.083 384.159 0 0-27.574-.795-51.895-2.128-73.307h-379.796c-5.364 42.605-2.235 73.307-2.235 73.307z" fill="url(#SVGID_7_)"/><path d="m367.04 420.653c0 99.546-334.701 99.546-334.701 0 0 0-10.644-112.307 46.101-201.209 6.129-9.608 10.408-18.047 13.146-25.582 0-.015 0-.015 0-.015.326-.918.637-1.821.918-2.709 17.173-29.787 258.517-28.662 258.739 3.375v.044c-.044.385-.074.77-.118 1.155-2.058 22.651-.844 45.568 3.657 67.938 6.291 31.297 12.258 81.011 12.258 157.003z" fill="url(#SVGID_8_)"/><path d="m391.828 33.687c0-44.916-384.159-44.916-384.159 0s384.159 44.917 384.159 0z" fill="url(#SVGID_9_)"/><path d="m351.243 194.513v.044c0 .385-.03.77-.118 1.155-5.937 32.126-259.583 31.741-259.583-1.155 0-.237.015-.474.044-.696 0-.015 0-.015 0-.015.104-.933.415-1.836.918-2.709 17.173-29.786 258.517-28.661 258.739 3.376z" fill="url(#SVGID_10_)"/><path d="m32.338 420.653c0 99.546 334.701 99.546 334.701 0 0-23.639-.578-44.732-1.563-63.521h-331.772c-3.858 37.22-1.366 63.521-1.366 63.521z" fill="url(#SVGID_11_)"/><g><g><path d="m122.167 367.9v78.511c-1.042.036-2.084-.108-3.09-.431l-53.413-17.301c-3.809-1.222-6.378-4.761-6.378-8.75v-66.169c0-2.066.701-4.024 1.904-5.605z" fill="url(#SVGID_12_)"/><path d="m175.616 354.624v65.647c0 3.809-2.336 7.204-5.875 8.588-.018 0-.036.018-.054.018l-44.484 16.96c-.036.018-.09.036-.126.036-.934.341-1.922.521-2.91.539v-78.512l51.095-19.457c1.473 1.653 2.354 3.827 2.354 6.181z" fill="url(#SVGID_13_)"/><path d="m173.262 348.443-48.603 18.508c-1.613.614-3.387.659-5.03.128l-58.439-18.923c.952-1.24 2.21-2.246 3.701-2.875.054-.036.108-.054.162-.072l37.639-15.199c.018-.018.054-.018.072-.018 1.653-.665 3.431-.827 5.174-.485.18.036.377.09.575.144l60.258 16.062c.054.018.09.018.144.054 1.706.466 3.197 1.436 4.347 2.676z" fill="url(#SVGID_14_)"/></g><g><path d="m305.656 346.59-55.516 55.516c-.762-.711-1.397-1.55-1.88-2.49l-25.535-50.002c-1.829-3.557-1.143-7.877 1.677-10.697l46.788-46.788c1.461-1.461 3.341-2.35 5.31-2.617z" fill="url(#SVGID_15_)"/><path d="m352.838 374.996-46.42 46.42c-2.693 2.693-6.746 3.443-10.226 1.918-.013-.013-.038-.013-.051-.025l-43.447-19.462c-.038-.013-.089-.038-.114-.064-.902-.419-1.728-.991-2.439-1.677l55.516-55.516 49.888 22.372c-.128 2.21-1.043 4.369-2.707 6.034z" fill="url(#SVGID_16_)"/><path d="m355.544 368.961-47.455-21.28c-1.575-.706-2.861-1.929-3.647-3.466l-27.942-54.703c1.55-.203 3.151-.025 4.65.584.064.013.114.038.165.064l37.362 15.867c.025 0 .051.025.064.038 1.639.699 3.011 1.842 4.002 3.316.102.152.203.33.305.508l31.251 53.966c.025.051.051.076.064.14.876 1.536 1.245 3.276 1.181 4.966z" fill="url(#SVGID_17_)"/></g><g><path d="m182.676 245.362 55.516 55.516c-.711.762-1.55 1.397-2.49 1.88l-50.002 25.535c-3.557 1.829-7.877 1.143-10.697-1.677l-46.788-46.788c-1.461-1.461-2.35-3.341-2.617-5.31z" fill="url(#SVGID_18_)"/><path d="m211.082 198.18 46.42 46.42c2.693 2.693 3.443 6.746 1.918 10.226-.013.013-.013.038-.025.051l-19.462 43.447c-.013.038-.038.089-.064.114-.419.902-.991 1.728-1.677 2.439l-55.516-55.516 22.372-49.888c2.21.128 4.37 1.043 6.034 2.707z" fill="url(#SVGID_19_)"/><path d="m205.048 195.474-21.28 47.455c-.706 1.575-1.929 2.861-3.466 3.647l-54.703 27.942c-.203-1.55-.025-3.151.584-4.65.013-.064.038-.114.064-.165l15.867-37.362c0-.025.025-.051.038-.064.699-1.639 1.842-3.011 3.316-4.002.152-.102.33-.203.508-.305l53.966-31.251c.051-.025.076-.051.14-.064 1.535-.876 3.276-1.244 4.966-1.181z" fill="url(#SVGID_20_)"/></g></g><path d="m102.238 215.995c-65.14 94.749-52.917 214.443-52.917 214.443 0 49.2 82.635 75.577 171.253 79.14 88.618-3.563 171.253-29.94 171.253-79.14 0-80.991-6.848-133.97-14.077-167.333-7.35-33.923-7.063-69.013.858-102.808 6.903-29.45 13.218-71.463 13.218-126.61h-342.505c0 98.979 118.057 87.559 52.917 182.308z" fill="url(#SVGID_21_)"/><path d="m375.429 33.687c0-33.275-351.361-33.275-351.361 0s351.361 33.275 351.361 0z" fill="url(#SVGID_22_)"/></g></svg>