<svg id="Capa_1" enable-background="new 0 0 510 510" height="512" viewBox="0 0 510 510" width="512" xmlns="http://www.w3.org/2000/svg" xmlns:xlink="http://www.w3.org/1999/xlink"><linearGradient id="lg1"><stop offset="0" stop-color="#edf5ff"/><stop offset="1" stop-color="#d5e8fe"/></linearGradient><linearGradient id="SVGID_1_" gradientUnits="userSpaceOnUse" x1="226.531" x2="268.096" xlink:href="#lg1" y1="431.574" y2="443.04"/><linearGradient id="lg2"><stop offset="0" stop-color="#b5dbff" stop-opacity="0"/><stop offset=".2428" stop-color="#93cef6" stop-opacity=".243"/><stop offset=".5763" stop-color="#6abfec" stop-opacity=".576"/><stop offset=".8403" stop-color="#51b5e5" stop-opacity=".84"/><stop offset="1" stop-color="#48b2e3"/></linearGradient><linearGradient id="SVGID_2_" gradientUnits="userSpaceOnUse" x1="258.491" x2="234.125" xlink:href="#lg2" y1="443.588" y2="342.898"/><linearGradient id="SVGID_3_" gradientUnits="userSpaceOnUse" x1="238.198" x2="261.632" xlink:href="#lg1" y1="483.887" y2="548.331"/><linearGradient id="SVGID_4_" gradientUnits="userSpaceOnUse" x1="244.575" x2="244.575" xlink:href="#lg2" y1="491.264" y2="522.113"/><linearGradient id="SVGID_5_" gradientUnits="userSpaceOnUse" x1="146.34" x2="370.513" xlink:href="#lg1" y1="246.481" y2="246.481"/><linearGradient id="SVGID_6_" gradientUnits="userSpaceOnUse" x1="244.575" x2="244.575" xlink:href="#lg2" y1="328.942" y2="432.262"/><linearGradient id="lg3"><stop offset="0" stop-color="#ffda2d"/><stop offset="1" stop-color="#fdbf00"/></linearGradient><linearGradient id="SVGID_7_" gradientUnits="userSpaceOnUse" x1="237.566" x2="349.051" xlink:href="#lg3" y1="261.548" y2="332.055"/><linearGradient id="SVGID_8_" gradientUnits="userSpaceOnUse" x1="244.575" x2="244.575" xlink:href="#lg1" y1="74.632" y2="128.853"/><linearGradient id="SVGID_9_" gradientUnits="userSpaceOnUse" x1="244.575" x2="244.575" xlink:href="#lg2" y1="82.773" y2="127.559"/><linearGradient id="SVGID_10_" gradientUnits="userSpaceOnUse" x1="244.575" x2="244.575" xlink:href="#lg3" y1="186.683" y2="231.484"/><linearGradient id="lg4"><stop offset="0" stop-color="#ff9100" stop-opacity="0"/><stop offset="1" stop-color="#ff9100"/></linearGradient><linearGradient id="SVGID_11_" gradientUnits="userSpaceOnUse" x1="268.136" x2="212.237" xlink:href="#lg4" y1="170.382" y2="192.419"/><linearGradient id="SVGID_12_" gradientUnits="userSpaceOnUse" x1="244.575" x2="244.575" xlink:href="#lg4" y1="319.626" y2="399.255"/><linearGradient id="SVGID_13_" gradientUnits="userSpaceOnUse" x1="198.162" x2="137.963" y1="11.789" y2="104.237"><stop offset="0" stop-color="#ff9100"/><stop offset="1" stop-color="#e63950"/></linearGradient><linearGradient id="lg5"><stop offset="0" stop-color="#e63950" stop-opacity="0"/><stop offset=".0467" stop-color="#e4354b" stop-opacity=".047"/><stop offset=".4669" stop-color="#d31822" stop-opacity=".467"/><stop offset=".7991" stop-color="#c90709" stop-opacity=".799"/><stop offset="1" stop-color="#c50000"/></linearGradient><linearGradient id="SVGID_14_" gradientTransform="matrix(-1 0 0 1 621.306 0)" gradientUnits="userSpaceOnUse" x1="448.201" x2="461.458" xlink:href="#lg5" y1="6.255" y2="44.325"/><linearGradient id="SVGID_15_" gradientTransform="matrix(-1 0 0 1 621.306 0)" gradientUnits="userSpaceOnUse" x1="448.381" x2="460.662" xlink:href="#lg5" y1="5.838" y2="41.105"/><linearGradient id="lg6"><stop offset="0" stop-color="#fff" stop-opacity="0"/><stop offset="1" stop-color="#fff"/></linearGradient><linearGradient id="SVGID_16_" gradientUnits="userSpaceOnUse" x1="190.656" x2="199.761" xlink:href="#lg6" y1="315.944" y2="364.867"/><linearGradient id="SVGID_17_" gradientUnits="userSpaceOnUse" x1="217.355" x2="252.543" xlink:href="#lg6" y1="317.394" y2="366.78"/><linearGradient id="SVGID_18_" gradientUnits="userSpaceOnUse" x1="203.373" x2="214.9" xlink:href="#lg6" y1="290.944" y2="329.367"/><linearGradient id="SVGID_19_" gradientTransform="matrix(.707 .707 -.707 .707 -1397.711 944.701)" gradientUnits="userSpaceOnUse" x1="726.481" x2="735.587" xlink:href="#lg6" y1="-1651.939" y2="-1603.016"/><linearGradient id="SVGID_20_" gradientTransform="matrix(.707 .707 -.707 .707 -1397.711 944.701)" gradientUnits="userSpaceOnUse" x1="753.181" x2="788.368" xlink:href="#lg6" y1="-1650.488" y2="-1601.103"/><linearGradient id="SVGID_21_" gradientTransform="matrix(.707 .707 -.707 .707 -1397.711 944.701)" gradientUnits="userSpaceOnUse" x1="739.198" x2="750.725" xlink:href="#lg6" y1="-1676.939" y2="-1638.516"/><linearGradient id="SVGID_22_" gradientTransform="matrix(.707 -.707 .707 .707 320.135 -1698.849)" gradientUnits="userSpaceOnUse" x1="-1448.376" x2="-1439.271" xlink:href="#lg6" y1="1325.168" y2="1374.091"/><linearGradient id="SVGID_23_" gradientTransform="matrix(.707 -.707 .707 .707 320.135 -1698.849)" gradientUnits="userSpaceOnUse" x1="-1421.677" x2="-1386.489" xlink:href="#lg6" y1="1326.619" y2="1376.004"/><linearGradient id="SVGID_24_" gradientTransform="matrix(.707 -.707 .707 .707 320.135 -1698.849)" gradientUnits="userSpaceOnUse" x1="-1435.659" x2="-1424.132" xlink:href="#lg6" y1="1300.168" y2="1338.592"/><linearGradient id="SVGID_25_" gradientUnits="userSpaceOnUse" x1="205.802" x2="101.813" xlink:href="#lg6" y1="271.886" y2="386.485"/><linearGradient id="SVGID_26_" gradientUnits="userSpaceOnUse" x1="353.896" x2="237.896" y1="95.925" y2="198.925"><stop offset="0" stop-color="#ffda2d" stop-opacity="0"/><stop offset="1" stop-color="#ffda2d"/></linearGradient><linearGradient id="SVGID_27_" gradientUnits="userSpaceOnUse" x1="268.963" x2="442.293" xlink:href="#lg3" y1="98.33" y2="98.33"/><linearGradient id="SVGID_28_" gradientUnits="userSpaceOnUse" x1="402.409" x2="311.733" xlink:href="#lg3" y1="133.22" y2="42.543"/><linearGradient id="lg7"><stop offset="0" stop-color="#ff0"/><stop offset="1" stop-color="#ffda2d"/></linearGradient><linearGradient id="SVGID_29_" gradientUnits="userSpaceOnUse" x1="309.603" x2="336.469" xlink:href="#lg7" y1="108.697" y2="59.519"/><linearGradient id="SVGID_30_" gradientUnits="userSpaceOnUse" x1="320.132" x2="364.756" xlink:href="#lg7" y1="49.152" y2="66.456"/><linearGradient id="SVGID_31_" gradientUnits="userSpaceOnUse" x1="336.269" x2="391.366" xlink:href="#lg7" y1="40.788" y2="80.404"/><linearGradient id="SVGID_32_" gradientUnits="userSpaceOnUse" x1="378.529" x2="401.296" xlink:href="#lg7" y1="64.386" y2="111.288"/><linearGradient id="SVGID_33_" gradientUnits="userSpaceOnUse" x1="323.803" x2="313.323" xlink:href="#lg7" y1="109.918" y2="87.21"/><linearGradient id="SVGID_34_" gradientUnits="userSpaceOnUse" x1="396.926" x2="343.195" xlink:href="#lg7" y1="125.508" y2="137.347"/><linearGradient id="SVGID_35_" gradientUnits="userSpaceOnUse" x1="399.687" x2="376.464" xlink:href="#lg7" y1="92.696" y2="133.222"/><linearGradient id="SVGID_36_" gradientUnits="userSpaceOnUse" x1="392.296" x2="338.231" xlink:href="#lg4" y1="141.958" y2="141.958"/><g><g><g><path d="m312.651 483.427c-22.837-7.382-38.311-28.645-38.311-52.645v-51.674h-59.53v51.674c0 24-15.474 45.264-38.311 52.645z" fill="url(#SVGID_1_)"/><path d="m214.809 379.108v13.95l69.761 69.761c-6.496-9.143-10.23-20.259-10.23-32.038v-51.674h-59.531z" fill="url(#SVGID_2_)"/><path d="m338.796 510h-188.442c-3.962 0-7.173-3.212-7.173-7.173 0-12.718 10.31-23.028 23.028-23.028h156.734c12.718 0 23.028 10.31 23.028 23.028-.001 3.961-3.213 7.173-7.175 7.173z" fill="url(#SVGID_3_)"/><path d="m338.796 510h-188.442c-3.962 0-7.173-3.212-7.173-7.173 0-12.718 10.31-23.028 23.028-23.028h156.734c12.718 0 23.028 10.31 23.028 23.028-.001 3.961-3.213 7.173-7.175 7.173z" fill="url(#SVGID_4_)"/></g><path d="m244.575 396.455c-61.659 0-111.644-49.985-111.644-111.644v-188.304h223.288v188.305c0 61.659-49.985 111.643-111.644 111.643z" fill="url(#SVGID_5_)"/><path d="m132.931 284.51v.301c0 61.659 49.985 111.644 111.644 111.644 61.659 0 111.644-49.985 111.644-111.644v-.301z" fill="url(#SVGID_6_)"/><path d="m340.538 198.236v83.343c0 52.996-42.967 95.963-95.963 95.963s-95.963-42.967-95.963-95.963v-83.343c7.417-15.405 184.509-15.405 191.926 0z" fill="url(#SVGID_7_)"/><g><path d="m356.014 97.128c0-26.059-222.879-26.059-222.879 0s222.879 26.059 222.879 0z" fill="url(#SVGID_8_)"/><path d="m343.473 95.336c0-16.751-197.796-16.751-197.796 0s197.796 16.751 197.796 0z" fill="url(#SVGID_9_)"/></g><path d="m340.785 199.246c0 .344-.086.677-.247 1.01-7.417 15.415-184.509 15.415-191.926 0-.161-.333-.247-.666-.247-1.01s.086-.677.247-1.01c7.417-15.404 184.509-15.404 191.926 0 .161.333.247.666.247 1.01z" fill="url(#SVGID_10_)"/><path d="m274.212 259.026c-1.967.731-3.978 1.086-5.966 1.086-6.88 0-13.351-4.214-15.91-11.04l-53.416-142.445c11.481.699 24.015 1.107 36.753 1.225l48.482 129.288c3.301 8.793-1.15 18.586-9.943 21.886z" fill="url(#SVGID_11_)"/><path d="m244.575 377.542c52.016 0 94.365-41.392 95.915-93.032h-191.83c1.55 51.64 43.899 93.032 95.915 93.032z" fill="url(#SVGID_12_)"/><g><path d="m235.674 107.852c-12.738-.118-25.273-.527-36.753-1.225l-8.267-22.027-15.103-40.279c-1.742-4.644-5.461-8.148-10.212-9.6-4.751-1.462-9.793-.645-13.835 2.225l-56.964 40.43c-7.654 5.429-18.264 3.623-23.692-4.031-5.439-7.654-3.633-18.264 4.02-23.692l56.963-40.419c12.717-9.03 28.562-11.577 43.472-7.02 14.91 4.579 26.595 15.566 32.077 30.175l18.963 50.578z" fill="url(#SVGID_13_)"/><path d="m175.299 2.219c9.059 2.777 16.919 7.937 22.93 14.826l-26.327 21.626c-1.804-1.804-4.03-3.177-6.563-3.953-3.028-.928-6.173-.923-9.106-.06l-10.654-32.297c9.529-3.05 19.828-3.173 29.72-.142z" fill="url(#SVGID_14_)"/><path d="m166.005.337c3.114.34 6.224.941 9.294 1.881 2.353.721 4.621 1.611 6.8 2.642l-15.218 30.436c-.503-.214-1.011-.417-1.542-.58-.67-.205-1.347-.358-2.025-.472z" fill="url(#SVGID_15_)"/></g><g><g><path d="m207.777 307.237v40.465c-.537.019-1.074-.056-1.593-.222l-27.529-8.917c-1.963-.63-3.287-2.454-3.287-4.51v-34.103c0-1.065.361-2.074.982-2.889z" fill="url(#SVGID_16_)"/><path d="m235.324 300.394v33.835c0 1.963-1.204 3.713-3.028 4.426-.009 0-.019.009-.028.009l-22.927 8.741c-.018.009-.046.019-.065.019-.481.176-.991.268-1.5.278v-40.465l26.335-10.028c.76.852 1.213 1.972 1.213 3.185z" fill="url(#SVGID_17_)"/><path d="m234.111 297.209-25.05 9.539c-.831.317-1.746.34-2.592.066l-30.12-9.753c.491-.639 1.139-1.158 1.908-1.482.028-.019.056-.028.083-.037l19.399-7.834c.009-.009.028-.009.037-.009.852-.343 1.769-.426 2.667-.25.093.019.194.046.296.074l31.057 8.278c.028.009.046.009.074.028.88.241 1.649.741 2.241 1.38z" fill="url(#SVGID_18_)"/></g><g><path d="m302.348 296.253-28.613 28.613c-.393-.367-.72-.799-.969-1.283l-13.161-25.772c-.943-1.833-.589-4.06.864-5.513l24.115-24.115c.753-.753 1.722-1.211 2.737-1.349z" fill="url(#SVGID_19_)"/><path d="m326.666 310.894-23.925 23.925c-1.388 1.388-3.477 1.774-5.271.989-.007-.007-.02-.007-.026-.013l-22.393-10.031c-.02-.007-.046-.02-.059-.033-.465-.216-.89-.511-1.257-.864l28.613-28.613 25.713 11.53c-.065 1.139-.537 2.252-1.395 3.11z" fill="url(#SVGID_20_)"/><path d="m328.061 307.784-24.458-10.968c-.812-.364-1.475-.994-1.879-1.787l-14.402-28.195c.799-.105 1.624-.013 2.396.301.033.007.059.02.085.033l19.257 8.178c.013 0 .026.013.033.02.845.36 1.552.949 2.063 1.709.052.079.105.17.157.262l16.107 27.815c.013.026.026.039.033.072.451.792.641 1.689.608 2.56z" fill="url(#SVGID_21_)"/></g><g><path d="m238.963 244.08 28.613 28.613c-.367.393-.799.72-1.283.969l-25.772 13.161c-1.833.943-4.06.589-5.513-.864l-24.115-24.115c-.753-.753-1.211-1.722-1.349-2.737z" fill="url(#SVGID_22_)"/><path d="m253.604 219.762 23.925 23.925c1.388 1.388 1.774 3.477.989 5.271-.007.007-.007.02-.013.026l-10.031 22.393c-.007.02-.02.046-.033.059-.216.465-.511.89-.864 1.257l-28.613-28.613 11.53-25.713c1.139.066 2.252.537 3.11 1.395z" fill="url(#SVGID_23_)"/><path d="m250.494 218.367-10.968 24.458c-.364.812-.994 1.475-1.787 1.879l-28.195 14.402c-.105-.799-.013-1.624.301-2.396.007-.033.02-.059.033-.085l8.178-19.257c0-.013.013-.026.02-.033.36-.845.949-1.552 1.709-2.063.079-.052.17-.105.262-.157l27.815-16.107c.026-.013.039-.026.072-.033.792-.451 1.689-.641 2.56-.608z" fill="url(#SVGID_24_)"/></g></g><path d="m167.678 293.694c9.02 114.591 179.172 114.591 188.192 0 .231-2.931.348-5.893.348-8.883v-188.304h-188.888v188.305c0 2.989.118 5.951.348 8.882z" fill="url(#SVGID_25_)"/></g><path d="m271.345 78.095c-1.554 6.494-2.382 13.269-2.382 20.239 0 47.865 38.802 86.667 86.667 86.667.197 0 .392-.006.589-.007v-88.487h-.248c-1.457-10.544-39.998-16.681-84.626-18.412z" fill="url(#SVGID_26_)"/><g><path d="m442.293 98.33c0 47.67-38.48 86.35-86.07 86.66v-87.02l-.59.36c-19.46 6.41-51.15 8.28-70.29 8.81-2.57.07-4.91.12-6.97.15-4.75.07-7.98.05-8.94.04-.31-2.96-.47-5.96-.47-9 0-47.86 38.8-86.66 86.67-86.66 47.86 0 86.66 38.8 86.66 86.66z" fill="url(#SVGID_27_)"/><path d="m433.413 98.33c0 42.76-34.51 77.46-77.19 77.77v-78.13l-.59.36c-19.46 6.41-51.15 8.28-70.29 8.81-2.57.07-4.91.12-6.97.15-.35-2.94-.52-5.93-.52-8.96 0-42.95 34.82-77.78 77.78-77.78 42.95 0 77.78 34.83 77.78 77.78z" fill="url(#SVGID_28_)"/><g><path d="m305.543 48.247c-12.818 12.818-20.747 30.527-20.747 50.087h70.833z" fill="url(#SVGID_29_)"/><path d="m355.63 27.5c-19.56 0-37.268 7.928-50.087 20.747l50.087 50.087z" fill="url(#SVGID_30_)"/><path d="m405.716 48.247c-12.818-12.819-30.526-20.747-50.086-20.747v70.833z" fill="url(#SVGID_31_)"/><path d="m426.463 98.333c0-19.56-7.928-37.268-20.747-50.087l-50.086 50.087z" fill="url(#SVGID_32_)"/><path d="m355.633 98.33c-19.46 6.41-51.15 8.28-70.29 8.81-.37-2.88-.55-5.83-.55-8.81z" fill="url(#SVGID_33_)"/><path d="m355.63 169.167c19.56 0 37.268-7.928 50.087-20.747l-50.087-50.087z" fill="url(#SVGID_34_)"/><path d="m355.63 98.333 50.087 50.087c12.818-12.818 20.747-30.527 20.747-50.087z" fill="url(#SVGID_35_)"/></g></g><path d="m356.223 98.927v86.063c23.697-.154 45.13-9.826 60.683-25.38z" fill="url(#SVGID_36_)"/></g></svg>