<svg id="Capa_1" enable-background="new 0 0 510 510" height="512" viewBox="0 0 510 510" width="512" xmlns="http://www.w3.org/2000/svg" xmlns:xlink="http://www.w3.org/1999/xlink"><linearGradient id="lg1"><stop offset="0" stop-color="#ff819c"/><stop offset=".2594" stop-color="#ff7e9a"/><stop offset=".4757" stop-color="#fe7396"/><stop offset=".6765" stop-color="#fc628e"/><stop offset=".8668" stop-color="#fa4a83"/><stop offset="1" stop-color="#f83479"/></linearGradient><linearGradient id="SVGID_1_" gradientUnits="userSpaceOnUse" x1="255.135" x2="285.433" xlink:href="#lg1" y1="115.578" y2="278.518"/><linearGradient id="lg2"><stop offset="0" stop-color="#ffda2d"/><stop offset="1" stop-color="#fdbf00"/></linearGradient><linearGradient id="SVGID_2_" gradientUnits="userSpaceOnUse" x1="260.407" x2="279.437" xlink:href="#lg2" y1="129.126" y2="231.46"/><linearGradient id="SVGID_3_" gradientUnits="userSpaceOnUse" x1="114.63" x2="125.716" xlink:href="#lg2" y1="60.831" y2="120.452"/><linearGradient id="SVGID_4_" gradientUnits="userSpaceOnUse" x1="396.661" x2="403.875" xlink:href="#lg2" y1="76.119" y2="114.913"/><linearGradient id="SVGID_5_" gradientUnits="userSpaceOnUse" x1="335.147" x2="267.809" y1="212.085" y2="-46.405"><stop offset="0" stop-color="#f82814" stop-opacity="0"/><stop offset="1" stop-color="#c0272d"/></linearGradient><linearGradient id="lg3"><stop offset="0" stop-color="#ff9100"/><stop offset="1" stop-color="#e63950"/></linearGradient><linearGradient id="SVGID_6_" gradientUnits="userSpaceOnUse" x1="268.499" x2="246.913" xlink:href="#lg3" y1="86.548" y2="119.538"/><linearGradient id="SVGID_7_" gradientTransform="matrix(-1 0 0 1 1546.5 0)" gradientUnits="userSpaceOnUse" x1="1304.996" x2="1283.41" xlink:href="#lg3" y1="86.548" y2="119.538"/><linearGradient id="lg4"><stop offset="0" stop-color="#ff637b"/><stop offset="1" stop-color="#e63950"/></linearGradient><linearGradient id="SVGID_8_" gradientUnits="userSpaceOnUse" x1="128.725" x2="160.324" xlink:href="#lg4" y1="413.288" y2="376.113"/><linearGradient id="SVGID_9_" gradientUnits="userSpaceOnUse" x1="392.488" x2="359.712" xlink:href="#lg4" y1="424.304" y2="391.528"/><linearGradient id="SVGID_10_" gradientUnits="userSpaceOnUse" x1="208.579" x2="323.79" xlink:href="#lg1" y1="229.981" y2="418.411"/><linearGradient id="SVGID_11_" gradientUnits="userSpaceOnUse" x1="19.068" x2="490.932" xlink:href="#lg2" y1="341.974" y2="341.974"/><linearGradient id="SVGID_12_" gradientUnits="userSpaceOnUse" x1="159.669" x2="350.331" xlink:href="#lg2" y1="411.82" y2="411.82"/><linearGradient id="SVGID_13_" gradientUnits="userSpaceOnUse" x1="210.415" x2="299.585" xlink:href="#lg2" y1="474.714" y2="474.714"/><linearGradient id="SVGID_14_" gradientUnits="userSpaceOnUse" x1="349.449" x2="-164.416" y1="384.328" y2="75.823"><stop offset="0" stop-color="#e63950" stop-opacity="0"/><stop offset=".0467" stop-color="#e4354b" stop-opacity=".047"/><stop offset=".4669" stop-color="#d31822" stop-opacity=".467"/><stop offset=".7991" stop-color="#c90709" stop-opacity=".799"/><stop offset="1" stop-color="#c50000"/></linearGradient><linearGradient id="SVGID_15_" gradientUnits="userSpaceOnUse" x1="255" x2="255" xlink:href="#lg4" y1="273.71" y2="333.736"/><g><g><path d="m504.337 95.2.375-14.108-6.77-32.056-7.161-9.515c-.462-2.187 1.863-14.48 1.029-16.376-10.702-24.316-50.107-25.465-68.296-21.261-6.094 1.409-12.887 2.867-20.267 4.285-51.248 9.845-95.299 42.348-120.075 88.276l-17.436 32.322c-4.608 8.541-16.861 8.541-21.468 0l-17.436-32.322c-24.776-45.928-68.827-78.43-120.075-88.276-7.38-1.418-14.173-2.877-20.267-4.285-18.31-4.232-58.116-3.04-68.507 21.746-.737 1.758-5.921 25.389-5.921 25.389l-6.773 32.073-.283 12.102c-.848 4.015-2.802 3.485-3.246 7.516-4.701 42.72 13.07 85.53 48.29 111.039 18.646 13.505 41.254 21.832 65.861 22.771 1.441.055 2.887.091 4.34.108 32.785.381 63.206-9.615 88.182-26.911 27.994-19.386 65.143-19.386 93.136 0 24.977 17.296 55.397 27.292 88.183 26.911 1.42-.017 2.833-.051 4.241-.104 24.625-.924 47.254-9.244 65.918-22.749 35.204-25.472 52.989-68.23 48.344-110.917-2.953-2.279-3.06-1.593-3.918-5.658z" fill="url(#SVGID_1_)"/><g><path d="m508.255 100.861c-3.641 28.992-20.573 56.025-48.315 73.629-18.669 11.836-41.295 19.135-65.919 19.957-1.4.037-2.819.075-4.238.075-32.782.336-63.212-8.42-88.172-23.579-28.003-17.007-65.154-17.007-93.138 0-24.979 15.159-55.409 23.915-88.191 23.579-1.456 0-2.894-.037-4.331-.093-24.605-.821-47.213-8.121-65.863-19.957-27.779-17.642-44.693-44.712-48.278-73.761.43-4.033 1.083-8.065 1.923-12.079l1.587-7.542c6.982 22.626 22.328 43.031 44.768 57.294 18.65 11.836 41.258 19.135 65.863 19.957 1.438.056 2.875.075 4.331.093 32.782.336 63.212-8.42 88.191-23.597 10.324-6.273 21.898-10.212 33.79-11.836l2.035 3.771c4.611 8.532 16.858 8.532 21.469 0l2.035-3.771c11.91 1.624 23.485 5.563 33.809 11.836 24.96 15.178 55.39 23.933 88.172 23.597 1.419-.019 2.838-.037 4.238-.093 24.624-.803 47.251-8.102 65.919-19.938 22.459-14.244 37.804-34.668 44.805-57.313l1.587 7.542c.336 1.568.635 3.136.896 4.705.093.56.186 1.12.28 1.699.299 1.942.561 3.883.747 5.825z" fill="url(#SVGID_2_)"/><path d="m198.471 55.777c7.505 7.71 14.3 16.148 20.274 25.203-3.547 1.531-6.982 3.304-10.305 5.321-24.979 15.178-55.409 23.933-88.191 23.597-1.456-.019-2.894-.037-4.331-.093-24.605-.821-47.213-8.121-65.863-19.957-16.84-10.698-29.683-24.868-37.991-40.829l4.163-19.752c.112-.541.243-1.083.392-1.605.093-.373.186-.728.299-1.083.112-.373.224-.728.355-1.083.056-.168.112-.336.168-.485.168-.467.355-.933.541-1.381.075-.168.131-.317.205-.485 8.009 11.799 18.725 22.253 31.867 30.598 18.65 11.855 41.258 19.154 65.863 19.976 1.438.037 2.875.075 4.331.093 28.546.297 55.298-6.311 78.223-18.035z" fill="url(#SVGID_3_)"/><path d="m497.936 49.037c-8.308 15.962-21.17 30.131-38.028 40.828-18.669 11.836-41.295 19.135-65.919 19.938-1.4.056-2.819.075-4.238.093-32.782.336-63.212-8.42-88.172-23.597-3.323-2.016-6.777-3.79-10.324-5.321 5.974-9.073 12.77-17.511 20.274-25.221 22.925 11.724 49.677 18.351 78.222 18.053 1.419-.019 2.838-.056 4.238-.093 24.624-.803 47.251-8.102 65.919-19.957 13.162-8.345 23.877-18.818 31.905-30.617.075.168.131.317.205.485.187.448.373.915.541 1.381.056.149.112.317.168.485.13.355.242.709.355 1.083.112.355.205.709.299 1.083.15.523.28 1.064.392 1.605z" fill="url(#SVGID_4_)"/></g><path d="m466.992 206.221-142.262-142.263c-1.719-4.2-6.2-5.137-10.833-4.269-.579.108-3.298.635-7.596 1.719-8.875 9.992-16.664 21.052-23.129 33.037l-17.436 32.322c-4.608 8.541-16.861 8.541-21.468 0l-17.436-32.322c-6.465-11.985-14.254-23.044-23.129-33.037-4.298-1.084-7.016-1.611-7.596-1.719-5.304-.994-8.782.884-9.77 6.19-.863 4.636.071 9.116 4.271 10.834 0 0 28.574 28.985 28.774 29.339-11.867 10.193-22.924 22.47-31.808 37.214-2.787 4.624-2.926 9.002 1.698 11.788l41.719 41.719c23.536-7.216 49.622-3.57 70.579 10.942 24.977 17.296 55.397 27.292 88.183 26.911 1.42-.017 2.833-.051 4.241-.104 24.625-.924 47.254-9.244 65.918-22.749 2.445-1.767 4.804-3.622 7.08-5.552z" fill="url(#SVGID_5_)"/><g><path d="m315.696 156.459c-3.314 0-6.547-1.686-8.381-4.731-35.607-59.092-114.001-74.301-114.789-74.449-5.307-.989-8.808-6.093-7.82-11.399.988-5.307 6.095-8.813 11.399-7.82 3.568.665 87.863 17.045 127.952 83.577 2.787 4.624 1.297 10.631-3.327 13.417-1.577.952-3.317 1.405-5.034 1.405z" fill="url(#SVGID_6_)"/><path d="m194.306 156.459c3.314 0 6.547-1.686 8.381-4.731 35.607-59.092 114.001-74.301 114.789-74.449 5.307-.989 8.807-6.093 7.82-11.399s-6.095-8.813-11.399-7.82c-3.569.665-87.863 17.045-127.952 83.577-2.787 4.624-1.297 10.631 3.327 13.417 1.577.952 3.318 1.405 5.034 1.405z" fill="url(#SVGID_7_)"/></g></g><g><g><path d="m32.388 324.867s130.592 53.685 194.906 174.217c0 0-11.732-169.7-194.906-174.217z" fill="url(#SVGID_8_)"/><path d="m477.612 324.867s-130.592 53.685-194.906 174.217c0 0 11.732-169.7 194.906-174.217z" fill="url(#SVGID_9_)"/></g><path d="m491.989 312.152c.068 1.753-.307 3.45-1.054 5.011-1.753 3.666-14.891 8.743-17.111 9.32-36.111 9.378-75.075 28.751-109.639 56.545-47.117 37.878-74.795 82.323-78.028 118.583-.156 1.749-1.111 3.389-2.654 4.629-6.236 5.013-50.769 5.013-57.006 0-1.543-1.24-2.498-2.879-2.654-4.629-3.233-36.261-30.912-80.705-78.028-118.583-34.627-27.844-73.669-47.237-109.836-56.596-2.154-.557-15.161-5.603-16.914-9.269-.747-1.561-1.121-3.258-1.054-5.011.302-7.813 2.554-16.319 6.847-25.984l1.666-3.751h456.953l1.665 3.751c4.293 9.665 6.544 18.171 6.847 25.984z" fill="url(#SVGID_10_)"/><g><path d="m490.932 317.162c-1.754 3.667-5.553 6.582-10.487 7.703-27.951 6.371-57.921 18.916-86.427 36.882-40.72 3.205-88.247 5.039-139.019 5.039s-98.299-1.834-139.019-5.039c-28.506-17.966-58.475-30.511-86.427-36.882-4.934-1.121-8.733-4.036-10.487-7.703 47.357 10.75 135.287 17.966 235.934 17.966s188.577-7.216 235.932-17.966z" fill="url(#SVGID_11_)"/><path d="m350.331 394.856c-11.793 10.685-22.095 21.752-30.788 32.911-20.696.66-42.303 1.016-64.543 1.016s-43.847-.356-64.543-1.016c-8.693-11.16-18.995-22.227-30.788-32.911 29.68 1.464 61.799 2.269 95.331 2.269s65.651-.805 95.331-2.269z" fill="url(#SVGID_12_)"/><path d="m299.585 458.647c-5.606 10.922-9.55 21.646-11.74 31.869-10.764.171-21.726.264-32.845.264s-22.082-.092-32.845-.264c-2.19-10.223-6.134-20.947-11.74-31.869 14.51.317 29.403.475 44.585.475s30.075-.158 44.585-.475z" fill="url(#SVGID_13_)"/></g><path d="m483.476 282.418h-228.476v227.582c12.692 0 25.385-1.253 28.503-3.76 1.543-1.24 2.498-2.879 2.654-4.629 3.233-36.261 30.912-80.705 78.028-118.583 34.564-27.793 73.527-47.166 109.639-56.545 2.221-.577 15.358-5.654 17.111-9.32.747-1.561 1.121-3.258 1.054-5.011-.302-7.813-2.554-16.319-6.847-25.984z" fill="url(#SVGID_14_)"/><ellipse cx="255" cy="283.384" fill="url(#SVGID_15_)" rx="229.251" ry="22.88"/></g></g></svg>