<svg id="Capa_1" enable-background="new 0 0 510 510" height="512" viewBox="0 0 510 510" width="512" xmlns="http://www.w3.org/2000/svg" xmlns:xlink="http://www.w3.org/1999/xlink"><linearGradient id="SVGID_1_" gradientUnits="userSpaceOnUse" x1="182.184" x2="214.184" y1="100.266" y2="168.266"><stop offset="0" stop-color="#ffda2d"/><stop offset="1" stop-color="#fdbf00"/></linearGradient><linearGradient id="SVGID_2_" gradientUnits="userSpaceOnUse" x1="75.125" x2="169.757" y1="60.363" y2="85.993"><stop offset="0" stop-color="#6b0"/><stop offset="1" stop-color="#0b799d"/></linearGradient><linearGradient id="SVGID_3_" gradientUnits="userSpaceOnUse" x1="276.121" x2="301.62" y1="65.78" y2="187.274"><stop offset="0" stop-color="#48b2e3"/><stop offset="1" stop-color="#0095ff"/></linearGradient><linearGradient id="SVGID_4_" gradientUnits="userSpaceOnUse" x1="261.919" x2="237.919" y1="310.91" y2="532.91"><stop offset="0" stop-color="#ff9100"/><stop offset="1" stop-color="#e63950"/></linearGradient><linearGradient id="SVGID_5_" gradientUnits="userSpaceOnUse" x1="305.585" x2="301.585" y1="227.223" y2="435.223"><stop offset="0" stop-color="#ff637b"/><stop offset="1" stop-color="#e63950"/></linearGradient><linearGradient id="SVGID_6_" gradientUnits="userSpaceOnUse" x1="196.259" x2="73.042" y1="258.726" y2="105.698"><stop offset="0" stop-color="#e63950" stop-opacity="0"/><stop offset=".0467" stop-color="#e4354b" stop-opacity=".047"/><stop offset=".4669" stop-color="#d31822" stop-opacity=".467"/><stop offset=".7991" stop-color="#c90709" stop-opacity=".799"/><stop offset="1" stop-color="#c50000"/></linearGradient><linearGradient id="SVGID_7_" gradientUnits="userSpaceOnUse" x1="194.652" x2="-210.015" y1="217.817" y2="-31.516"><stop offset="0" stop-color="#fff" stop-opacity="0"/><stop offset="1" stop-color="#fff"/></linearGradient><linearGradient id="SVGID_8_" gradientTransform="matrix(.707 -.707 .707 .707 -96.849 126.931)" gradientUnits="userSpaceOnUse" x1="95.426" x2="105.74" y1="160.486" y2="182.379"><stop offset="0" stop-color="#edf5ff"/><stop offset="1" stop-color="#d5e8fe"/></linearGradient><g><circle cx="255" cy="255" fill="url(#SVGID_1_)" r="255"/><path d="m435.68 84.57c-19.4 32.83-36.95 60.92-68.5 82.15-40.62 27.34-89.53 43.29-142.18 43.29-43.67 0-84.77-10.97-120.7-30.32v-.01c-.12-.05-.24-.12-.36-.19-20.193-10.907-38.744-24.458-55.185-40.194-8.24-7.886-9.59-20.615-3.067-29.972 23.978-34.396 56.226-62.606 93.852-81.744 34.67-17.64 73.9-27.58 115.46-27.58 19.917 0 39.301 2.284 57.905 6.603 51.739 12.015 88.44 39.778 122.775 77.967z" fill="url(#SVGID_2_)"/><path d="m510 255c0 14.5-1.21 28.72-3.54 42.55-11 65.49-46.97 122.52-97.78 160.95-4.31.19-8.65.29-13.01.29-156.87 0-284.8-123.84-291.37-279.1v-.01c-.01-.12-.02-.25-.02-.38-.17-4.03-.25-8.08-.25-12.15 0-.506.001-1.011.004-1.516.424-83.446 65.131-152.532 148.338-158.857 27.36-2.08 50.417-2.411 57.472-.865 52.998 11.617 99.826 39.718 134.836 78.658 40.61 45.16 65.32 104.91 65.32 170.43z" fill="url(#SVGID_3_)"/><path d="m506.46 297.55c-11 65.49-46.97 122.52-97.78 160.95-42.73 32.33-95.96 51.5-153.68 51.5-86.252 0-162.506-42.828-208.654-108.378-48.549-68.96-30.171-164.384 39.954-211.233 5.739-3.834 11.623-7.471 17.64-10.899.11-.07.23-.13.34-.19 42.45-24.13 91.54-37.9 143.86-37.9 42.4 0 82.69 9.05 119.04 25.32 59.8 26.77 108.94 73.09 139.28 130.83z" fill="url(#SVGID_4_)"/><path d="m367.18 166.72c-36.35-16.27-76.64-25.32-119.04-25.32-52.32 0-101.41 13.77-143.86 37.9 0 .13.01.26.02.38v.01c6.57 155.26 134.5 279.1 291.37 279.1 4.36 0 8.7-.1 13.01-.29 50.81-38.43 86.78-95.46 97.78-160.95-30.34-57.74-79.48-104.06-139.28-130.83z" fill="url(#SVGID_5_)"/><path d="m80.753 204.414 282.211 281.649c21.09-9.871 40.608-22.536 58.072-37.533l-292.2-292.2c-10.993-10.993-28.668-7.14-41.946 6.138s-17.13 30.953-6.137 41.946z" fill="url(#SVGID_6_)"/><circle cx="255" cy="255" fill="url(#SVGID_7_)" r="229.106"/><path d="m128.836 156.331c10.993 10.993 9.14 30.668-4.138 43.946s-32.953 15.13-43.946 4.138c-10.993-10.993-9.14-30.668 4.138-43.946s32.953-15.131 43.946-4.138z" fill="url(#SVGID_8_)"/></g></svg>