<svg id="Capa_1" enable-background="new 0 0 510 510" height="512" viewBox="0 0 510 510" width="512" xmlns="http://www.w3.org/2000/svg" xmlns:xlink="http://www.w3.org/1999/xlink"><linearGradient id="lg1"><stop offset="0" stop-color="#ffdecf"/><stop offset="1" stop-color="#faa68e"/></linearGradient><linearGradient id="SVGID_1_" gradientUnits="userSpaceOnUse" x1="255" x2="255" xlink:href="#lg1" y1="56.114" y2="367.21"/><linearGradient id="lg2"><stop offset="0" stop-color="#faa68e" stop-opacity="0"/><stop offset="1" stop-color="#d07972"/></linearGradient><linearGradient id="SVGID_2_" gradientUnits="userSpaceOnUse" x1="302.118" x2="61.118" xlink:href="#lg2" y1="372.247" y2="139.247"/><linearGradient id="lg3"><stop offset="0" stop-color="#edf5ff"/><stop offset="1" stop-color="#d5e8fe"/></linearGradient><linearGradient id="SVGID_3_" gradientTransform="matrix(.991 .133 -.133 .991 30.633 -14.767)" gradientUnits="userSpaceOnUse" x1="58.821" x2="248.634" xlink:href="#lg3" y1="133.246" y2="323.059"/><linearGradient id="SVGID_4_" gradientTransform="matrix(.991 .133 -.133 .991 30.633 -14.767)" gradientUnits="userSpaceOnUse" x1="227.651" x2="18.441" xlink:href="#lg3" y1="301.985" y2="92.775"/><linearGradient id="lg4"><stop offset="0" stop-color="#b5dbff" stop-opacity="0"/><stop offset=".2428" stop-color="#93cef6" stop-opacity=".243"/><stop offset=".5763" stop-color="#6abfec" stop-opacity=".576"/><stop offset=".8403" stop-color="#51b5e5" stop-opacity=".84"/><stop offset="1" stop-color="#48b2e3"/></linearGradient><linearGradient id="SVGID_5_" gradientTransform="matrix(.991 .133 -.133 .991 30.633 -14.767)" gradientUnits="userSpaceOnUse" x1="143.029" x2="20.362" xlink:href="#lg4" y1="199.831" y2="107.164"/><linearGradient id="lg5"><stop offset="0" stop-color="#ff819c"/><stop offset=".2594" stop-color="#ff7e9a"/><stop offset=".4757" stop-color="#fe7396"/><stop offset=".6765" stop-color="#fc628e"/><stop offset=".8668" stop-color="#fa4a83"/><stop offset="1" stop-color="#f83479"/></linearGradient><linearGradient id="SVGID_6_" gradientTransform="matrix(.991 .133 -.133 .991 30.633 -14.767)" gradientUnits="userSpaceOnUse" x1="120.85" x2="150.412" xlink:href="#lg5" y1="340.733" y2="405.923"/><linearGradient id="SVGID_7_" gradientTransform="matrix(.991 .133 -.133 .991 30.633 -14.767)" gradientUnits="userSpaceOnUse" x1="115.838" x2="150.159" xlink:href="#lg5" y1="270.06" y2="345.743"/><linearGradient id="SVGID_8_" gradientTransform="matrix(.991 .133 -.133 .991 30.633 -14.767)" gradientUnits="userSpaceOnUse" x1="127.043" x2="163.376" xlink:href="#lg5" y1="188.047" y2="268.165"/><linearGradient id="SVGID_9_" gradientTransform="matrix(.991 .133 -.133 .991 30.633 -14.767)" gradientUnits="userSpaceOnUse" x1="124.562" x2="164.481" xlink:href="#lg5" y1="114.654" y2="202.68"/><linearGradient id="SVGID_10_" gradientTransform="matrix(.991 .133 -.133 .991 30.633 -14.767)" gradientUnits="userSpaceOnUse" x1="121.402" x2="154.087" xlink:href="#lg5" y1="48.538" y2="120.612"/><linearGradient id="SVGID_11_" gradientTransform="matrix(.991 .133 -.133 .991 30.633 -14.767)" gradientUnits="userSpaceOnUse" x1="241.802" x2="-3.934" xlink:href="#lg5" y1="359.253" y2="359.253"/><linearGradient id="SVGID_12_" gradientTransform="matrix(.991 .133 -.133 .991 30.633 -14.767)" gradientUnits="userSpaceOnUse" x1="241.802" x2="-3.934" xlink:href="#lg5" y1="282.163" y2="282.163"/><linearGradient id="SVGID_13_" gradientTransform="matrix(.991 .133 -.133 .991 30.633 -14.767)" gradientUnits="userSpaceOnUse" x1="241.802" x2="-3.934" xlink:href="#lg5" y1="205.078" y2="205.078"/><linearGradient id="SVGID_14_" gradientTransform="matrix(.991 .133 -.133 .991 30.633 -14.767)" gradientUnits="userSpaceOnUse" x1="241.802" x2="-3.934" xlink:href="#lg5" y1="127.993" y2="127.993"/><linearGradient id="SVGID_15_" gradientTransform="matrix(.991 .133 -.133 .991 30.633 -14.767)" gradientUnits="userSpaceOnUse" x1="241.802" x2="-3.934" xlink:href="#lg5" y1="50.903" y2="50.903"/><linearGradient id="lg6"><stop offset="0" stop-color="#f82814" stop-opacity="0"/><stop offset="1" stop-color="#c0272d"/></linearGradient><linearGradient id="SVGID_16_" gradientTransform="matrix(.991 .133 -.133 .991 30.633 -14.767)" gradientUnits="userSpaceOnUse" x1="135.741" x2="-18.259" xlink:href="#lg6" y1="323.082" y2="212.082"/><linearGradient id="SVGID_17_" gradientTransform="matrix(.991 .133 -.133 .991 30.633 -14.767)" gradientUnits="userSpaceOnUse" x1="160.433" x2="6.433" xlink:href="#lg6" y1="288.824" y2="177.824"/><linearGradient id="SVGID_18_" gradientTransform="matrix(.991 .133 -.133 .991 30.633 -14.767)" gradientUnits="userSpaceOnUse" x1="191.334" x2="37.334" xlink:href="#lg6" y1="245.952" y2="134.952"/><linearGradient id="SVGID_19_" gradientTransform="matrix(.991 .133 -.133 .991 30.633 -14.767)" gradientUnits="userSpaceOnUse" x1="225.824" x2="71.824" xlink:href="#lg6" y1="198.102" y2="87.102"/><linearGradient id="lg7"><stop offset="0" stop-color="#ffda2d"/><stop offset="1" stop-color="#fdbf00"/></linearGradient><linearGradient id="SVGID_20_" gradientTransform="matrix(.991 .133 -.133 .991 30.633 -14.767)" gradientUnits="userSpaceOnUse" x1="134.802" x2="134.802" xlink:href="#lg7" y1="55.578" y2="160.125"/><linearGradient id="SVGID_21_" gradientTransform="matrix(.991 .133 -.133 .991 30.633 -14.767)" gradientUnits="userSpaceOnUse" x1="134.79" x2="134.79" xlink:href="#lg7" y1="175.578" y2="46.531"/><linearGradient id="lg8"><stop offset="0" stop-color="#ff9100" stop-opacity="0"/><stop offset="1" stop-color="#ff9100"/></linearGradient><linearGradient id="SVGID_22_" gradientTransform="matrix(.991 .133 -.133 .991 30.633 -14.767)" gradientUnits="userSpaceOnUse" x1="167.005" x2="140.005" xlink:href="#lg8" y1="74.441" y2="56.441"/><linearGradient id="SVGID_23_" gradientTransform="matrix(.991 .133 -.133 .991 30.633 -14.767)" gradientUnits="userSpaceOnUse" x1="128.302" x2="152.323" xlink:href="#lg7" y1="51.078" y2="75.099"/><linearGradient id="SVGID_24_" gradientUnits="userSpaceOnUse" x1="540.52" x2="404.52" xlink:href="#lg2" y1="356.089" y2="296.089"/><linearGradient id="SVGID_25_" gradientTransform="matrix(-.999 .04 .04 .999 -238.722 24.526)" gradientUnits="userSpaceOnUse" x1="-682.867" x2="-493.179" xlink:href="#lg3" y1="204.296" y2="393.984"/><linearGradient id="SVGID_26_" gradientTransform="matrix(-.999 .04 .04 .999 -238.722 24.526)" gradientUnits="userSpaceOnUse" x1="-514.151" x2="-723.361" xlink:href="#lg3" y1="372.906" y2="163.696"/><linearGradient id="SVGID_27_" gradientTransform="matrix(.999 -.04 .04 .999 -10.693 15.434)" gradientUnits="userSpaceOnUse" x1="408.375" x2="248.875" xlink:href="#lg4" y1="268.773" y2="114.773"/><linearGradient id="SVGID_28_" gradientTransform="matrix(-.999 .04 .04 .999 -238.722 24.526)" gradientUnits="userSpaceOnUse" x1="-620.952" x2="-591.389" xlink:href="#lg5" y1="411.655" y2="476.844"/><linearGradient id="SVGID_29_" gradientTransform="matrix(-.999 .04 .04 .999 -238.722 24.526)" gradientUnits="userSpaceOnUse" x1="-625.964" x2="-591.643" xlink:href="#lg5" y1="340.982" y2="416.664"/><linearGradient id="SVGID_30_" gradientTransform="matrix(-.999 .04 .04 .999 -238.722 24.526)" gradientUnits="userSpaceOnUse" x1="-614.758" x2="-578.426" xlink:href="#lg5" y1="258.969" y2="339.087"/><linearGradient id="SVGID_31_" gradientTransform="matrix(-.999 .04 .04 .999 -238.722 24.526)" gradientUnits="userSpaceOnUse" x1="-617.239" x2="-577.321" xlink:href="#lg5" y1="185.575" y2="273.601"/><linearGradient id="SVGID_32_" gradientTransform="matrix(-.999 .04 .04 .999 -238.722 24.526)" gradientUnits="userSpaceOnUse" x1="-620.4" x2="-587.715" xlink:href="#lg5" y1="119.46" y2="191.534"/><linearGradient id="SVGID_33_" gradientTransform="matrix(-.999 .04 .04 .999 -238.722 24.526)" gradientUnits="userSpaceOnUse" x1="-500" x2="-745.736" xlink:href="#lg5" y1="430.175" y2="430.175"/><linearGradient id="SVGID_34_" gradientTransform="matrix(-.999 .04 .04 .999 -238.722 24.526)" gradientUnits="userSpaceOnUse" x1="-500" x2="-745.736" xlink:href="#lg5" y1="353.085" y2="353.085"/><linearGradient id="SVGID_35_" gradientTransform="matrix(-.999 .04 .04 .999 -238.722 24.526)" gradientUnits="userSpaceOnUse" x1="-500" x2="-745.736" xlink:href="#lg5" y1="276" y2="276"/><linearGradient id="SVGID_36_" gradientTransform="matrix(-.999 .04 .04 .999 -238.722 24.526)" gradientUnits="userSpaceOnUse" x1="-500" x2="-745.736" xlink:href="#lg5" y1="198.915" y2="198.915"/><linearGradient id="SVGID_37_" gradientTransform="matrix(-.999 .04 .04 .999 -238.722 24.526)" gradientUnits="userSpaceOnUse" x1="-500" x2="-745.736" xlink:href="#lg5" y1="121.825" y2="121.825"/><linearGradient id="SVGID_38_" gradientTransform="matrix(.999 -.04 .04 .999 -10.693 15.434)" gradientUnits="userSpaceOnUse" x1="400.839" x2="216.339" xlink:href="#lg6" y1="379.736" y2="224.236"/><linearGradient id="SVGID_39_" gradientTransform="matrix(.999 -.04 .04 .999 -10.693 15.434)" gradientUnits="userSpaceOnUse" x1="424.254" x2="239.754" xlink:href="#lg6" y1="351.955" y2="196.455"/><linearGradient id="SVGID_40_" gradientTransform="matrix(.999 -.04 .04 .999 -10.693 15.434)" gradientUnits="userSpaceOnUse" x1="475.491" x2="290.991" xlink:href="#lg6" y1="291.162" y2="135.662"/><linearGradient id="SVGID_41_" gradientTransform="matrix(.999 -.04 .04 .999 -10.693 15.434)" gradientUnits="userSpaceOnUse" x1="448.046" x2="263.546" xlink:href="#lg6" y1="323.725" y2="168.225"/><linearGradient id="SVGID_42_" gradientTransform="matrix(-.999 .04 .04 .999 -238.722 24.526)" gradientUnits="userSpaceOnUse" x1="-607" x2="-607" xlink:href="#lg7" y1="126.5" y2="231.047"/><linearGradient id="SVGID_43_" gradientTransform="matrix(-.999 .04 .04 .999 -238.722 24.526)" gradientUnits="userSpaceOnUse" x1="-607.012" x2="-607.012" xlink:href="#lg7" y1="246.5" y2="117.453"/><linearGradient id="SVGID_44_" gradientTransform="matrix(.999 -.04 .04 .999 -10.693 15.434)" gradientUnits="userSpaceOnUse" x1="418.018" x2="376.685" xlink:href="#lg8" y1="164.375" y2="139.709"/><linearGradient id="SVGID_45_" gradientTransform="matrix(.999 -.04 .04 .999 -10.693 15.434)" gradientUnits="userSpaceOnUse" x1="367.312" x2="388.904" xlink:href="#lg7" y1="121.022" y2="142.614"/><linearGradient id="SVGID_46_" gradientUnits="userSpaceOnUse" x1="197.218" x2="320.882" xlink:href="#lg1" y1="280.429" y2="598.422"/><linearGradient id="SVGID_47_" gradientUnits="userSpaceOnUse" x1="255" x2="255" xlink:href="#lg2" y1="439" y2="510"/><g><path d="m484.598 510h-459.196c-14.029 0-25.402-11.373-25.402-25.402v-459.196c0-14.029 11.373-25.402 25.402-25.402h459.196c14.029 0 25.402 11.373 25.402 25.402v459.196c0 14.029-11.373 25.402-25.402 25.402z" fill="url(#SVGID_1_)"/><path d="m225.715 43.144c-16.41-18.183-37.955-30.509-62.604-33.815-61.988-8.315-120.096 43.515-129.787 115.766-1.979 14.754-1.786 29.218.303 42.967 4.765 31.363 2.214 63.403-6.56 93.889-1.855 6.446-3.273 13.156-4.201 20.08-5.729 42.712 8.618 82.427 34.506 105.123l122.846 122.846h304.38c14.029 0 25.402-11.373 25.402-25.402v-157.168z" fill="url(#SVGID_2_)"/><g><g><path d="m249.302 152.707c1.299-9.681 7.662-19.237 7.169-28.549-.698-13.174-3.112-25.858-7.02-37.711-2.309-7.003-11.139-13.715-14.446-20.067-4.613-8.863-4.153-17.023-10.496-24.291-16.563-18.979-38.598-31.866-63.898-35.26-61.988-8.315-120.096 43.515-129.787 115.766-1.979 14.754-1.786 29.218.303 42.966 4.222 27.79 2.7 56.111-3.805 83.412-.836 3.51 5.409 6.78 4.409 10.253-1.855 6.446-10.436 13.379-11.365 20.304-8.296 61.845 25.496 117.416 75.476 124.12s97.222-37.996 105.518-99.841c.06-.444.117-.888.172-1.331 2.787-22.377 9.128-44.044 18.52-64.409 2.232-4.84-.363-9.607 2.207-14.292 2.172-3.959 9.462-7.86 11.867-11.698 8.75-13.965 15.34-29.951 19.08-47.344.847-3.939-4.451-7.951-3.904-12.028z" fill="url(#SVGID_3_)"/><path d="m234.315 157.682c8.607-64.162-25.731-121.717-76.696-128.553-50.964-6.836-99.256 39.635-107.863 103.796-1.758 13.102-1.724 25.928-.123 38.103 3.651 27.774 1.272 56.211-6.216 83.325-1.583 5.733-2.809 11.696-3.633 17.845-7.367 54.921 19.972 103.912 61.064 109.424s80.376-34.542 87.743-89.463c.053-.394.104-.788.153-1.182 3.581-28.582 13.202-55.927 27.621-80.455 8.985-15.284 15.321-33.236 17.95-52.84z" fill="url(#SVGID_4_)"/><path d="m201.359 303.809c.06-.444.117-.888.172-1.331 4.01-32.189 15.372-62.91 32.594-90.398.32-.511.628-1.034.943-1.551-.119-32.395-6.651-126.744-77.029-153.643 0 0-77.571-.821-125.61 161.708-.001.011-.002.023-.003.034l126.406 165.572c21.857-17.969 37.997-46.624 42.527-80.391z" fill="url(#SVGID_5_)"/><g><path d="m187.475 348.236c-7.719 14.896-18.009 27.52-29.935 36.999l-116.357-15.609c-9.016-12.288-15.615-27.177-19.136-43.581z" fill="url(#SVGID_6_)"/><path d="m201.534 302.479-.178 1.328c-.423 3.152-.951 6.259-1.572 9.314l-180.355-24.193c.205-3.11.515-6.247.938-9.399.929-6.928 2.343-13.63 4.197-20.08 1-3.468 1.923-6.966 2.747-10.478l179.998 24.145c-2.601 9.61-4.542 19.419-5.775 29.363z" fill="url(#SVGID_7_)"/><path d="m240.968 199.851c-2.101 4.228-4.394 8.31-6.847 12.228-5.25 8.376-9.956 17.058-14.07 25.99l-187.144-25.104c1.01-13.697.729-27.477-.937-41.15z" fill="url(#SVGID_8_)"/><path d="m255.303 152.708c-.546 4.073-1.246 8.086-2.098 12.028l-223.528-29.984c.217-4.027.6-8.082 1.146-12.155 1.299-9.683 3.467-18.998 6.409-27.845l219.226 29.407c.508 9.309.144 18.866-1.155 28.549z" fill="url(#SVGID_9_)"/><path d="m249.44 86.45-195.509-26.225c9.754-14.724 21.961-27.05 35.753-36.218l134.822 18.085c10.888 12.478 19.415 27.586 24.934 44.358z" fill="url(#SVGID_10_)"/></g><g><path d="m168.654 345.711c-12.192 17.928-28.636 30.473-46.536 34.772l-41.488-5.565c-16.135-8.864-28.691-25.299-35.727-45.807z" fill="url(#SVGID_11_)"/><path d="m192.234 271.094c-1.474 6.552-2.646 13.185-3.484 19.883l-.158 1.18c-.877 6.541-2.211 12.87-3.942 18.934l-146.053-19.592c-.072-6.306.31-12.762 1.187-19.303.824-6.145 2.049-12.115 3.635-17.845.29-1.031.559-2.064.83-3.107z" fill="url(#SVGID_12_)"/><path d="m223.088 197.452c-2.022 4.542-4.281 8.9-6.728 13.072-4.797 8.155-9.06 16.623-12.742 25.341l-153.108-20.538c1.21-13.681 1.079-27.45-.491-41.09z" fill="url(#SVGID_13_)"/><path d="m234.315 157.682c-.199 1.487-.419 2.971-.665 4.431l-184.418-24.738c.147-1.473.327-2.963.526-4.45 1.678-12.508 4.86-24.35 9.289-35.248l175.597 23.555c1.4 11.68 1.349 23.942-.329 36.45z" fill="url(#SVGID_14_)"/><path d="m224.136 83.056-144.892-19.436c14.749-17.736 33.626-29.844 53.999-33.77l47.693 6.398c18.618 9.156 33.647 25.812 43.2 46.808z" fill="url(#SVGID_15_)"/></g></g><g><path d="m146.953 368.64c8.108-5.985 15.455-13.747 21.701-22.928l-43.679-5.859z" fill="url(#SVGID_16_)"/><path d="m93.703 298.891 90.945 12.2c1.732-6.064 3.065-12.393 3.942-18.934l.158-1.18c.838-6.698 2.01-13.331 3.484-19.883l-133.413-17.896z" fill="url(#SVGID_17_)"/><path d="m50.51 215.327 153.109 20.538c3.682-8.718 7.945-17.186 12.742-25.341 2.446-4.172 4.706-8.53 6.728-13.072l-173.07-23.216c1.57 13.64 1.7 27.41.491 41.091z" fill="url(#SVGID_18_)"/><path d="m218.112 119.014-129.55-17.378c-8.157 10.115-16.469 22.51-24.612 37.713l166.628 22.352c-2.531-13.779-6.453-28.541-12.466-42.687z" fill="url(#SVGID_19_)"/></g><g><path d="m44.736 228.345c-8.171-1.096-13.933-8.588-12.881-16.777.529-4.124 13.899-101.631 95.254-156.477 21.113-14.236 49.764-10.548 66.642 8.577 23.196 26.283 50.464 71.004 48.633 134.791-.238 8.281-7.144 14.802-15.424 14.564-8.282-.238-14.801-7.144-14.564-15.424 1.55-54.007-21.515-91.847-41.138-114.08-6.944-7.869-18.714-9.397-27.379-3.554-70.221 47.34-82.156 134.547-82.268 135.423-1.055 8.217-8.571 14.022-16.788 12.968-.029-.004-.059-.008-.087-.011z" fill="url(#SVGID_20_)"/><path d="m226.867 213.016c.033-.328.071-.654.085-.988 2.693-63.672-20.312-107.821-40.084-133.644-14.387-18.79-39.303-21.978-57.955-7.412-69.632 54.369-84.317 147.59-85.649 157.099.481.114.972.206 1.472.273l.087.012c8.217 1.054 15.733-4.751 16.788-12.968.112-.876 12.048-88.083 82.268-135.423 8.665-5.842 20.436-4.315 27.379 3.554 19.623 22.233 42.688 60.073 41.138 114.08-.236 8.249 6.234 15.13 14.471 15.417z" fill="url(#SVGID_21_)"/></g><path d="m193.751 63.668c-9.286-10.522-22.136-16.36-35.334-17.122l-4.012 29.912c6.212-.323 12.487 2.113 16.853 7.062 6.158 6.978 12.655 15.494 18.624 25.563l36.235 4.861c-9.317-20.996-21.301-37.739-32.366-50.276z" fill="url(#SVGID_22_)"/><circle cx="158.299" cy="62.47" fill="url(#SVGID_23_)" r="19.5"/></g><path d="m510 484.598v-319.406l-50.759-50.759c-21.408-22.921-50.201-36.47-81.352-35.228-62.493 2.492-110.8 63.56-107.896 136.4.887 22.257 6.454 43.035 15.541 61.091 14.581 28.976 23.026 60.623 24.013 93.046.014.447.029.894.047 1.341 1.418 35.562 15.975 66.747 37.567 86.612l52.305 52.305h85.132c14.029 0 25.402-11.373 25.402-25.402z" fill="url(#SVGID_24_)"/><g><g><path d="m265.994 211.605c-.94-23.569 3.482-45.906 12.012-65.424 3.405-7.791 14.738-13.135 19.372-19.927 4.992-7.317 3.376-15.994 9.602-21.909 18.262-17.35 41.405-28.124 66.911-29.141 25.505-1.017 49.432 7.88 69.017 23.72 7.416 5.998 5.399 14.525 11.42 22.353 4.433 5.763 17.259 10.444 20.795 17.047 5.891 11.001 10.454 23.078 13.412 35.933 2.091 9.087-6.93 15.59-6.541 25.35.164 4.111 10.474 11.158 10.319 15.185-.408 10.545-1.888 20.775-4.322 30.54-6.798 27.275-7.927 55.614-3.999 83.403.505 3.573-3.906 7.137-3.236 10.688 1.245 6.591 7.03 13.404 7.308 20.385 2.486 62.35-36.346 114.523-86.733 116.532s-93.25-46.907-95.736-109.256c-.018-.448-.034-.895-.047-1.341-.686-22.539-4.976-44.704-12.426-65.856-1.601-4.546 3.652-9.045 1.763-13.491-1.965-4.626-11.083-9.194-13.35-13.698-9.087-18.058-14.654-38.836-15.541-61.093z" fill="url(#SVGID_25_)"/><path d="m286.424 218.518c-2.579-64.685 36.982-118.783 88.362-120.832s95.123 48.728 97.702 113.413c.527 13.209-.704 25.976-3.434 37.948-6.228 27.312-6.514 55.847-1.59 83.541 1.041 5.856 1.704 11.907 1.952 18.106 2.208 55.369-29.586 101.593-71.013 103.245s-76.8-41.895-79.008-97.263c-.016-.397-.03-.794-.042-1.191-.897-28.792-7.923-56.915-19.989-82.682-7.52-16.056-12.152-34.521-12.94-54.285z" fill="url(#SVGID_26_)"/><path d="m488.064 359.808c-.278-6.981-1.063-13.794-2.308-20.385-3.308-17.512-4.615-35.33-3.765-53.04-5.501-24.926-35.052-141.663-109.464-160.129 0 0-83.048 13.22-90.992 146.442l182.564 168.564c15.954-21.14 25.219-49.999 23.965-81.452z" fill="url(#SVGID_27_)"/><g><path d="m315.27 412.613c6.295 15.552 15.361 29.081 26.35 39.632l117.307-4.677c10.124-11.392 18.084-25.601 23.121-41.604z" fill="url(#SVGID_28_)"/><path d="m305.545 365.743.053 1.339c.127 3.177.362 6.321.696 9.42l181.826-7.25c.086-3.116.07-6.268-.056-9.445-.278-6.984-1.06-13.789-2.304-20.384-.672-3.546-1.264-7.115-1.757-10.688l-181.466 7.235c1.691 9.81 2.708 19.757 3.008 29.773z" fill="url(#SVGID_29_)"/><path d="m275.863 259.881c1.697 4.406 3.599 8.684 5.675 12.814 4.445 8.83 8.32 17.913 11.583 27.19l188.67-7.523c.273-13.732 1.839-27.425 4.775-40.883z" fill="url(#SVGID_30_)"/><path d="m265.992 211.607c.164 4.107.486 8.167.966 12.171l225.351-8.985c.16-4.03.157-8.103-.006-12.209-.389-9.762-1.678-19.238-3.781-28.322l-221.014 8.812c-1.375 9.222-1.905 18.77-1.516 28.533z" fill="url(#SVGID_31_)"/><path d="m278.015 146.185 197.103-7.859c-8.337-15.57-19.34-28.982-32.215-39.398l-135.922 5.42c-12.004 11.408-21.905 25.653-28.966 41.837z" fill="url(#SVGID_32_)"/></g><g><path d="m334.245 411.856c10.465 18.988 25.666 33.014 43.087 38.964l41.827-1.668c16.892-7.319 30.928-22.51 39.848-42.271z" fill="url(#SVGID_33_)"/><path d="m317.734 335.363c.856 6.661 1.404 13.375 1.613 20.122l.047 1.189c.263 6.595 1 13.02 2.157 19.219l147.243-5.871c.661-6.271.883-12.735.62-19.33-.247-6.195-.909-12.254-1.953-18.107-.192-1.053-.364-2.107-.537-3.171z" fill="url(#SVGID_34_)"/><path d="m293.889 259.163c1.589 4.71 3.432 9.261 5.478 13.643 4.015 8.567 7.469 17.396 10.321 26.42l154.357-6.155c.073-13.734 1.488-27.431 4.325-40.865z" fill="url(#SVGID_35_)"/><path d="m286.424 218.518c.06 1.499.139 2.997.248 4.474l185.922-7.413c-.009-1.481-.049-2.98-.109-4.479-.503-12.61-2.566-24.697-5.957-35.961l-177.029 7.059c-2.484 11.497-3.578 23.71-3.075 36.32z" fill="url(#SVGID_36_)"/><path d="m303.525 145.168 146.074-5.824c-13.029-19.036-30.693-32.853-50.611-38.664l-48.082 1.917c-19.391 7.378-35.909 22.558-47.381 42.571z" fill="url(#SVGID_37_)"/></g></g><g><path d="m459.006 406.882c-3.173 7.022-6.989 13.469-11.355 19.188l-19.451-17.96z" fill="url(#SVGID_38_)"/><path d="m469.415 350.692c.263 6.595.04 13.059-.62 19.33l-78.458 3.128-42.237-38.997 118.826-4.738c.173 1.064.345 2.118.537 3.171 1.043 5.853 1.705 11.911 1.952 18.106z" fill="url(#SVGID_39_)"/><path d="m458.886 216.125-169.875 6.773c4.211-16.361 9.793-29.984 16.086-41.324l131.855-5.257c8.681 12.635 15.944 26.376 21.934 39.808z" fill="url(#SVGID_40_)"/><path d="m481.993 286.38c-.017.321-.034.652-.041.972-.04.752-.07 1.504-.09 2.255-.033.922-.057 1.834-.07 2.755l-171.544 6.84-28.709-26.507c.271-4.494.618-8.852 1.06-13.083l189.979-7.575c4.976 15.385 7.988 27.915 9.415 34.343z" fill="url(#SVGID_41_)"/></g><g><path d="m468.579 306.571c8.238-.328 14.674-7.25 14.391-15.501-.142-4.155-4.35-102.484-80.23-164.686-19.692-16.145-48.562-15.148-67.152 2.318-25.549 24.003-56.872 65.982-61.004 129.662-.536 8.267 5.731 15.404 13.997 15.94 8.268.536 15.403-5.732 15.94-13.997 3.499-53.916 29.996-89.437 51.608-109.741 7.648-7.186 19.51-7.609 27.592-.983 65.495 53.689 69.237 141.629 69.266 142.512.283 8.279 7.224 14.761 15.504 14.479.029-.001.059-.002.088-.003z" fill="url(#SVGID_42_)"/><path d="m288.674 274.306c-.002-.33-.01-.658.007-.991 3.263-63.645 30.289-105.454 52.386-129.319 16.078-17.365 41.183-18.213 58.394-1.969 64.252 60.632 70.171 154.817 70.609 164.409-.49.068-.987.115-1.491.135-.029.001-.059.002-.087.003-8.279.282-15.22-6.199-15.504-14.479-.03-.882-3.772-88.823-69.266-142.512-8.082-6.626-19.944-6.204-27.592.983-21.613 20.304-48.109 55.825-51.608 109.741-.536 8.235-7.62 14.482-15.848 13.999z" fill="url(#SVGID_43_)"/></g><path d="m402.74 126.384c-9.804-8.038-21.882-11.824-33.834-11.447l1.195 29.962c4.821-.094 9.672 1.448 13.62 4.685 18.944 15.529 32.713 33.924 42.729 52.249l33.05-1.318c-11.897-25.376-29.802-52.033-56.76-74.131z" fill="url(#SVGID_44_)"/><circle cx="370.997" cy="130.819" fill="url(#SVGID_45_)" r="19.5"/></g><path d="m510 373.08v111.442c0 14.071-11.407 25.478-25.478 25.478h-459.044c-14.071 0-25.478-11.407-25.478-25.478v-195.122c0-10.44 6.96-19.6 17.01-22.4 84.47-23.54 174.81-12.82 251.42 29.84l12.02 6.69c54.52 30.36 115.89 46.29 178.3 46.29h27.99c12.85 0 23.26 10.42 23.26 23.26z" fill="url(#SVGID_46_)"/><path d="m0 410v74.522c0 14.071 11.407 25.478 25.478 25.478h459.044c14.071 0 25.478-11.407 25.478-25.478v-74.522z" fill="url(#SVGID_47_)"/></g></svg>