<svg id="Capa_1" enable-background="new 0 0 510 510" height="512" viewBox="0 0 510 510" width="512" xmlns="http://www.w3.org/2000/svg" xmlns:xlink="http://www.w3.org/1999/xlink"><linearGradient id="lg1"><stop offset="0" stop-color="#9b62cd"/><stop offset=".3003" stop-color="#985dcb"/><stop offset=".6716" stop-color="#8f4ec7"/><stop offset="1" stop-color="#833ac1"/></linearGradient><linearGradient id="SVGID_1_" gradientUnits="userSpaceOnUse" x1="87.802" x2="184.316" xlink:href="#lg1" y1="339.541" y2="250.533"/><linearGradient id="SVGID_2_" gradientUnits="userSpaceOnUse" x1="144.229" x2="239.67" xlink:href="#lg1" y1="270.258" y2="231.652"/><linearGradient id="SVGID_3_" gradientUnits="userSpaceOnUse" x1="358.759" x2="442.404" xlink:href="#lg1" y1="283.21" y2="352.914"/><linearGradient id="SVGID_4_" gradientUnits="userSpaceOnUse" x1="287.741" x2="384.255" xlink:href="#lg1" y1="238.358" y2="279.108"/><linearGradient id="SVGID_5_" gradientUnits="userSpaceOnUse" x1="213.713" x2="338.114" xlink:href="#lg1" y1="235.925" y2="235.925"/><linearGradient id="lg2"><stop offset="0" stop-color="#662d90" stop-opacity="0"/><stop offset=".1967" stop-color="#5e2d84" stop-opacity=".197"/><stop offset=".6948" stop-color="#4c2d6c" stop-opacity=".695"/><stop offset="1" stop-color="#452d63"/></linearGradient><linearGradient id="SVGID_6_" gradientUnits="userSpaceOnUse" x1="246.109" x2="53.081" xlink:href="#lg2" y1="225.006" y2="109.189"/><linearGradient id="SVGID_7_" gradientUnits="userSpaceOnUse" x1="255" x2="255" xlink:href="#lg2" y1="328.507" y2="490.795"/><linearGradient id="SVGID_8_" gradientUnits="userSpaceOnUse" x1="255" x2="255" xlink:href="#lg1" y1="379.981" y2="455.766"/><g><g><path d="m106.695 164.84c-23.561-20.359-60.136-18.255-84.4 4.561-.273.257-.547.514-.82.771-24.264 22.816-28.612 59.192-9.739 83.96 58.106 76.254 136.632 133.288 217.721 185.326l48.833-45.919c-46.956-84.135-99.053-166.016-171.595-228.699z" fill="url(#SVGID_1_)"/><path d="m204.747 116.614c-14.925-28.926-50.099-41.445-81.062-29.174-.349.138-.698.277-1.047.415-30.963 12.271-48.011 45.487-39.069 76.784 27.531 96.354 81.127 182.364 138.916 264.593l62.316-24.697c-14.231-99.493-34.103-198.863-80.054-287.921z" fill="url(#SVGID_2_)"/></g><g><path d="m403.305 164.84c23.561-20.359 60.136-18.255 84.4 4.561.273.257.547.514.82.771 24.264 22.816 28.612 59.192 9.739 83.96-58.106 76.254-136.632 133.288-217.721 185.326l-48.833-45.919c46.956-84.135 99.053-166.016 171.595-228.699z" fill="url(#SVGID_3_)"/><path d="m305.253 116.614c14.925-28.926 50.099-41.445 81.062-29.174.349.138.698.277 1.047.415 30.963 12.271 48.011 45.487 39.069 76.784-27.531 96.354-81.127 182.364-138.915 264.593l-62.316-24.697c14.23-99.493 34.102-198.863 80.053-287.921z" fill="url(#SVGID_4_)"/></g><path d="m320.173 113.019c-3.218-33.15-31.305-58.326-64.611-58.326-.375 0-.751 0-1.126 0-33.306 0-61.393 25.176-64.611 58.326-9.906 102.06 8.231 204.107 31.658 304.137h67.032c23.427-100.031 41.565-202.073 31.658-304.137z" fill="url(#SVGID_5_)"/><path d="m255.563 54.694c-.188 0-.375 0-.563 0v362.463h33.516c23.427-100.032 41.564-202.074 31.658-304.138-3.218-33.15-31.305-58.325-64.611-58.325z" fill="url(#SVGID_6_)"/><path d="m53.095 302.055c51.61 53.31 113.207 96.874 176.363 137.403l23.716-22.301h3.652l23.716 22.301c63.156-40.529 124.753-84.093 176.363-137.403z" fill="url(#SVGID_7_)"/><path d="m354.073 396.133c-65.322-19.204-132.827-19.204-198.146 0-17.027 5.006-25.889 23.752-19.097 40.149.077.186.154.373.232.559 5.865 14.159 21.463 21.557 36.168 17.24 54.058-15.87 109.481-15.871 163.541 0 14.705 4.317 30.303-3.081 36.168-17.24.077-.186.154-.373.232-.559 6.791-16.398-2.071-35.143-19.098-40.149z" fill="url(#SVGID_8_)"/></g></svg>