<svg id="Capa_1" enable-background="new 0 0 510 510" height="512" viewBox="0 0 510 510" width="512" xmlns="http://www.w3.org/2000/svg" xmlns:xlink="http://www.w3.org/1999/xlink"><linearGradient id="lg1"><stop offset="0" stop-color="#ffda2d"/><stop offset="1" stop-color="#fdbf00"/></linearGradient><linearGradient id="SVGID_1_" gradientUnits="userSpaceOnUse" x1="193.279" x2="345.05" xlink:href="#lg1" y1="283.353" y2="435.123"/><linearGradient id="lg2"><stop offset="0" stop-color="#ff9100" stop-opacity="0"/><stop offset="1" stop-color="#ff9100"/></linearGradient><linearGradient id="SVGID_2_" gradientUnits="userSpaceOnUse" x1="245.21" x2="336.04" xlink:href="#lg2" y1="293.247" y2="606.343"/><linearGradient id="SVGID_3_" gradientUnits="userSpaceOnUse" x1="255.277" x2="283.06" xlink:href="#lg2" y1="293.717" y2="470.034"/><linearGradient id="SVGID_4_" gradientUnits="userSpaceOnUse" x1="310.296" x2="292.665" xlink:href="#lg2" y1="367.229" y2="229.916"/><linearGradient id="SVGID_5_" gradientUnits="userSpaceOnUse" x1="207.942" x2="323.656" xlink:href="#lg1" y1="181.278" y2="296.992"/><linearGradient id="SVGID_6_" gradientUnits="userSpaceOnUse" x1="249.33" x2="278.182" xlink:href="#lg2" y1="181.79" y2="330.323"/><linearGradient id="SVGID_7_" gradientUnits="userSpaceOnUse" x1="247.256" x2="277.177" xlink:href="#lg2" y1="127.996" y2="272.255"/><linearGradient id="SVGID_8_" gradientUnits="userSpaceOnUse" x1="252.492" x2="264.247" xlink:href="#lg2" y1="111.805" y2="163.097"/><linearGradient id="SVGID_9_" gradientUnits="userSpaceOnUse" x1="213.287" x2="315.859" y1="209.845" y2="312.416"><stop offset="0" stop-color="#b9dd39"/><stop offset="1" stop-color="#90cc1c"/></linearGradient><linearGradient id="SVGID_10_" gradientUnits="userSpaceOnUse" x1="445.406" x2="404.533" xlink:href="#lg2" y1="357.033" y2="277.157"/><linearGradient id="lg3"><stop offset="0" stop-color="#edf5ff"/><stop offset="1" stop-color="#d5e8fe"/></linearGradient><linearGradient id="SVGID_11_" gradientTransform="matrix(.363 -.932 .932 .363 2369.689 -2569.006)" gradientUnits="userSpaceOnUse" x1="-3358.378" x2="-3328.811" xlink:href="#lg3" y1="-867.658" y2="-838.092"/><linearGradient id="lg4"><stop offset="0" stop-color="#b5dbff" stop-opacity="0"/><stop offset=".1734" stop-color="#8fc5e9" stop-opacity=".173"/><stop offset=".4541" stop-color="#56a4c8" stop-opacity=".454"/><stop offset=".6955" stop-color="#2d8db1" stop-opacity=".696"/><stop offset=".8853" stop-color="#147ea2" stop-opacity=".885"/><stop offset="1" stop-color="#0b799d"/></linearGradient><linearGradient id="SVGID_12_" gradientTransform="matrix(.363 -.932 .932 .363 2369.689 -2569.006)" gradientUnits="userSpaceOnUse" x1="-3343.984" x2="-3384.016" xlink:href="#lg4" y1="-860.868" y2="-839.071"/><linearGradient id="SVGID_13_" gradientTransform="matrix(-.778 -.629 .629 -.778 659.218 -5704.477)" gradientUnits="userSpaceOnUse" x1="-3544.187" x2="-3514.62" xlink:href="#lg3" y1="-4848.205" y2="-4818.638"/><linearGradient id="SVGID_14_" gradientTransform="matrix(-.778 -.629 .629 -.778 659.218 -5704.477)" gradientUnits="userSpaceOnUse" x1="-3529.793" x2="-3569.825" xlink:href="#lg4" y1="-4841.414" y2="-4819.617"/><linearGradient id="SVGID_15_" gradientTransform="matrix(-.75 .661 -.661 -.75 -3050.614 -4785.605)" gradientUnits="userSpaceOnUse" x1="741.807" x2="771.374" xlink:href="#lg3" y1="-6101.663" y2="-6072.096"/><linearGradient id="SVGID_16_" gradientTransform="matrix(-.75 .661 -.661 -.75 -3050.614 -4785.605)" gradientUnits="userSpaceOnUse" x1="756.2" x2="716.169" xlink:href="#lg4" y1="-6094.872" y2="-6073.076"/><linearGradient id="SVGID_17_" gradientTransform="matrix(.339 .941 -.941 .339 -3239.504 -1422.439)" gradientUnits="userSpaceOnUse" x1="2800.793" x2="2830.36" xlink:href="#lg3" y1="-2892.692" y2="-2863.125"/><linearGradient id="SVGID_18_" gradientTransform="matrix(.339 .941 -.941 .339 -3239.504 -1422.439)" gradientUnits="userSpaceOnUse" x1="2815.187" x2="2775.155" xlink:href="#lg4" y1="-2885.901" y2="-2864.105"/><linearGradient id="SVGID_19_" gradientUnits="userSpaceOnUse" x1="381.88" x2="411.447" xlink:href="#lg3" y1="207.133" y2="236.7"/><linearGradient id="SVGID_20_" gradientUnits="userSpaceOnUse" x1="396.274" x2="356.242" xlink:href="#lg4" y1="213.924" y2="235.72"/><linearGradient id="SVGID_21_" gradientUnits="userSpaceOnUse" x1="379.423" x2="400.577" xlink:href="#lg1" y1="242.286" y2="263.44"/><g><path d="m510 348.712c0 38.736-114.167 70.138-255 70.138s-255-31.402-255-70.138 114.167-130.044 255-130.044 255 91.308 255 130.044z" fill="url(#SVGID_1_)"/><path d="m500.925 325.683c-.235 37.305-110.247 67.524-245.925 67.524s-245.69-30.219-245.925-67.524c7.128-10.472 18.262-22.109 32.699-33.725 45.575-36.684 124.063-73.294 213.226-73.294s167.651 36.61 213.226 73.294c14.437 11.616 25.571 23.253 32.699 33.725z" fill="url(#SVGID_2_)"/><path d="m468.226 291.959c-13.849 29.001-104.027 51.378-213.226 51.378s-199.377-22.377-213.226-51.378c45.575-36.685 124.063-73.295 213.226-73.295s167.651 36.61 213.226 73.295z" fill="url(#SVGID_3_)"/><path d="m95.78 257.528v14.213l147.027 147.027c4.041.052 8.104.082 12.192.082 140.833 0 255-31.402 255-70.138 0-23.866-43.347-67.68-109.556-97.808h-290.887c-4.71 2.143-9.304 4.354-13.776 6.624z" fill="url(#SVGID_4_)"/><path d="m402.393 282.161c-95.609 32.289-199.176 32.289-294.785 0-8.984-3.034-15.032-11.461-15.032-20.943v-7.643c-.001-89.705 72.719-162.425 162.424-162.425 89.705 0 162.425 72.72 162.425 162.425v7.643c0 9.482-6.048 17.909-15.032 20.943z" fill="url(#SVGID_5_)"/><path d="m411.794 210.981c-102.307 30.487-211.281 30.487-313.588 0 18.722-69.041 81.822-119.831 156.794-119.831 44.859 0 85.466 18.177 114.852 47.574 19.737 19.726 34.419 44.517 41.942 72.257z" fill="url(#SVGID_6_)"/><path d="m391.395 165.331c-89.473 22.953-183.316 22.953-272.789 0 28.948-44.645 79.225-74.181 136.394-74.181 44.859 0 85.466 18.177 114.852 47.574 8.078 8.067 15.302 16.99 21.543 26.607z" fill="url(#SVGID_7_)"/><path d="m351.28 122.748c-63.677 11.348-128.882 11.348-192.559 0 26.938-19.865 60.236-31.598 96.279-31.598s69.341 11.733 96.28 31.598z" fill="url(#SVGID_8_)"/><path d="m94.116 231.199c-1.008 7.316-1.541 14.783-1.541 22.376v7.643c0 9.483 6.048 17.909 15.032 20.943 95.609 32.289 199.176 32.289 294.785 0 8.984-3.034 15.032-11.461 15.032-20.943v-7.643c0-7.593-.533-15.06-1.541-22.376-104.472 34.569-217.294 34.569-321.767 0z" fill="url(#SVGID_9_)"/><path d="m510 348.712c0-19.642-29.366-52.795-76.669-80.711h-86.628v37.331l92.015 92.015c44.135-12.609 71.282-29.749 71.282-48.635z" fill="url(#SVGID_10_)"/><g><g><circle cx="352.889" cy="240.896" fill="url(#SVGID_11_)" r="29.489"/><path d="m325.465 230.062 54.951 21.402c5.815-15.143-1.693-32.154-16.825-38.047s-32.167 1.559-38.126 16.645z" fill="url(#SVGID_12_)"/></g><g><circle cx="365.354" cy="282.495" fill="url(#SVGID_13_)" r="29.489"/><path d="m346.703 305.333 37.081-45.855c-12.661-10.139-31.149-8.153-41.36 4.474s-8.285 31.121 4.279 41.381z" fill="url(#SVGID_14_)"/></g><g><circle cx="414.646" cy="282.495" fill="url(#SVGID_15_)" r="29.489"/><path d="m434.03 304.714-38.982-44.25c-12.12 10.78-13.264 29.339-2.53 41.524s29.289 13.39 41.512 2.726z" fill="url(#SVGID_16_)"/></g><g><circle cx="427.111" cy="240.896" fill="url(#SVGID_17_)" r="29.489"/><path d="m454.896 231.024-55.472 20.012c5.577 15.232 22.42 23.11 37.695 17.599 15.275-5.51 23.209-22.327 17.777-37.611z" fill="url(#SVGID_18_)"/></g><g><circle cx="390" cy="215.253" fill="url(#SVGID_19_)" r="29.489"/><path d="m390.143 185.767v58.972c16.221-.077 29.347-13.247 29.347-29.486s-13.127-29.409-29.347-29.486z" fill="url(#SVGID_20_)"/></g><circle cx="390" cy="252.863" fill="url(#SVGID_21_)" r="14.958"/></g></g></svg>