<svg id="Capa_1" enable-background="new 0 0 595.281 841.891" height="512" viewBox="0 0 595.281 841.891" width="512" xmlns="http://www.w3.org/2000/svg" xmlns:xlink="http://www.w3.org/1999/xlink"><linearGradient id="lg1"><stop offset="0" stop-color="#48b2e3"/><stop offset="1" stop-color="#0095ff"/></linearGradient><linearGradient id="SVGID_1_" gradientTransform="matrix(1.15 .2 .2 -1.15 -115.534 1043.665)" gradientUnits="userSpaceOnUse" x1="135.804" x2="484.262" xlink:href="#lg1" y1="707.83" y2="359.372"/><linearGradient id="SVGID_2_" gradientTransform="matrix(1.167 0 0 -1.167 -2.688 1105.289)" gradientUnits="userSpaceOnUse" x1="135.749" x2="484.207" y1="707.857" y2="359.399"><stop offset="0" stop-color="#76e2f8"/><stop offset="1" stop-color="#48b2e3"/></linearGradient><linearGradient id="lg2"><stop offset="0" stop-color="#edf5ff"/><stop offset="1" stop-color="#d5e8fe"/></linearGradient><linearGradient id="SVGID_3_" gradientTransform="matrix(1.16 -.128 -.128 -1.16 74.105 1134.083)" gradientUnits="userSpaceOnUse" x1="135.708" x2="484.166" xlink:href="#lg2" y1="707.872" y2="359.414"/><linearGradient id="SVGID_4_" gradientTransform="matrix(1.16 -.128 -.128 -1.16 74.105 1134.083)" gradientUnits="userSpaceOnUse" x1="379.521" x2="85.139" xlink:href="#lg2" y1="466.035" y2="760.417"/><linearGradient id="SVGID_5_" gradientTransform="matrix(1.16 -.128 -.128 -1.16 74.105 1134.083)" gradientUnits="userSpaceOnUse" x1="257.906" x2="257.906" y1="690.559" y2="570.17"><stop offset="0" stop-color="#ffda2d"/><stop offset="1" stop-color="#fdbf00"/></linearGradient><linearGradient id="lg3"><stop offset="0" stop-color="#b5dbff"/><stop offset="1" stop-color="#48b2e3"/></linearGradient><linearGradient id="SVGID_6_" gradientTransform="matrix(1.16 -.128 -.128 -1.16 74.105 1134.083)" gradientUnits="userSpaceOnUse" x1="342.226" x2="271.538" xlink:href="#lg3" y1="500.313" y2="620.268"/><linearGradient id="SVGID_7_" gradientTransform="matrix(1.16 -.128 -.128 -1.16 74.105 1134.083)" gradientUnits="userSpaceOnUse" x1="296.95" x2="259.479" y1="602.017" y2="648.052"><stop offset="0" stop-color="#b5dbff" stop-opacity="0"/><stop offset=".1734" stop-color="#8fc5e9" stop-opacity=".173"/><stop offset=".4541" stop-color="#56a4c8" stop-opacity=".454"/><stop offset=".6955" stop-color="#2d8db1" stop-opacity=".696"/><stop offset=".8853" stop-color="#147ea2" stop-opacity=".885"/><stop offset="1" stop-color="#0b799d"/></linearGradient><linearGradient id="SVGID_8_" gradientTransform="matrix(1.16 -.128 -.128 -1.16 74.105 1134.083)" gradientUnits="userSpaceOnUse" x1="172.025" x2="325.705" xlink:href="#lg2" y1="619.334" y2="514.552"/><linearGradient id="lg4"><stop offset="0" stop-color="#b5dbff" stop-opacity="0"/><stop offset=".2428" stop-color="#93cef6" stop-opacity=".243"/><stop offset=".5763" stop-color="#6abfec" stop-opacity=".576"/><stop offset=".8403" stop-color="#51b5e5" stop-opacity=".84"/><stop offset="1" stop-color="#48b2e3"/></linearGradient><linearGradient id="SVGID_9_" gradientTransform="matrix(1.16 -.128 -.128 -1.16 74.105 1134.083)" gradientUnits="userSpaceOnUse" x1="266.237" x2="31.661" xlink:href="#lg4" y1="577.647" y2="515.791"/><linearGradient id="SVGID_10_" gradientTransform="matrix(1.16 -.128 -.128 -1.16 74.105 1134.083)" gradientUnits="userSpaceOnUse" x1="285.065" x2="274.497" xlink:href="#lg1" y1="586.737" y2="537.418"/><linearGradient id="SVGID_11_" gradientTransform="matrix(1.16 -.128 -.128 -1.16 74.105 1134.083)" gradientUnits="userSpaceOnUse" x1="230.214" x2="276.772" xlink:href="#lg3" y1="564.232" y2="421.454"/><linearGradient id="lg5"><stop offset="0" stop-color="#48b2e3" stop-opacity="0"/><stop offset=".4112" stop-color="#2995bf" stop-opacity=".411"/><stop offset=".7781" stop-color="#1381a6" stop-opacity=".778"/><stop offset="1" stop-color="#0b799d"/></linearGradient><linearGradient id="SVGID_13_" gradientTransform="matrix(1.16 -.128 -.128 -1.16 74.105 1134.083)" gradientUnits="userSpaceOnUse" x1="308.179" x2="123.564" xlink:href="#lg5" y1="497.182" y2="691.79"/><linearGradient id="SVGID_14_" gradientTransform="matrix(1.16 -.128 -.128 -1.16 74.105 1134.083)" gradientUnits="userSpaceOnUse" x1="369.084" x2="273.921" y1="551.855" y2="608.477"><stop offset="0" stop-color="#0095ff" stop-opacity="0"/><stop offset="1" stop-color="#03232e"/></linearGradient><linearGradient id="SVGID_15_" gradientTransform="matrix(1.16 -.128 -.128 -1.16 74.105 1134.083)" gradientUnits="userSpaceOnUse" x1="257.904" x2="257.904" xlink:href="#lg5" y1="464.15" y2="437.025"/><linearGradient id="SVGID_16_" gradientTransform="matrix(1.16 -.128 -.128 -1.16 74.105 1134.083)" gradientUnits="userSpaceOnUse" x1="375.131" x2="389.477" xlink:href="#lg2" y1="682.304" y2="667.958"/><linearGradient id="SVGID_17_" gradientTransform="matrix(1.16 -.128 -.128 -1.16 74.105 1134.083)" gradientUnits="userSpaceOnUse" x1="343.679" x2="353.054" xlink:href="#lg2" y1="663.32" y2="653.945"/><linearGradient id="SVGID_18_" gradientTransform="matrix(1.16 -.128 -.128 -1.16 74.105 1134.083)" gradientUnits="userSpaceOnUse" x1="257.254" x2="257.254" xlink:href="#lg4" y1="410.996" y2="332.048"/><g><path d="m474.39 718.026-443.415-77.109c-20.335-3.537-33.953-22.887-30.416-43.221l77.11-443.417c3.536-20.334 22.887-33.951 43.221-30.415l443.417 77.109c20.334 3.537 33.951 22.888 30.416 43.222l-77.111 443.416c-3.536 20.334-22.888 33.952-43.222 30.415z" fill="url(#SVGID_1_)"/><path d="m522.675 683.352h-450.071c-20.64 0-37.371-16.732-37.371-37.371v-450.072c0-20.64 16.732-37.37 37.371-37.37h450.071c20.639 0 37.371 16.731 37.371 37.37v450.071c0 20.64-16.732 37.372-37.371 37.372z" fill="url(#SVGID_2_)"/><g><path d="m550.05 657.137-447.364 49.274c-20.515 2.259-38.978-12.54-41.238-33.056l-49.274-447.364c-2.259-20.517 12.541-38.979 33.056-41.238l447.366-49.273c20.514-2.26 38.977 12.539 41.236 33.056l49.273 447.364c2.26 20.516-12.539 38.979-33.055 41.237z" fill="url(#SVGID_3_)"/><path d="m523.744 595.249-407.345 44.866c-16.369 1.803-31.1-10.006-32.903-26.374l-37.166-337.445c-1.803-16.369 10.005-31.1 26.374-32.902l407.345-44.866c16.369-1.803 31.1 10.006 32.902 26.373l37.166 337.446c1.804 16.369-10.006 31.1-26.373 32.902z" fill="url(#SVGID_4_)"/><path d="m503.464 574.291-371.833 40.954c-7.623.839-14.484-4.659-15.323-12.282l-35.607-323.287c-.839-7.623 4.66-14.483 12.283-15.323l371.832-40.954c7.623-.839 14.484 4.66 15.322 12.283l35.607 323.285c.84 7.624-4.658 14.483-12.281 15.324z" fill="url(#SVGID_5_)"/><g><path d="m441.625 505.558c-56.771 6.252-108.059-36.475-114.553-95.435-5.172-46.952 19.625-90.039 58.609-108.799 2.854-1.372 1.738-5.657-1.42-5.437-3.035.214-6.084.522-9.145.933-77.384 10.359-131.861 80.069-123.303 157.674 8.671 78.627 79.436 135.345 158.066 126.684 78.64-8.659 83.046-81.27 31.746-75.62z" fill="url(#SVGID_6_)"/><path d="m441.625 505.558c-56.771 6.252-108.059-36.475-114.553-95.435-5.172-46.952 19.625-90.039 58.609-108.799.598-.287 1.01-.705 1.277-1.179-59.631 22.717-98.289 83.219-90.98 149.484 7.801 70.738 65.861 123.73 134.691 127.35 58.172-17.809 57.282-76.523 10.956-71.421z" fill="url(#SVGID_7_)"/><path d="m387.615 259.425c-25.568-11.851-54.596-17.093-84.65-13.779-75.692 8.345-132.944 67.689-141.367 140.119-2.26 19.432-12.691 36.984-28.375 48.678-20.453 15.247-31.3 40.187-28.507 65.545l9.666 87.755s231.94-25.224 236.013-25.995c-47.627-16.183-84.058-58.732-89.826-112.068-7.929-73.315 44.777-138.929 118.076-147.002.527-.058 1.055-.113 1.582-.164 22.898-2.254 28.263-33.415 7.388-43.089z" fill="url(#SVGID_8_)"/><path d="m337.265 277.325c-92.989 10.242-160.069 93.927-149.828 186.916 4.854 44.074 26.214 82.32 57.238 109.279 53.627-5.876 103.846-11.419 105.721-11.773-47.627-16.183-84.058-58.732-89.827-112.068-7.929-73.315 44.776-138.929 118.075-147.002.529-.058 1.057-.113 1.582-.164 12.055-1.186 19.24-10.384 20.309-20.238-20.02-5.484-41.387-7.36-63.27-4.95z" fill="url(#SVGID_9_)"/><path d="m493.814 452.671c-21.578-3.398-72.346-15.489-117.447-57.075-5.646-5.207-13.771-4.751-18.615 1.11-22.828 27.618-84.023 97.261-227.966 116.76-7.315.991-12.414 8.43-11.502 16.702l7.615 69.134c.924 8.394 7.709 14.533 15.154 13.714l362.852-39.964c7.445-.821 12.732-8.29 11.807-16.684l-9.918-90.057c-.779-7.033-5.734-12.657-11.98-13.64z" fill="url(#SVGID_10_)"/><path d="m106.091 512.462s66.566-17.436 113.186-76.732c4.449-5.658 12.481-6.934 18.418-2.862 28.822 19.76 117.32 68.521 270.105 51.694l8.229 74.703c.82 7.444-4.551 14.146-11.996 14.965l-372.971 41.078c-7.444.821-14.146-4.551-14.965-11.995z" fill="url(#SVGID_11_)"/><path d="m106.091 512.462s66.566-17.436 113.186-76.732c4.449-5.658 12.481-6.934 18.418-2.862 28.822 19.76 117.32 68.521 270.105 51.694l8.229 74.703c.82 7.444-4.551 14.146-11.996 14.965l-372.971 41.078c-7.444.821-14.146-4.551-14.965-11.995z" fill="url(#SVGID_11_)"/><path d="m516.029 559.262-8.229-74.703c-152.785 16.828-241.283-31.933-270.104-51.693-2.805-1.924-6.077-2.639-9.218-2.277l-.04.083s3.227 24.229 37.368 45.053-25.291 24.018-45.52 12.836c-20.196-11.164-74.863 38.835 93.661 106.603l190.084-20.937c7.447-.82 12.816-7.52 11.998-14.965z" fill="url(#SVGID_13_)"/><path d="m493.814 452.671c-21.578-3.398-72.346-15.489-117.447-57.075-3.393-3.127-7.674-4.196-11.605-3.294-2.828 5.206-12.25 26.968 15.129 46.274 31.348 22.109 83.369 26.438 66.621 30.377-16.746 3.939.908 22.258 61.291 15.606l-2.01-18.247c-.778-7.034-5.733-12.658-11.979-13.641z" fill="url(#SVGID_14_)"/><path d="m112.52 570.831 3.578 32.48c.82 7.444 7.521 12.815 14.965 11.995l372.971-41.079c7.445-.82 12.816-7.521 11.996-14.965l-3.578-32.479z" fill="url(#SVGID_15_)"/><circle cx="430.71" cy="301.395" fill="url(#SVGID_16_)" r="19.161"/><circle cx="393.671" cy="325.057" fill="url(#SVGID_17_)" r="12.522"/></g><path d="m56.646 629.76 4.802 43.597c2.26 20.515 20.723 35.313 41.238 33.056l447.364-49.273c20.516-2.26 35.314-20.723 33.057-41.237l-4.803-43.597z" fill="url(#SVGID_18_)"/></g></g></svg>