<svg id="Capa_1" enable-background="new 0 0 510 510" height="512" viewBox="0 0 510 510" width="512" xmlns="http://www.w3.org/2000/svg" xmlns:xlink="http://www.w3.org/1999/xlink"><linearGradient id="SVGID_1_" gradientUnits="userSpaceOnUse" x1="120.411" x2="360.65" y1="160.683" y2="377.509"><stop offset="0" stop-color="#ffda2d"/><stop offset="1" stop-color="#fdbf00"/></linearGradient><linearGradient id="SVGID_2_" gradientTransform="matrix(.97 .244 -.244 .97 49.784 -93.961)" gradientUnits="userSpaceOnUse" x1="285.448" x2="409.365" y1="154.772" y2="266.613"><stop offset="0" stop-color="#76e2f8"/><stop offset="1" stop-color="#48b2e3"/></linearGradient><linearGradient id="lg1"><stop offset="0" stop-color="#edf5ff"/><stop offset="1" stop-color="#d5e8fe"/></linearGradient><linearGradient id="SVGID_3_" gradientTransform="matrix(.97 .244 -.244 .97 49.784 -93.961)" gradientUnits="userSpaceOnUse" x1="291.324" x2="398.483" xlink:href="#lg1" y1="109.988" y2="206.704"/><linearGradient id="SVGID_4_" gradientTransform="matrix(.951 -.31 .31 .951 -101.911 141.213)" gradientUnits="userSpaceOnUse" x1="326.116" x2="394.14" y1="368.257" y2="429.652"><stop offset="0" stop-color="#b9dd39"/><stop offset="1" stop-color="#90cc1c"/></linearGradient><linearGradient id="lg2"><stop offset="0" stop-color="#ff9100"/><stop offset="1" stop-color="#e63950"/></linearGradient><linearGradient id="SVGID_5_" gradientUnits="userSpaceOnUse" x1="107.651" x2="443.873" xlink:href="#lg2" y1="125.145" y2="458.417"/><linearGradient id="SVGID_6_" gradientUnits="userSpaceOnUse" x1="25.937" x2="253.035" xlink:href="#lg2" y1="167.26" y2="392.366"/><linearGradient id="lg3"><stop offset="0" stop-color="#e63950" stop-opacity="0"/><stop offset=".0467" stop-color="#e4354b" stop-opacity=".047"/><stop offset=".4669" stop-color="#d31822" stop-opacity=".467"/><stop offset=".7991" stop-color="#c90709" stop-opacity=".799"/><stop offset="1" stop-color="#c50000"/></linearGradient><linearGradient id="SVGID_7_" gradientUnits="userSpaceOnUse" x1="238.656" x2="238.656" xlink:href="#lg3" y1="445.347" y2="523.277"/><linearGradient id="SVGID_8_" gradientUnits="userSpaceOnUse" x1="267.473" x2="267.473" xlink:href="#lg2" y1="417.669" y2="313.368"/><linearGradient id="SVGID_9_" gradientUnits="userSpaceOnUse" x1="372.235" x2="177.868" xlink:href="#lg3" y1="308.765" y2="114.398"/><linearGradient id="SVGID_10_" gradientUnits="userSpaceOnUse" x1="225.233" x2="297.377" xlink:href="#lg1" y1="128.247" y2="257.635"/><g><g><path d="m292.368 510h-134.912c-8.565 0-15.509-6.944-15.509-15.509v-478.982c0-8.565 6.944-15.509 15.509-15.509h134.912c8.565 0 15.509 6.944 15.509 15.509v478.982c0 8.565-6.943 15.509-15.509 15.509z" fill="url(#SVGID_1_)"/><path d="m377.412 287.971-138.698-34.867c-8.357-2.101-13.429-10.579-11.328-18.937l34.866-138.697c2.101-8.357 10.579-13.429 18.937-11.328l138.698 34.867c8.357 2.101 13.429 10.579 11.328 18.937l-34.866 138.698c-2.101 8.356-10.579 13.428-18.937 11.327z" fill="url(#SVGID_2_)"/><path d="m382.057 224.03-119.941-30.151c-7.227-1.817-11.613-9.148-9.796-16.376l30.151-119.941c1.817-7.227 9.148-11.613 16.376-9.796l119.941 30.151c7.227 1.817 11.613 9.148 9.796 16.376l-30.151 119.941c-1.817 7.227-9.149 11.613-16.376 9.796z" fill="url(#SVGID_3_)"/><path d="m407.385 442.642-66.449 21.685c-7.689 2.509-15.957-1.69-18.466-9.379l-21.684-66.449c-2.509-7.689 1.69-15.957 9.379-18.466l66.449-21.684c7.689-2.509 15.957 1.69 18.466 9.379l21.684 66.449c2.51 7.688-1.689 15.956-9.379 18.465z" fill="url(#SVGID_4_)"/><g><path d="m375.655 493.227h-274c-12.893 0-23.346-10.452-23.346-23.346v-429.763c0-12.893 10.452-23.346 23.346-23.346h274c12.893 0 23.346 10.452 23.346 23.346v429.764c0 12.893-10.452 23.345-23.346 23.345z" fill="url(#SVGID_5_)"/><path d="m136.859 16.773h-35.203c-12.893 0-23.346 10.452-23.346 23.346v429.764c0 12.893 10.452 23.346 23.346 23.346h35.203z" fill="url(#SVGID_6_)"/><path d="m78.31 407.695v62.187c0 12.893 10.452 23.346 23.346 23.346h273.999c12.893 0 23.346-10.452 23.346-23.346v-62.187z" fill="url(#SVGID_7_)"/></g></g><path d="m360.245 408h-185.545c-8.395 0-15.2-6.805-15.2-15.2v-34.06c0-8.395 6.805-15.2 15.2-15.2h185.544c8.395 0 15.2 6.805 15.2 15.2v34.06c.001 8.395-6.804 15.2-15.199 15.2z" fill="url(#SVGID_8_)"/><path d="m399.001 204.557-63.792-63.792c-17.492-17.492-40.749-27.125-65.487-27.125s-47.995 9.633-65.487 27.125-27.125 40.749-27.125 65.487 9.633 47.995 27.125 65.487l194.765 194.765v-261.947z" fill="url(#SVGID_9_)"/><g><path d="m332.96 138.516c-17.492-17.492-40.749-27.125-65.487-27.125s-47.995 9.633-65.487 27.125-27.125 40.749-27.125 65.487 9.633 47.995 27.125 65.487 40.749 27.125 65.487 27.125 47.995-9.633 65.487-27.125 27.125-40.749 27.125-65.487-9.633-47.995-27.125-65.487zm-106.528 65.487c0-9.781.938-19.222 2.64-27.99 9.615-2.174 20.562-3.596 32.519-3.95v63.881c-11.957-.354-22.904-1.776-32.519-3.95-1.702-8.769-2.64-18.21-2.64-27.991zm-9.943 24.48c-18.689-6.32-29.867-15.691-29.867-24.48s11.178-18.16 29.867-24.48c-1.199 7.88-1.82 16.098-1.82 24.48s.621 16.6 1.82 24.48zm86.266-65.115c-9.264-1.738-19.175-2.782-29.401-3.072v-36.27c12.372 3.676 23.144 18.706 29.401 39.342zm-41.164-39.342v36.27c-10.226.29-20.136 1.334-29.401 3.072 6.257-20.636 17.03-35.666 29.401-39.342zm0 123.683v36.27c-12.372-3.675-23.144-18.706-29.401-39.342 9.265 1.737 19.176 2.782 29.401 3.072zm11.763 36.27v-36.27c10.226-.29 20.136-1.334 29.401-3.072-6.257 20.636-17.029 35.667-29.401 39.342zm0-48.036v-63.881c11.957.354 22.904 1.776 32.519 3.95 1.702 8.768 2.64 18.208 2.64 27.99 0 9.781-.938 19.222-2.64 27.99-9.615 2.175-20.562 3.596-32.519 3.951zm45.102-56.421c18.689 6.32 29.867 15.691 29.867 24.48s-11.178 18.16-29.867 24.48c1.199-7.88 1.82-16.098 1.82-24.48s-.621-16.6-1.82-24.48zm25.933-.433c-3.777-2.638-8.197-5.08-13.233-7.282-4.714-2.061-9.849-3.865-15.312-5.399-2.417-9.726-5.784-18.703-10.019-26.532-2.027-3.747-4.21-7.145-6.523-10.189 21.281 9.149 37.872 27.181 45.087 49.402zm-108.746-49.402c-2.313 3.045-4.495 6.442-6.523 10.189-4.235 7.828-7.602 16.805-10.019 26.532-5.464 1.535-10.598 3.339-15.312 5.399-5.036 2.201-9.456 4.644-13.233 7.282 7.215-22.221 23.806-40.253 45.087-49.402zm-45.087 99.23c3.777 2.638 8.197 5.08 13.233 7.282 4.714 2.061 9.849 3.865 15.312 5.399 2.417 9.726 5.784 18.703 10.019 26.532 2.027 3.747 4.21 7.145 6.523 10.189-21.281-9.15-37.872-27.181-45.087-49.402zm108.746 49.401c2.313-3.045 4.495-6.442 6.523-10.189 4.235-7.828 7.602-16.805 10.019-26.532 5.464-1.535 10.598-3.339 15.312-5.399 5.036-2.201 9.456-4.644 13.233-7.282-7.215 22.222-23.806 40.253-45.087 49.402z" fill="url(#SVGID_10_)"/></g></g></svg>