<svg id="Capa_1" enable-background="new 0 0 510 510" height="512" viewBox="0 0 510 510" width="512" xmlns="http://www.w3.org/2000/svg" xmlns:xlink="http://www.w3.org/1999/xlink"><linearGradient id="lg1"><stop offset="0" stop-color="#ff9100"/><stop offset="1" stop-color="#e63950"/></linearGradient><linearGradient id="SVGID_1_" gradientTransform="matrix(.966 -.259 .259 .966 -7.64 71.967)" gradientUnits="userSpaceOnUse" x1="245.191" x2="265.737" xlink:href="#lg1" y1="56.606" y2="77.873"/><linearGradient id="SVGID_2_" gradientTransform="matrix(-.966 -.259 -.259 .966 516.64 71.967)" gradientUnits="userSpaceOnUse" x1="245.269" x2="265.815" xlink:href="#lg1" y1="56.627" y2="77.894"/><linearGradient id="SVGID_3_" gradientUnits="userSpaceOnUse" x1="128.458" x2="207.398" y1="259.825" y2="330.115"><stop offset="0" stop-color="#b9dd39"/><stop offset="1" stop-color="#90cc1c"/></linearGradient><linearGradient id="lg2"><stop offset="0" stop-color="#07485e" stop-opacity="0"/><stop offset=".2898" stop-color="#064155" stop-opacity=".29"/><stop offset=".7606" stop-color="#042e3d" stop-opacity=".761"/><stop offset="1" stop-color="#03232e"/></linearGradient><linearGradient id="SVGID_4_" gradientUnits="userSpaceOnUse" x1="255" x2="255" xlink:href="#lg2" y1="421.364" y2="500.672"/><linearGradient id="SVGID_5_" gradientUnits="userSpaceOnUse" x1="257.001" x2="-191.6" y1="274.323" y2="94.262"><stop offset="0" stop-color="#07485e" stop-opacity="0"/><stop offset=".3884" stop-color="#05394a" stop-opacity=".388"/><stop offset="1" stop-color="#03232e"/></linearGradient><linearGradient id="SVGID_6_" gradientUnits="userSpaceOnUse" x1="356.565" x2="217.068" xlink:href="#lg2" y1="287.9" y2="419.827"/><linearGradient id="SVGID_7_" gradientUnits="userSpaceOnUse" x1="255.531" x2="242.014" y1="491.618" y2="414.3"><stop offset="0" stop-color="#0b799d"/><stop offset="1" stop-color="#07485e"/></linearGradient><linearGradient id="lg3"><stop offset="0" stop-color="#ffda2d"/><stop offset="1" stop-color="#fdbf00"/></linearGradient><linearGradient id="SVGID_8_" gradientTransform="matrix(1 0 -.1 1 21.843 0)" gradientUnits="userSpaceOnUse" x1="171.992" x2="220.207" xlink:href="#lg3" y1="362.72" y2="391.256"/><linearGradient id="SVGID_9_" gradientUnits="userSpaceOnUse" x1="338.854" x2="320.832" xlink:href="#lg3" y1="374.347" y2="389.487"/><linearGradient id="SVGID_10_" gradientUnits="userSpaceOnUse" x1="31.312" x2="-2.195" xlink:href="#lg1" y1="461.245" y2="479.781"/><linearGradient id="SVGID_11_" gradientTransform="matrix(-1 0 0 1 860.665 0)" gradientUnits="userSpaceOnUse" x1="381.977" x2="348.47" xlink:href="#lg1" y1="461.245" y2="479.781"/><g><g><path d="m227.966 115.446c-8.017-4.629-10.764-14.88-6.135-22.896l36.226-62.745c4.629-8.017 14.88-10.764 22.896-6.135 8.017 4.628 10.764 14.88 6.135 22.896l-36.226 62.745c-4.628 8.017-14.88 10.763-22.896 6.135z" fill="url(#SVGID_1_)"/><path d="m280.953 115.446c8.017-4.629 10.764-14.88 6.135-22.896l-36.226-62.745c-4.628-8.017-14.88-10.764-22.896-6.135-8.017 4.628-10.764 14.88-6.135 22.896l36.226 62.745c4.628 8.017 14.879 10.763 22.896 6.135z" fill="url(#SVGID_2_)"/></g><path d="m229.745 75.605-214.398 386.356c-6.629 11.945 2.009 26.618 15.671 26.618h447.965c13.661 0 22.299-14.672 15.671-26.618l-214.399-386.356c-11.001-19.824-39.509-19.824-50.51 0z" fill="url(#SVGID_3_)"/><path d="m15.347 461.961c-6.629 11.945 2.009 26.618 15.671 26.618h447.965c13.661 0 22.299-14.672 15.671-26.618l-46.132-83.131h-387.044z" fill="url(#SVGID_4_)"/><path d="m255 60.737v427.842h223.983c13.661 0 22.299-14.672 15.671-26.618l-214.399-386.356c-5.5-9.912-15.378-14.868-25.255-14.868z" fill="url(#SVGID_5_)"/><path d="m255 60.737v427.842h223.983c13.661 0 22.299-14.672 15.671-26.618l-214.399-386.356c-5.5-9.912-15.378-14.868-25.255-14.868z" fill="url(#SVGID_6_)"/><path d="m255 253.968-157.407 234.611h314.814z" fill="url(#SVGID_7_)"/><g><path d="m57.83 488.579h46.499c5.136 0 10.311-1.482 14.904-4.267 73.596-44.637 127.546-121.308 135.767-203.603v-45.342c0 .001-78.824 147.408-197.17 253.212z" fill="url(#SVGID_8_)"/><path d="m452.17 488.579h-46.499c-5.136 0-10.311-1.482-14.904-4.267-73.596-44.637-127.546-121.308-135.767-203.603v-45.342c0 .001 78.824 147.408 197.17 253.212z" fill="url(#SVGID_9_)"/></g><g><path d="m17.583 488.579h25.293c.22-6.643-1.185-14.515-4.339-22.462-7.161-18.041-20.615-29.63-30.052-25.884-9.437 3.745-11.282 21.407-4.121 39.447.013.032.025.064.038.096 2.136 5.36 7.412 8.803 13.181 8.803z" fill="url(#SVGID_10_)"/><path d="m492.417 488.579h-25.293c-.22-6.643 1.185-14.515 4.339-22.462 7.161-18.041 20.615-29.63 30.052-25.884 9.437 3.745 11.282 21.407 4.121 39.447-.013.032-.025.064-.038.096-2.136 5.36-7.412 8.803-13.181 8.803z" fill="url(#SVGID_11_)"/></g></g></svg>