<svg id="Capa_1" enable-background="new 0 0 510 510" height="512" viewBox="0 0 510 510" width="512" xmlns="http://www.w3.org/2000/svg" xmlns:xlink="http://www.w3.org/1999/xlink"><linearGradient id="lg1"><stop offset="0" stop-color="#ffda2d"/><stop offset="1" stop-color="#fdbf00"/></linearGradient><linearGradient id="SVGID_1_" gradientUnits="userSpaceOnUse" x1="97.547" x2="97.547" xlink:href="#lg1" y1="78" y2="155.437"/><linearGradient id="SVGID_2_" gradientTransform="matrix(-1 0 0 1 2323.094 0)" gradientUnits="userSpaceOnUse" x1="1910.64" x2="1910.64" xlink:href="#lg1" y1="78" y2="155.437"/><linearGradient id="SVGID_3_" gradientUnits="userSpaceOnUse" x1="233.262" x2="282.676" y1="315.035" y2="315.035"><stop offset="0" stop-color="#edf5ff"/><stop offset="1" stop-color="#d5e8fe"/></linearGradient><linearGradient id="lg2"><stop offset="0" stop-color="#b5dbff" stop-opacity="0"/><stop offset=".2428" stop-color="#93cef6" stop-opacity=".243"/><stop offset=".5763" stop-color="#6abfec" stop-opacity=".576"/><stop offset=".8403" stop-color="#51b5e5" stop-opacity=".84"/><stop offset="1" stop-color="#48b2e3"/></linearGradient><linearGradient id="SVGID_4_" gradientUnits="userSpaceOnUse" x1="278.739" x2="230.739" xlink:href="#lg2" y1="249.195" y2="54.695"/><linearGradient id="lg3"><stop offset="0" stop-color="#ff637b"/><stop offset="1" stop-color="#e63950"/></linearGradient><linearGradient id="SVGID_5_" gradientUnits="userSpaceOnUse" x1="238" x2="281.012" xlink:href="#lg3" y1="397.91" y2="397.91"/><linearGradient id="SVGID_6_" gradientUnits="userSpaceOnUse" x1="238" x2="281.012" xlink:href="#lg3" y1="247.02" y2="247.02"/><linearGradient id="SVGID_7_" gradientUnits="userSpaceOnUse" x1="255" x2="255" xlink:href="#lg2" y1="460" y2="498.328"/><linearGradient id="SVGID_8_" gradientUnits="userSpaceOnUse" x1="228.018" x2="285.898" xlink:href="#lg3" y1="29.482" y2="87.363"/><linearGradient id="SVGID_9_" gradientUnits="userSpaceOnUse" x1="237.234" x2="277.619" y1="112" y2="112"><stop offset="0" stop-color="#b5dbff"/><stop offset="1" stop-color="#48b2e3"/></linearGradient><linearGradient id="SVGID_10_" gradientUnits="userSpaceOnUse" x1="250.456" x2="262.956" xlink:href="#lg1" y1="96.733" y2="138.733"/><linearGradient id="SVGID_11_" gradientUnits="userSpaceOnUse" x1="309.777" x2="234.444" y1="260.967" y2="104.3"><stop offset="0" stop-color="#e63950" stop-opacity="0"/><stop offset=".0467" stop-color="#e4354b" stop-opacity=".047"/><stop offset=".4669" stop-color="#d31822" stop-opacity=".467"/><stop offset=".7991" stop-color="#c90709" stop-opacity=".799"/><stop offset="1" stop-color="#c50000"/></linearGradient><linearGradient id="SVGID_12_" gradientUnits="userSpaceOnUse" x1="320.991" x2="342.14" y1="427.146" y2="506.859"><stop offset="0" stop-color="#ffdecf"/><stop offset=".3591" stop-color="#fdc5b2"/><stop offset=".7611" stop-color="#fbae98"/><stop offset="1" stop-color="#faa68e"/></linearGradient><linearGradient id="SVGID_13_" gradientUnits="userSpaceOnUse" x1="65.149" x2="334.79" y1="372.49" y2="534.763"><stop offset="0" stop-color="#ffdecf"/><stop offset="1" stop-color="#faa68e"/></linearGradient><linearGradient id="SVGID_14_" gradientUnits="userSpaceOnUse" x1="245.534" x2="157.687" y1="396.728" y2="306.441"><stop offset="0" stop-color="#faa68e" stop-opacity="0"/><stop offset="1" stop-color="#faa68e"/></linearGradient><linearGradient id="SVGID_15_" gradientUnits="userSpaceOnUse" x1="255" x2="255" y1="471.199" y2="504.198"><stop offset="0" stop-color="#faa68e" stop-opacity="0"/><stop offset="1" stop-color="#d07972"/></linearGradient><g><path d="m195.093 136.667-164.311 56.464c-14.884 5.114-30.782-4.922-30.782-19.433v-123.396c0-14.511 15.898-24.548 30.782-19.433l164.312 56.464v49.334z" fill="url(#SVGID_1_)"/><path d="m314.907 136.667 164.312 56.464c14.884 5.115 30.782-4.922 30.782-19.433v-123.396c0-14.511-15.897-24.548-30.782-19.433l-164.312 56.464z" fill="url(#SVGID_2_)"/><path d="m332.489 488.958h-154.978c-8.22 0-14.703-6.991-14.084-15.188l24.188-320.382c.523-6.925 6.294-12.277 13.239-12.277h108.292c6.945 0 12.716 5.352 13.239 12.277l24.188 320.382c.619 8.197-5.865 15.188-14.084 15.188z" fill="url(#SVGID_3_)"/><path d="m322.385 153.389c-.523-6.925-6.294-12.277-13.239-12.277h-108.292c-6.945 0-12.716 5.352-13.239 12.277l145.776 145.776z" fill="url(#SVGID_4_)"/><g><path d="m343.87 437.96h-177.74l6.05-80.1h165.64z" fill="url(#SVGID_5_)"/><path d="m332.48 287.07h-154.96l6.05-80.1h142.86z" fill="url(#SVGID_6_)"/></g><path d="m163.427 473.771c-.619 8.196 5.865 15.188 14.084 15.188h154.977c8.22 0 14.703-6.991 14.084-15.188l-2.775-36.771h-177.594z" fill="url(#SVGID_7_)"/><path d="m319.75 75h-129.5v-10.25c0-35.76 28.99-64.75 64.75-64.75 35.76 0 64.75 28.99 64.75 64.75z" fill="url(#SVGID_8_)"/><path d="m315.225 155h-120.45c-8.091 0-14.65-6.559-14.65-14.65v-56.7c0-8.091 6.559-14.65 14.65-14.65h120.451c8.091 0 14.65 6.559 14.65 14.65v56.701c-.001 8.09-6.56 14.649-14.651 14.649z" fill="url(#SVGID_9_)"/><path d="m304.997 138.469h-99.994c-5.697 0-10.316-4.618-10.316-10.316v-32.306c0-5.697 4.618-10.316 10.316-10.316h99.994c5.697 0 10.316 4.618 10.316 10.316v32.306c0 5.697-4.619 10.316-10.316 10.316z" fill="url(#SVGID_10_)"/><path d="m321.296 287.07h11.182l-4.499-59.587-1.549-20.513h-85.234z" fill="url(#SVGID_11_)"/><g><path d="m498.202 506.34v.647c-3.38 1.915-7.296 3.014-11.457 3.014h-302.413c-.061-1.22-.098-2.44-.098-3.66 0-41.142 35.981-76.707 88.201-93.606 20.778-6.735 44.119-10.505 68.789-10.505 63.665 0 118.484 25.134 143.117 61.261 8.907 13.066 13.861 27.573 13.861 42.849z" fill="url(#SVGID_12_)"/><path d="m17.013 380.661c84.465-23.54 174.806-12.817 251.415 29.84l12.021 6.694c54.523 30.359 115.894 46.294 178.299 46.294h27.996c12.844 0 23.256 10.412 23.256 23.256 0 12.843-10.412 23.255-23.256 23.255h-463.488c-12.844 0-23.256-10.412-23.256-23.256v-83.681c0-10.439 6.956-19.599 17.013-22.402z" fill="url(#SVGID_13_)"/><path d="m486.744 463.489h-27.996c-62.405 0-123.776-15.934-178.299-46.293l-12.022-6.694c-42.14-23.464-88.435-37.254-135.622-41.001-20.303-1.612-37.638 14.53-37.638 34.897 0 39.455 31.985 71.44 71.44 71.44h340.672c-3.909-7.345-11.634-12.349-20.535-12.349z" fill="url(#SVGID_14_)"/><path d="m0 486.744c0 12.844 10.412 23.256 23.256 23.256h463.489c12.843 0 23.255-10.412 23.255-23.256s-10.412-23.256-23.256-23.256h-27.996c-38.433 0-76.472-6.053-112.763-17.788h-345.985z" fill="url(#SVGID_15_)"/></g></g></svg>