<svg id="Capa_1" enable-background="new 0 0 510 510" height="512" viewBox="0 0 510 510" width="512" xmlns="http://www.w3.org/2000/svg" xmlns:xlink="http://www.w3.org/1999/xlink"><linearGradient id="lg1"><stop offset="0" stop-color="#edf5ff"/><stop offset="1" stop-color="#d5e8fe"/></linearGradient><linearGradient id="SVGID_1_" gradientUnits="userSpaceOnUse" x1="312.027" x2="418.79" xlink:href="#lg1" y1="105.974" y2="212.737"/><linearGradient id="lg2"><stop offset="0" stop-color="#b5dbff" stop-opacity="0"/><stop offset=".2428" stop-color="#93cef6" stop-opacity=".243"/><stop offset=".5763" stop-color="#6abfec" stop-opacity=".576"/><stop offset=".8403" stop-color="#51b5e5" stop-opacity=".84"/><stop offset="1" stop-color="#48b2e3"/></linearGradient><linearGradient id="SVGID_2_" gradientUnits="userSpaceOnUse" x1="281.978" x2="461.478" xlink:href="#lg2" y1="152.82" y2="240.82"/><linearGradient id="SVGID_3_" gradientUnits="userSpaceOnUse" x1="122.207" x2="206.496" xlink:href="#lg1" y1="138.293" y2="222.581"/><linearGradient id="SVGID_4_" gradientTransform="matrix(-1 0 0 1 -298.698 0)" gradientUnits="userSpaceOnUse" x1="-529.781" x2="-375.106" xlink:href="#lg2" y1="169.441" y2="245.271"/><linearGradient id="SVGID_5_" gradientUnits="userSpaceOnUse" x1="242" x2="316.108" y1="137.5" y2="137.5"><stop offset="0" stop-color="#ffda2d"/><stop offset="1" stop-color="#fdbf00"/></linearGradient><linearGradient id="lg3"><stop offset="0" stop-color="#b9dd39"/><stop offset="1" stop-color="#90cc1c"/></linearGradient><linearGradient id="SVGID_6_" gradientUnits="userSpaceOnUse" x1="254.839" x2="295.046" xlink:href="#lg3" y1="280.623" y2="411.827"/><linearGradient id="SVGID_7_" gradientUnits="userSpaceOnUse" x1="256.058" x2="256.058" y1="404.166" y2="145.126"><stop offset="0" stop-color="#07485e" stop-opacity="0"/><stop offset=".2898" stop-color="#064155" stop-opacity=".29"/><stop offset=".7606" stop-color="#042e3d" stop-opacity=".761"/><stop offset="1" stop-color="#03232e"/></linearGradient><linearGradient id="SVGID_8_" gradientUnits="userSpaceOnUse" x1="255" x2="255" xlink:href="#lg3" y1="275" y2="302.505"/><linearGradient id="SVGID_9_" gradientUnits="userSpaceOnUse" x1="291.468" x2="278.186" y1="328.684" y2="390.666"><stop offset="0" stop-color="#48b2e3"/><stop offset="1" stop-color="#0095ff"/></linearGradient><linearGradient id="SVGID_10_" gradientUnits="userSpaceOnUse" x1="219.026" x2="277.934" y1="359.957" y2="540.61"><stop offset="0" stop-color="#b5dbff"/><stop offset="1" stop-color="#48b2e3"/></linearGradient><linearGradient id="lg4"><stop offset="0" stop-color="#48b2e3" stop-opacity="0"/><stop offset=".4112" stop-color="#2995bf" stop-opacity=".411"/><stop offset=".7781" stop-color="#1381a6" stop-opacity=".778"/><stop offset="1" stop-color="#0b799d"/></linearGradient><linearGradient id="SVGID_11_" gradientUnits="userSpaceOnUse" x1="325.791" x2="76.826" xlink:href="#lg4" y1="445.762" y2="183.321"/><linearGradient id="SVGID_12_" gradientUnits="userSpaceOnUse" x1="419.481" x2="278.687" y1="386.67" y2="302.898"><stop offset="0" stop-color="#0095ff" stop-opacity="0"/><stop offset="1" stop-color="#03232e"/></linearGradient><linearGradient id="SVGID_13_" gradientUnits="userSpaceOnUse" x1="255" x2="255" xlink:href="#lg4" y1="468.989" y2="509.121"/><g><g><path d="m264.667 29s41.333 136.667 0 230.667c0 0 96.667-10.667 218.667 13.333-.001 0 108.666-316.667-218.667-244z" fill="url(#SVGID_1_)"/><path d="m264.667 29s41.333 136.667 0 230.667c189.666-133.334 0-230.667 0-230.667z" fill="url(#SVGID_2_)"/></g><g><path d="m246 62.746s-35.617 117.765 0 198.765c0 0-83.297-9.191-188.424 11.489-.001 0-93.638-272.871 188.424-210.254z" fill="url(#SVGID_3_)"/><path d="m246 62.746s-35.617 117.765 0 198.765c-163.435-114.893 0-198.765 0-198.765z" fill="url(#SVGID_4_)"/></g><path d="m271.5 275h-33v-258.5c0-9.113 7.387-16.5 16.5-16.5 9.113 0 16.5 7.387 16.5 16.5z" fill="url(#SVGID_5_)"/><g><path d="m413.474 426.386h-314.832l-89.119-141.784h493.07z" fill="url(#SVGID_6_)"/><path d="m9.523 284.602 16.114 25.637 116.147 116.147h271.69l89.119-141.784z" fill="url(#SVGID_7_)"/><path d="m492.012 302.589h-474.024c-9.935 0-17.988-8.053-17.988-17.987 0-9.934 8.053-17.988 17.988-17.988h474.025c9.934 0 17.988 8.053 17.988 17.988-.001 9.934-8.054 17.987-17.989 17.987z" fill="url(#SVGID_8_)"/></g><g><path d="m496.803 402.881c-26.716-7.276-89.001-29.554-140.057-88.208-6.392-7.344-16.69-7.897-23.607-1.185-32.595 31.629-119.36 110.882-303.427 115.475-9.354.233-16.81 8.899-16.81 19.447v40.708c0 10.704 7.696 19.381 17.19 19.381h462.718c9.494 0 17.19-8.677 17.19-19.381v-67.388c0-8.969-5.463-16.743-13.197-18.849z" fill="url(#SVGID_9_)"/><path d="m0 424.41s86.288-12.731 153.255-80.972c6.391-6.513 16.688-7.003 23.603-1.051 33.572 28.897 138.308 102.613 333.142 102.613v47.81c0 9.494-7.696 17.19-17.19 17.19h-475.62c-9.494 0-17.19-7.696-17.19-17.19z" fill="url(#SVGID_10_)"/><path d="m510 492.81v-47.81c-194.834 0-299.57-73.717-333.141-102.612-3.267-2.812-7.289-4.169-11.297-4.149l-.061.1s.704 30.975 40.83 61.949c40.126 30.975-35.198 26.751-59.133 9.856-23.897-16.868-99.712-8.912 103.215 99.857h242.397c9.494-.001 17.19-7.697 17.19-17.191z" fill="url(#SVGID_11_)"/><path d="m496.803 402.881c-26.716-7.276-89.001-29.554-140.057-88.208-3.839-4.41-9.085-6.352-14.164-5.761-4.286 6.167-19.176 32.277 12.637 60.402 36.43 32.207 101.372 44.878 79.724 47.518s-1.945 28.168 75.057 28.168v-23.269c0-8.97-5.463-16.744-13.197-18.85z" fill="url(#SVGID_12_)"/><path d="m0 451.39v41.42c0 9.494 7.696 17.19 17.19 17.19h475.62c9.494 0 17.19-7.696 17.19-17.19v-41.42z" fill="url(#SVGID_13_)"/></g></g></svg>