<svg id="Capa_1" enable-background="new 0 0 510 510" height="512" viewBox="0 0 510 510" width="512" xmlns="http://www.w3.org/2000/svg" xmlns:xlink="http://www.w3.org/1999/xlink"><linearGradient id="lg1"><stop offset="0" stop-color="#ff9100"/><stop offset="1" stop-color="#e63950"/></linearGradient><linearGradient id="SVGID_1_" gradientUnits="userSpaceOnUse" x1="92.966" x2="115.31" xlink:href="#lg1" y1="152.427" y2="166.646"/><linearGradient id="lg2"><stop offset="0" stop-color="#ffda2d"/><stop offset="1" stop-color="#ff9100"/></linearGradient><linearGradient id="SVGID_2_" gradientUnits="userSpaceOnUse" x1="160.998" x2="179.957" xlink:href="#lg2" y1="55.138" y2="83.915"/><linearGradient id="SVGID_3_" gradientTransform="matrix(-1 0 0 1 264.405 0)" gradientUnits="userSpaceOnUse" x1="-152.629" x2="-130.285" xlink:href="#lg1" y1="152.427" y2="166.646"/><linearGradient id="SVGID_4_" gradientTransform="matrix(-1 0 0 1 264.405 0)" gradientUnits="userSpaceOnUse" x1="-84.597" x2="-65.638" xlink:href="#lg2" y1="55.138" y2="83.915"/><linearGradient id="lg3"><stop offset="0" stop-color="#ffda2d"/><stop offset="1" stop-color="#fdbf00"/></linearGradient><linearGradient id="SVGID_5_" gradientUnits="userSpaceOnUse" x1="109.363" x2="199.036" xlink:href="#lg3" y1="302.775" y2="414.74"/><linearGradient id="SVGID_6_" gradientUnits="userSpaceOnUse" x1="130.206" x2="130.206" xlink:href="#lg2" y1="407.811" y2="422.024"/><linearGradient id="SVGID_7_" gradientUnits="userSpaceOnUse" x1="130.206" x2="130.206" xlink:href="#lg2" y1="380.192" y2="394.007"/><linearGradient id="SVGID_8_" gradientUnits="userSpaceOnUse" x1="130.206" x2="130.206" xlink:href="#lg2" y1="351.807" y2="366.383"/><linearGradient id="SVGID_9_" gradientUnits="userSpaceOnUse" x1="130.209" x2="130.209" xlink:href="#lg2" y1="324.956" y2="337.237"/><linearGradient id="SVGID_10_" gradientUnits="userSpaceOnUse" x1="64.866" x2="64.866" xlink:href="#lg2" y1="295.42" y2="309.277"/><linearGradient id="SVGID_11_" gradientUnits="userSpaceOnUse" x1="195.555" x2="195.555" xlink:href="#lg2" y1="295.42" y2="309.277"/><linearGradient id="SVGID_12_" gradientUnits="userSpaceOnUse" x1="218.292" x2="43.251" xlink:href="#lg2" y1="417.358" y2="242.316"/><linearGradient id="SVGID_13_" gradientUnits="userSpaceOnUse" x1="358.944" x2="448.618" xlink:href="#lg3" y1="302.775" y2="414.74"/><linearGradient id="SVGID_14_" gradientUnits="userSpaceOnUse" x1="379.788" x2="379.788" xlink:href="#lg2" y1="407.811" y2="422.024"/><linearGradient id="SVGID_15_" gradientUnits="userSpaceOnUse" x1="379.788" x2="379.788" xlink:href="#lg2" y1="380.192" y2="394.007"/><linearGradient id="SVGID_16_" gradientUnits="userSpaceOnUse" x1="379.788" x2="379.788" xlink:href="#lg2" y1="351.807" y2="366.383"/><linearGradient id="SVGID_17_" gradientUnits="userSpaceOnUse" x1="379.791" x2="379.791" xlink:href="#lg2" y1="324.956" y2="337.237"/><linearGradient id="SVGID_18_" gradientUnits="userSpaceOnUse" x1="314.448" x2="314.448" xlink:href="#lg2" y1="295.42" y2="309.277"/><linearGradient id="SVGID_19_" gradientUnits="userSpaceOnUse" x1="445.137" x2="445.137" xlink:href="#lg2" y1="295.42" y2="309.277"/><linearGradient id="SVGID_20_" gradientUnits="userSpaceOnUse" x1="467.874" x2="292.832" xlink:href="#lg2" y1="417.358" y2="242.316"/><g><g><g><path d="m31.794 290.296c-2.251 0-4.531-.6-6.593-1.859-5.981-3.652-7.872-11.464-4.224-17.45l119.596-197.862c9.287-15.182 24.724-25.079 42.364-27.172 17.642-2.089 34.96 3.917 47.52 16.489l.69.689c4.957 4.954 4.963 12.993.012 17.954-4.948 4.962-12.98 4.968-17.938.013l-.695-.695c-7.037-7.043-16.733-10.409-26.602-9.235-9.873 1.171-18.512 6.711-23.704 15.198l-119.585 197.843c-2.39 3.922-6.564 6.087-10.841 6.087z" fill="url(#SVGID_1_)"/><path d="m139.774 113.889c-11.761 0-18.99-12.87-12.87-22.914l11.633-19.091c9.669-15.806 25.748-26.119 44.119-28.299 2.377-.282 4.789-.425 7.168-.425 15.953 0 30.982 6.249 42.319 17.596l.688.687c5.878 5.876 5.885 15.442.014 21.324-2.846 2.854-6.632 4.425-10.662 4.425-4.021 0-7.803-1.566-10.648-4.41l-.696-.696c-5.648-5.653-13.124-8.766-21.054-8.766-1.188 0-2.393.071-3.581.213-9.143 1.085-17.144 6.215-21.952 14.074l-11.61 19.052c-2.734 4.491-7.611 7.23-12.868 7.23z" fill="url(#SVGID_2_)"/></g><g><path d="m478.206 290.296c2.251 0 4.531-.6 6.593-1.859 5.981-3.652 7.872-11.464 4.224-17.45l-119.596-197.862c-9.287-15.182-24.724-25.079-42.364-27.172-17.642-2.089-34.96 3.917-47.52 16.489l-.69.689c-4.957 4.954-4.963 12.993-.012 17.954 4.948 4.962 12.98 4.968 17.938.013l.695-.695c7.037-7.043 16.733-10.409 26.602-9.235 9.873 1.171 18.512 6.711 23.704 15.198l119.584 197.845c2.391 3.92 6.565 6.085 10.842 6.085z" fill="url(#SVGID_3_)"/><path d="m370.226 113.889c11.761 0 18.99-12.87 12.87-22.914l-11.633-19.091c-9.669-15.806-25.748-26.119-44.119-28.299-2.377-.282-4.789-.425-7.168-.425-15.953 0-30.982 6.249-42.319 17.596l-.688.687c-5.878 5.876-5.885 15.442-.014 21.324 2.846 2.854 6.633 4.425 10.662 4.425 4.021 0 7.803-1.566 10.648-4.41l.696-.696c5.648-5.653 13.124-8.766 21.053-8.766 1.188 0 2.393.071 3.581.213 9.143 1.085 17.144 6.215 21.952 14.074l11.609 19.052c2.736 4.491 7.613 7.23 12.87 7.23z" fill="url(#SVGID_4_)"/></g></g><g><g><path d="m198.732 256.135c-28.476-1.387-53.194 15.483-63.459 39.926-.857 2.037-2.848 3.36-5.058 3.366-1.105 0-2.163-.328-3.05-.915-.88-.587-1.6-1.427-2.025-2.451-10.265-24.442-34.983-41.312-63.459-39.926-40.678 1.984-67.681 41.772-60.535 81.87 12.014 67.441 95.013 113.874 121.181 126.969 4.966 2.486 10.8 2.486 15.765 0 26.163-13.096 109.167-59.529 121.181-126.969 7.141-40.098-19.856-79.886-60.541-81.87zm-165.468 39.218c5.978-7.503 13.953-11.703 23.05-12.146.587-.029 1.18-.046 1.749-.046 13.734 0 26.042 8.182 31.358 20.84 6.916 16.467 22.929 27.106 40.789 27.106 17.877-.023 33.878-10.662 40.783-27.106 5.317-12.658 17.624-20.84 31.358-20.84.575 0 1.162.017 1.749.046 9.103.443 17.072 4.643 23.056 12.152 7.336 9.206 10.311 21.433 8.153 33.539-4.085 22.94-20.317 46.594-48.246 70.317-20.484 17.394-42.193 30.397-56.853 38.269-14.666-7.871-36.37-20.875-56.859-38.269-27.929-23.723-44.161-47.377-48.246-70.317-2.158-12.107.817-24.334 8.159-33.545z" fill="url(#SVGID_5_)"/><g><path d="m199.215 408.283c-1.064.938-2.152 1.87-3.251 2.808-4.885 4.148-9.833 8.044-14.736 11.68h-102.044c-4.902-3.636-9.851-7.532-14.736-11.68-1.099-.938-2.186-1.87-3.251-2.808z" fill="url(#SVGID_6_)"/><path d="m225.97 380.164c-3.717 4.845-7.877 9.678-12.48 14.488h-166.567c-4.603-4.81-8.763-9.643-12.48-14.488z" fill="url(#SVGID_7_)"/><path d="m242.501 352.045c-1.979 4.839-4.402 9.666-7.256 14.488h-210.072c-2.86-4.822-5.282-9.649-7.261-14.488z" fill="url(#SVGID_8_)"/><path d="m248.841 323.926c-.046 3.234-.345 6.479-.926 9.724-.282 1.588-.61 3.171-.99 4.758h-233.432c-.38-1.588-.714-3.17-.995-4.758-.575-3.239-.88-6.49-.921-9.724z" fill="url(#SVGID_9_)"/><path d="m116.751 310.289h-103.77c1.122-5.058 2.923-9.931 5.351-14.488h87.953c.685 1.289 1.312 2.624 1.887 3.987 1.83 4.362 4.845 7.964 8.579 10.501z" fill="url(#SVGID_10_)"/><path d="m247.437 310.289h-103.764c3.734-2.543 6.738-6.145 8.567-10.501.575-1.364 1.203-2.698 1.882-3.987h87.959c2.433 4.557 4.229 9.431 5.356 14.488z" fill="url(#SVGID_11_)"/></g><path d="m236.495 287.297c-8.895-11.162-21.398-17.681-35.196-18.349-.846-.046-1.703-.063-2.549-.063-20.363 0-38.62 12.129-46.508 30.904-3.728 8.884-12.365 14.632-22.031 14.643-9.649 0-18.303-5.748-22.037-14.643-7.888-18.775-26.145-30.904-46.508-30.904-.84 0-1.697.017-2.549.063-13.798.668-26.295 7.187-35.196 18.349-10.219 12.825-14.379 29.718-11.421 46.353 4.643 26.048 22.123 52.107 51.951 77.441 25.087 21.301 51.865 36.007 65.593 42.877.052.029.109.04.167.04.052 0 .109-.012.161-.04 13.734-6.87 40.513-21.577 65.593-42.877 29.828-25.334 47.308-51.393 51.951-77.441 2.964-16.634-1.202-33.528-11.421-46.353zm-1.185 41.6c-4.085 22.94-20.317 46.594-48.246 70.317-18.057 15.333-37.066 27.255-51.36 35.256-3.416 1.912-7.572 1.912-10.988 0-14.297-8.002-33.303-19.923-51.365-35.257-27.929-23.723-44.161-47.377-48.246-70.317-2.158-12.106.817-24.333 8.159-33.545 5.978-7.503 13.953-11.703 23.05-12.146.587-.029 1.18-.046 1.749-.046 13.734 0 26.042 8.182 31.358 20.84 6.916 16.467 22.929 27.106 40.789 27.106 17.877-.023 33.878-10.662 40.783-27.106 5.317-12.658 17.624-20.84 31.358-20.84.575 0 1.162.017 1.749.046 9.103.443 17.072 4.643 23.056 12.152 7.337 9.207 10.312 21.434 8.154 33.54z" fill="url(#SVGID_12_)"/></g><g><path d="m448.314 256.135c-28.476-1.387-53.194 15.483-63.459 39.926-.857 2.037-2.848 3.36-5.058 3.366-1.105 0-2.163-.328-3.049-.915-.88-.587-1.6-1.427-2.025-2.451-10.265-24.442-34.983-41.312-63.459-39.926-40.679 1.985-67.682 41.773-60.536 81.871 12.014 67.441 95.013 113.874 121.181 126.969 4.966 2.486 10.8 2.486 15.765 0 26.163-13.096 109.167-59.529 121.181-126.969 7.141-40.099-19.856-79.887-60.541-81.871zm-165.468 39.218c5.978-7.503 13.953-11.703 23.05-12.146.587-.029 1.18-.046 1.749-.046 13.734 0 26.042 8.182 31.358 20.84 6.916 16.467 22.929 27.106 40.789 27.106 17.877-.023 33.878-10.662 40.783-27.106 5.316-12.658 17.624-20.84 31.358-20.84.575 0 1.162.017 1.749.046 9.103.443 17.072 4.643 23.056 12.152 7.336 9.206 10.311 21.433 8.153 33.539-4.085 22.94-20.317 46.594-48.246 70.317-20.484 17.394-42.193 30.397-56.853 38.269-14.666-7.871-36.37-20.875-56.859-38.269-27.929-23.723-44.161-47.377-48.246-70.317-2.158-12.107.817-24.334 8.159-33.545z" fill="url(#SVGID_13_)"/><g><path d="m448.796 408.283c-1.064.938-2.152 1.87-3.251 2.808-4.885 4.148-9.833 8.044-14.736 11.68h-102.043c-4.902-3.636-9.851-7.532-14.736-11.68-1.099-.938-2.186-1.87-3.251-2.808z" fill="url(#SVGID_14_)"/><path d="m475.551 380.164c-3.717 4.845-7.877 9.678-12.48 14.488h-166.567c-4.603-4.81-8.763-9.643-12.48-14.488z" fill="url(#SVGID_15_)"/><path d="m492.082 352.045c-1.979 4.839-4.402 9.666-7.256 14.488h-210.071c-2.86-4.822-5.282-9.649-7.261-14.488z" fill="url(#SVGID_16_)"/><path d="m498.423 323.926c-.046 3.234-.345 6.479-.926 9.724-.282 1.588-.61 3.171-.99 4.758h-233.432c-.38-1.588-.714-3.17-.995-4.758-.575-3.239-.88-6.49-.921-9.724z" fill="url(#SVGID_17_)"/><path d="m366.333 310.289h-103.77c1.122-5.058 2.923-9.931 5.351-14.488h87.953c.685 1.289 1.312 2.624 1.887 3.987 1.829 4.362 4.844 7.964 8.579 10.501z" fill="url(#SVGID_18_)"/><path d="m497.019 310.289h-103.764c3.734-2.543 6.738-6.145 8.567-10.501.575-1.364 1.203-2.698 1.882-3.987h87.959c2.433 4.557 4.228 9.431 5.356 14.488z" fill="url(#SVGID_19_)"/></g><path d="m486.077 287.297c-8.895-11.162-21.398-17.681-35.196-18.349-.846-.046-1.703-.063-2.549-.063-20.363 0-38.62 12.129-46.508 30.904-3.728 8.884-12.365 14.632-22.031 14.643-9.649 0-18.303-5.748-22.037-14.643-7.888-18.775-26.145-30.904-46.508-30.904-.84 0-1.697.017-2.549.063-13.798.668-26.295 7.187-35.196 18.349-10.219 12.825-14.379 29.718-11.421 46.353 4.643 26.048 22.123 52.107 51.951 77.441 25.087 21.301 51.865 36.007 65.593 42.877.052.029.109.04.167.04.052 0 .109-.012.161-.04 13.734-6.87 40.513-21.577 65.593-42.877 29.828-25.334 47.308-51.393 51.951-77.441 2.963-16.634-1.202-33.528-11.421-46.353zm-1.185 41.6c-4.085 22.94-20.317 46.594-48.246 70.317-18.057 15.333-37.066 27.255-51.36 35.256-3.416 1.912-7.572 1.912-10.988 0-14.297-8.002-33.303-19.923-51.365-35.257-27.929-23.723-44.16-47.377-48.246-70.317-2.158-12.106.817-24.333 8.159-33.545 5.978-7.503 13.953-11.703 23.05-12.146.587-.029 1.18-.046 1.749-.046 13.734 0 26.042 8.182 31.358 20.84 6.916 16.467 22.929 27.106 40.789 27.106 17.877-.023 33.878-10.662 40.783-27.106 5.317-12.658 17.624-20.84 31.358-20.84.575 0 1.162.017 1.749.046 9.103.443 17.072 4.643 23.056 12.152 7.337 9.207 10.311 21.434 8.154 33.54z" fill="url(#SVGID_20_)"/></g></g></g></svg>