<svg id="Capa_1" enable-background="new 0 0 510 510" height="512" viewBox="0 0 510 510" width="512" xmlns="http://www.w3.org/2000/svg" xmlns:xlink="http://www.w3.org/1999/xlink"><linearGradient id="lg1"><stop offset="0" stop-color="#ffda2d"/><stop offset="1" stop-color="#fdbf00"/></linearGradient><linearGradient id="SVGID_1_" gradientUnits="userSpaceOnUse" x1="204.354" x2="343.275" xlink:href="#lg1" y1="198.227" y2="337.149"/><linearGradient id="SVGID_2_" gradientUnits="userSpaceOnUse" x1="218.843" x2="472.747" y1="194.191" y2="578.187"><stop offset="0" stop-color="#ff9100" stop-opacity="0"/><stop offset="1" stop-color="#ff9100"/></linearGradient><linearGradient id="SVGID_3_" gradientUnits="userSpaceOnUse" x1="276.435" x2="74.568" y1="279.073" y2="-5.335"><stop offset="0" stop-color="#fff" stop-opacity="0"/><stop offset="1" stop-color="#fff"/></linearGradient><linearGradient id="SVGID_4_" gradientUnits="userSpaceOnUse" x1="246.52" x2="269.781" xlink:href="#lg1" y1="49.966" y2="73.226"/><linearGradient id="SVGID_5_" gradientUnits="userSpaceOnUse" x1="246.52" x2="269.781" xlink:href="#lg1" y1="430.821" y2="454.082"/><linearGradient id="SVGID_6_" gradientTransform="matrix(0 1 -1 0 -3746 -2128)" gradientUnits="userSpaceOnUse" x1="2368.393" x2="2391.654" xlink:href="#lg1" y1="-4199.908" y2="-4176.648"/><linearGradient id="SVGID_7_" gradientTransform="matrix(0 1 -1 0 -3746 -2128)" gradientUnits="userSpaceOnUse" x1="2368.393" x2="2391.654" xlink:href="#lg1" y1="-3819.052" y2="-3795.792"/><linearGradient id="SVGID_8_" gradientTransform="matrix(.707 .707 -.707 .707 -2313.723 -288.178)" gradientUnits="userSpaceOnUse" x1="2187.634" x2="2210.895" xlink:href="#lg1" y1="-1635.517" y2="-1612.256"/><linearGradient id="SVGID_9_" gradientTransform="matrix(.707 .707 -.707 .707 -2313.723 -288.178)" gradientUnits="userSpaceOnUse" x1="2187.634" x2="2210.895" xlink:href="#lg1" y1="-1254.661" y2="-1231.401"/><linearGradient id="SVGID_10_" gradientTransform="matrix(-.707 .707 -.707 -.707 -3457.822 -4441.723)" gradientUnits="userSpaceOnUse" x1="682.911" x2="706.172" xlink:href="#lg1" y1="-6141.023" y2="-6117.762"/><linearGradient id="SVGID_11_" gradientTransform="matrix(-.707 .707 -.707 -.707 -3457.822 -4441.723)" gradientUnits="userSpaceOnUse" x1="682.911" x2="706.172" xlink:href="#lg1" y1="-5760.167" y2="-5736.906"/><linearGradient id="lg2"><stop offset="0" stop-color="#ff9100"/><stop offset="1" stop-color="#e63950"/></linearGradient><linearGradient id="SVGID_12_" gradientTransform="matrix(.921 -.39 .39 .921 1080.294 -547.226)" gradientUnits="userSpaceOnUse" x1="-1070.909" x2="-1053.276" xlink:href="#lg2" y1="225.96" y2="243.593"/><linearGradient id="SVGID_13_" gradientTransform="matrix(.921 -.39 .39 .921 1080.294 -547.226)" gradientUnits="userSpaceOnUse" x1="-1070.909" x2="-1053.276" xlink:href="#lg2" y1="596.049" y2="613.683"/><linearGradient id="SVGID_14_" gradientTransform="matrix(.39 .921 -.921 .39 -3198.774 -1047.706)" gradientUnits="userSpaceOnUse" x1="2539.005" x2="2556.638" xlink:href="#lg2" y1="-2861.481" y2="-2843.848"/><linearGradient id="SVGID_15_" gradientTransform="matrix(.39 .921 -.921 .39 -3198.774 -1047.706)" gradientUnits="userSpaceOnUse" x1="2539.005" x2="2556.638" xlink:href="#lg2" y1="-2491.392" y2="-2473.759"/><linearGradient id="SVGID_16_" gradientTransform="matrix(.376 -.927 .927 .376 2216.758 -2583.107)" gradientUnits="userSpaceOnUse" x1="-3362.267" x2="-3344.634" xlink:href="#lg2" y1="-939.567" y2="-921.934"/><linearGradient id="SVGID_17_" gradientTransform="matrix(.376 -.927 .927 .376 2216.758 -2583.107)" gradientUnits="userSpaceOnUse" x1="-3362.267" x2="-3344.634" xlink:href="#lg2" y1="-569.478" y2="-551.844"/><linearGradient id="SVGID_18_" gradientTransform="matrix(.927 .376 -.376 .927 -1162.893 88.758)" gradientUnits="userSpaceOnUse" x1="1373.478" x2="1391.111" xlink:href="#lg2" y1="-570.123" y2="-552.49"/><linearGradient id="SVGID_19_" gradientTransform="matrix(.927 .376 -.376 .927 -1162.893 88.758)" gradientUnits="userSpaceOnUse" x1="1373.478" x2="1391.111" xlink:href="#lg2" y1="-200.034" y2="-182.401"/><linearGradient id="SVGID_20_" gradientUnits="userSpaceOnUse" x1="255" x2="255" y1="384.452" y2="457.057"><stop offset="0" stop-color="#48b2e3"/><stop offset="1" stop-color="#0095ff"/></linearGradient><linearGradient id="lg3"><stop offset="0" stop-color="#0095ff" stop-opacity="0"/><stop offset="1" stop-color="#03232e"/></linearGradient><linearGradient id="SVGID_21_" gradientUnits="userSpaceOnUse" x1="257.108" x2="320.611" xlink:href="#lg3" y1="405.337" y2="175.517"/><linearGradient id="SVGID_22_" gradientUnits="userSpaceOnUse" x1="254.986" x2="227.372" xlink:href="#lg3" y1="438.154" y2="201.078"/><linearGradient id="SVGID_23_" gradientUnits="userSpaceOnUse" x1="255" x2="255" xlink:href="#lg3" y1="441.841" y2="494.484"/><g><g><circle cx="255" cy="248.873" fill="url(#SVGID_1_)" r="146.22"/><circle cx="255" cy="248.873" fill="url(#SVGID_2_)" r="106.254"/><circle cx="255" cy="248.873" fill="url(#SVGID_3_)" r="133.681"/><g><g><ellipse cx="255" cy="58.446" fill="url(#SVGID_4_)" rx="11.215" ry="32.747"/><ellipse cx="255" cy="439.301" fill="url(#SVGID_5_)" rx="11.215" ry="32.747"/></g><g><ellipse cx="445.428" cy="248.873" fill="url(#SVGID_6_)" rx="32.747" ry="11.215"/><ellipse cx="64.572" cy="248.873" fill="url(#SVGID_7_)" rx="32.747" ry="11.215"/></g></g><g><g><path d="m397.583 122.151c-12.789 12.789-26.706 19.605-31.086 15.226-4.38-4.38 2.437-18.297 15.226-31.086s26.706-19.605 31.086-15.226c4.379 4.379-2.438 18.297-15.226 31.086z" fill="url(#SVGID_8_)"/><path d="m128.277 391.456c-12.789 12.789-26.706 19.605-31.086 15.226s2.437-18.297 15.226-31.086 26.706-19.605 31.086-15.226c4.38 4.38-2.437 18.298-15.226 31.086z" fill="url(#SVGID_9_)"/></g><g><path d="m381.723 391.456c-12.789-12.789-19.605-26.706-15.226-31.086 4.38-4.38 18.297 2.437 31.086 15.226s19.605 26.706 15.226 31.086c-4.38 4.38-18.298-2.437-31.086-15.226z" fill="url(#SVGID_10_)"/><path d="m112.417 122.151c-12.789-12.789-19.605-26.706-15.226-31.086 4.38-4.38 18.297 2.437 31.086 15.226s19.605 26.706 15.226 31.086c-4.38 4.379-18.297-2.438-31.086-15.226z" fill="url(#SVGID_11_)"/></g></g><g><g><path d="m191.999 74.604c3.957 9.355 3.096 18.661-1.924 20.784s-12.297-3.739-16.255-13.094c-3.957-9.355-3.096-18.661 1.924-20.784 5.02-2.124 12.297 3.739 16.255 13.094z" fill="url(#SVGID_12_)"/><path d="m336.18 415.453c3.957 9.355 3.096 18.661-1.924 20.784s-12.297-3.739-16.255-13.094c-3.957-9.355-3.096-18.661 1.924-20.784 5.02-2.124 12.298 3.739 16.255 13.094z" fill="url(#SVGID_13_)"/></g><g><path d="m429.269 185.872c-9.355 3.957-18.661 3.096-20.784-1.924s3.739-12.297 13.094-16.255c9.355-3.957 18.661-3.096 20.784 1.924s-3.739 12.298-13.094 16.255z" fill="url(#SVGID_14_)"/><path d="m88.42 330.053c-9.355 3.957-18.661 3.096-20.784-1.924s3.739-12.297 13.094-16.255 18.661-3.096 20.784 1.924c2.124 5.021-3.738 12.298-13.094 16.255z" fill="url(#SVGID_15_)"/></g><g><path d="m87.224 170.195c9.413 3.817 15.384 11.006 13.336 16.057s-11.339 6.052-20.753 2.235-15.384-11.006-13.336-16.057c2.049-5.051 11.34-6.052 20.753-2.235z" fill="url(#SVGID_16_)"/><path d="m430.192 309.26c9.413 3.817 15.384 11.006 13.336 16.057s-11.339 6.052-20.753 2.235c-9.413-3.817-15.384-11.006-13.336-16.057 2.049-5.051 11.34-6.052 20.753-2.235z" fill="url(#SVGID_17_)"/></g><g><path d="m333.678 81.098c-3.817 9.413-11.006 15.384-16.057 13.336s-6.052-11.339-2.235-20.753 11.006-15.384 16.057-13.336c5.052 2.048 6.052 11.339 2.235 20.753z" fill="url(#SVGID_18_)"/><path d="m194.613 424.066c-3.817 9.413-11.006 15.384-16.057 13.336s-6.052-11.339-2.235-20.753c3.817-9.413 11.006-15.384 16.057-13.336 5.052 2.048 6.052 11.34 2.235 20.753z" fill="url(#SVGID_19_)"/></g></g></g><path d="m510 318.089v147.853c0 10.14-8.22 18.36-18.359 18.36h-473.281c-10.14 0-18.36-8.22-18.36-18.36v-147.85c0-11.682 11.306-20.028 22.469-16.589 21.64 6.667 44.786 6.667 66.436 0 10.815-3.339 22.019-5.008 33.213-5.008s22.398 1.669 33.223 5.008c10.825 3.328 22.019 4.998 33.213 4.998 11.204 0 22.408-1.669 33.223-4.998 10.815-3.339 22.019-5.008 33.213-5.008s22.398 1.669 33.223 5.008c10.825 3.328 22.019 4.998 33.213 4.998 11.204 0 22.398-1.669 33.223-4.998 10.815-3.339 22.019-5.008 33.223-5.008 11.194 0 22.388 1.669 33.213 5.008h.01c21.64 6.667 44.785 6.667 66.426 0l.012-.004c11.163-3.437 22.467 4.909 22.467 16.59z" fill="url(#SVGID_20_)"/><path d="m510 359.874v106.068c0 10.14-8.22 18.36-18.359 18.36h-473.281c-10.14 0-18.36-8.22-18.36-18.36v-106.065c0-11.682 11.306-20.028 22.469-16.589 21.64 6.667 44.786 6.667 66.436 0 10.815-3.339 22.019-5.008 33.213-5.008s22.398 1.669 33.223 5.008c10.825 3.328 22.019 4.998 33.213 4.998 11.204 0 22.408-1.669 33.223-4.998 10.815-3.339 22.019-5.008 33.213-5.008s22.398 1.669 33.223 5.008c10.825 3.328 22.019 4.998 33.213 4.998 11.204 0 22.398-1.669 33.223-4.998 10.815-3.339 22.019-5.008 33.223-5.008 11.194 0 22.388 1.669 33.213 5.008h.01c21.64 6.667 44.785 6.667 66.426 0l.012-.004c11.163-3.438 22.467 4.909 22.467 16.59z" fill="url(#SVGID_21_)"/><path d="m0 410.566v55.376c0 10.14 8.22 18.36 18.36 18.36h473.281c10.14 0 18.359-8.22 18.359-18.36v-55.373c0-11.682-11.306-20.028-22.469-16.589-21.64 6.667-44.786 6.667-66.436 0-10.815-3.339-22.019-5.008-33.213-5.008s-22.398 1.669-33.223 5.008c-10.825 3.328-22.019 4.998-33.213 4.998-11.204 0-22.408-1.669-33.223-4.998-10.815-3.339-22.019-5.008-33.213-5.008s-22.398 1.669-33.223 5.008c-10.825 3.328-22.019 4.998-33.213 4.998-11.204 0-22.398-1.669-33.223-4.998-10.815-3.339-22.019-5.008-33.223-5.008-11.194 0-22.388 1.669-33.213 5.008h-.01c-21.64 6.667-44.786 6.667-66.426 0l-.012-.004c-11.163-3.437-22.467 4.909-22.467 16.59z" fill="url(#SVGID_22_)"/><path d="m0 424.772v41.17c0 10.14 8.22 18.359 18.359 18.359h473.281c10.14 0 18.359-8.22 18.359-18.359v-41.17z" fill="url(#SVGID_23_)"/></g></svg>