<svg id="Capa_1" enable-background="new 0 0 510 510" height="512" viewBox="0 0 510 510" width="512" xmlns="http://www.w3.org/2000/svg" xmlns:xlink="http://www.w3.org/1999/xlink"><linearGradient id="lg1"><stop offset="0" stop-color="#b5dbff"/><stop offset="1" stop-color="#48b2e3"/></linearGradient><linearGradient id="SVGID_1_" gradientTransform="matrix(.707 .707 -.707 .707 256.886 -104.843)" gradientUnits="userSpaceOnUse" x1="247.014" x2="265.881" xlink:href="#lg1" y1="-18.19" y2="-18.19"/><linearGradient id="SVGID_2_" gradientTransform="matrix(.707 .707 -.707 .707 256.886 -104.843)" gradientUnits="userSpaceOnUse" x1="245.532" x2="268.981" xlink:href="#lg1" y1="336.654" y2="336.654"/><linearGradient id="SVGID_3_" gradientTransform="matrix(.707 .707 -.707 .707 256.886 -104.843)" gradientUnits="userSpaceOnUse" x1="299.958" x2="247.79" y1="263.125" y2="194.103"><stop offset="0" stop-color="#b5dbff" stop-opacity="0"/><stop offset=".1734" stop-color="#8fc5e9" stop-opacity=".173"/><stop offset=".4541" stop-color="#56a4c8" stop-opacity=".454"/><stop offset=".6955" stop-color="#2d8db1" stop-opacity=".696"/><stop offset=".8853" stop-color="#147ea2" stop-opacity=".885"/><stop offset="1" stop-color="#0b799d"/></linearGradient><linearGradient id="SVGID_4_" gradientTransform="matrix(.707 .707 -.707 .707 256.886 -104.843)" gradientUnits="userSpaceOnUse" x1="80.506" x2="118.736" y1="77.073" y2="95.781"><stop offset="0" stop-color="#ffda2d"/><stop offset="1" stop-color="#fdbf00"/></linearGradient><linearGradient id="SVGID_5_" gradientTransform="matrix(.707 .707 -.707 .707 256.886 -104.843)" gradientUnits="userSpaceOnUse" x1="386.197" x2="470.38" y1="109.286" y2="103.796"><stop offset="0" stop-color="#b9dd39"/><stop offset="1" stop-color="#90cc1c"/></linearGradient><linearGradient id="SVGID_6_" gradientTransform="matrix(.707 .707 -.707 .707 256.886 -104.843)" gradientUnits="userSpaceOnUse" x1="307.281" x2="380.483" y1="110.966" y2="123.777"><stop offset="0" stop-color="#48b2e3"/><stop offset="1" stop-color="#0095ff"/></linearGradient><linearGradient id="SVGID_7_" gradientTransform="matrix(.707 .707 -.707 .707 256.886 -104.843)" gradientUnits="userSpaceOnUse" x1="141.896" x2="218.356" y1="94.224" y2="121.879"><stop offset="0" stop-color="#ff9100"/><stop offset="1" stop-color="#e63950"/></linearGradient><linearGradient id="SVGID_8_" gradientTransform="matrix(.707 .707 -.707 .707 256.886 -104.843)" gradientUnits="userSpaceOnUse" x1="219.309" x2="286.821" y1="102.694" y2="123.843"><stop offset="0" stop-color="#ff637b"/><stop offset="1" stop-color="#e63950"/></linearGradient><linearGradient id="SVGID_9_" gradientUnits="userSpaceOnUse" x1="320.991" x2="342.14" y1="427.146" y2="506.859"><stop offset="0" stop-color="#ffdecf"/><stop offset=".3591" stop-color="#fdc5b2"/><stop offset=".7611" stop-color="#fbae98"/><stop offset="1" stop-color="#faa68e"/></linearGradient><linearGradient id="SVGID_10_" gradientUnits="userSpaceOnUse" x1="65.149" x2="334.79" y1="372.49" y2="534.763"><stop offset="0" stop-color="#ffdecf"/><stop offset="1" stop-color="#faa68e"/></linearGradient><linearGradient id="SVGID_11_" gradientUnits="userSpaceOnUse" x1="245.534" x2="157.687" y1="396.728" y2="306.441"><stop offset="0" stop-color="#faa68e" stop-opacity="0"/><stop offset="1" stop-color="#faa68e"/></linearGradient><linearGradient id="SVGID_12_" gradientUnits="userSpaceOnUse" x1="255" x2="255" y1="471.199" y2="504.198"><stop offset="0" stop-color="#faa68e" stop-opacity="0"/><stop offset="1" stop-color="#d07972"/></linearGradient><g><g><path d="m448.152 81.979-20.131-20.131 11.607-11.607c5.343-5.343 14.006-5.343 19.349 0l.782.782c5.343 5.343 5.343 14.006 0 19.349z" fill="url(#SVGID_1_)"/><path d="m95.148 439.871-25.019-25.019 230.351-230.351 25.019 25.019z" fill="url(#SVGID_2_)"/><path d="m261.764 223.216v50.039l63.735-63.735-25.019-25.019z" fill="url(#SVGID_3_)"/><g><path d="m440.675 69.325c-81.604-81.603-207.977-91.165-300.072-28.683-19.571 13.278-22.324 41.03-5.602 57.753 13.656 13.656 35.469 14.764 50.376 2.486 88.936-73.248 198.365-88.488 255.298-31.556z" fill="url(#SVGID_4_)"/><path d="m440.675 69.325c56.932 56.932 41.692 166.362-31.556 255.297-12.278 14.907-11.17 36.72 2.486 50.376 16.723 16.723 44.475 13.969 57.753-5.602 62.482-92.094 52.92-218.467-28.683-300.071z" fill="url(#SVGID_5_)"/><path d="m440.675 69.325c21.354 21.354-18.716 97.029-91.475 177.792-17.378 19.29-16.692 48.783 1.667 67.142l7.297 7.297c15.873 15.873 42.135 14.456 55.995-3.201 68.88-87.753 82.118-193.428 26.516-249.03z" fill="url(#SVGID_6_)"/><path d="m440.675 69.325c-55.602-55.602-161.276-42.365-249.03 26.516-17.658 13.86-19.074 40.122-3.201 55.995l7.297 7.297c18.359 18.359 47.852 19.045 67.142 1.667 80.763-72.759 156.438-112.829 177.792-91.475z" fill="url(#SVGID_7_)"/><path d="m440.675 69.325c-20.528-20.528-91.258 15.709-168.45 83.184-24.013 20.99-25.133 57.976-2.581 80.528l7.318 7.318c22.552 22.552 59.538 21.432 80.528-2.581 67.475-77.19 103.713-147.92 83.185-168.449z" fill="url(#SVGID_8_)"/></g></g><g><path d="m498.202 506.34v.647c-3.38 1.915-7.296 3.014-11.457 3.014h-302.413c-.061-1.22-.098-2.44-.098-3.66 0-41.142 35.981-76.707 88.201-93.606 20.778-6.735 44.119-10.505 68.789-10.505 63.665 0 118.484 25.134 143.117 61.261 8.907 13.066 13.861 27.573 13.861 42.849z" fill="url(#SVGID_9_)"/><path d="m17.013 380.661c84.465-23.54 174.806-12.817 251.415 29.84l12.021 6.694c54.523 30.359 115.894 46.294 178.299 46.294h27.996c12.844 0 23.256 10.412 23.256 23.256 0 12.843-10.412 23.255-23.256 23.255h-463.488c-12.844 0-23.256-10.412-23.256-23.256v-83.681c0-10.439 6.956-19.599 17.013-22.402z" fill="url(#SVGID_10_)"/><path d="m486.744 463.489h-27.996c-62.405 0-123.776-15.934-178.299-46.293l-12.022-6.694c-42.14-23.464-88.435-37.254-135.622-41.001-20.303-1.612-37.638 14.53-37.638 34.897 0 39.455 31.985 71.44 71.44 71.44h340.672c-3.909-7.345-11.634-12.349-20.535-12.349z" fill="url(#SVGID_11_)"/><path d="m0 486.744c0 12.844 10.412 23.256 23.256 23.256h463.489c12.843 0 23.255-10.412 23.255-23.256s-10.412-23.256-23.256-23.256h-27.996c-38.433 0-76.472-6.053-112.763-17.788h-345.985z" fill="url(#SVGID_12_)"/></g></g></svg>