<svg id="Capa_1" enable-background="new 0 0 510 510" height="512" viewBox="0 0 510 510" width="512" xmlns="http://www.w3.org/2000/svg" xmlns:xlink="http://www.w3.org/1999/xlink"><linearGradient id="lg1"><stop offset="0" stop-color="#ffdecf"/><stop offset="1" stop-color="#faa68e"/></linearGradient><linearGradient id="SVGID_1_" gradientUnits="userSpaceOnUse" x1="173.784" x2="296.491" xlink:href="#lg1" y1="44.669" y2="216.725"/><linearGradient id="SVGID_2_" gradientUnits="userSpaceOnUse" x1="343.216" x2="303.889" y1="53.402" y2="140.122"><stop offset="0" stop-color="#faa68e" stop-opacity="0"/><stop offset="1" stop-color="#faa68e"/></linearGradient><linearGradient id="SVGID_3_" gradientUnits="userSpaceOnUse" x1="346.769" x2="355.466" xlink:href="#lg1" y1="74.815" y2="139.099"/><linearGradient id="lg2"><stop offset="0" stop-color="#ff637b"/><stop offset="1" stop-color="#e63950"/></linearGradient><linearGradient id="SVGID_4_" gradientUnits="userSpaceOnUse" x1="255" x2="255" xlink:href="#lg2" y1="486.207" y2="502.914"/><linearGradient id="SVGID_5_" gradientUnits="userSpaceOnUse" x1="255" x2="255" xlink:href="#lg2" y1="218.418" y2="459.194"/><linearGradient id="lg3"><stop offset="0" stop-color="#e63950" stop-opacity="0"/><stop offset=".0467" stop-color="#e4354b" stop-opacity=".047"/><stop offset=".4669" stop-color="#d31822" stop-opacity=".467"/><stop offset=".7991" stop-color="#c90709" stop-opacity=".799"/><stop offset="1" stop-color="#c50000"/></linearGradient><linearGradient id="SVGID_6_" gradientUnits="userSpaceOnUse" x1="255" x2="255" xlink:href="#lg3" y1="417.763" y2="32.829"/><linearGradient id="SVGID_7_" gradientUnits="userSpaceOnUse" x1="287.937" x2="325.118" xlink:href="#lg3" y1="298.687" y2="261.505"/><linearGradient id="SVGID_8_" gradientUnits="userSpaceOnUse" x1="261.806" x2="261.806" y1="85.956" y2="130.652"><stop offset="0" stop-color="#faa68e" stop-opacity="0"/><stop offset="1" stop-color="#d07972"/></linearGradient><linearGradient id="lg4"><stop offset="0" stop-color="#ff9100"/><stop offset="1" stop-color="#e63950"/></linearGradient><linearGradient id="SVGID_9_" gradientUnits="userSpaceOnUse" x1="255" x2="255" xlink:href="#lg4" y1="130.375" y2="233.229"/><linearGradient id="SVGID_10_" gradientUnits="userSpaceOnUse" x1="255" x2="255" xlink:href="#lg3" y1="442.721" y2="503.242"/><linearGradient id="SVGID_11_" gradientUnits="userSpaceOnUse" x1="283.487" x2="225.788" xlink:href="#lg4" y1="203.23" y2="145.532"/><linearGradient id="SVGID_12_" gradientUnits="userSpaceOnUse" x1="359.309" x2="340.149" y1="263.776" y2="284.952"><stop offset="0" stop-color="#ffda2d"/><stop offset="1" stop-color="#fdbf00"/></linearGradient><g><g><path d="m401.212 207.828h-292.424c-36.014 0-57.945-39.642-38.81-70.152l33.922-54.085c69.904-111.455 232.296-111.455 302.2 0l33.921 54.084c19.136 30.511-2.795 70.153-38.809 70.153z" fill="url(#SVGID_1_)"/><path d="m406.1 83.592c-41.571-66.282-115.846-93.13-183.931-80.575-13.902 2.564-23.89 14.86-23.89 28.997 0 16.314 13.225 29.539 29.539 29.539 31.932 0 62.556 12.685 85.135 35.264l107.055 107.055c24.06-10.768 35.517-41.476 20.014-66.196z" fill="url(#SVGID_2_)"/><path d="m436.021 180.602h-157.341c-19.378 0-31.178-23.814-20.882-42.142l18.252-32.49c37.612-66.954 124.989-66.954 162.601 0l18.252 32.49c10.296 18.328-1.504 42.142-20.882 42.142z" fill="url(#SVGID_3_)"/></g><path d="m114.331 453.466v33.186c0 7.593 6.9 14.061 16.336 15.368 36.622 5.076 79.069 7.98 124.333 7.98s87.711-2.904 124.333-7.98c9.436-1.308 16.336-7.776 16.336-15.368v-33.186c0-9.606-10.847-16.933-22.808-15.386-35.115 4.54-75.232 7.12-117.861 7.12s-82.746-2.58-117.862-7.121c-11.961-1.547-22.807 5.78-22.807 15.387z" fill="url(#SVGID_4_)"/><path d="m450.122 157.601-14.157 233.798-1.422 23.445-1.752 28.813c-1.208 19.875-16.811 35.829-36.65 37.526-43.609 3.731-91.243 5.78-141.14 5.78s-97.531-2.049-141.14-5.78c-19.839-1.697-35.441-17.651-36.65-37.526l-1.752-28.813-1.422-23.445-14.159-233.798z" fill="url(#SVGID_5_)"/><path d="m59.878 157.601 2.681 44.277 282.78 282.78c17.44-.908 34.405-2.073 50.8-3.475 19.839-1.697 35.441-17.651 36.65-37.526l1.752-28.813 1.422-23.445 14.157-233.798z" fill="url(#SVGID_6_)"/><path d="m252.731 157.601h-124.409l300.701 300.701c2.118-4.491 3.45-9.426 3.767-14.645l1.752-28.813 1.422-23.445 2.887-47.678z" fill="url(#SVGID_7_)"/><path d="m103.9 83.592-33.921 54.084c-19.136 30.51 2.795 65.152 38.81 65.152h292.424c20.092 0 35.791-7.344 42.43-23.551 14.612-5.227 22.12-25.046 13.26-40.817l-18.252-32.49c-8.318-14.808-19.074-26.332-31.185-34.586h-295.193c-2.913 3.914-5.716 7.972-8.373 12.208z" fill="url(#SVGID_8_)"/><path d="m42.438 138.233v43.997c0 10.066 10.426 18.641 24.685 20.375 55.34 6.729 119.48 10.579 187.877 10.579s132.538-3.85 187.877-10.579c14.259-1.734 24.685-10.308 24.685-20.375v-43.997c0-12.736-16.39-22.449-34.464-20.399-53.062 6.02-113.683 9.441-178.098 9.441s-125.036-3.42-178.098-9.441c-18.074-2.051-34.464 7.663-34.464 20.399z" fill="url(#SVGID_9_)"/><path d="m73.068 375.411.968 15.988 1.422 23.445 1.752 28.813c1.208 19.875 16.811 35.829 36.65 37.526 43.609 3.731 91.243 5.78 141.141 5.78s97.531-2.049 141.14-5.78c19.839-1.697 35.441-17.651 36.65-37.526l1.752-28.813 1.422-23.445.968-15.988z" fill="url(#SVGID_10_)"/><circle cx="255" cy="174.743" fill="url(#SVGID_11_)" r="23.193"/><path d="m458.48 378.476c-7.088 7.088-18.581 7.088-25.669 0l-187.426-187.426c-7.088-7.088-7.088-18.581 0-25.669 7.088-7.088 18.581-7.088 25.669 0l187.426 187.425c7.089 7.089 7.089 18.581 0 25.67z" fill="url(#SVGID_12_)"/></g></svg>