<svg id="Capa_1" enable-background="new 0 0 510 510" height="512" viewBox="0 0 510 510" width="512" xmlns="http://www.w3.org/2000/svg" xmlns:xlink="http://www.w3.org/1999/xlink"><linearGradient id="lg1"><stop offset="0" stop-color="#0b799d"/><stop offset="1" stop-color="#07485e"/></linearGradient><linearGradient id="SVGID_1_" gradientUnits="userSpaceOnUse" x1="193.769" x2="208.604" xlink:href="#lg1" y1="442.8" y2="425.056"/><linearGradient id="SVGID_2_" gradientUnits="userSpaceOnUse" x1="316.197" x2="301.362" xlink:href="#lg1" y1="442.758" y2="425.014"/><linearGradient id="lg2"><stop offset="0" stop-color="#48b2e3"/><stop offset="1" stop-color="#0095ff"/></linearGradient><linearGradient id="SVGID_3_" gradientUnits="userSpaceOnUse" x1="214.99" x2="411.629" xlink:href="#lg2" y1="268.443" y2="388.87"/><linearGradient id="lg3"><stop offset="0" stop-color="#0095ff" stop-opacity="0"/><stop offset="1" stop-color="#03232e"/></linearGradient><linearGradient id="SVGID_4_" gradientUnits="userSpaceOnUse" x1="302.928" x2="220.899" xlink:href="#lg3" y1="337.698" y2="22.379"/><linearGradient id="SVGID_5_" gradientUnits="userSpaceOnUse" x1="255.001" x2="255.001" xlink:href="#lg1" y1="106.829" y2="181.613"/><linearGradient id="SVGID_6_" gradientUnits="userSpaceOnUse" x1="253.031" x2="279.21" xlink:href="#lg2" y1="110.11" y2="250.898"/><linearGradient id="SVGID_7_" gradientUnits="userSpaceOnUse" x1="297.931" x2="261.861" xlink:href="#lg3" y1="209.397" y2="70.936"/><linearGradient id="lg4"><stop offset="0" stop-color="#b5dbff"/><stop offset="1" stop-color="#48b2e3"/></linearGradient><linearGradient id="SVGID_8_" gradientUnits="userSpaceOnUse" x1="262.231" x2="250.668" xlink:href="#lg4" y1="142.153" y2="159.824"/><linearGradient id="SVGID_9_" gradientTransform="matrix(-1 0 0 1 2610.5 0)" gradientUnits="userSpaceOnUse" x1="2362.729" x2="2351.167" xlink:href="#lg4" y1="142.153" y2="159.824"/><g><g><path d="m141.119 385.837s9.89 13.09 40.724 35.488 49.741 73.594 61.086 82.611c0 .001-5.818-111.99-101.81-118.099z" fill="url(#SVGID_1_)"/><path d="m368.882 385.837s-9.89 13.09-40.724 35.488-49.741 73.594-61.086 82.611c0 .001 5.818-111.99 101.81-118.099z" fill="url(#SVGID_2_)"/></g><path d="m385.899 153.466h-130.898-130.898s68.208 106.456 12.511 210.444c-5.208 9.724-.53 21.856 9.955 25.281 28.668 9.367 76.598 35.764 93.74 109.095 1.6 6.845 7.663 11.714 14.692 11.714 7.029 0 13.092-4.869 14.692-11.714 17.142-73.332 65.072-99.728 93.74-109.095 10.485-3.426 15.163-15.558 9.955-25.281-55.698-103.988 12.511-210.444 12.511-210.444z" fill="url(#SVGID_3_)"/><path d="m385.899 153.466h-130.898-130.898s14.981 23.382 25.168 58.933l188.334 188.333c9.338-5.402 18.256-9.066 25.829-11.541 10.485-3.426 15.163-15.558 9.955-25.281-55.699-103.988 12.51-210.444 12.51-210.444z" fill="url(#SVGID_4_)"/><path d="m371.645.037c-.222-.022-.445-.037-.672-.037-4.127 0-7.472 3.665-7.472 8.186v8.023c0 59.476-44.011 107.692-98.301 107.692h-20.397c-54.29 0-98.301-48.215-98.301-107.692v-8.023c0-4.521-3.345-8.186-7.472-8.186-.227 0-.451.015-.673.037v167.782h233.289v-167.782z" fill="url(#SVGID_5_)"/><path d="m389.613 143.269-6.716-31.8c-3.419-16.19-5.143-32.691-5.143-49.238v-54.709c0-3.873-2.923-7.255-6.788-7.506-4.235-.274-7.756 3.08-7.756 7.256v66.981c0 10.78-7.441 20.121-17.945 22.549-3.264.754-6.903 1.536-10.856 2.295-27.451 5.274-51.047 22.684-64.319 47.285l-9.34 17.313c-2.468 4.575-9.031 4.575-11.5 0l-9.34-17.313c-13.272-24.602-36.868-42.012-64.319-47.285-3.953-.759-7.592-1.541-10.856-2.295-10.503-2.428-17.945-11.769-17.945-22.549v-66.732c0-3.873-2.923-7.255-6.788-7.505-4.235-.274-7.756 3.08-7.756 7.256v54.955c0 16.548-1.724 33.052-5.143 49.243l-6.716 31.8c-5.268 24.942 4.184 50.994 24.83 65.947 9.988 7.234 22.098 11.695 35.279 12.197.772.029 1.547.049 2.325.058 17.562.204 33.857-5.15 47.235-14.415 14.995-10.384 34.894-10.384 49.889 0 13.379 9.265 29.674 14.619 47.236 14.415.76-.009 1.518-.027 2.272-.056 13.191-.495 25.312-4.952 35.309-12.185 20.66-14.948 30.12-41.011 24.851-65.962z" fill="url(#SVGID_6_)"/><path d="m368.555 206.256-76.204-76.204c-.921-2.25-3.321-2.751-5.803-2.287-.31.058-1.766.34-4.069.921-4.754 5.352-8.926 11.277-12.389 17.696l-9.34 17.313c-2.468 4.575-9.032 4.575-11.5 0l-9.34-17.313c-3.463-6.42-7.635-12.344-12.389-17.696-2.302-.581-3.758-.863-4.069-.921-2.841-.532-4.704.473-5.233 3.316-.462 2.483.038 4.883 2.288 5.803 0 0 15.306 15.526 15.413 15.715-6.356 5.46-12.279 12.036-17.038 19.934-1.493 2.477-1.567 4.822.909 6.314l22.347 22.347c12.607-3.865 26.58-1.912 37.806 5.861 13.379 9.265 29.674 14.619 47.236 14.415.76-.009 1.518-.027 2.272-.056 13.191-.495 25.312-4.952 35.309-12.185 1.311-.945 2.575-1.939 3.794-2.973z" fill="url(#SVGID_7_)"/><g><path d="m287.512 179.601c-1.775 0-3.507-.903-4.489-2.534-19.073-31.653-61.065-39.8-61.487-39.879-2.843-.53-4.718-3.264-4.189-6.106.529-2.843 3.265-4.721 6.106-4.189 1.911.356 47.065 9.13 68.538 44.769 1.493 2.477.695 5.694-1.782 7.187-.845.509-1.777.752-2.697.752z" fill="url(#SVGID_8_)"/><path d="m222.489 179.601c1.775 0 3.507-.903 4.489-2.534 19.073-31.653 61.065-39.8 61.487-39.879 2.843-.53 4.718-3.264 4.189-6.106-.529-2.843-3.265-4.721-6.106-4.189-1.911.356-47.065 9.13-68.538 44.769-1.493 2.477-.695 5.694 1.782 7.187.845.509 1.778.752 2.697.752z" fill="url(#SVGID_9_)"/></g></g></svg>