<?xml version="1.0" encoding="iso-8859-1"?>
<!-- Generator: Adobe Illustrator 19.0.0, SVG Export Plug-In . SVG Version: 6.00 Build 0)  -->
<svg version="1.1" id="Capa_1" xmlns="http://www.w3.org/2000/svg" xmlns:xlink="http://www.w3.org/1999/xlink" x="0px" y="0px"
	 viewBox="0 0 512 512" style="enable-background:new 0 0 512 512;" xml:space="preserve">
<path style="fill:#0C61C6;" d="M393.5,0h-310v512h310V0z"/>
<path style="fill:#0A4EAF;" d="M393.5,0h-155v512h155V0z"/>
<rect x="113.5" y="60" style="fill:#7D8AFF;" width="250" height="372"/>
<rect x="238.5" y="60" style="fill:#6E76E5;" width="125" height="372"/>
<path style="fill:#FFD2D2;" d="M406.299,274.023L298.5,245v-89c0-16.568-13.431-30-30-30c-16.569,0-30,13.431-30,30v106l0,0
	c-27.614,0-50,22.386-50,50v35.147c0,15.913,6.321,31.174,17.574,42.426L238.5,422v90h170v-90l13.666-27.331
	c4.166-8.331,6.334-17.518,6.334-26.833v-64.845C428.5,289.426,419.398,277.549,406.299,274.023z"/>
<rect x="238.5" y="432" style="fill:#063E8B;" width="170" height="80"/>
<path style="fill:#F9C0C0;" d="M238.5,422V262c-27.614,0-50,22.386-50,50v35.147c0,15.913,6.321,31.174,17.574,42.426L238.5,422z"/>
<g>
</g>
<g>
</g>
<g>
</g>
<g>
</g>
<g>
</g>
<g>
</g>
<g>
</g>
<g>
</g>
<g>
</g>
<g>
</g>
<g>
</g>
<g>
</g>
<g>
</g>
<g>
</g>
<g>
</g>
</svg>
