<svg id="Capa_1" enable-background="new 0 0 510 510" height="512" viewBox="0 0 510 510" width="512" xmlns="http://www.w3.org/2000/svg" xmlns:xlink="http://www.w3.org/1999/xlink"><linearGradient id="lg1"><stop offset="0" stop-color="#b5dbff"/><stop offset="1" stop-color="#48b2e3"/></linearGradient><linearGradient id="SVGID_1_" gradientUnits="userSpaceOnUse" x1="213.032" x2="309.196" xlink:href="#lg1" y1="292.175" y2="292.175"/><linearGradient id="lg2"><stop offset="0" stop-color="#48b2e3" stop-opacity="0"/><stop offset=".4112" stop-color="#2995bf" stop-opacity=".411"/><stop offset=".7781" stop-color="#1381a6" stop-opacity=".778"/><stop offset="1" stop-color="#0b799d"/></linearGradient><linearGradient id="SVGID_2_" gradientUnits="userSpaceOnUse" x1="257.895" x2="140.342" xlink:href="#lg2" y1="299.115" y2="361.207"/><linearGradient id="SVGID_3_" gradientUnits="userSpaceOnUse" x1="255" x2="255" xlink:href="#lg2" y1="194.716" y2="94.442"/><linearGradient id="SVGID_4_" gradientUnits="userSpaceOnUse" x1="255" x2="255" xlink:href="#lg2" y1="277.908" y2="177.634"/><linearGradient id="SVGID_5_" gradientUnits="userSpaceOnUse" x1="234.804" x2="308.982" xlink:href="#lg1" y1="44.308" y2="118.486"/><linearGradient id="SVGID_6_" gradientTransform="matrix(-1 0 0 -1 510 149)" gradientUnits="userSpaceOnUse" x1="241.611" x2="290.789" xlink:href="#lg1" y1="71.107" y2="120.286"/><linearGradient id="SVGID_7_" gradientUnits="userSpaceOnUse" x1="255" x2="255" xlink:href="#lg1" y1="430.426" y2="539.696"/><linearGradient id="SVGID_8_" gradientUnits="userSpaceOnUse" x1="255" x2="255" xlink:href="#lg2" y1="397.27" y2="598.77"/><linearGradient id="SVGID_9_" gradientUnits="userSpaceOnUse" x1="68.239" x2="-59.136" xlink:href="#lg2" y1="340.735" y2="308.599"/><linearGradient id="SVGID_10_" gradientUnits="userSpaceOnUse" x1="435.631" x2="564.041" xlink:href="#lg2" y1="339.6" y2="346.169"/><linearGradient id="SVGID_11_" gradientUnits="userSpaceOnUse" x1="255" x2="255" xlink:href="#lg1" y1="167.589" y2="212.215"/><linearGradient id="SVGID_12_" gradientUnits="userSpaceOnUse" x1="186.729" x2="140.777" xlink:href="#lg2" y1="222.598" y2="176.645"/><linearGradient id="SVGID_13_" gradientUnits="userSpaceOnUse" x1="121.321" x2="161.113" xlink:href="#lg1" y1="171.507" y2="211.299"/><linearGradient id="SVGID_14_" gradientUnits="userSpaceOnUse" x1="360.949" x2="400.74" xlink:href="#lg1" y1="171.507" y2="211.299"/><g><path d="m222.934 94.444h64.131v395.461h-64.131z" fill="url(#SVGID_1_)"/><path d="m255 94.444h32.066v395.461h-32.066z" fill="url(#SVGID_2_)"/><path d="m222.934 120.452 64.132 64.131v-90.139h-64.132z" fill="url(#SVGID_3_)"/><path d="m222.934 203.643 64.132 64.132v-90.139h-64.132z" fill="url(#SVGID_4_)"/><g><path d="m255 0c-35.628 0-64.504 28.876-64.504 64.504s28.876 64.504 64.504 64.504 64.504-28.876 64.504-64.504-28.876-64.504-64.504-64.504zm-.012 82.709c-10.055 0-18.194-8.138-18.194-18.194 0-10.043 8.138-18.194 18.194-18.194 10.043 0 18.194 8.15 18.194 18.194 0 10.056-8.151 18.194-18.194 18.194z" fill="url(#SVGID_5_)"/><path d="m255 107.269c23.619 0 42.765-19.146 42.765-42.765s-19.146-42.766-42.765-42.766-42.765 19.146-42.765 42.765 19.146 42.766 42.765 42.766zm.012-60.971c10.055 0 18.194 8.138 18.194 18.194 0 10.043-8.138 18.194-18.194 18.194-10.043 0-18.194-8.15-18.194-18.194 0-10.056 8.151-18.194 18.194-18.194z" fill="url(#SVGID_6_)"/></g><path d="m486.869 298.856-3.31-5.666c-4.638-7.939-14.211-11.532-22.927-8.606l-6.221 2.088c-20.157 6.766-36.196 22.25-43.668 42.156l-5.826 15.519c-1.188 3.165.364 6.749 3.532 7.932.098.037.197.074.295.111 12.625 4.807 16.713 20.719 8.149 31.167-33.167 40.466-93.257 67.507-161.893 67.507s-128.726-27.041-161.893-67.507c-8.564-10.448-4.476-26.36 8.149-31.167.098-.037.196-.074.295-.111 3.167-1.182 4.72-4.766 3.532-7.932l-5.825-15.518c-7.472-19.907-23.511-35.39-43.669-42.157l-6.221-2.088c-8.716-2.926-18.289.668-22.927 8.606l-3.311 5.667c-10.726 18.359-12.614 40.574-5.141 60.48 2.236 5.957 4.338 11.555 5.825 15.517 1.2 3.198 4.765 4.815 7.963 3.615 2.649-.994 5.365-1.744 8.117-2.248 9.054-1.66 18.125 3.04 21.83 11.467 31.581 71.83 106.218 122.312 193.276 122.312s161.695-50.482 193.277-122.311c3.705-8.427 12.776-13.128 21.83-11.467 2.751.505 5.468 1.254 8.117 2.248 3.198 1.2 6.762-.417 7.963-3.615 1.487-3.962 3.589-9.56 5.825-15.518 7.472-19.907 5.584-42.121-5.143-60.481z" fill="url(#SVGID_7_)"/><path d="m473.926 284.937c-10.188 109.523-104.303 195.319-218.926 195.319s-208.738-85.796-218.926-195.319c4.136-1.64 8.826-1.857 13.299-.35l6.221 2.086c.989.338 1.977.687 2.942 1.073 18.772 7.222 33.626 22.148 40.728 41.077l5.823 15.529c1.182 3.159-.374 6.74-3.533 7.921-.096.036-.205.084-.301.121-2.098.796-3.967 1.905-5.57 3.231-8.066 6.716-9.718 19.219-2.58 27.936 33.168 40.462 93.259 67.506 161.898 67.506s128.73-27.043 161.898-67.506c7.137-8.717 5.486-21.22-2.58-27.936-1.604-1.326-3.472-2.435-5.57-3.231-.097-.036-.205-.084-.301-.121-3.159-1.182-4.714-4.762-3.533-7.921l5.823-15.529c7.102-18.929 21.968-33.855 40.728-41.077.965-.386 1.953-.735 2.942-1.073l6.221-2.086c4.472-1.507 9.162-1.29 13.297.35z" fill="url(#SVGID_8_)"/><path d="m93.102 383.561c3.255 3.967 6.764 7.813 10.526 11.502h-23.873c-22.217-28.643-37.264-62.888-42.522-100.197-.958-6.801 5.48-12.47 12.005-10.324.045.015.09.03.134.045l6.221 2.086c.989.338 1.977.687 2.942 1.073 18.772 7.222 33.626 22.148 40.728 41.077l5.823 15.529c1.182 3.159-.374 6.74-3.533 7.921-.096.036-.205.084-.301.121-2.098.796-3.967 1.905-5.57 3.231-8.066 6.716-9.717 19.219-2.58 27.936z" fill="url(#SVGID_9_)"/><path d="m472.766 294.866c-5.258 37.309-20.305 71.553-42.522 100.197h-23.872c3.762-3.689 7.27-7.535 10.526-11.502 7.137-8.717 5.486-21.22-2.58-27.936-1.604-1.326-3.472-2.435-5.57-3.231-.097-.036-.205-.084-.301-.121-3.159-1.182-4.714-4.762-3.533-7.921l5.823-15.529c7.102-18.929 21.968-33.855 40.728-41.077.965-.386 1.953-.735 2.942-1.073l6.221-2.086c.045-.015.089-.03.134-.045 6.524-2.145 12.963 3.524 12.004 10.324z" fill="url(#SVGID_10_)"/><path d="m135.638 166.986h238.723v36.773h-238.723z" fill="url(#SVGID_11_)"/><path d="m163.369 166.986h-27.731v36.773h64.504z" fill="url(#SVGID_12_)"/><g><circle cx="135.186" cy="185.372" fill="url(#SVGID_13_)" r="33.457"/><circle cx="374.814" cy="185.372" fill="url(#SVGID_14_)" r="33.457"/></g></g></svg>