<svg id="Capa_1" enable-background="new 0 0 510 510" height="512" viewBox="0 0 510 510" width="512" xmlns="http://www.w3.org/2000/svg" xmlns:xlink="http://www.w3.org/1999/xlink"><linearGradient id="SVGID_1_" gradientUnits="userSpaceOnUse" x1="166.736" x2="166.736" y1="325.029" y2="440.123"><stop offset="0" stop-color="#edf5ff"/><stop offset="1" stop-color="#d5e8fe"/></linearGradient><linearGradient id="lg1"><stop offset="0" stop-color="#b5dbff" stop-opacity="0"/><stop offset=".2428" stop-color="#93cef6" stop-opacity=".243"/><stop offset=".5763" stop-color="#6abfec" stop-opacity=".576"/><stop offset=".8403" stop-color="#51b5e5" stop-opacity=".84"/><stop offset="1" stop-color="#48b2e3"/></linearGradient><linearGradient id="SVGID_2_" gradientUnits="userSpaceOnUse" x1="266.048" x2="291.791" xlink:href="#lg1" y1="452.159" y2="426.416"/><linearGradient id="SVGID_3_" gradientUnits="userSpaceOnUse" x1="87.154" x2="51.721" xlink:href="#lg1" y1="439.73" y2="404.296"/><linearGradient id="SVGID_4_" gradientUnits="userSpaceOnUse" x1="171.826" x2="198.42" xlink:href="#lg1" y1="369.741" y2="343.147"/><linearGradient id="SVGID_5_" gradientUnits="userSpaceOnUse" x1="177.812" x2="156.476" xlink:href="#lg1" y1="406.655" y2="385.32"/><linearGradient id="SVGID_6_" gradientUnits="userSpaceOnUse" x1="129.094" x2="153.467" xlink:href="#lg1" y1="371.641" y2="396.014"/><linearGradient id="SVGID_7_" gradientTransform="matrix(.707 .707 -.707 .707 255.118 -105.576)" gradientUnits="userSpaceOnUse" x1="191.203" x2="389.994" y1="64.408" y2="263.199"><stop offset="0" stop-color="#ff637b"/><stop offset="1" stop-color="#e63950"/></linearGradient><linearGradient id="lg2"><stop offset="0" stop-color="#e63950" stop-opacity="0"/><stop offset=".0467" stop-color="#e4354b" stop-opacity=".047"/><stop offset=".4669" stop-color="#d31822" stop-opacity=".467"/><stop offset=".7991" stop-color="#c90709" stop-opacity=".799"/><stop offset="1" stop-color="#c50000"/></linearGradient><linearGradient id="SVGID_8_" gradientTransform="matrix(.707 .707 -.707 .707 255.118 -105.576)" gradientUnits="userSpaceOnUse" x1="328.759" x2="256.131" xlink:href="#lg2" y1="150.77" y2="150.77"/><linearGradient id="SVGID_9_" gradientTransform="matrix(.707 .707 -.707 .707 255.118 -105.576)" gradientUnits="userSpaceOnUse" x1="277.574" x2="277.574" xlink:href="#lg2" y1="160.781" y2="57.083"/><linearGradient id="lg3"><stop offset="0" stop-color="#ffda2d"/><stop offset="1" stop-color="#fdbf00"/></linearGradient><linearGradient id="SVGID_10_" gradientTransform="matrix(.707 .707 -.707 .707 255.118 -105.576)" gradientUnits="userSpaceOnUse" x1="277.574" x2="277.574" xlink:href="#lg3" y1="100.323" y2="108.147"/><linearGradient id="SVGID_11_" gradientTransform="matrix(.707 .707 -.707 .707 255.118 -105.576)" gradientUnits="userSpaceOnUse" x1="297.649" x2="277.1" y1="119.564" y2="99.014"><stop offset="0" stop-color="#ff9100" stop-opacity="0"/><stop offset="1" stop-color="#ff9100"/></linearGradient><linearGradient id="SVGID_12_" gradientTransform="matrix(.707 -.707 .707 .707 -45.638 255.049)" gradientUnits="userSpaceOnUse" x1="316.715" x2="316.715" xlink:href="#lg3" y1="231.903" y2="239.727"/><linearGradient id="lg4"><stop offset="0" stop-color="#ff9100"/><stop offset="1" stop-color="#e63950"/></linearGradient><linearGradient id="SVGID_13_" gradientUnits="userSpaceOnUse" x1="282.607" x2="282.885" xlink:href="#lg4" y1="389.438" y2="432.834"/><linearGradient id="SVGID_14_" gradientTransform="matrix(.707 .707 -.707 .707 383.837 -168.848)" gradientUnits="userSpaceOnUse" x1="382.437" x2="427.784" xlink:href="#lg4" y1="453.262" y2="525.091"/><linearGradient id="SVGID_15_" gradientTransform="matrix(.707 .707 -.707 .707 383.837 -168.848)" gradientUnits="userSpaceOnUse" x1="397.798" x2="352.177" xlink:href="#lg2" y1="497.271" y2="451.651"/><linearGradient id="SVGID_16_" gradientTransform="matrix(.707 .707 -.707 .707 383.837 -168.848)" gradientUnits="userSpaceOnUse" x1="354.434" x2="380.009" xlink:href="#lg4" y1="457.337" y2="505.404"/><linearGradient id="lg5"><stop offset="0" stop-color="#b9dd39"/><stop offset="1" stop-color="#90cc1c"/></linearGradient><linearGradient id="SVGID_17_" gradientUnits="userSpaceOnUse" x1="17.109" x2="36.211" xlink:href="#lg5" y1="438.488" y2="445.535"/><linearGradient id="SVGID_18_" gradientTransform="matrix(.707 -.707 .707 .707 -495.931 155.746)" gradientUnits="userSpaceOnUse" x1="206.181" x2="239.825" xlink:href="#lg5" y1="560.125" y2="613.416"/><linearGradient id="SVGID_19_" gradientTransform="matrix(.707 -.707 .707 .707 -495.931 155.746)" gradientUnits="userSpaceOnUse" x1="217.577" x2="183.73" y1="592.776" y2="558.929"><stop offset="0" stop-color="#6b0" stop-opacity="0"/><stop offset="1" stop-color="#6b0"/></linearGradient><linearGradient id="SVGID_20_" gradientTransform="matrix(.707 -.707 .707 .707 -495.931 155.746)" gradientUnits="userSpaceOnUse" x1="185.405" x2="204.38" xlink:href="#lg5" y1="563.148" y2="598.81"/><g><g><path d="m245.634 466.863c-20.27 0-40.541-7.716-55.972-23.147l-38.037-38.037-28.566 28.566c-24.335 24.334-63.931 24.334-88.265 0-24.335-24.335-24.335-63.93-.001-88.265l.17-.17c24.335-24.334 63.93-24.334 88.266 0l28.396 28.396 44.787-44.787 15.737 15.736-44.787 44.788 38.037 38.037c22.185 22.186 58.286 22.186 80.47 0l15.322-15.322 15.737 15.737-15.322 15.322c-15.432 15.43-35.702 23.146-55.972 23.146zm-166.538-117.061c-10.285 0-20.566 3.914-28.397 11.743l-.169.17c-15.657 15.657-15.658 41.134 0 56.792 15.657 15.658 41.134 15.658 56.792 0l28.566-28.566-28.396-28.396c-7.828-7.827-18.113-11.743-28.396-11.743z" fill="url(#SVGID_1_)"/><path d="m316.928 428.394-15.737-15.737-15.322 15.322c-10.874 10.875-25.092 16.405-39.376 16.619l19.578 19.578c13.025-3.459 25.338-10.265 35.534-20.461z" fill="url(#SVGID_2_)"/><path d="m110.004 415.826-2.681 2.681c-14.879 14.879-38.619 15.608-54.38 2.208l-15.778 15.778c24.471 22.059 62.334 21.31 85.894-2.249l2.681-2.681z" fill="url(#SVGID_3_)"/><path d="m173.276 384.027 38.873-38.873-15.737-15.736-38.872 38.872z" fill="url(#SVGID_4_)"/><path d="m205.399 427.979-38.037-38.037-15.736 15.736 38.037 38.037c9.34 9.34 20.458 15.834 32.27 19.521l18.836-18.836c-12.91-1.098-25.514-6.564-35.37-16.421z" fill="url(#SVGID_5_)"/><path d="m105.747 333.51-17.376 17.376c7.012 1.653 13.664 5.203 19.122 10.66l28.396 28.396 15.736-15.736-28.396-28.396c-5.224-5.225-11.154-9.319-17.482-12.3z" fill="url(#SVGID_6_)"/></g><g><path d="m481.795 36.837h-211.519c-10.946 0-20.437 7.57-22.871 18.242l-62.503 274.022c-3.844 16.851 11.237 31.932 28.088 28.088l274.022-62.503c10.672-2.434 18.242-11.925 18.242-22.871v-211.519c0-12.956-10.503-23.459-23.459-23.459z" fill="url(#SVGID_7_)"/><path d="m505.254 60.296c0-6.612-2.745-12.573-7.146-16.838l-307.177 307.178c5.398 5.568 13.497 8.507 22.059 6.554l274.022-62.503c10.672-2.434 18.242-11.925 18.242-22.871z" fill="url(#SVGID_8_)"/><path d="m247.405 55.079-62.503 274.022c-3.844 16.851 11.237 31.932 28.088 28.088l274.022-62.503c4.923-1.123 9.171-3.759 12.335-7.335l-244.607-244.607c-3.576 3.164-6.213 7.412-7.335 12.335z" fill="url(#SVGID_9_)"/><path d="m494.804 293.298-246.011-246.011c-3.476-3.476-3.476-9.113 0-12.589 3.476-3.476 9.113-3.476 12.589 0l246.011 246.011c3.476 3.476 3.476 9.113 0 12.589-3.477 3.477-9.113 3.477-12.589 0z" fill="url(#SVGID_10_)"/><path d="m371.142 169.637 19.802 19.802v-25.178l-7.212-7.213z" fill="url(#SVGID_11_)"/><path d="m503.721 50.959-305.547 305.547c-3.476 3.476-9.113 3.476-12.589 0-3.476-3.476-3.476-9.113 0-12.589l305.547-305.547c3.476-3.476 9.113-3.476 12.589 0 3.476 3.477 3.476 9.113 0 12.589z" fill="url(#SVGID_12_)"/></g><g><g><path d="m296.224 429.652-34.353-10.041c-14.084-4.116-18.613-21.816-8.238-32.192l21.577-21.577c10.375-10.375 28.075-5.846 32.192 8.238l10.041 34.353z" fill="url(#SVGID_13_)"/><path d="m296.224 429.652 10.041 34.353c4.116 14.084 21.816 18.613 32.192 8.238l21.577-21.577c10.375-10.375 5.846-28.075-8.238-32.192l-34.353-10.041z" fill="url(#SVGID_14_)"/></g><path d="m330.754 476.985v-56.978c.108-2.689-.241-5.391-1.034-7.986l-12.276-3.588-21.219 21.219 10.041 34.353c3.208 10.98 14.674 16.151 24.488 12.98z" fill="url(#SVGID_15_)"/><circle cx="306.834" cy="419.042" fill="url(#SVGID_16_)" r="23.943"/></g><g><g><path d="m51.546 433.868-7.449 25.487c-3.054 10.449-16.186 13.81-23.884 6.112l-16.009-16.009c-7.698-7.698-4.337-20.83 6.112-23.884l25.487-7.449z" fill="url(#SVGID_17_)"/><path d="m51.546 433.868 25.487-7.449c10.449-3.054 13.81-16.186 6.112-23.884l-16.009-16.009c-7.698-7.698-20.83-4.337-23.884 6.112l-7.449 25.487z" fill="url(#SVGID_18_)"/></g><path d="m86.664 408.25h-42.274c-1.995-.08-3.999.179-5.925.767l-2.662 9.108 15.743 15.743 25.487-7.449c8.147-2.381 11.983-10.888 9.631-18.169z" fill="url(#SVGID_19_)"/><circle cx="43.674" cy="425.997" fill="url(#SVGID_20_)" r="17.764"/></g></g></svg>