<svg id="Capa_1" enable-background="new 0 0 510 510" height="512" viewBox="0 0 510 510" width="512" xmlns="http://www.w3.org/2000/svg" xmlns:xlink="http://www.w3.org/1999/xlink"><linearGradient id="lg1"><stop offset="0" stop-color="#ff9100"/><stop offset="1" stop-color="#e63950"/></linearGradient><linearGradient id="SVGID_1_" gradientUnits="userSpaceOnUse" x1="127.167" x2="255.667" xlink:href="#lg1" y1="294.03" y2="235.53"/><linearGradient id="SVGID_2_" gradientUnits="userSpaceOnUse" x1="176.744" x2="223.744" y1="294.188" y2="371.688"><stop offset="0" stop-color="#e63950" stop-opacity="0"/><stop offset=".0467" stop-color="#e4354b" stop-opacity=".047"/><stop offset=".4669" stop-color="#d31822" stop-opacity=".467"/><stop offset=".7991" stop-color="#c90709" stop-opacity=".799"/><stop offset="1" stop-color="#c50000"/></linearGradient><linearGradient id="SVGID_3_" gradientTransform="matrix(-.341 .147 .396 .918 264.196 33.852)" gradientUnits="userSpaceOnUse" x1="445.988" x2="527.188" y1="183.679" y2="183.679"><stop offset="0" stop-color="#edf5ff"/><stop offset="1" stop-color="#d5e8fe"/></linearGradient><linearGradient id="lg2"><stop offset="0" stop-color="#0095ff" stop-opacity="0"/><stop offset="1" stop-color="#03232e"/></linearGradient><linearGradient id="SVGID_4_" gradientUnits="userSpaceOnUse" x1="175.737" x2="241.737" xlink:href="#lg2" y1="303.156" y2="396.656"/><linearGradient id="SVGID_5_" gradientUnits="userSpaceOnUse" x1="166.293" x2="266.96" xlink:href="#lg2" y1="276.992" y2="213.659"/><linearGradient id="lg3"><stop offset="0" stop-color="#0095ff" stop-opacity="0"/><stop offset=".1029" stop-color="#0085e1" stop-opacity=".103"/><stop offset=".3414" stop-color="#0162a2" stop-opacity=".341"/><stop offset=".5588" stop-color="#024770" stop-opacity=".559"/><stop offset=".748" stop-color="#03334c" stop-opacity=".748"/><stop offset=".9015" stop-color="#032736" stop-opacity=".902"/><stop offset="1" stop-color="#03232e"/></linearGradient><linearGradient id="SVGID_6_" gradientTransform="matrix(-1 0 0 1 675.727 0)" gradientUnits="userSpaceOnUse" x1="476.615" x2="476.615" xlink:href="#lg3" y1="378.804" y2="449.671"/><linearGradient id="SVGID_7_" gradientTransform="matrix(-1 0 0 1 675.727 0)" gradientUnits="userSpaceOnUse" x1="464.631" x2="421.363" xlink:href="#lg2" y1="453.576" y2="415.863"/><linearGradient id="SVGID_8_" gradientTransform="matrix(-.918 .396 .396 .918 543.871 -86.737)" gradientUnits="userSpaceOnUse" x1="477.861" x2="496.702" y1="347.41" y2="347.41"><stop offset="0" stop-color="#ff637b"/><stop offset="1" stop-color="#e63950"/></linearGradient><linearGradient id="SVGID_9_" gradientTransform="matrix(.918 .396 -.396 .918 131.855 -86.737)" gradientUnits="userSpaceOnUse" x1="281.467" x2="374.048" y1="219.407" y2="219.407"><stop offset="0" stop-color="#48b2e3"/><stop offset="1" stop-color="#0095ff"/></linearGradient><linearGradient id="SVGID_10_" gradientTransform="matrix(.918 .396 -.396 .918 131.855 -86.737)" gradientUnits="userSpaceOnUse" x1="364.497" x2="248.86" xlink:href="#lg2" y1="224.153" y2="209.793"/><linearGradient id="SVGID_11_" gradientUnits="userSpaceOnUse" x1="312.506" x2="312.506" xlink:href="#lg3" y1="363.333" y2="444.135"/><linearGradient id="lg4"><stop offset="0" stop-color="#ffda2d"/><stop offset="1" stop-color="#fdbf00"/></linearGradient><linearGradient id="SVGID_12_" gradientTransform="matrix(.918 .396 -.396 .918 131.855 -86.737)" gradientUnits="userSpaceOnUse" x1="256.242" x2="395.12" xlink:href="#lg4" y1="108.901" y2="108.901"/><linearGradient id="SVGID_13_" gradientTransform="matrix(.918 .396 -.396 .918 131.855 -86.737)" gradientUnits="userSpaceOnUse" x1="243.454" x2="407.908" xlink:href="#lg4" y1="236.641" y2="236.641"/><linearGradient id="lg5"><stop offset="0" stop-color="#ff9100" stop-opacity="0"/><stop offset="1" stop-color="#ff9100"/></linearGradient><linearGradient id="SVGID_14_" gradientTransform="matrix(.918 .396 -.396 .918 131.855 -86.737)" gradientUnits="userSpaceOnUse" x1="379.521" x2="315.278" xlink:href="#lg5" y1="113.129" y2="103.303"/><linearGradient id="SVGID_15_" gradientTransform="matrix(.918 .396 -.396 .918 131.855 -86.737)" gradientUnits="userSpaceOnUse" x1="360.694" x2="296.451" xlink:href="#lg5" y1="236.23" y2="226.405"/><linearGradient id="SVGID_16_" gradientUnits="userSpaceOnUse" x1="298.842" x2="249.508" xlink:href="#lg2" y1="448.587" y2="405.587"/><linearGradient id="SVGID_17_" gradientTransform="matrix(.918 .396 -.396 .918 131.855 -86.737)" gradientUnits="userSpaceOnUse" x1="317.807" x2="339.289" xlink:href="#lg1" y1="406.09" y2="406.09"/><linearGradient id="SVGID_18_" gradientUnits="userSpaceOnUse" x1="320.991" x2="342.14" y1="427.146" y2="506.859"><stop offset="0" stop-color="#ffdecf"/><stop offset=".3591" stop-color="#fdc5b2"/><stop offset=".7611" stop-color="#fbae98"/><stop offset="1" stop-color="#faa68e"/></linearGradient><linearGradient id="SVGID_19_" gradientUnits="userSpaceOnUse" x1="65.149" x2="334.79" y1="372.49" y2="534.763"><stop offset="0" stop-color="#ffdecf"/><stop offset="1" stop-color="#faa68e"/></linearGradient><linearGradient id="SVGID_20_" gradientUnits="userSpaceOnUse" x1="245.534" x2="157.687" y1="396.728" y2="306.441"><stop offset="0" stop-color="#faa68e" stop-opacity="0"/><stop offset="1" stop-color="#faa68e"/></linearGradient><linearGradient id="SVGID_21_" gradientUnits="userSpaceOnUse" x1="255" x2="255" y1="471.199" y2="504.198"><stop offset="0" stop-color="#faa68e" stop-opacity="0"/><stop offset="1" stop-color="#d07972"/></linearGradient><g><g><path d="m120.148 338.218c50.552 117.242 106.02 163.81 142.832 147.937s41.026-88.174-9.526-205.416-136.728-235.028-173.54-219.156-10.319 159.393 40.234 276.635z" fill="url(#SVGID_1_)"/><path d="m120.148 338.218c50.552 117.242 106.02 163.81 142.832 147.937s41.026-88.174-9.526-205.416c-5.397-12.517-11.203-25.039-17.309-37.406h-150.093c9.24 31.585 20.838 64.138 34.096 94.885z" fill="url(#SVGID_2_)"/><path d="m162.024 320.162c50.552 117.242 87.272 171.894 100.956 165.994s-.85-70.118-51.402-187.36-117.98-243.113-131.664-237.213 31.558 141.336 82.11 258.579z" fill="url(#SVGID_3_)"/><path d="m186.725 243.333h-56.095c9.862 25.47 20.504 51.57 31.394 76.828 50.552 117.242 87.272 171.894 100.956 165.994s-.85-70.118-51.402-187.36c-7.958-18.456-16.335-37.126-24.853-55.462z" fill="url(#SVGID_4_)"/><path d="m120.148 338.218c-50.553-117.242-77.045-260.763-40.234-276.635l183.066 424.572c-36.812 15.873-92.28-30.695-142.832-147.937z" fill="url(#SVGID_5_)"/><path d="m263.888 306.3c39.298 102.183 33.148 165.171-.908 179.855-36.812 15.872-92.28-30.695-142.832-147.937-4.513-10.466-8.829-21.143-12.93-31.918z" fill="url(#SVGID_6_)"/><path d="m187.452 452.322 27.443-69.047c.411-1.8 1.133-3.022 2.221-3.491 6.555-2.827 20.923 23.411 31.504 47.952 8.624 20.002 12.99 32.304 9.748 38.139l-9.248 23.268c-18.127.414-39.365-11.615-61.668-36.821z" fill="url(#SVGID_7_)"/><path d="m227.619 436.791c10.582 24.541 21.26 34.69 27.815 31.864 6.555-2.827 6.506-17.559-4.076-42.1s-27.688-49.598-34.243-46.771-.078 32.466 10.504 57.007z" fill="url(#SVGID_8_)"/></g><g><path d="m402.539 317.058c-57.639 133.678-120.883 186.773-162.854 168.675-41.972-18.097-46.778-100.534 10.861-234.211 4.013-9.307 8.223-18.617 12.597-27.878 6.026-12.76 18.773-15.445 25.337-27.885 6.937-13.147 7.718-36.022 15.059-48.502 6.994-11.89 14.126-23.404 21.308-34.405 7.203-11.034 28.02-1.844 35.237-11.706 7.81-10.673 2.012-40.288 9.623-49.25 31.566-37.176 60.457-58.119 78.707-50.25s22.853 43.254 17.49 91.728c-1.353 12.226-15.174 25.284-17.736 38.944-2.15 11.462 7.129 23.348 4.204 35.52-3.07 12.775-6.547 25.865-10.391 39.112-3.927 13.531-22.691 24.764-27.341 38.455s4.814 29.842-.474 43.356c-3.734 9.538-7.614 18.99-11.627 28.297z" fill="url(#SVGID_9_)"/><path d="m402.539 317.058c57.639-133.677 87.845-297.316 45.873-315.413l-208.727 484.088c41.971 18.098 105.215-34.997 162.854-168.675z" fill="url(#SVGID_10_)"/><path d="m238.649 280.667c-44.807 116.507-37.795 188.324 1.035 205.067 41.972 18.097 105.216-34.998 162.854-168.675 5.145-11.933 10.067-24.106 14.743-36.392z" fill="url(#SVGID_11_)"/><path d="m452.373 167.838-84.788 43.628c-6.42 3.294-14.249-.082-16.261-7.011l-26.479-91.604c15.005-22.975 30.218-43.712 44.863-60.954l19.911 68.87c1.547 5.346 7.585 7.95 12.534 5.404l63.747-32.798c-2.485 22.484-7.121 47.782-13.527 74.465z" fill="url(#SVGID_12_)"/><path d="m414.16 288.76-102.685 52.838c-6.42 3.294-14.249-.082-16.261-7.011l-32.068-110.94c12.392-26.25 26.107-52.102 40.394-76.388l29.969 103.64c1.547 5.346 7.585 7.95 12.534 5.404l95.936-49.353c-7.853 27.059-17.238 54.779-27.819 81.81z" fill="url(#SVGID_13_)"/><g><path d="m452.373 167.838-84.788 43.628c-3.218 1.65-6.774 1.623-9.782.325l36.808-85.366c2.322 1.001 5.065 1.023 7.542-.254l63.747-32.798c-2.485 22.484-7.121 47.782-13.527 74.465z" fill="url(#SVGID_14_)"/><path d="m414.16 288.76-102.685 52.838c-3.218 1.65-6.774 1.623-9.782.325l36.808-85.366c2.322 1.001 5.065 1.023 7.542-.254l95.936-49.353c-7.853 27.059-17.238 54.779-27.819 81.81z" fill="url(#SVGID_15_)"/></g><path d="m325.8 447.158-31.29-78.726c-.468-2.053-1.291-3.445-2.532-3.98-7.474-3.223-23.855 26.693-35.92 54.674-9.833 22.806-14.811 36.833-11.115 43.486l10.544 26.529c20.669.471 44.884-13.244 70.313-41.983z" fill="url(#SVGID_16_)"/><path d="m280.003 429.449c-12.065 27.981-24.24 39.553-31.715 36.33s-7.418-20.02 4.647-48.001 31.569-56.55 39.043-53.328.09 37.018-11.975 64.999z" fill="url(#SVGID_17_)"/></g><g><path d="m498.202 506.34v.647c-3.38 1.915-7.296 3.014-11.457 3.014h-302.413c-.061-1.22-.098-2.44-.098-3.66 0-41.142 35.981-76.707 88.201-93.606 20.778-6.735 44.119-10.505 68.789-10.505 63.665 0 118.484 25.134 143.117 61.261 8.907 13.066 13.861 27.573 13.861 42.849z" fill="url(#SVGID_18_)"/><path d="m17.013 380.661c84.465-23.54 174.806-12.817 251.415 29.84l12.021 6.694c54.523 30.359 115.894 46.294 178.299 46.294h27.996c12.844 0 23.256 10.412 23.256 23.256 0 12.843-10.412 23.255-23.256 23.255h-463.488c-12.844 0-23.256-10.412-23.256-23.256v-83.681c0-10.439 6.956-19.599 17.013-22.402z" fill="url(#SVGID_19_)"/><path d="m486.744 463.489h-27.996c-62.405 0-123.776-15.934-178.299-46.293l-12.022-6.694c-42.14-23.464-88.435-37.254-135.622-41.001-20.303-1.612-37.638 14.53-37.638 34.897 0 39.455 31.985 71.44 71.44 71.44h340.672c-3.909-7.345-11.634-12.349-20.535-12.349z" fill="url(#SVGID_20_)"/><path d="m0 486.744c0 12.844 10.412 23.256 23.256 23.256h463.489c12.843 0 23.255-10.412 23.255-23.256s-10.412-23.256-23.256-23.256h-27.996c-38.433 0-76.472-6.053-112.763-17.788h-345.985z" fill="url(#SVGID_21_)"/></g></g></svg>