<svg id="Capa_1" enable-background="new 0 0 510 510" height="512" viewBox="0 0 510 510" width="512" xmlns="http://www.w3.org/2000/svg" xmlns:xlink="http://www.w3.org/1999/xlink"><linearGradient id="SVGID_1_" gradientTransform="matrix(1 .023 -.023 1 6.513 -6.011)" gradientUnits="userSpaceOnUse" x1="265.756" x2="265.095" y1="314.804" y2="333.314"><stop offset="0" stop-color="#48b2e3"/><stop offset="1" stop-color="#0095ff"/></linearGradient><linearGradient id="lg1"><stop offset="0" stop-color="#c59b6d"/><stop offset="1" stop-color="#a57c52"/></linearGradient><linearGradient id="SVGID_2_" gradientTransform="matrix(1 .023 -.023 1 6.513 -6.011)" gradientUnits="userSpaceOnUse" x1="127.51" x2="187.926" xlink:href="#lg1" y1="261.389" y2="277.717"/><linearGradient id="lg2"><stop offset="0" stop-color="#8c6239" stop-opacity="0"/><stop offset=".5198" stop-color="#734a23" stop-opacity=".52"/><stop offset="1" stop-color="#603813"/></linearGradient><linearGradient id="SVGID_3_" gradientTransform="matrix(1 .023 -.023 1 6.513 -6.011)" gradientUnits="userSpaceOnUse" x1="172.526" x2="40.81" xlink:href="#lg2" y1="303.658" y2="192.625"/><linearGradient id="SVGID_4_" gradientUnits="userSpaceOnUse" x1="182.859" x2="159.258" xlink:href="#lg2" y1="190.104" y2="146.51"/><linearGradient id="lg3"><stop offset="0" stop-color="#6b0"/><stop offset="1" stop-color="#0b799d"/></linearGradient><linearGradient id="SVGID_5_" gradientUnits="userSpaceOnUse" x1="145.483" x2="145.483" xlink:href="#lg3" y1="27.729" y2="99.385"/><linearGradient id="lg4"><stop offset="0" stop-color="#b9dd39"/><stop offset="1" stop-color="#90cc1c"/></linearGradient><linearGradient id="SVGID_6_" gradientTransform="matrix(-.499 .665 .8 .6 988.052 -369.216)" gradientUnits="userSpaceOnUse" x1="896.549" x2="1075.534" xlink:href="#lg4" y1="-369.923" y2="-369.923"/><linearGradient id="lg5"><stop offset="0" stop-color="#6b0" stop-opacity="0"/><stop offset="1" stop-color="#6b0"/></linearGradient><linearGradient id="SVGID_7_" gradientTransform="matrix(-.499 .665 .8 .6 988.052 -369.216)" gradientUnits="userSpaceOnUse" x1="989.244" x2="995.406" xlink:href="#lg5" y1="-349.733" y2="-462.703"/><linearGradient id="SVGID_8_" gradientTransform="matrix(-.499 .665 .8 .6 988.052 -369.216)" gradientUnits="userSpaceOnUse" x1="973.585" x2="928.671" xlink:href="#lg5" y1="-367.751" y2="-346.178"/><linearGradient id="lg6"><stop offset="0" stop-color="#07485e" stop-opacity="0"/><stop offset=".2687" stop-color="#074459" stop-opacity=".269"/><stop offset=".6092" stop-color="#053849" stop-opacity=".609"/><stop offset=".9869" stop-color="#03242f" stop-opacity=".987"/><stop offset="1" stop-color="#03232e"/></linearGradient><linearGradient id="SVGID_9_" gradientUnits="userSpaceOnUse" x1="166.438" x2="164.942" xlink:href="#lg6" y1="56.672" y2="95.21"/><linearGradient id="SVGID_10_" gradientTransform="matrix(.758 .572 -.589 .781 188.46 -330.463)" gradientUnits="userSpaceOnUse" x1="93.708" x2="268.419" xlink:href="#lg4" y1="390.444" y2="390.444"/><linearGradient id="SVGID_11_" gradientTransform="matrix(.758 .572 -.589 .781 188.46 -330.463)" gradientUnits="userSpaceOnUse" x1="184.181" x2="190.462" xlink:href="#lg5" y1="410.978" y2="295.815"/><linearGradient id="SVGID_12_" gradientTransform="matrix(.758 .572 -.589 .781 188.46 -330.463)" gradientUnits="userSpaceOnUse" x1="168.572" x2="124.762" xlink:href="#lg5" y1="392.313" y2="413.355"/><linearGradient id="lg7"><stop offset="0" stop-color="#07485e" stop-opacity="0"/><stop offset=".3024" stop-color="#07455a" stop-opacity=".302"/><stop offset=".578" stop-color="#063d4f" stop-opacity=".578"/><stop offset=".8424" stop-color="#042e3d" stop-opacity=".842"/><stop offset="1" stop-color="#03232e"/></linearGradient><linearGradient id="SVGID_13_" gradientUnits="userSpaceOnUse" x1="148.534" x2="132.765" xlink:href="#lg7" y1="58.031" y2="109.095"/><linearGradient id="SVGID_14_" gradientUnits="userSpaceOnUse" x1="15.42" x2="158.959" xlink:href="#lg4" y1="128.805" y2="128.805"/><linearGradient id="SVGID_15_" gradientUnits="userSpaceOnUse" x1="89.5" x2="96.164" xlink:href="#lg5" y1="149.713" y2="27.552"/><linearGradient id="SVGID_16_" gradientUnits="userSpaceOnUse" x1="74.678" x2="37.226" xlink:href="#lg5" y1="124.805" y2="142.794"/><linearGradient id="SVGID_17_" gradientUnits="userSpaceOnUse" x1="119.438" x2="95.521" xlink:href="#lg5" y1="107.588" y2="121.476"/><linearGradient id="SVGID_18_" gradientTransform="matrix(-.78 .199 .248 .969 1199.108 -98.015)" gradientUnits="userSpaceOnUse" x1="1163.837" x2="1334.185" xlink:href="#lg4" y1="-41.005" y2="-41.005"/><linearGradient id="SVGID_19_" gradientTransform="matrix(-.78 .199 .248 .969 1199.108 -98.015)" gradientUnits="userSpaceOnUse" x1="1251.906" x2="1258.48" xlink:href="#lg5" y1="-19.9" y2="-140.418"/><linearGradient id="SVGID_20_" gradientTransform="matrix(-.78 .199 .248 .969 1199.108 -98.015)" gradientUnits="userSpaceOnUse" x1="1236.131" x2="1192.793" xlink:href="#lg5" y1="-41.399" y2="-20.583"/><linearGradient id="SVGID_21_" gradientTransform="matrix(-.78 .199 .248 .969 1199.108 -98.015)" gradientUnits="userSpaceOnUse" x1="1287.268" x2="1259.195" xlink:href="#lg5" y1="-59.962" y2="-43.662"/><linearGradient id="lg8"><stop offset="0" stop-color="#ffdecf"/><stop offset=".3591" stop-color="#fdc5b2"/><stop offset=".7611" stop-color="#fbae98"/><stop offset="1" stop-color="#faa68e"/></linearGradient><linearGradient id="SVGID_22_" gradientUnits="userSpaceOnUse" x1="133.597" x2="158.604" xlink:href="#lg8" y1="94.964" y2="119.972"/><linearGradient id="SVGID_23_" gradientUnits="userSpaceOnUse" x1="139.953" x2="128.524" xlink:href="#lg8" y1="105.154" y2="93.724"/><linearGradient id="SVGID_24_" gradientUnits="userSpaceOnUse" x1="145.574" x2="142.532" xlink:href="#lg8" y1="94.299" y2="91.257"/><linearGradient id="SVGID_25_" gradientUnits="userSpaceOnUse" x1="147.63" x2="144.589" xlink:href="#lg8" y1="102.619" y2="99.577"/><linearGradient id="SVGID_26_" gradientUnits="userSpaceOnUse" x1="126.492" x2="151.499" xlink:href="#lg8" y1="120.205" y2="145.212"/><linearGradient id="SVGID_27_" gradientUnits="userSpaceOnUse" x1="132.849" x2="121.419" xlink:href="#lg8" y1="130.395" y2="118.965"/><linearGradient id="SVGID_28_" gradientUnits="userSpaceOnUse" x1="138.469" x2="135.427" xlink:href="#lg8" y1="119.539" y2="116.498"/><linearGradient id="SVGID_29_" gradientUnits="userSpaceOnUse" x1="140.525" x2="137.484" xlink:href="#lg8" y1="127.859" y2="124.818"/><linearGradient id="SVGID_30_" gradientUnits="userSpaceOnUse" x1="156.968" x2="181.975" xlink:href="#lg8" y1="109.735" y2="134.742"/><linearGradient id="SVGID_31_" gradientUnits="userSpaceOnUse" x1="163.324" x2="151.895" xlink:href="#lg8" y1="119.924" y2="108.495"/><linearGradient id="SVGID_32_" gradientUnits="userSpaceOnUse" x1="168.945" x2="165.903" xlink:href="#lg8" y1="109.069" y2="106.028"/><linearGradient id="SVGID_33_" gradientUnits="userSpaceOnUse" x1="171.001" x2="167.96" xlink:href="#lg8" y1="117.389" y2="114.348"/><linearGradient id="SVGID_34_" gradientTransform="matrix(1 .023 -.023 1 6.513 -6.011)" gradientUnits="userSpaceOnUse" x1="148.32" x2="168.317" xlink:href="#lg2" y1="308.452" y2="287.298"/><linearGradient id="SVGID_35_" gradientTransform="matrix(-.977 -.215 -.215 .977 844.825 67.849)" gradientUnits="userSpaceOnUse" x1="378.051" x2="427.85" xlink:href="#lg1" y1="347.155" y2="360.614"/><linearGradient id="SVGID_36_" gradientTransform="matrix(-.977 -.215 -.215 .977 844.825 67.849)" gradientUnits="userSpaceOnUse" x1="415.157" x2="306.587" xlink:href="#lg2" y1="381.996" y2="290.474"/><linearGradient id="SVGID_37_" gradientTransform="matrix(.974 .229 -.229 .974 55.975 -86.08)" gradientUnits="userSpaceOnUse" x1="395.543" x2="395.543" xlink:href="#lg3" y1="145.618" y2="204.682"/><linearGradient id="SVGID_38_" gradientTransform="matrix(-.638 .533 .641 .767 1102.282 -219.528)" gradientUnits="userSpaceOnUse" x1="850.835" x2="994.014" xlink:href="#lg4" y1="-114.242" y2="-114.242"/><linearGradient id="SVGID_39_" gradientTransform="matrix(-.638 .533 .641 .767 1102.282 -219.528)" gradientUnits="userSpaceOnUse" x1="925.219" x2="929.953" xlink:href="#lg5" y1="-98.416" y2="-185.191"/><linearGradient id="SVGID_40_" gradientTransform="matrix(-.638 .533 .641 .767 1102.282 -219.528)" gradientUnits="userSpaceOnUse" x1="912.551" x2="877.07" xlink:href="#lg5" y1="-111.159" y2="-94.116"/><linearGradient id="SVGID_41_" gradientTransform="matrix(.974 .229 -.229 .974 55.975 -86.08)" gradientUnits="userSpaceOnUse" x1="411.641" x2="410.407" xlink:href="#lg6" y1="169.443" y2="201.224"/><linearGradient id="SVGID_42_" gradientTransform="matrix(.608 .73 -.753 .626 315.021 -364.68)" gradientUnits="userSpaceOnUse" x1="402.059" x2="539.065" xlink:href="#lg4" y1="317.223" y2="317.223"/><linearGradient id="SVGID_43_" gradientTransform="matrix(.608 .73 -.753 .626 315.021 -364.68)" gradientUnits="userSpaceOnUse" x1="473.229" x2="478.135" xlink:href="#lg5" y1="333.545" y2="243.596"/><linearGradient id="SVGID_44_" gradientTransform="matrix(.608 .73 -.753 .626 315.021 -364.68)" gradientUnits="userSpaceOnUse" x1="460.611" x2="426.748" xlink:href="#lg5" y1="319.904" y2="336.169"/><linearGradient id="SVGID_45_" gradientTransform="matrix(.974 .229 -.229 .974 55.975 -86.08)" gradientUnits="userSpaceOnUse" x1="398.63" x2="385.592" xlink:href="#lg7" y1="170.697" y2="212.916"/><linearGradient id="SVGID_46_" gradientTransform="matrix(.974 .229 -.229 .974 55.975 -86.08)" gradientUnits="userSpaceOnUse" x1="295.902" x2="405.867" xlink:href="#lg4" y1="228.933" y2="228.933"/><linearGradient id="SVGID_47_" gradientTransform="matrix(.974 .229 -.229 .974 55.975 -86.08)" gradientUnits="userSpaceOnUse" x1="352.664" x2="358.143" xlink:href="#lg5" y1="246.041" y2="145.588"/><linearGradient id="SVGID_48_" gradientTransform="matrix(.974 .229 -.229 .974 55.975 -86.08)" gradientUnits="userSpaceOnUse" x1="340.671" x2="311.706" xlink:href="#lg5" y1="224.776" y2="238.689"/><linearGradient id="SVGID_49_" gradientTransform="matrix(.974 .229 -.229 .974 55.975 -86.08)" gradientUnits="userSpaceOnUse" x1="375.449" x2="357.014" xlink:href="#lg5" y1="211.21" y2="221.914"/><linearGradient id="SVGID_50_" gradientTransform="matrix(-.805 .016 .02 1 1245.716 92.756)" gradientUnits="userSpaceOnUse" x1="934.261" x2="1064.926" xlink:href="#lg4" y1="116.467" y2="116.467"/><linearGradient id="SVGID_51_" gradientTransform="matrix(-.805 .016 .02 1 1245.716 92.756)" gradientUnits="userSpaceOnUse" x1="1001.939" x2="1007.262" xlink:href="#lg5" y1="133.592" y2="36.001"/><linearGradient id="SVGID_52_" gradientTransform="matrix(-.805 .016 .02 1 1245.716 92.756)" gradientUnits="userSpaceOnUse" x1="989.047" x2="955.865" xlink:href="#lg5" y1="115.856" y2="131.794"/><linearGradient id="SVGID_53_" gradientTransform="matrix(-.805 .016 .02 1 1245.716 92.756)" gradientUnits="userSpaceOnUse" x1="1028.278" x2="1006.869" xlink:href="#lg5" y1="101.609" y2="114.041"/><linearGradient id="SVGID_54_" gradientTransform="matrix(.993 -.121 .121 .993 -20.52 49.525)" gradientUnits="userSpaceOnUse" x1="376.192" x2="396.805" xlink:href="#lg8" y1="203.909" y2="224.522"/><linearGradient id="SVGID_55_" gradientTransform="matrix(.993 -.121 .121 .993 -20.52 49.525)" gradientUnits="userSpaceOnUse" x1="381.432" x2="372.011" xlink:href="#lg8" y1="212.308" y2="202.887"/><linearGradient id="SVGID_56_" gradientTransform="matrix(.993 -.121 .121 .993 -20.52 49.525)" gradientUnits="userSpaceOnUse" x1="386.064" x2="383.557" xlink:href="#lg8" y1="203.361" y2="200.854"/><linearGradient id="SVGID_57_" gradientTransform="matrix(.993 -.121 .121 .993 -20.52 49.525)" gradientUnits="userSpaceOnUse" x1="387.759" x2="385.252" xlink:href="#lg8" y1="210.219" y2="207.712"/><linearGradient id="SVGID_58_" gradientTransform="matrix(.993 -.121 .121 .993 -20.52 49.525)" gradientUnits="userSpaceOnUse" x1="370.336" x2="390.949" xlink:href="#lg8" y1="224.714" y2="245.327"/><linearGradient id="SVGID_59_" gradientTransform="matrix(.993 -.121 .121 .993 -20.52 49.525)" gradientUnits="userSpaceOnUse" x1="375.575" x2="366.154" xlink:href="#lg8" y1="233.113" y2="223.692"/><linearGradient id="SVGID_60_" gradientTransform="matrix(.993 -.121 .121 .993 -20.52 49.525)" gradientUnits="userSpaceOnUse" x1="380.208" x2="377.701" xlink:href="#lg8" y1="224.166" y2="221.659"/><linearGradient id="SVGID_61_" gradientTransform="matrix(.993 -.121 .121 .993 -20.52 49.525)" gradientUnits="userSpaceOnUse" x1="381.903" x2="379.396" xlink:href="#lg8" y1="231.024" y2="228.517"/><linearGradient id="SVGID_62_" gradientTransform="matrix(.993 -.121 .121 .993 -20.52 49.525)" gradientUnits="userSpaceOnUse" x1="395.456" x2="416.069" xlink:href="#lg8" y1="216.084" y2="236.697"/><linearGradient id="SVGID_63_" gradientTransform="matrix(.993 -.121 .121 .993 -20.52 49.525)" gradientUnits="userSpaceOnUse" x1="400.696" x2="391.275" xlink:href="#lg8" y1="224.483" y2="215.062"/><linearGradient id="SVGID_64_" gradientTransform="matrix(.993 -.121 .121 .993 -20.52 49.525)" gradientUnits="userSpaceOnUse" x1="405.328" x2="402.821" xlink:href="#lg8" y1="215.535" y2="213.028"/><linearGradient id="SVGID_65_" gradientTransform="matrix(.993 -.121 .121 .993 -20.52 49.525)" gradientUnits="userSpaceOnUse" x1="407.023" x2="404.516" xlink:href="#lg8" y1="222.393" y2="219.886"/><linearGradient id="SVGID_66_" gradientTransform="matrix(1 .023 -.023 1 6.513 -6.011)" gradientUnits="userSpaceOnUse" x1="385.958" x2="360.796" xlink:href="#lg2" y1="361.656" y2="328.437"/><linearGradient id="lg9"><stop offset="0" stop-color="#76e2f8"/><stop offset="1" stop-color="#0095ff"/></linearGradient><linearGradient id="SVGID_67_" gradientTransform="matrix(1 .023 -.023 1 6.513 -6.011)" gradientUnits="userSpaceOnUse" x1="267.281" x2="271.909" xlink:href="#lg9" y1="300.459" y2="394.993"/><linearGradient id="SVGID_68_" gradientTransform="matrix(1 .023 -.023 1 6.513 -6.011)" gradientUnits="userSpaceOnUse" x1="163.913" x2="160.277" xlink:href="#lg9" y1="270.577" y2="281.567"/><linearGradient id="SVGID_69_" gradientTransform="matrix(.935 -.356 .356 .935 -90.233 169.303)" gradientUnits="userSpaceOnUse" x1="378.468" x2="375.552" xlink:href="#lg9" y1="301.674" y2="310.487"/><linearGradient id="SVGID_70_" gradientUnits="userSpaceOnUse" x1="320.991" x2="342.14" xlink:href="#lg8" y1="427.146" y2="506.859"/><linearGradient id="SVGID_71_" gradientUnits="userSpaceOnUse" x1="65.149" x2="334.79" y1="372.49" y2="534.763"><stop offset="0" stop-color="#ffdecf"/><stop offset="1" stop-color="#faa68e"/></linearGradient><linearGradient id="SVGID_72_" gradientUnits="userSpaceOnUse" x1="245.534" x2="157.687" y1="396.728" y2="306.441"><stop offset="0" stop-color="#faa68e" stop-opacity="0"/><stop offset="1" stop-color="#faa68e"/></linearGradient><linearGradient id="SVGID_73_" gradientUnits="userSpaceOnUse" x1="255" x2="255" y1="471.199" y2="504.198"><stop offset="0" stop-color="#faa68e" stop-opacity="0"/><stop offset="1" stop-color="#d07972"/></linearGradient><g><g><path d="m148.454 261.994s128.016 83.931 236.177 53.011c0 0-135.124 96.759-236.177-53.011z" fill="url(#SVGID_1_)"/><g><g><path d="m86.842 396.254c-5.367-.123-10.562-2.886-13.572-7.807-4.705-7.693-2.283-17.744 5.41-22.449 47.576-29.098 72.184-75.983 73.138-139.354.734-48.747-13.222-88.683-13.364-89.081-3.014-8.499 1.432-17.833 9.931-20.848 8.503-3.015 17.833 1.432 20.848 9.931.656 1.85 16.06 45.933 15.239 100.489-1.118 74.243-31.808 131.894-88.752 166.722-2.773 1.696-5.853 2.466-8.878 2.397z" fill="url(#SVGID_2_)"/><path d="m169.232 126.646c-2.76-7.78-10.811-12.145-18.676-10.519.506.868.947 1.79 1.295 2.772.656 1.85 16.06 45.933 15.239 100.489-1.118 74.243-31.808 131.894-88.752 166.722-1.656 1.013-3.422 1.688-5.22 2.059.054.092.096.187.151.278 3.009 4.92 8.204 7.684 13.572 7.807 3.025.069 6.105-.701 8.878-2.397 56.944-34.828 87.634-92.479 88.752-166.722.821-54.556-14.582-98.639-15.239-100.489z" fill="url(#SVGID_3_)"/><path d="m183.291 196.182-39.447-39.447c-2.836-11.86-5.335-19.009-5.394-19.168-3.014-8.508 1.438-17.839 9.936-20.854s17.829 1.438 20.844 9.936c.525 1.478 10.54 30.116 14.061 69.533z" fill="url(#SVGID_4_)"/></g><g><ellipse cx="145.483" cy="47.864" fill="url(#SVGID_5_)" rx="26.468" ry="47.864"/><g><path d="m229.045 43.367 1.717 2.944c2.236 3.835 1.193 8.099-2.279 9.55-8.227 3.439-15.984 7.917-23.101 13.422-1.85 1.431-4.487 1.555-6.884.287l-14.676-7.764c-1.296-.686-2.483.466-1.893 1.839l6.752 15.735c1.074 2.502.828 5.172-.622 6.987-.878 1.099-2.188 2.876-3.182 4.244-.846 1.163-2.438 1.456-3.908.721-.837-.418-1.793-.899-2.722-1.367-1.393-.702-2.561.68-1.752 2.072l1.213 2.087c1.38 2.375 1.514 5.119.372 7.179-4.249 7.669-7.547 15.794-9.922 24.23-1.254 4.456-7.231 4.58-10.041.154-19.48-30.682-22.056-68.757-3.711-95.766 24.06-35.424 75.622-38.366 114.411-6.523 6.119 5.023 11.568 10.608 16.312 16.591 2.77 3.493.991 8.078-3.012 7.759-11.983-.953-23.761-.194-34.983 2.253-1.781.388-3.775-.075-5.489-1.256l-10.625-7.322c-1.422-.977-2.855.434-1.975 1.944z" fill="url(#SVGID_6_)"/><path d="m143.495 56.429c2.187-11.136 7.9-20.584 16.038-27.382 31-25.892 80.162-23.74 118.838 8.034 2.803 2.303 5.484 4.707 8.042 7.201-.284 2.063-1.88 3.661-4.297 3.468-11.984-.954-23.762-.194-34.985 2.253-1.781.388-3.774-.075-5.488-1.256l-10.625-7.322c-1.42-.979-2.854.432-1.973 1.942l1.717 2.944c2.236 3.835 1.193 8.099-2.279 9.55-8.227 3.439-15.984 7.917-23.101 13.422-1.85 1.431-4.487 1.555-6.884.287l-14.676-7.764c-1.296-.686-2.483.466-1.893 1.839l6.752 15.735c1.074 2.502.828 5.172-.622 6.986-.878 1.099-2.188 2.876-3.182 4.244-.846 1.163-2.438 1.456-3.908.721-.837-.418-1.793-.899-2.722-1.367-1.393-.703-2.561.68-1.752 2.072l1.213 2.087c1.38 2.375 1.514 5.119.372 7.179-4.25 7.669-7.547 15.794-9.922 24.231-1.259 4.472-7.245 4.561-10.063.119-13.68-21.561-19.01-46.77-14.6-69.223z" fill="url(#SVGID_7_)"/><path d="m168.157 125.531c2.375-8.437 5.676-16.557 9.923-24.225 1.141-2.064 1.004-4.805-.374-7.181l-1.211-2.083c-.81-1.397.358-2.777 1.749-2.078.933.471 1.885.95 2.726 1.368 1.467.738 3.059.445 3.907-.717.991-1.371 2.302-3.147 3.182-4.244 1.451-1.818 1.698-4.484.624-6.991l-6.751-15.732c-.595-1.375.596-2.527 1.894-1.842l14.672 7.761c2.399 1.271 5.035 1.151 6.888-.282 7.114-5.508 14.869-9.984 23.1-13.423 3.47-1.449 4.514-5.715 2.276-9.552l-1.716-2.941c-.885-1.512.551-2.922 1.971-1.942l-38.568-28.256c-12.143 2.605-23.39 7.914-32.92 15.877-8.135 6.8-13.847 16.244-16.034 27.385-4.41 22.448.919 47.657 14.596 69.219 2.823 4.442 8.81 4.353 10.066-.121z" fill="url(#SVGID_8_)"/><path d="m168.157 125.531c2.375-8.437 5.676-16.557 9.923-24.225 1.141-2.064 1.004-4.805-.374-7.181l-1.211-2.083c-.81-1.397.358-2.777 1.749-2.078.933.471 1.885.95 2.726 1.368 1.467.738 3.059.445 3.907-.717.991-1.371 2.302-3.147 3.182-4.244 1.451-1.818 1.698-4.484.624-6.991l-6.751-15.732c-.595-1.375.596-2.527 1.894-1.842l-34.765-20.31c-2.605 4.5-4.497 9.516-5.565 14.937-4.41 22.448.919 47.657 14.596 69.219 2.822 4.442 8.809 4.353 10.065-.121z" fill="url(#SVGID_9_)"/></g><g><path d="m58.711 63.456-.738 3.4c-.962 4.428 1.564 8.532 5.599 9.204 9.562 1.593 19.001 4.354 28.141 8.312 2.376 1.029 5.105.542 7.112-1.307l12.288-11.323c1.085-1 2.689-.101 2.56 1.435l-1.479 17.606c-.235 2.8.932 5.463 3.032 6.976 1.272.916 3.216 2.423 4.699 3.586 1.261.989 2.984.918 4.229-.173.709-.621 1.518-1.333 2.303-2.026 1.178-1.04 2.843.098 2.496 1.705l-.519 2.408c-.591 2.742.215 5.569 2.084 7.403 6.961 6.829 13.109 14.343 18.424 22.39 2.807 4.25 8.939 2.987 10.282-2.176 9.317-35.797-1.126-75.202-29.084-98.467-36.669-30.513-90.21-21.531-118.799 19.937-4.51 6.542-8.144 13.5-10.925 20.7-1.623 4.204 1.762 8.463 5.731 7.208 11.881-3.756 24.141-5.719 36.414-5.833 1.948-.018 3.82-.953 5.161-2.556l8.312-9.931c1.111-1.327 3.055-.222 2.677 1.522z" fill="url(#SVGID_10_)"/><path d="m150.351 56.89c-6.05-10.842-15.113-19.144-25.737-24.181-40.467-19.186-89.815-5.568-118.313 35.802-2.065 2.998-3.972 6.072-5.722 9.208.997 2.036 3.172 3.294 5.568 2.536 11.881-3.756 24.142-5.719 36.415-5.833 1.948-.018 3.819-.954 5.159-2.556l8.312-9.931c1.111-1.328 3.056-.223 2.677 1.521l-.738 3.4c-.962 4.428 1.564 8.532 5.599 9.204 9.562 1.593 19.001 4.354 28.141 8.312 2.376 1.029 5.105.542 7.112-1.307l12.288-11.323c1.085-1 2.689-.101 2.56 1.435l-1.479 17.606c-.235 2.8.932 5.463 3.032 6.976 1.272.916 3.216 2.423 4.699 3.586 1.261.989 2.984.918 4.229-.173.709-.621 1.518-1.333 2.303-2.026 1.178-1.04 2.843.098 2.496 1.705l-.519 2.408c-.591 2.742.215 5.569 2.084 7.403 6.961 6.829 13.109 14.344 18.424 22.39 2.817 4.265 8.946 2.965 10.293-2.217 6.535-25.155 3.314-52.086-8.883-73.945z" fill="url(#SVGID_11_)"/><path d="m148.94 133.049c-5.315-8.048-11.464-15.556-18.423-22.385-1.871-1.838-2.672-4.664-2.084-7.405l.519-2.405c.346-1.612-1.318-2.748-2.495-1.712-.789.697-1.595 1.406-2.307 2.028-1.241 1.093-2.964 1.165-4.226.177-1.48-1.167-3.425-2.673-4.698-3.586-2.101-1.515-3.268-4.175-3.035-6.98l1.479-17.602c.134-1.54-1.475-2.437-2.562-1.437l-12.284 11.319c-2.008 1.853-4.735 2.343-7.114 1.313-9.138-3.961-18.575-6.721-28.141-8.313-4.032-.671-6.56-4.776-5.597-9.207l.739-3.397c.383-1.747-1.564-2.85-2.675-1.521l29.596-37.76c13.265-.167 26.545 2.631 38.987 8.532 10.621 5.04 19.681 13.338 25.733 24.185 12.197 21.855 15.419 48.785 8.885 73.939-1.353 5.184-7.483 6.485-10.297 2.217z" fill="url(#SVGID_12_)"/><path d="m148.94 133.049c-5.315-8.048-11.464-15.556-18.423-22.385-1.871-1.838-2.672-4.664-2.084-7.405l.519-2.405c.346-1.612-1.318-2.748-2.495-1.712-.789.697-1.595 1.406-2.307 2.028-1.241 1.093-2.964 1.165-4.226.177-1.48-1.167-3.425-2.673-4.698-3.586-2.101-1.515-3.268-4.175-3.035-6.98l1.479-17.602c.134-1.54-1.475-2.437-2.562-1.437l28.448-28.778c4.199 3.981 7.847 8.654 10.796 13.931 12.197 21.855 15.419 48.785 8.885 73.939-1.353 5.182-7.483 6.483-10.297 2.215z" fill="url(#SVGID_13_)"/></g><g><path d="m54.423 139.876 1.137 3.27c1.481 4.26 5.275 5.906 8.463 3.736 7.556-5.142 15.595-9.248 24.006-12.176 2.186-.761 3.883-2.997 4.403-5.857l3.181-17.513c.281-1.547 1.857-1.894 2.515-.554l7.549 15.357c1.2 2.442 3.328 3.829 5.555 3.648 1.349-.109 3.463-.19 5.082-.24 1.377-.042 2.563-1.261 2.913-2.99.199-.984.425-2.11.643-3.204.327-1.641 2.063-1.835 2.602-.291l.808 2.314c.92 2.635 2.872 4.398 5.092 4.635 8.269.881 16.296 2.869 23.993 5.852 4.065 1.576 7.795-3.584 6.226-8.701-10.876-35.475-37.519-60.582-68.698-60.725-40.892-.189-74.458 43.204-74.474 96.286-.003 8.374.819 16.498 2.364 24.243.902 4.523 5.382 5.716 7.582 2.019 6.588-11.067 14.32-20.927 22.963-29.287 1.372-1.327 2.243-3.351 2.411-5.561l1.042-13.7c.141-1.83 2.059-2.239 2.642-.561z" fill="url(#SVGID_14_)"/><path d="m116.176 72.79c-9.582-4.768-20.061-5.435-30.051-2.387-38.054 11.61-66.384 55.959-66.384 108.9 0 3.837.149 7.628.44 11.365 1.701.989 3.857.55 5.185-1.682 6.588-11.068 14.32-20.928 22.965-29.288 1.372-1.327 2.241-3.35 2.409-5.56l1.042-13.7c.139-1.832 2.057-2.24 2.64-.563l1.137 3.27c1.481 4.26 5.275 5.906 8.463 3.736 7.556-5.142 15.595-9.248 24.006-12.176 2.186-.761 3.883-2.997 4.403-5.857l3.181-17.513c.281-1.547 1.857-1.894 2.515-.554l7.549 15.357c1.2 2.442 3.328 3.829 5.555 3.648 1.349-.11 3.463-.19 5.082-.24 1.377-.042 2.563-1.261 2.913-2.99.199-.984.425-2.11.643-3.204.327-1.642 2.063-1.835 2.602-.291l.808 2.314c.92 2.635 2.871 4.398 5.092 4.635 8.269.881 16.296 2.869 23.993 5.852 4.08 1.581 7.789-3.608 6.213-8.742-7.647-24.92-23.081-44.717-42.401-54.33z" fill="url(#SVGID_15_)"/><path d="m152.364 135.861c-7.697-2.984-15.722-4.966-23.99-5.848-2.224-.239-4.171-2.004-5.093-4.637l-.807-2.311c-.542-1.548-2.276-1.354-2.604.284-.219 1.099-.444 2.221-.645 3.208-.346 1.728-1.532 2.947-2.909 2.991-1.619.045-3.733.127-5.081.239-2.23.18-4.355-1.204-5.56-3.65l-7.547-15.354c-.657-1.346-2.235-.995-2.518.553l-3.18 17.508c-.518 2.864-2.212 5.1-4.402 5.863-8.411 2.924-16.448 7.03-24.007 12.175-3.186 2.169-6.983.523-8.463-3.739l-1.135-3.268c-.582-1.683-2.5-1.271-2.639.561l2.541-50.736c9.322-9.072 20.101-15.735 31.802-19.303 9.99-3.044 20.464-2.378 30.051 2.393 19.317 9.61 34.752 29.406 42.403 54.325 1.573 5.141-2.138 10.331-6.217 8.746z" fill="url(#SVGID_16_)"/><path d="m152.364 135.861c-7.697-2.984-15.722-4.966-23.99-5.848-2.224-.239-4.171-2.004-5.093-4.637l-.807-2.311c-.542-1.548-2.276-1.354-2.604.284-.219 1.099-.444 2.221-.645 3.208-.346 1.728-1.532 2.947-2.909 2.991-1.619.045-3.733.127-5.081.239-2.23.18-4.355-1.204-5.56-3.65l-7.547-15.354c-.657-1.346-2.235-.995-2.518.553l6.113-42.636c4.92.419 9.788 1.772 14.455 4.091 19.317 9.61 34.752 29.406 42.403 54.325 1.573 5.14-2.138 10.33-6.217 8.745z" fill="url(#SVGID_17_)"/></g><g><path d="m247.987 114.09-.312 3.463c-.406 4.51-3.542 7.087-6.982 5.81-8.151-3.026-16.514-4.924-24.955-5.584-2.194-.172-4.269-1.899-5.396-4.535l-6.902-16.144c-.61-1.426-2.145-1.355-2.452.114l-3.508 16.832c-.558 2.677-2.212 4.571-4.313 4.972-1.273.243-3.246.712-4.754 1.083-1.283.315-2.655-.559-3.371-2.143-.407-.901-.87-1.934-1.32-2.938-.674-1.506-2.323-1.244-2.472.392l-.224 2.451c-.255 2.791-1.661 5.004-3.661 5.808-7.448 2.994-14.422 6.997-20.865 11.879-3.403 2.579-8.019-1.455-7.726-6.819 2.035-37.185 20.997-68.405 49.799-76.613 37.774-10.765 78.63 22.589 90.65 74.014 1.896 8.112 2.974 16.196 3.297 24.1.189 4.615-3.684 6.931-6.555 3.919-8.595-9.017-17.976-16.569-27.86-22.432-1.569-.931-2.832-2.666-3.487-4.764l-4.062-13.003c-.543-1.739-2.409-1.638-2.569.138z" fill="url(#SVGID_18_)"/><path d="m175.706 65.075c7.784-7.1 17.323-10.457 27.251-10.09 37.818 1.4 74.048 37.036 86.021 88.328.868 3.717 1.587 7.429 2.163 11.125-1.349 1.399-3.442 1.531-5.176-.287-8.595-9.018-17.977-16.57-27.861-22.433-1.569-.93-2.83-2.666-3.486-4.763l-4.062-13.003c-.543-1.738-2.409-1.638-2.569.138l-.312 3.463c-.406 4.51-3.542 7.087-6.982 5.81-8.151-3.026-16.514-4.924-24.955-5.584-2.194-.172-4.269-1.899-5.396-4.535l-6.902-16.144c-.61-1.426-2.146-1.355-2.452.114l-3.508 16.832c-.558 2.677-2.212 4.571-4.313 4.972-1.273.243-3.246.712-4.754 1.083-1.283.315-2.655-.559-3.37-2.143-.407-.901-.87-1.934-1.32-2.938-.674-1.506-2.323-1.244-2.472.392l-.224 2.451c-.255 2.791-1.661 5.004-3.661 5.808-7.448 2.994-14.422 6.997-20.865 11.879-3.415 2.588-8.02-1.479-7.723-6.862 1.439-26.125 11.235-49.3 26.928-63.613z" fill="url(#SVGID_19_)"/><path d="m156.502 135.547c6.443-4.883 13.417-8.88 20.863-11.875 2.002-.807 3.404-3.021 3.661-5.81l.223-2.448c.151-1.64 1.798-1.9 2.473-.399.451 1.008.913 2.037 1.322 2.941.71 1.584 2.084 2.458 3.367 2.145 1.507-.375 3.481-.843 4.753-1.083 2.103-.403 3.756-2.294 4.316-4.975l3.507-16.829c.303-1.474 1.842-1.542 2.453-.115l6.901 16.139c1.127 2.641 3.199 4.369 5.397 4.542 8.44.656 16.801 2.554 24.955 5.583 3.437 1.277 6.576-1.3 6.981-5.813l.31-3.46c.158-1.781 2.025-1.879 2.567-.139l-13.821-48.497c-10.672-6.377-22.148-10.043-33.776-10.471-9.927-.364-19.463 2.992-27.25 10.096-15.691 14.31-25.488 37.484-26.928 63.607-.292 5.384 4.313 9.453 7.726 6.861z" fill="url(#SVGID_20_)"/><path d="m156.502 135.547c6.443-4.883 13.417-8.88 20.863-11.875 2.002-.807 3.404-3.021 3.661-5.81l.223-2.448c.151-1.64 1.798-1.9 2.473-.399.451 1.008.913 2.037 1.322 2.941.71 1.584 2.084 2.458 3.367 2.145 1.507-.375 3.481-.843 4.753-1.083 2.103-.403 3.756-2.294 4.316-4.975l3.507-16.829c.303-1.474 1.842-1.542 2.453-.115l-15.295-39.726c-4.455 1.679-8.651 4.25-12.443 7.704-15.691 14.31-25.488 37.484-26.928 63.607-.29 5.386 4.315 9.455 7.728 6.863z" fill="url(#SVGID_21_)"/></g></g><g><g><circle cx="147.946" cy="109.314" fill="url(#SVGID_22_)" r="22.436"/><path d="m139.099 104.299c-2.519 2.519-6.041 3.081-7.866 1.256s-1.263-5.347 1.256-7.866 6.041-3.081 7.866-1.256 1.263 5.347-1.256 7.866z" fill="url(#SVGID_23_)"/><path d="m146.12 94.845c-1.26 1.26-3.144 1.42-4.208.356s-.904-2.948.356-4.208 3.144-1.42 4.208-.356.904 2.948-.356 4.208z" fill="url(#SVGID_24_)"/><path d="m148.177 103.165c-1.26 1.26-3.144 1.42-4.208.356s-.904-2.948.356-4.208 3.144-1.42 4.208-.356c1.063 1.064.904 2.948-.356 4.208z" fill="url(#SVGID_25_)"/></g><g><circle cx="140.842" cy="134.555" fill="url(#SVGID_26_)" r="22.436"/><path d="m131.994 129.54c-2.519 2.519-6.041 3.081-7.866 1.256s-1.263-5.347 1.256-7.866 6.041-3.081 7.866-1.256 1.263 5.347-1.256 7.866z" fill="url(#SVGID_27_)"/><path d="m139.015 120.086c-1.26 1.26-3.144 1.42-4.208.356s-.904-2.948.356-4.208 3.144-1.42 4.208-.356.905 2.948-.356 4.208z" fill="url(#SVGID_28_)"/><path d="m141.072 128.406c-1.26 1.26-3.144 1.42-4.208.356s-.904-2.948.356-4.208 3.144-1.42 4.208-.356.904 2.948-.356 4.208z" fill="url(#SVGID_29_)"/></g><g><circle cx="171.317" cy="124.084" fill="url(#SVGID_30_)" r="22.436"/><path d="m162.47 119.069c-2.519 2.519-6.041 3.081-7.866 1.256s-1.263-5.347 1.256-7.866 6.041-3.081 7.866-1.256c1.825 1.826 1.263 5.347-1.256 7.866z" fill="url(#SVGID_31_)"/><path d="m169.491 109.616c-1.26 1.26-3.144 1.42-4.208.356s-.904-2.948.356-4.208 3.144-1.42 4.208-.356.904 2.948-.356 4.208z" fill="url(#SVGID_32_)"/><path d="m171.548 117.936c-1.26 1.26-3.144 1.42-4.208.356s-.904-2.948.356-4.208 3.144-1.42 4.208-.356c1.063 1.064.904 2.948-.356 4.208z" fill="url(#SVGID_33_)"/></g></g><path d="m145.664 349.215c11.839-15.512 21.047-33.006 27.515-52.302l-19.979-32.827-5.047-.115c-6.549 34.401-21.816 62.588-45.663 84.257z" fill="url(#SVGID_34_)"/></g><g><path d="m407.015 444.257c4.322.951 9.022-.247 12.393-3.599 5.271-5.241 5.296-13.763.055-19.034-32.411-32.599-42.952-74.952-31.331-125.883 8.939-39.178 27.92-68.43 28.111-68.721 4.075-6.217 2.339-14.56-3.878-18.635-6.22-4.076-14.56-2.338-18.635 3.878-.887 1.353-21.837 33.643-31.842 77.49-13.614 59.67-.306 111.833 38.486 150.85 1.889 1.9 4.205 3.118 6.641 3.654z" fill="url(#SVGID_35_)"/><path d="m393.73 212.263c3.73-5.691 11.03-7.613 17.011-4.773-.575.597-1.108 1.248-1.579 1.966-.887 1.353-21.837 33.643-31.842 77.49-13.614 59.67-.306 111.833 38.486 150.85 1.128 1.135 2.411 2.021 3.778 2.669-.061.063-.113.131-.176.193-3.371 3.352-8.072 4.55-12.393 3.599-2.436-.536-4.752-1.754-6.641-3.654-38.792-39.018-52.1-91.18-38.486-150.85 10.005-43.848 30.955-76.138 31.842-77.49z" fill="url(#SVGID_36_)"/></g><g><path d="m423.672 166.939c-4.983 21.212-17.861 36.331-28.763 33.769-10.902-2.561-15.7-21.833-10.716-43.045s17.861-36.331 28.763-33.769c10.901 2.562 15.699 21.834 10.716 43.045z" fill="url(#SVGID_37_)"/><g><path d="m467.1 173.335.725 2.663c.944 3.469-.637 6.708-3.5 7.264-6.784 1.318-13.413 3.552-19.759 6.723-1.649.824-3.64.461-5.188-.976l-9.482-8.801c-.838-.777-1.939-.061-1.759 1.144l2.069 13.809c.329 2.196-.358 4.295-1.781 5.497-.862.728-2.174 1.925-3.174 2.848-.85.785-2.093.741-3.051-.106-.545-.482-1.168-1.036-1.772-1.574-.906-.808-2.038.097-1.697 1.356l.511 1.887c.582 2.148.164 4.373-1.076 5.826-4.615 5.409-8.606 11.351-11.968 17.704-1.776 3.356-6.256 2.408-7.518-1.636-8.744-28.033-3.487-59.037 15.286-77.495 24.622-24.209 63.631-17.536 86.556 14.813 3.616 5.103 6.627 10.539 9.038 16.171 1.408 3.289-.784 6.656-3.709 5.699-8.757-2.865-17.684-4.319-26.515-4.322-1.402 0-2.801-.721-3.857-1.97l-6.544-7.737c-.872-1.034-2.207-.153-1.835 1.213z" fill="url(#SVGID_38_)"/><path d="m400.834 168.826c3.73-8.553 9.773-15.133 17.123-19.161 28.001-15.345 64.26-5.003 87.114 27.269 1.656 2.339 3.203 4.738 4.64 7.187-.601 1.605-2.093 2.608-3.858 2.03-8.758-2.865-17.685-4.319-26.516-4.322-1.401 0-2.8-.722-3.856-1.97l-6.544-7.737c-.875-1.034-2.21-.153-1.838 1.213l.725 2.663c.944 3.469-.637 6.708-3.5 7.264-6.784 1.318-13.413 3.552-19.759 6.723-1.649.824-3.64.461-5.188-.976l-9.482-8.801c-.838-.777-1.939-.061-1.759 1.144l2.069 13.809c.329 2.196-.358 4.295-1.781 5.497-.862.728-2.174 1.925-3.174 2.848-.85.785-2.093.741-3.051-.106-.545-.482-1.168-1.036-1.772-1.574-.906-.808-2.038.097-1.697 1.356l.511 1.887c.582 2.148.164 4.373-1.076 5.826-4.615 5.409-8.606 11.351-11.968 17.705-1.782 3.368-6.263 2.39-7.527-1.668-6.134-19.7-5.357-40.862 2.164-58.106z" fill="url(#SVGID_39_)"/><path d="m406.2 228.596c3.362-6.354 7.354-12.291 11.968-17.7 1.24-1.456 1.655-3.68 1.075-5.827l-.51-1.884c-.341-1.263.79-2.166 1.696-1.361.607.541 1.227 1.093 1.775 1.576.955.849 2.198.893 3.049.109.997-.927 2.31-2.122 3.173-2.848 1.424-1.204 2.111-3.3 1.783-5.501l-2.069-13.806c-.184-1.208.921-1.923 1.76-1.146l9.479 8.799c1.55 1.441 3.538 1.806 5.19.981 6.344-3.174 12.971-5.406 19.759-6.723 2.861-.555 4.444-3.795 3.498-7.266l-.725-2.661c-.375-1.369.962-2.248 1.836-1.213l-23.437-29.432c-9.547-.037-18.936 2.252-27.544 6.972-7.349 4.031-13.389 10.608-17.121 19.165-7.521 17.24-8.299 38.402-2.164 58.1 1.267 4.059 5.749 5.036 7.529 1.666z" fill="url(#SVGID_40_)"/><path d="m406.2 228.596c3.362-6.354 7.354-12.291 11.968-17.7 1.24-1.456 1.655-3.68 1.075-5.827l-.51-1.884c-.341-1.263.79-2.166 1.696-1.361.607.541 1.227 1.093 1.775 1.576.955.849 2.198.893 3.049.109.997-.927 2.31-2.122 3.173-2.848 1.424-1.204 2.111-3.3 1.783-5.501l-2.069-13.806c-.184-1.208.921-1.923 1.76-1.146l-22.098-22.389c-2.791 3.154-5.148 6.848-6.966 11.011-7.521 17.24-8.299 38.402-2.164 58.1 1.266 4.059 5.748 5.036 7.528 1.666z" fill="url(#SVGID_41_)"/></g><g><path d="m336.278 159.609-1.192 2.599c-1.552 3.385-.442 7.12 2.44 8.367 6.831 2.954 13.35 6.823 19.42 11.601 1.578 1.242 3.705 1.329 5.55.197l11.299-6.933c.998-.612 2.025.39 1.639 1.6l-4.422 13.868c-.703 2.205-.335 4.547.946 6.129.776.958 1.942 2.508 2.828 3.701.754 1.015 2.052 1.259 3.187.602.646-.374 1.383-.804 2.1-1.222 1.074-.628 2.102.577 1.54 1.805l-.841 1.842c-.958 2.096-.89 4.506.159 6.306 3.904 6.699 7.073 13.806 9.519 21.194 1.292 3.902 6.103 3.963 8.079.055 13.697-27.092 13.338-60.541-3.127-84.108-21.595-30.909-63.218-33.083-92.358-4.818-4.597 4.459-8.619 9.405-12.05 14.696-2.003 3.089-.281 7.1 2.915 6.788 9.569-.932 19.082-.359 28.257 1.7 1.456.327 3.029-.095 4.331-1.146l8.071-6.513c1.079-.87 2.321.357 1.71 1.69z" fill="url(#SVGID_42_)"/><path d="m405.861 170.397c-2.468-9.76-7.662-18.009-14.636-23.913-26.564-22.486-65.934-20.205-94.987 7.997-2.105 2.044-4.107 4.176-6.003 6.386.36 1.809 1.745 3.199 3.674 3.011 9.569-.932 19.083-.359 28.258 1.7 1.456.327 3.028-.096 4.33-1.147l8.071-6.513c1.079-.871 2.321.357 1.71 1.69l-1.192 2.599c-1.552 3.385-.442 7.12 2.44 8.367 6.831 2.954 13.35 6.823 19.42 11.601 1.578 1.242 3.705 1.329 5.55.197l11.299-6.933c.998-.612 2.025.39 1.639 1.6l-4.422 13.868c-.703 2.205-.335 4.547.946 6.129.776.958 1.942 2.508 2.828 3.701.754 1.015 2.052 1.259 3.187.602.646-.374 1.383-.804 2.1-1.222 1.075-.628 2.102.576 1.54 1.806l-.841 1.842c-.958 2.096-.89 4.506.159 6.305 3.904 6.699 7.073 13.807 9.52 21.195 1.297 3.916 6.113 3.947 8.094.024 9.617-19.04 12.292-41.215 7.316-60.892z" fill="url(#SVGID_43_)"/><path d="m390.451 231.262c-2.447-7.389-5.617-14.491-9.52-21.19-1.049-1.803-1.113-4.21-.158-6.307l.84-1.839c.562-1.233-.465-2.436-1.538-1.811-.719.421-1.454.849-2.103 1.223-1.131.66-2.43.415-3.185-.598-.884-1.196-2.051-2.745-2.828-3.701-1.282-1.584-1.65-3.923-.947-6.133l4.421-13.865c.39-1.212-.64-2.214-1.64-1.602l-11.295 6.931c-1.847 1.135-3.973 1.05-5.553-.193-6.068-4.78-12.586-8.648-19.42-11.602-2.881-1.245-3.992-4.982-2.439-8.368l1.191-2.596c.615-1.335-.629-2.561-1.708-1.689l29.191-25.113c9.925 2.191 19.301 6.762 27.468 13.678 6.971 5.905 12.164 14.151 14.632 23.916 4.976 19.674 2.302 41.848-7.313 60.887-1.985 3.92-6.802 3.89-8.096-.028z" fill="url(#SVGID_44_)"/><path d="m390.451 231.262c-2.447-7.389-5.617-14.491-9.52-21.19-1.049-1.803-1.113-4.21-.158-6.307l.84-1.839c.562-1.233-.465-2.436-1.538-1.811-.719.421-1.454.849-2.103 1.223-1.131.66-2.43.415-3.185-.598-.884-1.196-2.051-2.745-2.828-3.701-1.282-1.584-1.65-3.923-.947-6.133l4.421-13.865c.39-1.212-.64-2.214-1.64-1.602l26.641-18.108c2.381 3.93 4.221 8.319 5.425 13.07 4.976 19.674 2.302 41.848-7.313 60.887-1.984 3.922-6.801 3.892-8.095-.026z" fill="url(#SVGID_45_)"/></g><g><path d="m318.674 220.178.231 2.823c.301 3.677 2.82 5.663 5.607 4.481 6.605-2.802 13.374-4.688 20.199-5.564 1.774-.228 3.461-1.724 4.388-3.928l5.674-13.495c.501-1.192 1.742-1.195 1.98-.004l2.735 13.646c.435 2.17 1.76 3.655 3.456 3.901 1.027.149 2.618.454 3.835.698 1.035.207 2.149-.563 2.736-1.889.334-.754.715-1.618 1.084-2.458.554-1.26 1.884-1.111 1.995.223l.166 1.999c.189 2.275 1.312 4.032 2.924 4.611 6.001 2.156 11.613 5.158 16.79 8.9 2.735 1.977 6.489-1.51 6.284-5.891-1.423-30.371-16.561-55.186-39.786-60.764-30.461-7.316-63.675 21.621-73.695 64.213-1.581 6.719-2.499 13.382-2.807 19.868-.18 3.787 2.936 5.53 5.274 2.949 6.999-7.726 14.625-14.283 22.647-19.477 1.273-.824 2.304-2.296 2.846-4.04l3.36-10.81c.451-1.448 1.958-1.44 2.077.008z" fill="url(#SVGID_46_)"/><path d="m377.376 177.167c-6.248-5.505-13.936-7.876-21.962-7.181-30.569 2.648-60.058 33.271-70.039 75.752-.723 3.079-1.327 6.147-1.814 9.197 1.082 1.092 2.773 1.117 4.184-.441 7-7.727 14.625-14.284 22.648-19.477 1.273-.824 2.303-2.296 2.845-4.039l3.36-10.81c.449-1.445 1.957-1.437 2.075.011l.231 2.824c.301 3.677 2.82 5.663 5.607 4.481 6.605-2.802 13.374-4.688 20.199-5.564 1.774-.228 3.461-1.724 4.388-3.928l5.674-13.495c.501-1.192 1.742-1.195 1.98-.004l2.735 13.646c.435 2.17 1.76 3.655 3.456 3.901 1.027.149 2.618.454 3.835.698 1.035.207 2.149-.563 2.736-1.889.334-.754.715-1.618 1.084-2.458.554-1.26 1.884-1.111 1.995.223l.166 1.999c.189 2.275 1.312 4.032 2.924 4.611 6.001 2.156 11.613 5.158 16.791 8.9 2.744 1.984 6.489-1.53 6.282-5.926-1.005-21.341-8.784-39.931-21.38-51.031z" fill="url(#SVGID_47_)"/><path d="m392.475 234.118c-5.178-3.743-10.79-6.74-16.789-8.896-1.613-.582-2.733-2.339-2.924-4.613l-.166-1.996c-.112-1.337-1.442-1.485-1.996-.228-.371.844-.75 1.705-1.086 2.461-.583 1.326-1.698 2.096-2.734 1.891-1.216-.248-2.808-.552-3.835-.698-1.697-.247-3.021-1.729-3.458-3.903l-2.734-13.643c-.236-1.195-1.48-1.19-1.982.003l-5.672 13.491c-.927 2.208-2.611 3.705-4.388 3.934-6.824.873-13.592 2.759-20.2 5.563-2.785 1.182-5.306-.803-5.607-4.483l-.23-2.821c-.117-1.452-1.625-1.458-2.074-.012l11.46-40.266c8.662-5.646 17.958-9.104 27.357-9.917 8.024-.692 15.71 1.677 21.96 7.186 12.595 11.096 20.374 29.685 21.382 51.022.205 4.397-3.541 7.912-6.284 5.925z" fill="url(#SVGID_48_)"/><path d="m392.475 234.118c-5.178-3.743-10.79-6.74-16.789-8.896-1.613-.582-2.733-2.339-2.924-4.613l-.166-1.996c-.112-1.337-1.442-1.485-1.996-.228-.371.844-.75 1.705-1.086 2.461-.583 1.326-1.698 2.096-2.734 1.891-1.216-.248-2.808-.552-3.835-.698-1.697-.247-3.021-1.729-3.458-3.903l-2.734-13.643c-.236-1.195-1.48-1.19-1.982.003l12.597-33.141c3.59 1.198 6.966 3.137 10.009 5.815 12.595 11.096 20.374 29.685 21.382 51.022.205 4.398-3.541 7.913-6.284 5.926z" fill="url(#SVGID_49_)"/></g><g><path d="m467.894 233.403-.885 2.724c-1.153 3.548-3.978 5.066-6.302 3.439-5.508-3.856-11.388-6.844-17.559-8.853-1.604-.522-2.826-2.271-3.17-4.584l-2.104-14.164c-.186-1.251-1.345-1.463-1.85-.338l-5.79 12.892c-.921 2.05-2.511 3.28-4.154 3.234-.995-.028-2.555.003-3.75.036-1.016.028-1.875-.914-2.11-2.31-.134-.795-.284-1.704-.43-2.589-.219-1.326-1.498-1.405-1.917-.119l-.629 1.928c-.716 2.195-2.182 3.724-3.825 4.019-6.119 1.097-12.075 3.088-17.801 5.876-3.024 1.473-5.706-2.573-4.476-6.826 8.528-29.481 28.555-51.21 51.583-52.75 30.201-2.019 54.383 31.903 53.653 75.274-.115 6.842-.835 13.517-2.085 19.916-.729 3.737-4.054 4.916-5.628 1.996-4.71-8.742-10.282-16.445-16.549-22.881-.995-1.022-1.609-2.635-1.703-4.434l-.578-11.146c-.076-1.491-1.487-1.737-1.941-.34z" fill="url(#SVGID_50_)"/><path d="m423.227 181.407c7.143-4.333 14.891-5.356 22.226-3.321 27.941 7.75 48.242 42.693 47.502 85.949-.054 3.135-.217 6.239-.484 9.306-1.27.886-2.856.625-3.806-1.138-4.71-8.742-10.283-16.446-16.55-22.882-.994-1.021-1.608-2.635-1.702-4.433l-.578-11.146c-.077-1.49-1.488-1.737-1.942-.339l-.885 2.724c-1.153 3.548-3.978 5.066-6.302 3.439-5.508-3.856-11.388-6.844-17.559-8.853-1.604-.522-2.826-2.271-3.17-4.584l-2.104-14.164c-.186-1.251-1.345-1.463-1.85-.338l-5.79 12.892c-.921 2.05-2.511 3.28-4.154 3.234-.995-.028-2.555.003-3.75.036-1.016.028-1.875-.914-2.11-2.31-.134-.795-.285-1.704-.43-2.589-.219-1.326-1.498-1.405-1.917-.119l-.629 1.928c-.716 2.195-2.182 3.724-3.825 4.019-6.119 1.097-12.075 3.088-17.801 5.876-3.035 1.478-5.702-2.592-4.466-6.859 5.999-20.712 17.674-37.592 32.076-46.328z" fill="url(#SVGID_51_)"/><path d="m395.62 234.591c5.726-2.789 11.681-4.775 17.798-5.873 1.646-.297 3.108-1.828 3.826-4.021l.628-1.925c.422-1.29 1.7-1.21 1.919.113.146.888.297 1.795.432 2.592.231 1.396 1.091 2.338 2.107 2.311 1.195-.037 2.755-.066 3.749-.036 1.644.045 3.233-1.182 4.157-3.236l5.788-12.889c.504-1.13 1.665-.915 1.852.337l2.104 14.16c.343 2.317 1.562 4.066 3.169 4.59 6.171 2.006 12.049 4.994 17.559 8.853 2.323 1.627 5.149.109 6.302-3.441l.884-2.722c.453-1.401 1.864-1.153 1.941.338l-1.167-41.338c-6.757-6.987-14.624-11.94-23.216-14.321-7.335-2.031-15.079-1.01-22.226 3.326-14.4 8.733-26.076 25.612-32.074 46.321-1.234 4.271 1.433 8.343 4.468 6.861z" fill="url(#SVGID_52_)"/><path d="m395.62 234.591c5.726-2.789 11.681-4.775 17.798-5.873 1.646-.297 3.108-1.828 3.826-4.021l.628-1.925c.422-1.29 1.7-1.21 1.919.113.146.888.297 1.795.432 2.592.231 1.396 1.091 2.338 2.107 2.311 1.195-.037 2.755-.066 3.749-.036 1.644.045 3.233-1.182 4.157-3.236l5.788-12.889c.504-1.13 1.665-.915 1.852.337l-3.918-34.557c-3.639.567-7.254 1.895-10.732 4.002-14.4 8.733-26.076 25.612-32.074 46.321-1.234 4.271 1.433 8.343 4.468 6.861z" fill="url(#SVGID_53_)"/></g></g><g><g><circle cx="390.78" cy="216.661" fill="url(#SVGID_54_)" r="18.493"/><path d="m383.04 213.442c-1.809 2.313-4.635 3.124-6.311 1.813s-1.567-4.249.242-6.562c1.81-2.313 4.635-3.124 6.311-1.813 1.675 1.311 1.567 4.249-.242 6.562z" fill="url(#SVGID_55_)"/><path d="m387.841 205.006c-.905 1.157-2.431 1.475-3.407.711s-1.034-2.321-.129-3.478 2.431-1.475 3.407-.711 1.034 2.321.129 3.478z" fill="url(#SVGID_56_)"/><path d="m390.354 211.608c-.905 1.157-2.431 1.475-3.407.711s-1.034-2.321-.129-3.478 2.431-1.475 3.407-.711 1.034 2.321.129 3.478z" fill="url(#SVGID_57_)"/></g><g><circle cx="387.487" cy="238.023" fill="url(#SVGID_58_)" r="18.493"/><path d="m379.747 234.803c-1.81 2.313-4.635 3.124-6.311 1.813s-1.567-4.249.242-6.562 4.635-3.124 6.311-1.813c1.676 1.312 1.568 4.25-.242 6.562z" fill="url(#SVGID_59_)"/><path d="m384.548 226.367c-.905 1.157-2.431 1.475-3.407.711s-1.034-2.321-.129-3.478 2.431-1.475 3.407-.711 1.034 2.321.129 3.478z" fill="url(#SVGID_60_)"/><path d="m387.062 232.969c-.905 1.157-2.431 1.475-3.407.711s-1.034-2.321-.129-3.478 2.431-1.475 3.407-.711 1.034 2.321.129 3.478z" fill="url(#SVGID_61_)"/></g><g><circle cx="411.377" cy="226.413" fill="url(#SVGID_62_)" r="18.493"/><path d="m403.637 223.193c-1.81 2.313-4.635 3.124-6.311 1.813s-1.567-4.249.242-6.562 4.635-3.124 6.311-1.813c1.676 1.312 1.567 4.249-.242 6.562z" fill="url(#SVGID_63_)"/><path d="m408.438 214.757c-.905 1.157-2.431 1.475-3.407.711s-1.034-2.321-.129-3.478 2.431-1.475 3.407-.711 1.034 2.321.129 3.478z" fill="url(#SVGID_64_)"/><path d="m410.951 221.359c-.905 1.157-2.431 1.475-3.407.711s-1.034-2.321-.129-3.478 2.431-1.475 3.407-.711 1.035 2.321.129 3.478z" fill="url(#SVGID_65_)"/></g></g><path d="m364.864 384.191 29.061.665c-8.839-19.831-12.03-42.066-9.543-66.55l-5.94-.136-21.671 20.338c.443 16.053 3.162 31.324 8.093 45.683z" fill="url(#SVGID_66_)"/><path d="m148.454 261.994s106.522 112.754 236.177 53.011c0 0-130.809 168.273-236.177-53.011z" fill="url(#SVGID_67_)"/><path d="m146.523 261.193-1.6 4.161c-.366.952.195 2.099 1.327 2.722 4.391 2.419 9.623 4.849 15.352 7.052s11.242 3.905 16.122 5.051c1.257.295 2.442-.18 2.809-1.132l1.6-4.161c.463-1.204-.557-2.651-2.145-3.039-4.663-1.14-9.866-2.769-15.261-4.844s-10.349-4.351-14.574-6.629c-1.441-.776-3.167-.385-3.63.819z" fill="url(#SVGID_68_)"/><path d="m355.515 316.781.069 3.574c.016.818.779 1.5 1.808 1.621 3.992.47 8.613.693 13.534.598s9.53-.497 13.501-1.121c1.023-.161 1.76-.872 1.744-1.689l-.069-3.574c-.02-1.034-1.214-1.801-2.512-1.609-3.808.563-8.164.925-12.799 1.014-4.635.09-9.001-.104-12.829-.519-1.303-.141-2.467.671-2.447 1.705z" fill="url(#SVGID_69_)"/></g><g><path d="m498.202 506.34v.647c-3.38 1.915-7.296 3.014-11.457 3.014h-302.413c-.061-1.22-.098-2.44-.098-3.66 0-41.142 35.981-76.707 88.201-93.606 20.778-6.735 44.119-10.505 68.789-10.505 63.665 0 118.484 25.134 143.117 61.261 8.907 13.066 13.861 27.573 13.861 42.849z" fill="url(#SVGID_70_)"/><path d="m17.013 380.661c84.465-23.54 174.806-12.817 251.415 29.84l12.021 6.694c54.523 30.359 115.894 46.294 178.299 46.294h27.996c12.844 0 23.256 10.412 23.256 23.256 0 12.843-10.412 23.255-23.256 23.255h-463.488c-12.844 0-23.256-10.412-23.256-23.256v-83.681c0-10.439 6.956-19.599 17.013-22.402z" fill="url(#SVGID_71_)"/><path d="m486.744 463.489h-27.996c-62.405 0-123.776-15.934-178.299-46.293l-12.022-6.694c-42.14-23.464-88.435-37.254-135.622-41.001-20.303-1.612-37.638 14.53-37.638 34.897 0 39.455 31.985 71.44 71.44 71.44h340.672c-3.909-7.345-11.634-12.349-20.535-12.349z" fill="url(#SVGID_72_)"/><path d="m0 486.744c0 12.844 10.412 23.256 23.256 23.256h463.489c12.843 0 23.255-10.412 23.255-23.256s-10.412-23.256-23.256-23.256h-27.996c-38.433 0-76.472-6.053-112.763-17.788h-345.985z" fill="url(#SVGID_73_)"/></g></g></svg>