<svg id="Capa_1" enable-background="new 0 0 510 510" height="512" viewBox="0 0 510 510" width="512" xmlns="http://www.w3.org/2000/svg" xmlns:xlink="http://www.w3.org/1999/xlink"><linearGradient id="lg1"><stop offset="0" stop-color="#76e2f8"/><stop offset="1" stop-color="#0095ff"/></linearGradient><linearGradient id="SVGID_1_" gradientUnits="userSpaceOnUse" x1="205.661" x2="194.745" xlink:href="#lg1" y1="470.298" y2="517.929"/><linearGradient id="lg2"><stop offset="0" stop-color="#ffda2d"/><stop offset="1" stop-color="#ff9100"/></linearGradient><linearGradient id="SVGID_2_" gradientUnits="userSpaceOnUse" x1="200.403" x2="207.968" xlink:href="#lg2" y1="384.578" y2="545.115"/><linearGradient id="SVGID_3_" gradientUnits="userSpaceOnUse" x1="237.486" x2="209.535" xlink:href="#lg1" y1="248.366" y2="555.822"/><linearGradient id="SVGID_4_" gradientUnits="userSpaceOnUse" x1="360.85" x2="524.85" xlink:href="#lg2" y1="319.254" y2="361.254"/><linearGradient id="SVGID_5_" gradientUnits="userSpaceOnUse" x1="269.096" x2="455.096" xlink:href="#lg1" y1="321.171" y2="398.171"/><linearGradient id="SVGID_6_" gradientUnits="userSpaceOnUse" x1="449.84" x2="515.84" xlink:href="#lg1" y1="221.519" y2="224.519"/><linearGradient id="SVGID_7_" gradientUnits="userSpaceOnUse" x1="74.654" x2="140.654" xlink:href="#lg1" y1="63.872" y2="88.872"/><linearGradient id="SVGID_8_" gradientUnits="userSpaceOnUse" x1="150.907" x2="303.907" xlink:href="#lg2" y1="27.726" y2="183.726"/><linearGradient id="SVGID_9_" gradientUnits="userSpaceOnUse" x1="247.034" x2="353.034" xlink:href="#lg1" y1="108.658" y2="215.658"/><linearGradient id="SVGID_10_" gradientUnits="userSpaceOnUse" x1="237.263" x2="-167.404" y1="244.071" y2="-5.262"><stop offset="0" stop-color="#fff" stop-opacity="0"/><stop offset="1" stop-color="#fff"/></linearGradient><g><path d="m510 255c0 140.833-114.167 255-255 255s-255-114.167-255-255 114.167-255 255-255c26.745 0 40.592 9.34 64.815 16.975 23.033 7.261 56.591 12.48 76.286 25.588 68.656 45.693 113.899 123.781 113.899 212.437z" fill="url(#SVGID_1_)"/><path d="m232 475c19.292 0 38.073-1.896 56.11-5.485 111.054-22.096 103.389-151.345 103.389-151.345 4.013-19.444-38.226 38.277-176.297 38.277-78.559 0-110.616-282.044-156.448-232.876-23.796 38.768-58.754 82.606-58.754 131.429 0 56.972 18.689 109.577 50.264 152.028 45.576 41.851 110.137 67.972 181.736 67.972z" fill="url(#SVGID_2_)"/><path d="m481 180c0-24.71-5.79-48.35-16.332-70.143-18.394-26.522-41.689-49.387-68.574-67.285-19.385-12.904-53.879-16.547-76.507-23.794-24.534-7.857-37.443-18.778-64.587-18.778-140.833 0-255 114.167-255 255 0 .149.005.297.006.446 37.577 71.36 126.841 121.554 230.994 121.554 138.071 0 250-88.2 250-197z" fill="url(#SVGID_3_)"/><g><path d="m499.33 301.67c0 11.34-.74 22.52-2.18 33.47-19.78 59.81-61.1 109.81-114.78 140.82-31.46 18.18-67.17 29.82-105.28 33.09-3.02.27-6.06.48-9.11.63 1.47-2.55 2.9-5.13 4.28-7.73 18.99-35.67 94.493-107.207 94.493-150.437 0-51.54-80.043-68.693-106.333-108.803 30.543-57.42 82.403-101.768 145.027-122.507 8.489-2.811 17.839-.395 23.991 6.094 43.32 45.696 69.892 107.429 69.892 175.373z" fill="url(#SVGID_4_)"/><path d="m419.33 343.67c0 48.43-13.5 93.72-36.96 132.29-31.46 18.18-67.17 29.82-105.28 33.09-3.02.27-6.06.48-9.11.63 1.47-2.55 2.9-5.13 4.28-7.73 18.99-35.67 29.74-76.39 29.74-119.62 0-51.54-15.29-99.51-41.58-139.62 15.994-30.074 37.843-56.567 64.029-77.956 6.808-5.561 16.761-4.966 22.884 1.342 44.565 45.904 71.997 108.531 71.997 177.574z" fill="url(#SVGID_5_)"/><path d="m497.15 335.11c1.44-10.94 2.18-22.11 2.18-33.44 0-73.14-30.78-139.08-80.11-185.56 8.721-2.349 17.628-4.247 26.693-5.667 10.947-1.716 21.802 3.458 27.529 12.944 23.2 38.421 36.558 83.458 36.558 131.613 0 27.99-4.51 54.92-12.85 80.11z" fill="url(#SVGID_6_)"/></g><g><path d="m255 0c-97.282 0-181.829 54.481-224.824 134.591 79.864 146.048 230.244 108.119 230.244 108.119 32.75-61.57 90.01-108.11 158.77-126.63.01.01.021.02.031.03 14.33-3.86 29.159-6.5 44.368-7.81-18.222-25.862-41.131-48.185-67.492-65.732-19.435-12.937-49.141-16.541-71.835-23.79-24.484-7.82-42.183-18.778-69.262-18.778z" fill="url(#SVGID_7_)"/></g><path d="m255 0c-.25 0-.5 0-.75.001-57.839.167-112.641 27.005-147.985 72.789-20.031 25.948-34.29 56.58-40.854 89.974-2.234 11.364 1.546 23.11 10.033 30.991 26.523 24.632 55.522 38.38 82.526 45.73 55.424 15.085 161.608-123.73 161.619-123.72 14.33-3.86 128.792-6.154 144.001-7.464-46.154-65.504-122.37-108.301-208.59-108.301z" fill="url(#SVGID_8_)"/><path d="m157.97 239.484c55.424 15.084 102.45 3.226 102.45 3.226 32.75-61.57 90.01-108.11 158.77-126.63.01.01.021.02.031.03 14.33-3.86 29.159-6.5 44.368-7.81-18.222-25.862-41.134-48.18-67.495-65.727-12.158-2.124-24.662-3.24-37.427-3.24-107.307 0-196.324 78.253-213.131 180.804-1.424 8.683 3.943 17.036 12.434 19.347z" fill="url(#SVGID_9_)"/><circle cx="255" cy="255" fill="url(#SVGID_10_)" r="229.106"/></g></svg>