<svg id="Capa_1" enable-background="new 0 0 510 510" height="512" viewBox="0 0 510 510" width="512" xmlns="http://www.w3.org/2000/svg" xmlns:xlink="http://www.w3.org/1999/xlink"><linearGradient id="SVGID_1_" gradientTransform="matrix(.707 .707 -.707 .707 -822.171 -929.11)" gradientUnits="userSpaceOnUse" x1="1563.725" x2="1649.37" y1="330.21" y2="330.21"><stop offset="0" stop-color="#ffdecf"/><stop offset="1" stop-color="#faa68e"/></linearGradient><linearGradient id="SVGID_2_" gradientTransform="matrix(.707 .707 -.707 .707 -822.171 -929.11)" gradientUnits="userSpaceOnUse" x1="1636.638" x2="1584.967" y1="333.358" y2="222.861"><stop offset="0" stop-color="#faa68e" stop-opacity="0"/><stop offset="1" stop-color="#d07972"/></linearGradient><linearGradient id="lg1"><stop offset="0" stop-color="#ff819c"/><stop offset=".2594" stop-color="#ff7e9a"/><stop offset=".4757" stop-color="#fe7396"/><stop offset=".6765" stop-color="#fc628e"/><stop offset=".8668" stop-color="#fa4a83"/><stop offset="1" stop-color="#f83479"/></linearGradient><linearGradient id="SVGID_3_" gradientTransform="matrix(.707 .707 -.707 .707 433.612 -472.364)" gradientUnits="userSpaceOnUse" x1="315.635" x2="546.29" xlink:href="#lg1" y1="509.853" y2="821.804"/><linearGradient id="lg2"><stop offset="0" stop-color="#f82814" stop-opacity="0"/><stop offset="1" stop-color="#c0272d"/></linearGradient><linearGradient id="SVGID_4_" gradientTransform="matrix(.707 .707 -.707 .707 433.612 -472.364)" gradientUnits="userSpaceOnUse" x1="447.903" x2="582.63" xlink:href="#lg2" y1="458.004" y2="1371.158"/><linearGradient id="SVGID_5_" gradientTransform="matrix(.707 .707 -.707 .707 433.612 -472.364)" gradientUnits="userSpaceOnUse" x1="330.991" x2="234.809" xlink:href="#lg1" y1="606.345" y2="606.345"/><linearGradient id="SVGID_6_" gradientTransform="matrix(.707 .707 -.707 .707 433.612 -472.364)" gradientUnits="userSpaceOnUse" x1="421.412" x2="325.23" xlink:href="#lg1" y1="606.345" y2="606.345"/><linearGradient id="SVGID_7_" gradientTransform="matrix(.707 .707 -.707 .707 433.612 -472.364)" gradientUnits="userSpaceOnUse" x1="511.833" x2="415.651" xlink:href="#lg1" y1="606.345" y2="606.345"/><linearGradient id="SVGID_8_" gradientTransform="matrix(.707 .707 -.707 .707 433.612 -472.364)" gradientUnits="userSpaceOnUse" x1="388.027" x2="388.027" xlink:href="#lg2" y1="790.889" y2="850.976"/><g><g><path d="m11.176 498.824c-14.901-14.901-14.901-39.061 0-53.962l100.617-100.617 53.962 53.962-100.617 100.617c-14.901 14.901-39.061 14.901-53.962 0z" fill="url(#SVGID_1_)"/><path d="m93.668 362.37v107.924l72.088-72.087-53.963-53.963z" fill="url(#SVGID_2_)"/></g><g><path d="m159.873 430.939-80.812-80.811c-43.449-43.449-43.449-113.894 0-157.344l160.197-160.197c43.449-43.449 113.894-43.449 157.344 0l80.811 80.811c43.449 43.449 43.449 113.894 0 157.344l-160.196 160.197c-43.45 43.449-113.895 43.449-157.344 0z" fill="url(#SVGID_3_)"/><path d="m477.413 113.398-32.814-32.814c43.449 43.449 43.449 113.894 0 157.344l-160.197 160.197c-43.449 43.449-113.894 43.449-157.344 0l32.814 32.814c43.449 43.449 113.894 43.449 157.344 0l160.197-160.197c43.449-43.449 43.449-113.894 0-157.344z" fill="url(#SVGID_4_)"/><g><path d="m82.975 286.958c-10.288-10.288-10.288-26.967 0-37.255l215.203-215.202c10.288-10.288 26.967-10.288 37.255 0 10.288 10.288 10.288 26.967 0 37.255l-215.203 215.202c-10.287 10.288-26.967 10.288-37.255 0z" fill="url(#SVGID_5_)"/><path d="m146.913 350.895c-10.288-10.288-10.288-26.967 0-37.255l215.202-215.202c10.288-10.288 26.967-10.288 37.255 0 10.288 10.288 10.288 26.967 0 37.255l-215.203 215.202c-10.287 10.288-26.967 10.288-37.254 0z" fill="url(#SVGID_6_)"/><path d="m210.85 414.832c-10.288-10.288-10.288-26.967 0-37.255l215.202-215.202c10.288-10.288 26.967-10.288 37.255 0 10.288 10.288 10.288 26.967 0 37.255l-215.202 215.202c-10.288 10.288-26.968 10.288-37.255 0z" fill="url(#SVGID_7_)"/></g><path d="m60.294 217.761c-23.324 42.282-17.088 96.51 18.768 132.367l80.811 80.811c35.856 35.856 90.085 42.091 132.366 18.768z" fill="url(#SVGID_8_)"/></g></g></svg>