<svg id="Capa_1" enable-background="new 0 0 510 510" height="512" viewBox="0 0 510 510" width="512" xmlns="http://www.w3.org/2000/svg" xmlns:xlink="http://www.w3.org/1999/xlink"><linearGradient id="lg1"><stop offset="0" stop-color="#b9dd39"/><stop offset="1" stop-color="#90cc1c"/></linearGradient><linearGradient id="SVGID_1_" gradientUnits="userSpaceOnUse" x1="162.235" x2="362.901" xlink:href="#lg1" y1="212.493" y2="278.493"/><linearGradient id="SVGID_2_" gradientUnits="userSpaceOnUse" x1="290.947" x2="460.557" xlink:href="#lg1" y1="171.009" y2="387.504"/><linearGradient id="lg2"><stop offset="0" stop-color="#07485e" stop-opacity="0"/><stop offset=".3884" stop-color="#05394a" stop-opacity=".388"/><stop offset="1" stop-color="#03232e"/></linearGradient><linearGradient id="SVGID_3_" gradientUnits="userSpaceOnUse" x1="255" x2="255" xlink:href="#lg2" y1="123.044" y2="226.378"/><linearGradient id="SVGID_4_" gradientUnits="userSpaceOnUse" x1="255" x2="255" xlink:href="#lg2" y1="122.667" y2="253.333"/><linearGradient id="SVGID_5_" gradientUnits="userSpaceOnUse" x1="255" x2="255" xlink:href="#lg2" y1="134.167" y2="245.502"/><linearGradient id="SVGID_6_" gradientUnits="userSpaceOnUse" x1="255" x2="255" xlink:href="#lg2" y1="134.667" y2="209.502"/><linearGradient id="SVGID_7_" gradientUnits="userSpaceOnUse" x1="255" x2="255" xlink:href="#lg2" y1="126.333" y2="206.525"/><linearGradient id="SVGID_8_" gradientUnits="userSpaceOnUse" x1="450.532" x2="380.819" xlink:href="#lg2" y1="160.582" y2="233.327"/><linearGradient id="SVGID_9_" gradientUnits="userSpaceOnUse" x1="66.785" x2="114.72" xlink:href="#lg2" y1="154.886" y2="261.178"/><linearGradient id="SVGID_10_" gradientUnits="userSpaceOnUse" x1="113.435" x2="91.612" xlink:href="#lg2" y1="362.632" y2="422.36"/><linearGradient id="SVGID_11_" gradientUnits="userSpaceOnUse" x1="396.194" x2="417.35" xlink:href="#lg2" y1="360.788" y2="412.973"/><linearGradient id="SVGID_12_" gradientUnits="userSpaceOnUse" x1="255" x2="255" y1="101" y2="144"><stop offset="0" stop-color="#6b0"/><stop offset="1" stop-color="#0b799d"/></linearGradient><linearGradient id="lg3"><stop offset="0" stop-color="#ff819c"/><stop offset=".2594" stop-color="#ff7e9a"/><stop offset=".4757" stop-color="#fe7396"/><stop offset=".6765" stop-color="#fc628e"/><stop offset=".8668" stop-color="#fa4a83"/><stop offset="1" stop-color="#f83479"/></linearGradient><linearGradient id="SVGID_13_" gradientTransform="matrix(.363 -.932 .932 .363 2890.745 -742.89)" gradientUnits="userSpaceOnUse" x1="-2000.481" x2="-1980.598" xlink:href="#lg3" y1="-2270.886" y2="-2251.003"/><linearGradient id="lg4"><stop offset="0" stop-color="#f82814" stop-opacity="0"/><stop offset="1" stop-color="#c0272d"/></linearGradient><linearGradient id="SVGID_14_" gradientTransform="matrix(.363 -.932 .932 .363 2890.745 -742.89)" gradientUnits="userSpaceOnUse" x1="-1990.802" x2="-2017.722" xlink:href="#lg4" y1="-2266.319" y2="-2251.661"/><linearGradient id="SVGID_15_" gradientTransform="matrix(-.778 -.629 .629 -.778 3161.706 -3755.254)" gradientUnits="userSpaceOnUse" x1="-160.574" x2="-140.691" xlink:href="#lg3" y1="-5123.5" y2="-5103.617"/><linearGradient id="SVGID_16_" gradientTransform="matrix(-.778 -.629 .629 -.778 3161.706 -3755.254)" gradientUnits="userSpaceOnUse" x1="-150.895" x2="-177.815" xlink:href="#lg4" y1="-5118.933" y2="-5104.275"/><linearGradient id="SVGID_17_" gradientTransform="matrix(-.75 .661 -.661 -.75 94.633 -4909.405)" gradientUnits="userSpaceOnUse" x1="3450.592" x2="3470.474" xlink:href="#lg3" y1="-3932.615" y2="-3912.732"/><linearGradient id="SVGID_18_" gradientTransform="matrix(-.75 .661 -.661 -.75 94.633 -4909.405)" gradientUnits="userSpaceOnUse" x1="3460.271" x2="3433.351" xlink:href="#lg4" y1="-3928.048" y2="-3913.391"/><linearGradient id="SVGID_19_" gradientTransform="matrix(.339 .941 -.941 .339 -1684.684 -2572.267)" gradientUnits="userSpaceOnUse" x1="3298.234" x2="3318.117" xlink:href="#lg3" y1="-716.897" y2="-697.014"/><linearGradient id="SVGID_20_" gradientTransform="matrix(.339 .941 -.941 .339 -1684.684 -2572.267)" gradientUnits="userSpaceOnUse" x1="3307.914" x2="3280.994" xlink:href="#lg4" y1="-712.33" y2="-697.673"/><linearGradient id="SVGID_21_" gradientUnits="userSpaceOnUse" x1="75.243" x2="95.126" xlink:href="#lg3" y1="271.248" y2="291.131"/><linearGradient id="SVGID_22_" gradientUnits="userSpaceOnUse" x1="84.922" x2="58.002" xlink:href="#lg4" y1="275.815" y2="290.472"/><linearGradient id="lg5"><stop offset="0" stop-color="#ffda2d"/><stop offset="1" stop-color="#fdbf00"/></linearGradient><linearGradient id="SVGID_23_" gradientUnits="userSpaceOnUse" x1="73.591" x2="87.816" xlink:href="#lg5" y1="294.887" y2="309.113"/><linearGradient id="SVGID_24_" gradientTransform="matrix(.363 -.932 .932 .363 2890.745 -742.89)" gradientUnits="userSpaceOnUse" x1="-1836.558" x2="-1816.675" xlink:href="#lg3" y1="-2076.525" y2="-2056.642"/><linearGradient id="SVGID_25_" gradientTransform="matrix(.363 -.932 .932 .363 2890.745 -742.89)" gradientUnits="userSpaceOnUse" x1="-1826.878" x2="-1853.799" xlink:href="#lg4" y1="-2071.958" y2="-2057.301"/><linearGradient id="SVGID_26_" gradientTransform="matrix(-.778 -.629 .629 -.778 3161.706 -3755.254)" gradientUnits="userSpaceOnUse" x1="-295.965" x2="-276.082" xlink:href="#lg3" y1="-4908.287" y2="-4888.404"/><linearGradient id="SVGID_27_" gradientTransform="matrix(-.778 -.629 .629 -.778 3161.706 -3755.254)" gradientUnits="userSpaceOnUse" x1="-286.286" x2="-313.206" xlink:href="#lg4" y1="-4903.721" y2="-4889.063"/><linearGradient id="SVGID_28_" gradientTransform="matrix(-.75 .661 -.661 -.75 94.633 -4909.405)" gradientUnits="userSpaceOnUse" x1="3215.711" x2="3235.594" xlink:href="#lg3" y1="-4029.97" y2="-4010.087"/><linearGradient id="SVGID_29_" gradientTransform="matrix(-.75 .661 -.661 -.75 94.633 -4909.405)" gradientUnits="userSpaceOnUse" x1="3225.39" x2="3198.47" xlink:href="#lg4" y1="-4025.403" y2="-4010.745"/><linearGradient id="SVGID_30_" gradientTransform="matrix(.339 .941 -.941 .339 -1684.684 -2572.267)" gradientUnits="userSpaceOnUse" x1="3302.551" x2="3322.434" xlink:href="#lg3" y1="-971.118" y2="-951.235"/><linearGradient id="SVGID_31_" gradientTransform="matrix(.339 .941 -.941 .339 -1684.684 -2572.267)" gradientUnits="userSpaceOnUse" x1="3312.231" x2="3285.311" xlink:href="#lg4" y1="-966.551" y2="-951.894"/><linearGradient id="SVGID_32_" gradientUnits="userSpaceOnUse" x1="315.843" x2="335.726" xlink:href="#lg3" y1="189.038" y2="208.92"/><linearGradient id="SVGID_33_" gradientUnits="userSpaceOnUse" x1="325.522" x2="298.602" xlink:href="#lg4" y1="193.604" y2="208.262"/><linearGradient id="SVGID_34_" gradientUnits="userSpaceOnUse" x1="314.191" x2="328.416" xlink:href="#lg5" y1="212.677" y2="226.903"/><linearGradient id="SVGID_35_" gradientTransform="matrix(.054 -.999 .999 .054 2424.833 -1530.346)" gradientUnits="userSpaceOnUse" x1="-1967.649" x2="-1947.766" xlink:href="#lg3" y1="-2156.474" y2="-2136.592"/><linearGradient id="SVGID_36_" gradientTransform="matrix(.054 -.999 .999 .054 2424.833 -1530.346)" gradientUnits="userSpaceOnUse" x1="-1957.97" x2="-1984.89" xlink:href="#lg4" y1="-2151.908" y2="-2137.25"/><linearGradient id="SVGID_37_" gradientTransform="matrix(-.935 -.355 .355 -.935 1741.791 -4476.735)" gradientUnits="userSpaceOnUse" x1="-259.609" x2="-239.726" xlink:href="#lg3" y1="-5057.469" y2="-5037.586"/><linearGradient id="SVGID_38_" gradientTransform="matrix(-.935 -.355 .355 -.935 1741.791 -4476.735)" gradientUnits="userSpaceOnUse" x1="-249.929" x2="-276.849" xlink:href="#lg4" y1="-5052.902" y2="-5038.245"/><linearGradient id="SVGID_39_" gradientTransform="matrix(-.506 .862 -.862 -.506 -1532.304 -4615.659)" gradientUnits="userSpaceOnUse" x1="3368.878" x2="3388.761" xlink:href="#lg3" y1="-4019.164" y2="-3999.281"/><linearGradient id="SVGID_40_" gradientTransform="matrix(-.506 .862 -.862 -.506 -1532.304 -4615.659)" gradientUnits="userSpaceOnUse" x1="3378.557" x2="3351.637" xlink:href="#lg4" y1="-4014.597" y2="-3999.94"/><linearGradient id="SVGID_41_" gradientTransform="matrix(.616 .788 -.788 .616 -2493.031 -1839.838)" gradientUnits="userSpaceOnUse" x1="3348.737" x2="3368.619" xlink:href="#lg3" y1="-824.681" y2="-804.798"/><linearGradient id="SVGID_42_" gradientTransform="matrix(.616 .788 -.788 .616 -2493.031 -1839.838)" gradientUnits="userSpaceOnUse" x1="3358.416" x2="3331.496" xlink:href="#lg4" y1="-820.114" y2="-805.457"/><linearGradient id="SVGID_43_" gradientTransform="matrix(.95 -.312 .312 .95 -89.493 77.901)" gradientUnits="userSpaceOnUse" x1="193.769" x2="213.652" xlink:href="#lg3" y1="282.176" y2="302.059"/><linearGradient id="SVGID_44_" gradientTransform="matrix(.95 -.312 .312 .95 -89.493 77.901)" gradientUnits="userSpaceOnUse" x1="203.448" x2="176.528" xlink:href="#lg4" y1="286.743" y2="301.401"/><linearGradient id="SVGID_45_" gradientTransform="matrix(.95 -.312 .312 .95 -89.493 77.901)" gradientUnits="userSpaceOnUse" x1="192.117" x2="206.342" xlink:href="#lg5" y1="305.816" y2="320.041"/><linearGradient id="SVGID_46_" gradientTransform="matrix(.054 -.999 .999 .054 2424.833 -1530.346)" gradientUnits="userSpaceOnUse" x1="-1917.178" x2="-1897.295" xlink:href="#lg3" y1="-1924.041" y2="-1904.158"/><linearGradient id="SVGID_47_" gradientTransform="matrix(.054 -.999 .999 .054 2424.833 -1530.346)" gradientUnits="userSpaceOnUse" x1="-1907.498" x2="-1934.419" xlink:href="#lg4" y1="-1919.474" y2="-1904.817"/><linearGradient id="SVGID_48_" gradientTransform="matrix(-.935 -.355 .355 -.935 1741.791 -4476.735)" gradientUnits="userSpaceOnUse" x1="-465.732" x2="-445.849" xlink:href="#lg3" y1="-4938.785" y2="-4918.902"/><linearGradient id="SVGID_49_" gradientTransform="matrix(-.935 -.355 .355 -.935 1741.791 -4476.735)" gradientUnits="userSpaceOnUse" x1="-456.053" x2="-482.973" xlink:href="#lg4" y1="-4934.218" y2="-4919.561"/><linearGradient id="SVGID_50_" gradientTransform="matrix(-.506 .862 -.862 -.506 -1532.304 -4615.659)" gradientUnits="userSpaceOnUse" x1="3217.286" x2="3237.169" xlink:href="#lg3" y1="-4202.447" y2="-4182.564"/><linearGradient id="SVGID_51_" gradientTransform="matrix(-.506 .862 -.862 -.506 -1532.304 -4615.659)" gradientUnits="userSpaceOnUse" x1="3226.966" x2="3200.045" xlink:href="#lg4" y1="-4197.88" y2="-4183.223"/><linearGradient id="SVGID_52_" gradientTransform="matrix(.616 .788 -.788 .616 -2493.031 -1839.838)" gradientUnits="userSpaceOnUse" x1="3463.561" x2="3483.444" xlink:href="#lg3" y1="-1032.979" y2="-1013.096"/><linearGradient id="SVGID_53_" gradientTransform="matrix(.616 .788 -.788 .616 -2493.031 -1839.838)" gradientUnits="userSpaceOnUse" x1="3473.241" x2="3446.32" xlink:href="#lg4" y1="-1028.412" y2="-1013.755"/><linearGradient id="SVGID_54_" gradientTransform="matrix(.95 -.312 .312 .95 -89.493 77.901)" gradientUnits="userSpaceOnUse" x1="428.672" x2="448.555" xlink:href="#lg3" y1="319.5" y2="339.383"/><linearGradient id="SVGID_55_" gradientTransform="matrix(.95 -.312 .312 .95 -89.493 77.901)" gradientUnits="userSpaceOnUse" x1="438.352" x2="411.432" xlink:href="#lg4" y1="324.067" y2="338.724"/><linearGradient id="SVGID_56_" gradientTransform="matrix(.95 -.312 .312 .95 -89.493 77.901)" gradientUnits="userSpaceOnUse" x1="427.02" x2="441.246" xlink:href="#lg5" y1="343.139" y2="357.365"/><linearGradient id="SVGID_57_" gradientTransform="matrix(.706 -.709 .709 .706 3042.83 435.559)" gradientUnits="userSpaceOnUse" x1="-1893.322" x2="-1873.439" xlink:href="#lg3" y1="-2234.78" y2="-2214.897"/><linearGradient id="SVGID_58_" gradientTransform="matrix(.706 -.709 .709 .706 3042.83 435.559)" gradientUnits="userSpaceOnUse" x1="-1883.632" x2="-1910.552" xlink:href="#lg4" y1="-2230.202" y2="-2215.544"/><linearGradient id="SVGID_59_" gradientTransform="matrix(-.461 -.888 .888 -.461 4497.481 -2216.185)" gradientUnits="userSpaceOnUse" x1="-162.435" x2="-142.552" xlink:href="#lg3" y1="-5010.422" y2="-4990.54"/><linearGradient id="SVGID_60_" gradientTransform="matrix(-.461 -.888 .888 -.461 4497.481 -2216.185)" gradientUnits="userSpaceOnUse" x1="-152.755" x2="-179.675" xlink:href="#lg4" y1="-5005.856" y2="-4991.198"/><linearGradient id="SVGID_61_" gradientTransform="matrix(-.952 .305 -.305 -.952 2149.299 -4502.02)" gradientUnits="userSpaceOnUse" x1="3338.806" x2="3358.689" xlink:href="#lg3" y1="-3915.473" y2="-3895.59"/><linearGradient id="SVGID_62_" gradientTransform="matrix(-.952 .305 -.305 -.952 2149.299 -4502.02)" gradientUnits="userSpaceOnUse" x1="3348.485" x2="3321.565" xlink:href="#lg4" y1="-3910.906" y2="-3896.249"/><linearGradient id="SVGID_63_" gradientTransform="matrix(-.066 .998 -.998 -.066 -417.063 -3073.046)" gradientUnits="userSpaceOnUse" x1="3241.246" x2="3261.129" xlink:href="#lg3" y1="-814.582" y2="-794.699"/><linearGradient id="SVGID_64_" gradientTransform="matrix(-.066 .998 -.998 -.066 -417.063 -3073.046)" gradientUnits="userSpaceOnUse" x1="3250.926" x2="3224.006" xlink:href="#lg4" y1="-810.015" y2="-795.357"/><linearGradient id="SVGID_65_" gradientTransform="matrix(.916 .401 -.401 .916 96.507 -41.386)" gradientUnits="userSpaceOnUse" x1="147.791" x2="167.674" xlink:href="#lg3" y1="184.492" y2="204.375"/><linearGradient id="SVGID_66_" gradientTransform="matrix(.916 .401 -.401 .916 96.507 -41.386)" gradientUnits="userSpaceOnUse" x1="157.471" x2="130.551" xlink:href="#lg4" y1="189.059" y2="203.716"/><linearGradient id="SVGID_67_" gradientTransform="matrix(.916 .401 -.401 .916 96.507 -41.386)" gradientUnits="userSpaceOnUse" x1="146.139" x2="160.365" xlink:href="#lg5" y1="208.131" y2="222.357"/><linearGradient id="SVGID_68_" gradientTransform="matrix(.706 -.709 .709 .706 3042.83 435.559)" gradientUnits="userSpaceOnUse" x1="-1840.955" x2="-1821.072" xlink:href="#lg3" y1="-2028.012" y2="-2008.129"/><linearGradient id="SVGID_69_" gradientTransform="matrix(.706 -.709 .709 .706 3042.83 435.559)" gradientUnits="userSpaceOnUse" x1="-1831.265" x2="-1858.185" xlink:href="#lg4" y1="-2023.434" y2="-2008.776"/><linearGradient id="SVGID_70_" gradientTransform="matrix(-.461 -.888 .888 -.461 4497.481 -2216.185)" gradientUnits="userSpaceOnUse" x1="-343.53" x2="-323.647" xlink:href="#lg3" y1="-4897.729" y2="-4877.846"/><linearGradient id="SVGID_71_" gradientTransform="matrix(-.461 -.888 .888 -.461 4497.481 -2216.185)" gradientUnits="userSpaceOnUse" x1="-333.85" x2="-360.77" xlink:href="#lg4" y1="-4893.162" y2="-4878.504"/><linearGradient id="SVGID_72_" gradientTransform="matrix(-.952 .305 -.305 -.952 2149.299 -4502.02)" gradientUnits="userSpaceOnUse" x1="3197.319" x2="3217.202" xlink:href="#lg3" y1="-4075.088" y2="-4055.205"/><linearGradient id="SVGID_73_" gradientTransform="matrix(-.952 .305 -.305 -.952 2149.299 -4502.02)" gradientUnits="userSpaceOnUse" x1="3206.999" x2="3180.079" xlink:href="#lg4" y1="-4070.521" y2="-4055.864"/><linearGradient id="SVGID_74_" gradientTransform="matrix(-.066 .998 -.998 -.066 -417.063 -3073.046)" gradientUnits="userSpaceOnUse" x1="3337.766" x2="3357.649" xlink:href="#lg3" y1="-1004.79" y2="-984.908"/><linearGradient id="SVGID_75_" gradientTransform="matrix(-.066 .998 -.998 -.066 -417.063 -3073.046)" gradientUnits="userSpaceOnUse" x1="3347.445" x2="3320.525" xlink:href="#lg4" y1="-1000.224" y2="-985.566"/><linearGradient id="SVGID_76_" gradientTransform="matrix(.916 .401 -.401 .916 96.507 -41.386)" gradientUnits="userSpaceOnUse" x1="359.467" x2="379.35" xlink:href="#lg3" y1="210.736" y2="230.618"/><linearGradient id="SVGID_77_" gradientTransform="matrix(.916 .401 -.401 .916 96.507 -41.386)" gradientUnits="userSpaceOnUse" x1="369.147" x2="342.226" xlink:href="#lg4" y1="215.302" y2="229.96"/><linearGradient id="SVGID_78_" gradientTransform="matrix(.916 .401 -.401 .916 96.507 -41.386)" gradientUnits="userSpaceOnUse" x1="357.815" x2="372.041" xlink:href="#lg5" y1="234.375" y2="248.601"/><linearGradient id="SVGID_79_" gradientUnits="userSpaceOnUse" x1="272.501" x2="123.168" xlink:href="#lg2" y1="240.208" y2="165.208"/><linearGradient id="SVGID_80_" gradientUnits="userSpaceOnUse" x1="301.457" x2="156.758" xlink:href="#lg2" y1="229.882" y2="157.209"/><linearGradient id="SVGID_81_" gradientUnits="userSpaceOnUse" x1="231" x2="253.361" xlink:href="#lg5" y1="185.667" y2="185.667"/><linearGradient id="SVGID_82_" gradientUnits="userSpaceOnUse" x1="257" x2="279.361" xlink:href="#lg5" y1="170" y2="170"/><g><path d="m508.809 325.345-77.677-217.415h-352.264l-77.677 217.415c-3.778 10.575 1.732 22.211 12.307 25.989l184.552 65.936c10.575 3.778 22.211-1.732 25.989-12.307l24.25-67.874c2.253-6.306 11.171-6.306 13.423 0l24.25 67.874c3.778 10.575 15.414 16.085 25.989 12.307l184.552-65.936c10.574-3.778 16.084-15.414 12.306-25.989z" fill="url(#SVGID_1_)"/><path d="m311.95 417.27 184.552-65.936c10.575-3.778 16.085-15.414 12.307-25.989l-77.677-217.415h-.002v.001c0 9.05-78.85 16.39-176.13 16.39v208.039c2.793 0 5.585 1.576 6.712 4.729l24.25 67.874c3.777 10.575 15.413 16.085 25.988 12.307z" fill="url(#SVGID_2_)"/><path d="m66.296 143.117c43.139 10.17 111.606 16.743 188.704 16.743s145.565-6.574 188.704-16.743l-12.572-35.187h-352.264z" fill="url(#SVGID_3_)"/><g><path d="m406.69 150.04c-13.88 2.08-29.11 3.87-45.43 5.33-13.65 1.23-28.06 2.23-43.07 2.97-11.65.57-23.66.99-35.97 1.24-8.93.19-18.01.28-27.22.28s-18.29-.09-27.22-.28c-12.31-.25-24.32-.67-35.97-1.24-15.01-.74-29.42-1.74-43.07-2.97-16.32-1.46-31.55-3.25-45.43-5.33l11.94-42.11h279.5z" fill="url(#SVGID_4_)"/><path d="m361.26 155.37c-13.65 1.23-28.06 2.23-43.07 2.97-11.65.57-23.66.99-35.97 1.24-8.93.19-18.01.28-27.22.28s-18.29-.09-27.22-.28c-12.31-.25-24.32-.67-35.97-1.24-15.01-.74-29.42-1.74-43.07-2.97l9.33-47.44h193.86z" fill="url(#SVGID_5_)"/><path d="m318.19 158.34c-11.65.57-23.66.99-35.97 1.24-8.93.19-18.01.28-27.22.28s-18.29-.09-27.22-.28c-12.31-.25-24.32-.67-35.97-1.24l5.86-50.41h114.66z" fill="url(#SVGID_6_)"/><path d="m282.22 159.58c-8.93.19-18.01.28-27.22.28s-18.29-.09-27.22-.28l2.58-51.65h49.28z" fill="url(#SVGID_7_)"/></g><g><path d="m467.12 208.651c-31.44-7.02-57.4-28.54-70.52-57.17 17.81-2.38 33.68-5.19 47.1-8.36z" fill="url(#SVGID_8_)"/><path d="m113.4 151.481c-13.12 28.63-39.08 50.15-70.52 57.17l23.42-65.53c13.42 3.17 29.29 5.98 47.1 8.36z" fill="url(#SVGID_9_)"/></g><path d="m13.498 302.718 219.319 77.667-8.784 24.575c-3.771 10.573-15.404 16.087-25.988 12.305l-184.547-65.933c-10.573-3.782-16.087-15.415-12.304-25.987l8.693-24.336c1.116.683 2.324 1.253 3.611 1.709z" fill="url(#SVGID_10_)"/><path d="m496.502 351.332-184.547 65.932c-10.584 3.783-22.217-1.732-25.988-12.305l-8.796-24.598 219.331-77.645c1.287-.456 2.495-1.025 3.612-1.709l8.693 24.336c3.782 10.574-1.732 22.207-12.305 25.989z" fill="url(#SVGID_11_)"/><ellipse cx="255" cy="107.93" fill="url(#SVGID_12_)" rx="176.132" ry="16.39"/><g><g><g><circle cx="55.747" cy="293.953" fill="url(#SVGID_13_)" r="19.831"/><path d="m37.305 286.667 36.953 14.392c3.91-10.183-1.139-21.622-11.314-25.586s-21.632 1.049-25.639 11.194z" fill="url(#SVGID_14_)"/></g><g><circle cx="64.13" cy="321.927" fill="url(#SVGID_15_)" r="19.831"/><path d="m51.587 337.284 24.936-30.836c-8.514-6.818-20.947-5.482-27.813 3.009s-5.572 20.928 2.877 27.827z" fill="url(#SVGID_16_)"/></g><g><circle cx="97.277" cy="321.927" fill="url(#SVGID_17_)" r="19.831"/><path d="m110.312 336.869-26.214-29.757c-8.151 7.249-8.92 19.73-1.701 27.924s19.696 9.004 27.915 1.833z" fill="url(#SVGID_18_)"/></g><g><circle cx="105.66" cy="293.953" fill="url(#SVGID_19_)" r="19.831"/><path d="m124.344 287.314-37.304 13.458c3.751 10.243 15.077 15.541 25.349 11.835s15.608-15.015 11.955-25.293z" fill="url(#SVGID_20_)"/></g><g><circle cx="80.703" cy="276.708" fill="url(#SVGID_21_)" r="19.831"/><path d="m80.799 256.88v39.657c10.908-.052 19.735-8.908 19.735-19.828s-8.827-19.777-19.735-19.829z" fill="url(#SVGID_22_)"/></g><circle cx="80.703" cy="302" fill="url(#SVGID_23_)" r="10.059"/></g><g><g><circle cx="296.347" cy="211.742" fill="url(#SVGID_24_)" r="19.831"/><path d="m277.905 204.457 36.953 14.392c3.91-10.183-1.139-21.622-11.314-25.586-10.176-3.963-21.632 1.049-25.639 11.194z" fill="url(#SVGID_25_)"/></g><g><circle cx="304.73" cy="239.716" fill="url(#SVGID_26_)" r="19.831"/><path d="m292.187 255.074 24.936-30.836c-8.514-6.818-20.947-5.482-27.813 3.009-6.867 8.491-5.572 20.928 2.877 27.827z" fill="url(#SVGID_27_)"/></g><g><circle cx="337.877" cy="239.716" fill="url(#SVGID_28_)" r="19.831"/><path d="m350.912 254.658-26.214-29.757c-8.151 7.249-8.92 19.73-1.701 27.924 7.218 8.194 19.696 9.005 27.915 1.833z" fill="url(#SVGID_29_)"/></g><g><circle cx="346.26" cy="211.742" fill="url(#SVGID_30_)" r="19.831"/><path d="m364.944 205.104-37.304 13.458c3.75 10.243 15.077 15.541 25.349 11.835s15.608-15.015 11.955-25.293z" fill="url(#SVGID_31_)"/></g><g><circle cx="321.303" cy="194.498" fill="url(#SVGID_32_)" r="19.831"/><path d="m321.399 174.67v39.657c10.908-.052 19.735-8.908 19.735-19.828s-8.827-19.777-19.735-19.829z" fill="url(#SVGID_33_)"/></g><circle cx="321.303" cy="219.79" fill="url(#SVGID_34_)" r="10.059"/></g><g><g><circle cx="171.253" cy="313.135" fill="url(#SVGID_35_)" r="19.831"/><path d="m151.458 311.971 39.599 2.136c.536-10.895-7.832-20.186-18.737-20.774-10.903-.588-20.222 7.749-20.862 18.638z" fill="url(#SVGID_36_)"/></g><g><circle cx="187.95" cy="337.094" fill="url(#SVGID_37_)" r="19.831"/><path d="m180.829 355.6 14.063-37.08c-10.217-3.819-21.611 1.331-25.484 11.542-3.873 10.21 1.24 21.621 11.421 25.538z" fill="url(#SVGID_38_)"/></g><g><circle cx="219.44" cy="326.745" fill="url(#SVGID_39_)" r="19.831"/><path d="m236.489 336.871-34.194-20.086c-5.48 9.432-2.314 21.528 7.102 27.059s21.522 2.406 27.092-6.973z" fill="url(#SVGID_40_)"/></g><g><circle cx="218.671" cy="297.553" fill="url(#SVGID_41_)" r="19.831"/><path d="m234.348 285.412-31.238 24.431c6.761 8.56 19.175 10.057 27.777 3.33s10.14-19.136 3.461-27.761z" fill="url(#SVGID_42_)"/></g><g><circle cx="189.578" cy="288.962" fill="url(#SVGID_43_)" r="19.831"/><path d="m183.479 270.094 12.381 37.675c10.347-3.455 15.967-14.624 12.558-24.999-3.41-10.374-14.56-16.032-24.939-12.676z" fill="url(#SVGID_44_)"/></g><circle cx="197.474" cy="312.989" fill="url(#SVGID_45_)" r="10.059"/></g><g><g><circle cx="406.068" cy="275.257" fill="url(#SVGID_46_)" r="19.831"/><path d="m386.273 274.093 39.599 2.136c.536-10.895-7.832-20.186-18.737-20.774-10.904-.589-20.223 7.749-20.862 18.638z" fill="url(#SVGID_47_)"/></g><g><circle cx="422.765" cy="299.215" fill="url(#SVGID_48_)" r="19.831"/><path d="m415.644 317.721 14.063-37.08c-10.217-3.819-21.611 1.331-25.484 11.542s1.24 21.622 11.421 25.538z" fill="url(#SVGID_49_)"/></g><g><circle cx="454.255" cy="288.867" fill="url(#SVGID_50_)" r="19.831"/><path d="m471.303 298.992-34.194-20.086c-5.48 9.432-2.314 21.528 7.102 27.059 9.416 5.532 21.523 2.406 27.092-6.973z" fill="url(#SVGID_51_)"/></g><g><circle cx="453.485" cy="259.674" fill="url(#SVGID_52_)" r="19.831"/><path d="m469.163 247.534-31.238 24.431c6.761 8.56 19.175 10.057 27.777 3.33 8.602-6.728 10.14-19.137 3.461-27.761z" fill="url(#SVGID_53_)"/></g><g><circle cx="424.393" cy="251.083" fill="url(#SVGID_54_)" r="19.831"/><path d="m418.293 232.216 12.381 37.675c10.347-3.455 15.967-14.624 12.558-24.999-3.409-10.374-14.56-16.032-24.939-12.676z" fill="url(#SVGID_55_)"/></g><circle cx="432.289" cy="275.11" fill="url(#SVGID_56_)" r="10.059"/></g><g><g><circle cx="131.089" cy="199.849" fill="url(#SVGID_57_)" r="19.831"/><path d="m117.108 185.788 28.097 27.986c7.661-7.765 7.616-20.269-.121-27.975s-20.241-7.702-27.976-.011z" fill="url(#SVGID_58_)"/></g><g><circle cx="127.568" cy="228.839" fill="url(#SVGID_59_)" r="19.831"/><path d="m109.924 237.889 35.198-18.269c-5.071-9.658-16.998-13.412-26.691-8.381-9.692 5.03-13.486 16.944-8.507 26.65z" fill="url(#SVGID_60_)"/></g><g><circle cx="157.941" cy="242.113" fill="url(#SVGID_61_)" r="19.831"/><path d="m163.901 261.025-12.103-37.765c-10.372 3.379-16.075 14.506-12.742 24.906 3.333 10.399 14.442 16.139 24.845 12.859z" fill="url(#SVGID_62_)"/></g><g><circle cx="176.824" cy="219.838" fill="url(#SVGID_63_)" r="19.831"/><path d="m196.604 221.237-39.571-2.608c-.665 10.888 7.591 20.278 18.488 20.996 10.896.719 20.314-7.507 21.083-18.388z" fill="url(#SVGID_64_)"/></g><g><circle cx="160.863" cy="194.042" fill="url(#SVGID_65_)" r="19.831"/><path d="m168.891 175.912-15.881 36.338c10.016 4.321 21.651-.259 26.024-10.266 4.373-10.006-.169-21.656-10.143-26.072z" fill="url(#SVGID_66_)"/></g><circle cx="150.734" cy="217.217" fill="url(#SVGID_67_)" r="10.059"/></g><g><g><circle cx="314.54" cy="308.667" fill="url(#SVGID_68_)" r="19.831"/><path d="m300.559 294.606 28.097 27.986c7.661-7.765 7.616-20.269-.121-27.975s-20.241-7.703-27.976-.011z" fill="url(#SVGID_69_)"/></g><g><circle cx="311.018" cy="337.656" fill="url(#SVGID_70_)" r="19.831"/><path d="m293.375 346.706 35.198-18.269c-5.071-9.658-16.998-13.412-26.691-8.381-9.692 5.03-13.486 16.945-8.507 26.65z" fill="url(#SVGID_71_)"/></g><g><circle cx="341.391" cy="350.931" fill="url(#SVGID_72_)" r="19.831"/><path d="m347.352 369.843-12.103-37.765c-10.372 3.379-16.075 14.506-12.742 24.906s14.441 16.138 24.845 12.859z" fill="url(#SVGID_73_)"/></g><g><circle cx="360.275" cy="328.655" fill="url(#SVGID_74_)" r="19.831"/><path d="m380.054 330.055-39.571-2.608c-.665 10.888 7.591 20.278 18.488 20.996s20.314-7.508 21.083-18.388z" fill="url(#SVGID_75_)"/></g><g><circle cx="344.313" cy="302.86" fill="url(#SVGID_76_)" r="19.831"/><path d="m352.342 284.729-15.881 36.338c10.016 4.321 21.651-.259 26.024-10.266 4.373-10.006-.169-21.656-10.143-26.072z" fill="url(#SVGID_77_)"/></g><circle cx="334.185" cy="326.035" fill="url(#SVGID_78_)" r="10.059"/></g></g><g><path d="m463.74 363.039-215.612-215.612c-.7-2.735-3.175-4.76-6.128-4.76-3.498 0-5.333 2.836-5.333 6.333v73.333c0 2.954 1.025 5.428 3.76 6.128l157.935 157.935z" fill="url(#SVGID_79_)"/><path d="m483.14 356.11-42.29 15.11-174.09-174.09c-2.73-.7-3.76-3.18-3.76-6.13v-42c0-3.5 1.84-6.33 5.33-6.33 2.96 0 5.43 2.02 6.13 4.76z" fill="url(#SVGID_80_)"/><path d="m242 228.667c-3.498 0-6.333-2.836-6.333-6.333v-73.334c0-3.498 2.836-6.333 6.333-6.333 3.498 0 6.333 2.836 6.333 6.333v73.333c0 3.498-2.835 6.334-6.333 6.334z" fill="url(#SVGID_81_)"/><path d="m268 197.333c-3.498 0-6.333-2.836-6.333-6.333v-42c0-3.498 2.836-6.333 6.333-6.333 3.498 0 6.333 2.836 6.333 6.333v42c0 3.498-2.835 6.333-6.333 6.333z" fill="url(#SVGID_82_)"/></g></g></svg>