<svg id="Capa_1" enable-background="new 0 0 510 510" height="512" viewBox="0 0 510 510" width="512" xmlns="http://www.w3.org/2000/svg" xmlns:xlink="http://www.w3.org/1999/xlink"><linearGradient id="lg1"><stop offset="0" stop-color="#ffdecf"/><stop offset="1" stop-color="#faa68e"/></linearGradient><linearGradient id="SVGID_1_" gradientTransform="matrix(.707 .707 -.707 .707 -1445.448 575.614)" gradientUnits="userSpaceOnUse" x1="942.124" x2="1027.104" xlink:href="#lg1" y1="-1175.091" y2="-1175.091"/><linearGradient id="lg2"><stop offset="0" stop-color="#faa68e" stop-opacity="0"/><stop offset="1" stop-color="#d07972"/></linearGradient><linearGradient id="SVGID_2_" gradientTransform="matrix(.707 .707 -.707 .707 -1445.448 575.614)" gradientUnits="userSpaceOnUse" x1="1014.47" x2="963.201" xlink:href="#lg2" y1="-1171.967" y2="-1281.605"/><linearGradient id="SVGID_3_" gradientTransform="matrix(.707 .707 -.707 .707 -189.665 1032.359)" gradientUnits="userSpaceOnUse" x1="-305.677" x2="-76.815" y1="-992.452" y2="-682.926"><stop offset="0" stop-color="#c59b6d"/><stop offset="1" stop-color="#a57c52"/></linearGradient><linearGradient id="lg3"><stop offset="0" stop-color="#8c6239" stop-opacity="0"/><stop offset=".5198" stop-color="#734a23" stop-opacity=".52"/><stop offset="1" stop-color="#603813"/></linearGradient><linearGradient id="SVGID_4_" gradientTransform="matrix(.707 .707 -.707 .707 -189.665 1032.359)" gradientUnits="userSpaceOnUse" x1="-174.438" x2="-40.758" xlink:href="#lg3" y1="-1043.898" y2="-137.843"/><linearGradient id="SVGID_5_" gradientTransform="matrix(.707 .707 -.707 .707 -189.665 1032.359)" gradientUnits="userSpaceOnUse" x1="-233.848" x2="-233.848" xlink:href="#lg3" y1="-713.601" y2="-653.981"/><linearGradient id="SVGID_6_" gradientUnits="userSpaceOnUse" x1="361.056" x2="207.261" xlink:href="#lg3" y1="326.803" y2="65.847"/><linearGradient id="SVGID_7_" gradientUnits="userSpaceOnUse" x1="429.583" x2="307.891" xlink:href="#lg3" y1="326.124" y2="119.64"/><linearGradient id="SVGID_8_" gradientUnits="userSpaceOnUse" x1="293.84" x2="425.475" xlink:href="#lg1" y1="61.407" y2="379.58"/><linearGradient id="SVGID_9_" gradientUnits="userSpaceOnUse" x1="367.137" x2="233.187" xlink:href="#lg2" y1="149.112" y2="212.614"/><linearGradient id="SVGID_10_" gradientUnits="userSpaceOnUse" x1="452.158" x2="392.847" xlink:href="#lg2" y1="172.086" y2="200.203"/><g><g><g><path d="m13.072 498.911c-14.785-14.785-14.785-38.757 0-53.543l99.835-99.835 53.543 53.543-99.835 99.835c-14.786 14.785-38.758 14.785-53.543 0z" fill="url(#SVGID_1_)"/><path d="m94.922 363.517v107.086l71.527-71.527-53.542-53.543z" fill="url(#SVGID_2_)"/></g><g><path d="m160.612 431.553-80.183-80.183c-43.111-43.111-43.111-113.009 0-156.12l158.951-158.951c43.111-43.111 113.009-43.111 156.12 0l80.183 80.183c43.111 43.111 43.111 113.009 0 156.12l-158.95 158.951c-43.112 43.112-113.009 43.112-156.121 0z" fill="url(#SVGID_3_)"/><path d="m475.684 116.482-32.559-32.559c43.111 43.111 43.111 113.009 0 156.12l-158.951 158.951c-43.111 43.111-113.009 43.111-156.12 0l32.559 32.559c43.111 43.111 113.009 43.111 156.12 0l158.951-158.951c43.111-43.111 43.111-113.009 0-156.12z" fill="url(#SVGID_4_)"/><path d="m61.807 220.033c-23.142 41.953-16.955 95.76 18.622 131.337l80.183 80.183c35.577 35.577 89.384 41.764 131.337 18.622z" fill="url(#SVGID_5_)"/></g></g><path d="m193.482 454.237c40.593 18.199 89.924 10.643 123.251-22.684l158.951-158.951c36.815-36.814 42.185-93.158 16.124-135.679h-298.326z" fill="url(#SVGID_6_)"/><path d="m475.684 272.602c36.815-36.814 42.185-93.158 16.124-135.679h-174.298v293.853z" fill="url(#SVGID_7_)"/><path d="m508.017 190.573v41.366c0 10.2-4.137 19.448-10.825 26.125-5.646 5.656-13.137 9.486-21.482 10.537-2.014.25-4.08.343-6.199.256-19.907-.822-35.395-17.695-35.395-37.619v-8.12c0-5.993-2.431-11.421-6.35-15.35-3.929-3.919-9.357-6.35-15.35-6.35-11.976 0-21.7 9.714-21.7 21.7v50.842c0 10.21-4.138 19.438-10.815 26.125-6.908 6.908-16.537 11.095-27.137 10.812-20.108-.538-35.939-17.429-35.939-37.545v-66.1c0-6.965-2.828-13.266-7.392-17.83-4.661-4.65-11.132-7.501-18.272-7.378-13.846.237-24.77 11.933-24.77 25.782v12.207c0 10.2-4.137 19.448-10.825 26.125-6.908 6.908-16.537 11.095-27.138 10.812-20.108-.538-35.938-17.429-35.938-37.545v-73.883c0-42.461 16.868-83.184 46.892-113.208 43.11-43.11 113.006-43.11 156.117 0l80.182 80.182c21.561 21.55 32.336 49.808 32.336 78.057z" fill="url(#SVGID_8_)"/><path d="m395.499 32.333c-21.735-21.735-50.278-32.505-78.764-32.324v205.188c.055.679.091 1.363.091 2.056v66.1c0 20.116 15.83 37.007 35.939 37.545 10.6.284 20.229-3.904 27.137-10.812 6.678-6.688 10.815-15.915 10.815-26.125v-50.842c0-11.986 9.724-21.7 21.7-21.7 5.993 0 11.42 2.431 15.35 6.35 3.919 3.929 6.35 9.357 6.35 15.35v8.12c0 19.924 15.488 36.797 35.395 37.619 2.119.087 4.185-.006 6.199-.256 8.345-1.052 15.836-4.882 21.482-10.537 6.688-6.678 10.825-15.925 10.825-26.125v-41.366c0-28.249-10.776-56.507-32.337-78.058z" fill="url(#SVGID_9_)"/><path d="m434.097 70.93v151.403c.009.261.02.521.02.784v8.12c0 19.924 15.488 36.797 35.395 37.619 2.119.087 4.185-.006 6.199-.256 8.345-1.052 15.836-4.882 21.482-10.537 6.688-6.678 10.825-15.925 10.825-26.125v-41.366c0-28.249-10.776-56.507-32.337-78.058z" fill="url(#SVGID_10_)"/></g></svg>