<svg id="Capa_1" enable-background="new 0 0 510 510" height="512" viewBox="0 0 510 510" width="512" xmlns="http://www.w3.org/2000/svg" xmlns:xlink="http://www.w3.org/1999/xlink"><linearGradient id="lg1"><stop offset="0" stop-color="#ffda2d"/><stop offset="1" stop-color="#fdbf00"/></linearGradient><linearGradient id="SVGID_1_" gradientUnits="userSpaceOnUse" x1="202.987" x2="287.806" xlink:href="#lg1" y1="45.967" y2="130.786"/><linearGradient id="SVGID_2_" gradientUnits="userSpaceOnUse" x1="255" x2="255" xlink:href="#lg1" y1="106.974" y2="-96.402"/><linearGradient id="lg2"><stop offset="0" stop-color="#ff9100" stop-opacity="0"/><stop offset="1" stop-color="#ff9100"/></linearGradient><linearGradient id="SVGID_3_" gradientUnits="userSpaceOnUse" x1="316.953" x2="316.953" xlink:href="#lg2" y1="75.614" y2="108.384"/><linearGradient id="SVGID_4_" gradientUnits="userSpaceOnUse" x1="193.047" x2="193.047" xlink:href="#lg2" y1="75.614" y2="108.384"/><linearGradient id="SVGID_5_" gradientUnits="userSpaceOnUse" x1="170.507" x2="170.507" xlink:href="#lg1" y1="102.169" y2="122.509"/><linearGradient id="SVGID_6_" gradientUnits="userSpaceOnUse" x1="339.494" x2="339.494" xlink:href="#lg1" y1="102.169" y2="122.509"/><linearGradient id="SVGID_7_" gradientUnits="userSpaceOnUse" x1="206.88" x2="479.528" y1="256.318" y2="528.966"><stop offset="0" stop-color="#c59b6d"/><stop offset="1" stop-color="#a57c52"/></linearGradient><linearGradient id="lg3"><stop offset="0" stop-color="#edf5ff"/><stop offset="1" stop-color="#d5e8fe"/></linearGradient><linearGradient id="SVGID_8_" gradientUnits="userSpaceOnUse" x1="63.249" x2="63.249" xlink:href="#lg3" y1="293.008" y2="362.559"/><linearGradient id="SVGID_9_" gradientUnits="userSpaceOnUse" x1="100.924" x2="58.924" xlink:href="#lg3" y1="374.888" y2="334.888"/><linearGradient id="SVGID_10_" gradientTransform="matrix(-.055 .999 -.999 -.055 793.325 -3.353)" gradientUnits="userSpaceOnUse" x1="398.249" x2="398.249" xlink:href="#lg3" y1="331.008" y2="400.559"/><linearGradient id="SVGID_11_" gradientTransform="matrix(-.055 .999 -.999 -.055 793.325 -3.353)" gradientUnits="userSpaceOnUse" x1="435.924" x2="393.924" xlink:href="#lg3" y1="412.888" y2="372.888"/><linearGradient id="lg4"><stop offset="0" stop-color="#8c6239" stop-opacity="0"/><stop offset=".5198" stop-color="#734a23" stop-opacity=".52"/><stop offset="1" stop-color="#603813"/></linearGradient><linearGradient id="SVGID_12_" gradientUnits="userSpaceOnUse" x1="261.241" x2="-116.93" xlink:href="#lg4" y1="173.064" y2="-254.827"/><linearGradient id="lg5"><stop offset="0" stop-color="#ff819c"/><stop offset=".2594" stop-color="#ff7e9a"/><stop offset=".4757" stop-color="#fe7396"/><stop offset=".6765" stop-color="#fc628e"/><stop offset=".8668" stop-color="#fa4a83"/><stop offset="1" stop-color="#f83479"/></linearGradient><linearGradient id="SVGID_13_" gradientUnits="userSpaceOnUse" x1="282" x2="347.72" xlink:href="#lg5" y1="230" y2="295.72"/><linearGradient id="SVGID_14_" gradientUnits="userSpaceOnUse" x1="383.667" x2="265.439" xlink:href="#lg5" y1="331.667" y2="213.439"/><linearGradient id="SVGID_15_" gradientUnits="userSpaceOnUse" x1="133" x2="198.72" xlink:href="#lg1" y1="363" y2="428.72"/><linearGradient id="SVGID_16_" gradientUnits="userSpaceOnUse" x1="234.667" x2="116.439" xlink:href="#lg1" y1="464.667" y2="346.439"/><linearGradient id="SVGID_17_" gradientUnits="userSpaceOnUse" x1="251.61" x2="102.177" xlink:href="#lg4" y1="304.438" y2="304.438"/><linearGradient id="SVGID_18_" gradientUnits="userSpaceOnUse" x1="464.049" x2="314.616" xlink:href="#lg4" y1="304.438" y2="304.438"/><linearGradient id="SVGID_19_" gradientUnits="userSpaceOnUse" x1="255" x2="255" xlink:href="#lg4" y1="415.178" y2="549.723"/><linearGradient id="SVGID_20_" gradientUnits="userSpaceOnUse" x1="23.75" x2="54.839" xlink:href="#lg1" y1="141.742" y2="172.83"/><linearGradient id="SVGID_21_" gradientTransform="matrix(-1 0 0 -1 725.307 943.11)" gradientUnits="userSpaceOnUse" x1="239.057" x2="270.146" xlink:href="#lg1" y1="475.975" y2="507.063"/><linearGradient id="SVGID_22_" gradientTransform="matrix(1 0 0 -1 0 510)" gradientUnits="userSpaceOnUse" x1="23.75" x2="54.839" xlink:href="#lg1" y1="42.865" y2="73.953"/><linearGradient id="SVGID_23_" gradientTransform="matrix(-1 0 0 1 725.307 -433.11)" gradientUnits="userSpaceOnUse" x1="239.057" x2="270.146" xlink:href="#lg1" y1="574.851" y2="605.94"/><linearGradient id="lg6"><stop offset="0" stop-color="#9b62cd"/><stop offset="1" stop-color="#833ac1"/></linearGradient><linearGradient id="SVGID_24_" gradientUnits="userSpaceOnUse" x1="115.209" x2="170.956" xlink:href="#lg6" y1="286.151" y2="317.038"/><linearGradient id="lg7"><stop offset="0" stop-color="#07485e" stop-opacity="0"/><stop offset=".3884" stop-color="#05394a" stop-opacity=".388"/><stop offset="1" stop-color="#03232e"/></linearGradient><linearGradient id="SVGID_25_" gradientUnits="userSpaceOnUse" x1="148.216" x2="148.216" xlink:href="#lg7" y1="464.897" y2="518.007"/><linearGradient id="SVGID_26_" gradientUnits="userSpaceOnUse" x1="328.778" x2="384.525" xlink:href="#lg6" y1="286.151" y2="317.038"/><linearGradient id="SVGID_27_" gradientUnits="userSpaceOnUse" x1="361.784" x2="361.784" xlink:href="#lg7" y1="464.897" y2="518.007"/><g><g><path d="m345.65 123.683h-32.92v-13.918c0-31.833-25.898-57.731-57.731-57.731s-57.731 25.898-57.731 57.731v13.918h-32.92v-13.918c0-49.985 40.666-90.65 90.65-90.65 49.985 0 90.65 40.666 90.65 90.65v13.918z" fill="url(#SVGID_1_)"/><path d="m255 36.939c-41.465 0-75.199 33.734-75.199 75.199v11.545h17.468v-13.918c0-31.833 25.898-57.731 57.731-57.731s57.731 25.898 57.731 57.731v13.918h17.468v-11.545c0-41.465-33.735-75.199-75.199-75.199z" fill="url(#SVGID_2_)"/></g><g><path d="m312.731 109.765v13.918h32.92v-13.918c0-17.257-4.851-33.4-13.255-47.146h-44.139c14.789 10.465 24.474 27.69 24.474 47.146z" fill="url(#SVGID_3_)"/><path d="m197.269 109.765c0-19.456 9.684-36.682 24.475-47.146h-44.139c-8.404 13.745-13.255 29.889-13.255 47.146v13.918h32.92v-13.918z" fill="url(#SVGID_4_)"/></g><g><path d="m201.77 129.289h-62.526v-13.319c0-6.79 5.504-12.295 12.295-12.295h37.937c6.79 0 12.295 5.504 12.295 12.295v13.319z" fill="url(#SVGID_5_)"/><path d="m370.757 129.289h-62.527v-13.319c0-6.79 5.504-12.295 12.295-12.295h37.937c6.79 0 12.295 5.504 12.295 12.295z" fill="url(#SVGID_6_)"/></g><path d="m475.785 484.946h-441.57c-15.198 0-27.519-12.32-27.519-27.519v-305.978c0-15.198 12.32-27.519 27.519-27.519h441.57c15.198 0 27.519 12.32 27.519 27.519v305.978c0 15.198-12.321 27.519-27.519 27.519z" fill="url(#SVGID_7_)"/><g><path d="m66.625 290.988-49.883 55.108c-4.606 5.089-2.232 13.247 4.385 15.07l79.337 21.853c7.284 2.006 13.755-5.123 11.055-12.179l-29.455-76.962c-2.457-6.42-10.826-7.987-15.439-2.89z" fill="url(#SVGID_8_)"/><path d="m66.708 310.203-31.404 34.694c-2.9 3.204-1.405 8.34 2.761 9.487l49.948 13.758c4.586 1.263 8.66-3.225 6.96-7.668l-18.543-48.452c-1.549-4.042-6.818-5.028-9.722-1.819z" fill="url(#SVGID_9_)"/></g><g><path d="m442.665 379.496-52.27-52.849c-4.827-4.88-13.103-2.96-15.289 3.546l-26.2 78.01c-2.405 7.162 4.356 14.017 11.55 11.71l78.471-25.16c6.546-2.1 8.573-10.369 3.738-15.257z" fill="url(#SVGID_10_)"/><path d="m423.475 378.517-32.907-33.272c-3.039-3.072-8.249-1.864-9.625 2.233l-16.495 49.112c-1.514 4.509 2.742 8.825 7.272 7.372l49.402-15.84c4.121-1.321 5.397-6.527 2.353-9.605z" fill="url(#SVGID_11_)"/></g><path d="m503.305 151.448v305.98c0 15.198-12.317 27.515-27.515 27.515h-175.138l-293.957-293.968v-39.527c0-15.199 12.317-27.515 27.515-27.515h441.58c15.198 0 27.515 12.317 27.515 27.515z" fill="url(#SVGID_12_)"/><g><circle cx="321" cy="269" fill="url(#SVGID_13_)" r="57"/><circle cx="321" cy="269" fill="url(#SVGID_14_)" r="38.439"/></g><g><circle cx="172" cy="402" fill="url(#SVGID_15_)" r="57"/><circle cx="172" cy="402" fill="url(#SVGID_16_)" r="38.439"/></g><path d="m138.611 484.946h131.644v-271.849l-89.166-89.166h-42.478z" fill="url(#SVGID_17_)"/><path d="m351.049 484.946h131.645v-271.849l-89.167-89.166h-42.478z" fill="url(#SVGID_18_)"/><path d="m6.696 348.508v108.919c0 15.198 12.32 27.518 27.519 27.518h441.57c15.198 0 27.519-12.32 27.519-27.518v-108.919z" fill="url(#SVGID_19_)"/><g><g><path d="m58.474 156.974c10.765 0 19.491-8.727 19.491-19.491 0-10.765-8.727-19.491-19.491-19.491h-38.983c-10.764-.001-19.491 8.726-19.491 19.491v38.983c0 10.765 8.727 19.491 19.491 19.491 10.765 0 19.491-8.727 19.491-19.491.001-10.765 8.727-19.492 19.492-19.492z" fill="url(#SVGID_20_)"/><path d="m451.526 451.902c-10.765 0-19.491 8.727-19.491 19.491 0 10.765 8.727 19.491 19.491 19.491h38.983c10.765 0 19.491-8.727 19.491-19.491v-38.983c0-10.765-8.727-19.491-19.491-19.491-10.765 0-19.491 8.727-19.491 19.491-.001 10.766-8.727 19.492-19.492 19.492z" fill="url(#SVGID_21_)"/></g><g><path d="m58.474 451.902c10.765 0 19.491 8.727 19.491 19.491 0 10.765-8.727 19.491-19.491 19.491h-38.983c-10.764.001-19.491-8.725-19.491-19.49v-38.983c0-10.765 8.727-19.491 19.491-19.491 10.765 0 19.491 8.727 19.491 19.491.001 10.765 8.727 19.491 19.492 19.491z" fill="url(#SVGID_22_)"/><path d="m451.526 156.974c-10.765 0-19.491-8.727-19.491-19.491 0-10.765 8.727-19.491 19.491-19.491h38.983c10.765 0 19.491 8.727 19.491 19.491v38.983c0 10.765-8.727 19.491-19.491 19.491-10.765 0-19.491-8.727-19.491-19.491-.001-10.765-8.727-19.492-19.492-19.492z" fill="url(#SVGID_23_)"/></g></g><g><g><path d="m173.565 490.134h-50.7c-4.514 0-8.173-3.659-8.173-8.173v-355.045c0-4.514 3.659-8.173 8.173-8.173h50.7c4.514 0 8.173 3.659 8.173 8.173v355.045c.001 4.514-3.659 8.173-8.173 8.173z" fill="url(#SVGID_24_)"/><path d="m114.692 413.294v68.666c0 4.514 3.659 8.173 8.173 8.173h50.7c4.514 0 8.173-3.659 8.173-8.173v-68.666z" fill="url(#SVGID_25_)"/></g><g><path d="m387.134 490.134h-50.7c-4.514 0-8.173-3.659-8.173-8.173v-355.045c0-4.514 3.659-8.173 8.173-8.173h50.7c4.514 0 8.173 3.659 8.173 8.173v355.045c.001 4.514-3.659 8.173-8.173 8.173z" fill="url(#SVGID_26_)"/><path d="m328.261 413.294v68.666c0 4.514 3.659 8.173 8.173 8.173h50.7c4.514 0 8.173-3.659 8.173-8.173v-68.666z" fill="url(#SVGID_27_)"/></g></g></g></svg>