<svg id="Capa_1" enable-background="new 0 0 510 510" height="512" viewBox="0 0 510 510" width="512" xmlns="http://www.w3.org/2000/svg" xmlns:xlink="http://www.w3.org/1999/xlink"><linearGradient id="SVGID_1_" gradientUnits="userSpaceOnUse" x1="226" x2="299.246" y1="215.5" y2="215.5"><stop offset="0" stop-color="#c59b6d"/><stop offset="1" stop-color="#a57c52"/></linearGradient><linearGradient id="lg1"><stop offset="0" stop-color="#8c6239" stop-opacity="0"/><stop offset=".5198" stop-color="#734a23" stop-opacity=".52"/><stop offset="1" stop-color="#603813"/></linearGradient><linearGradient id="SVGID_2_" gradientUnits="userSpaceOnUse" x1="273.824" x2="108.824" xlink:href="#lg1" y1="312.842" y2="249.842"/><linearGradient id="SVGID_3_" gradientUnits="userSpaceOnUse" x1="290.536" x2="242.536" xlink:href="#lg1" y1="274.381" y2="184.381"/><linearGradient id="SVGID_4_" gradientUnits="userSpaceOnUse" x1="255" x2="255" xlink:href="#lg1" y1="23" y2="49.019"/><linearGradient id="SVGID_5_" gradientUnits="userSpaceOnUse" x1="320.991" x2="342.14" y1="427.146" y2="506.859"><stop offset="0" stop-color="#ffdecf"/><stop offset=".3591" stop-color="#fdc5b2"/><stop offset=".7611" stop-color="#fbae98"/><stop offset="1" stop-color="#faa68e"/></linearGradient><linearGradient id="SVGID_6_" gradientUnits="userSpaceOnUse" x1="65.149" x2="334.79" y1="372.49" y2="534.763"><stop offset="0" stop-color="#ffdecf"/><stop offset="1" stop-color="#faa68e"/></linearGradient><linearGradient id="SVGID_7_" gradientUnits="userSpaceOnUse" x1="245.534" x2="157.687" y1="396.728" y2="306.441"><stop offset="0" stop-color="#faa68e" stop-opacity="0"/><stop offset="1" stop-color="#faa68e"/></linearGradient><linearGradient id="SVGID_8_" gradientUnits="userSpaceOnUse" x1="255" x2="255" y1="471.199" y2="504.198"><stop offset="0" stop-color="#faa68e" stop-opacity="0"/><stop offset="1" stop-color="#d07972"/></linearGradient><linearGradient id="lg2"><stop offset="0" stop-color="#ffda2d"/><stop offset="1" stop-color="#fdbf00"/></linearGradient><linearGradient id="SVGID_9_" gradientUnits="userSpaceOnUse" x1="255" x2="255" xlink:href="#lg2" y1="67" y2="204.058"/><linearGradient id="SVGID_10_" gradientUnits="userSpaceOnUse" x1="155.435" x2="155.435" xlink:href="#lg2" y1="125" y2="79.602"/><linearGradient id="SVGID_11_" gradientUnits="userSpaceOnUse" x1="325.307" x2="325.307" xlink:href="#lg2" y1="179.916" y2="144.055"/><linearGradient id="lg3"><stop offset="0" stop-color="#ff9100" stop-opacity="0"/><stop offset="1" stop-color="#ff9100"/></linearGradient><linearGradient id="SVGID_12_" gradientUnits="userSpaceOnUse" x1="244.938" x2="244.938" xlink:href="#lg3" y1="182" y2="235"/><linearGradient id="SVGID_13_" gradientUnits="userSpaceOnUse" x1="187.318" x2="61.03" xlink:href="#lg3" y1="216.602" y2="90.314"/><linearGradient id="SVGID_14_" gradientUnits="userSpaceOnUse" x1="236.068" x2="129.525" xlink:href="#lg3" y1="200.63" y2="94.087"/><linearGradient id="SVGID_15_" gradientUnits="userSpaceOnUse" x1="289.164" x2="183.741" xlink:href="#lg3" y1="204.857" y2="99.434"/><linearGradient id="SVGID_16_" gradientUnits="userSpaceOnUse" x1="356.601" x2="255.549" xlink:href="#lg3" y1="199.95" y2="98.898"/><linearGradient id="SVGID_17_" gradientUnits="userSpaceOnUse" x1="407.022" x2="317.79" xlink:href="#lg3" y1="187.71" y2="98.478"/><linearGradient id="lg4"><stop offset="0" stop-color="#9b62cd"/><stop offset=".3003" stop-color="#985dcb"/><stop offset=".6716" stop-color="#8f4ec7"/><stop offset="1" stop-color="#833ac1"/></linearGradient><linearGradient id="SVGID_18_" gradientUnits="userSpaceOnUse" x1="108.556" x2="123.89" xlink:href="#lg4" y1="134.794" y2="207.461"/><linearGradient id="SVGID_19_" gradientUnits="userSpaceOnUse" x1="168.339" x2="183.672" xlink:href="#lg4" y1="122.179" y2="194.846"/><linearGradient id="SVGID_20_" gradientUnits="userSpaceOnUse" x1="217.877" x2="233.21" xlink:href="#lg4" y1="111.726" y2="184.393"/><linearGradient id="SVGID_21_" gradientUnits="userSpaceOnUse" x1="284.903" x2="300.236" xlink:href="#lg4" y1="97.583" y2="170.25"/><linearGradient id="SVGID_22_" gradientUnits="userSpaceOnUse" x1="344.416" x2="359.749" xlink:href="#lg4" y1="85.025" y2="157.692"/><g><g><path d="m283 431h-56v-403c0-15.464 12.536-28 28-28 15.464 0 28 12.536 28 28z" fill="url(#SVGID_1_)"/><path d="m255 191h28v240h-28z" fill="url(#SVGID_2_)"/><path d="m227 224.5 56 56v-89.5h-56z" fill="url(#SVGID_3_)"/></g><path d="m255 0c-15.464 0-28 12.536-28 28v37h56v-37c0-15.464-12.536-28-28-28z" fill="url(#SVGID_4_)"/><g><path d="m498.202 506.34v.647c-3.38 1.915-7.296 3.014-11.457 3.014h-302.413c-.061-1.22-.098-2.44-.098-3.66 0-41.142 35.981-76.707 88.201-93.606 20.778-6.735 44.119-10.505 68.789-10.505 63.665 0 118.484 25.134 143.117 61.261 8.907 13.066 13.861 27.573 13.861 42.849z" fill="url(#SVGID_5_)"/><path d="m17.013 380.661c84.465-23.54 174.806-12.817 251.415 29.84l12.021 6.694c54.523 30.359 115.894 46.294 178.299 46.294h27.996c12.844 0 23.256 10.412 23.256 23.256 0 12.843-10.412 23.255-23.256 23.255h-463.488c-12.844 0-23.256-10.412-23.256-23.256v-83.681c0-10.439 6.956-19.599 17.013-22.402z" fill="url(#SVGID_6_)"/><path d="m486.744 463.489h-27.996c-62.405 0-123.776-15.934-178.299-46.293l-12.022-6.694c-42.14-23.464-88.435-37.254-135.622-41.001-20.303-1.612-37.638 14.53-37.638 34.897 0 39.455 31.985 71.44 71.44 71.44h340.672c-3.909-7.345-11.634-12.349-20.535-12.349z" fill="url(#SVGID_7_)"/><path d="m0 486.744c0 12.844 10.412 23.256 23.256 23.256h463.489c12.843 0 23.255-10.412 23.255-23.256s-10.412-23.256-23.256-23.256h-27.996c-38.433 0-76.472-6.053-112.763-17.788h-345.985z" fill="url(#SVGID_8_)"/></g><g><path d="m372.592 225h-294.333c-11.639 0-21.074-9.435-21.074-21.074v-135.852c0-11.639 9.435-21.074 21.074-21.074h294.333c6.095 0 11.891 2.638 15.893 7.235l59.149 67.926c6.908 7.933 6.908 19.745 0 27.679l-59.149 67.926c-4.002 4.596-9.799 7.234-15.893 7.234z" fill="url(#SVGID_9_)"/><path d="m57.185 136.5h80.555c12.451 0 24.391-4.946 33.195-13.75 8.804-8.804 20.745-13.75 33.195-13.75h33.555c8.837 0 16-7.163 16-16 0-8.837-7.163-16-16-16h-180.5z" fill="url(#SVGID_10_)"/><path d="m198.685 165.5c0 12.979 10.521 23.5 23.5 23.5h191.348l34.101-39.161c2.038-2.341 3.458-5.023 4.294-7.839h-229.743c-12.979 0-23.5 10.521-23.5 23.5z" fill="url(#SVGID_11_)"/><path d="m57.185 167v36.926c0 11.639 9.435 21.074 21.074 21.074h294.333c6.094 0 11.891-2.638 15.893-7.235l44.206-50.765z" fill="url(#SVGID_12_)"/></g><path d="m253.14 225h-114.48l-50.31-50.31c-2.36-.87-2.73-2.58-2.73-4.46v-68.35c0-3.44 2.65-4.16 6.3-4.16h22.03c7.18 0 14.35.73 18.32 6.42l13.82 13.82z" fill="url(#SVGID_13_)"/><path d="m320.7 225h-120.55l-50.32-50.32c-2.14-.77-2.74-2.29-2.74-4.56v-68.24c0-3.44 2.65-4.16 6.3-4.16h38.26c2.33 0 3.78.64 4.5 2.73z" fill="url(#SVGID_14_)"/><path d="m364.36 225h-110.29l-51.52-51.53c-2.25-1.23-2.91-3-2.91-5.07 0-.32.1-.75.21-1.18l14.97-49.1 5.02-16.45c1.18-3.77 5.02-4.59 9.96-4.59 4.75 0 9.39.69 10.8 4.16l25.85 25.85z" fill="url(#SVGID_15_)"/><path d="m406.41 197.17-17.93 20.6c-2.22 2.55-4.99 4.49-8.06 5.72-2.46.99-5.11 1.51-7.83 1.51h-43.53l-54.11-54.11c-5.2-3.98-7.5-10.52-7.5-20.33v-28.48c0-18.48 10.71-24.36 24.79-24.36 10.03 0 18.45 2.3 23.1 8.38l12.36 12.36z" fill="url(#SVGID_16_)"/><path d="m440.03 158.57-33.62 38.6-17.93 20.6c-2.22 2.55-4.99 4.49-8.06 5.72l-49.01-49.01c-2.15-.82-2.71-2.27-2.71-4.36v-68.35c0-3.54 3.19-4.05 7.38-4.05 3.92 0 7.83.32 8.33 3.38l22.44 21.66v-20.99c0-3.54 3.19-4.05 7.38-4.05 3.92 0 7.83.32 8.33 3.38z" fill="url(#SVGID_17_)"/><g><path d="m126.311 132.723c5.696-2.472 9.135-8.168 9.135-16.872 0-15.26-10.746-19.129-21.493-19.129h-22.03c-3.654 0-7.308 1.719-7.308 5.158v68.346c0 2.687 2.794 5.051 7.308 5.051h23.857c12.143 0 21.6-6.126 21.6-23.105v-2.256c0-10.746-4.514-14.722-11.069-17.193zm-25.039-21.386h11.284c4.083 0 6.125 3.761 6.125 7.522 0 3.654-2.042 7.415-6.125 7.415h-11.284zm19.344 39.439c0 6.878-3.224 9.887-8.597 9.887h-10.746v-21.493h10.746c5.373 0 8.597 2.579 8.597 9.887z" fill="url(#SVGID_18_)"/><path d="m191.65 111.337c3.224 0 5.051-3.439 5.051-7.415 0-3.439-1.505-7.2-5.051-7.2h-38.257c-3.654 0-7.308 1.719-7.308 5.158v68.239c0 3.439 3.654 5.159 7.308 5.159h38.257c3.546 0 5.051-3.761 5.051-7.2 0-3.976-1.827-7.415-5.051-7.415h-28.8v-18.269h16.119c3.546 0 5.051-3.439 5.051-6.341 0-3.439-1.827-6.555-5.051-6.555h-16.119v-18.161z" fill="url(#SVGID_19_)"/><path d="m240.761 101.665c-1.182-3.761-6.018-5.588-10.961-5.588s-9.779 1.827-10.961 5.588l-19.988 65.553c-.107.429-.215.86-.215 1.182 0 3.976 6.125 6.878 10.746 6.878 2.686 0 4.836-.86 5.481-3.116l3.654-13.433h22.675l3.654 13.433c.645 2.257 2.794 3.116 5.481 3.116 4.621 0 10.746-2.902 10.746-6.878 0-.322-.107-.753-.215-1.182zm-18.806 44.168 7.845-28.8 7.845 28.8z" fill="url(#SVGID_20_)"/><path d="m292.882 111.337c9.134 0 9.456 6.878 9.564 9.672.215 3.869 3.869 5.051 8.382 5.051 5.695 0 8.382-1.504 8.382-7.952 0-13.648-11.606-21.385-26.973-21.385-14.078 0-25.791 6.878-25.791 25.361v28.478c0 18.484 11.714 25.361 25.791 25.361 15.367 0 26.973-8.167 26.973-22.46 0-6.448-2.686-7.952-8.489-7.952-4.298 0-7.952 1.075-8.275 5.051-.322 4.191-.859 10.746-9.456 10.746-6.233 0-9.779-3.439-9.779-10.746v-28.478c-.001-7.308 3.545-10.747 9.671-10.747z" fill="url(#SVGID_21_)"/><path d="m374.233 96.722c-4.191 0-8.382 1.504-8.382 5.051v26.328h-21.385v-26.328c0-3.547-4.191-5.051-8.382-5.051s-8.382 1.504-8.382 5.051v68.346c0 3.439 4.191 5.159 8.382 5.159s8.382-1.72 8.382-5.159v-29.122h21.385v29.122c0 3.439 4.191 5.159 8.382 5.159s8.382-1.72 8.382-5.159v-68.346c0-3.547-4.191-5.051-8.382-5.051z" fill="url(#SVGID_22_)"/></g></g></svg>