<svg id="Capa_1" enable-background="new 0 0 510 510" height="512" viewBox="0 0 510 510" width="512" xmlns="http://www.w3.org/2000/svg" xmlns:xlink="http://www.w3.org/1999/xlink"><linearGradient id="lg1"><stop offset="0" stop-color="#76e2f8"/><stop offset="1" stop-color="#48b2e3"/></linearGradient><linearGradient id="SVGID_1_" gradientUnits="userSpaceOnUse" x1="433.223" x2="379.226" xlink:href="#lg1" y1="286.954" y2="391.949"/><linearGradient id="lg2"><stop offset="0" stop-color="#ffda2d"/><stop offset="1" stop-color="#fdbf00"/></linearGradient><linearGradient id="SVGID_2_" gradientUnits="userSpaceOnUse" x1="51.874" x2="213.866" xlink:href="#lg2" y1="145.801" y2="234.297"/><linearGradient id="lg3"><stop offset="0" stop-color="#ff9100" stop-opacity="0"/><stop offset="1" stop-color="#ff9100"/></linearGradient><linearGradient id="SVGID_3_" gradientUnits="userSpaceOnUse" x1="203.713" x2="152.213" xlink:href="#lg3" y1="59.488" y2="57.488"/><linearGradient id="SVGID_4_" gradientUnits="userSpaceOnUse" x1="161.862" x2="138.862" xlink:href="#lg3" y1="182.202" y2="130.202"/><linearGradient id="lg4"><stop offset="0" stop-color="#b9dd39"/><stop offset="1" stop-color="#90cc1c"/></linearGradient><linearGradient id="SVGID_5_" gradientUnits="userSpaceOnUse" x1="265.355" x2="265.355" xlink:href="#lg4" y1="121.132" y2="156.465"/><linearGradient id="SVGID_6_" gradientUnits="userSpaceOnUse" x1="161.862" x2="138.862" xlink:href="#lg3" y1="258.202" y2="206.202"/><linearGradient id="SVGID_7_" gradientUnits="userSpaceOnUse" x1="265.355" x2="265.355" xlink:href="#lg4" y1="197.132" y2="232.465"/><linearGradient id="SVGID_8_" gradientUnits="userSpaceOnUse" x1="161.862" x2="138.862" xlink:href="#lg3" y1="334.202" y2="282.202"/><linearGradient id="SVGID_9_" gradientUnits="userSpaceOnUse" x1="265.355" x2="265.355" xlink:href="#lg4" y1="273.132" y2="308.465"/><linearGradient id="SVGID_10_" gradientUnits="userSpaceOnUse" x1="302.874" x2="464.866" xlink:href="#lg2" y1="145.801" y2="234.297"/><linearGradient id="SVGID_11_" gradientUnits="userSpaceOnUse" x1="387.505" x2="387.505" xlink:href="#lg3" y1="331.333" y2="393.462"/><linearGradient id="SVGID_12_" gradientUnits="userSpaceOnUse" x1="454.713" x2="403.213" xlink:href="#lg3" y1="59.488" y2="57.488"/><linearGradient id="SVGID_13_" gradientUnits="userSpaceOnUse" x1="201.019" x2="313.962" xlink:href="#lg1" y1="308.7" y2="599.126"/><linearGradient id="SVGID_14_" gradientUnits="userSpaceOnUse" x1="255" x2="255" y1="465.269" y2="510"><stop offset="0" stop-color="#48b2e3" stop-opacity="0"/><stop offset=".4112" stop-color="#2995bf" stop-opacity=".411"/><stop offset=".7781" stop-color="#1381a6" stop-opacity=".778"/><stop offset="1" stop-color="#0b799d"/></linearGradient><g><path d="m510 354.161c0-16.975-11.845-31.594-28.42-35.258-24.278-5.367-51.579-8.381-80.444-8.381-101.063 0-182.991 36.935-182.991 82.496s81.928 82.496 182.991 82.496c40.78 0 78.44-6.016 108.864-16.184z" fill="url(#SVGID_1_)"/><g><g><path d="m136.505 417.482c-13.807 0-25-11.193-25-25v-318.734c0-40.665 33.083-73.748 73.747-73.748s73.748 33.083 73.748 73.748c0 13.808-11.193 25-25 25s-25-11.192-25-25c0-13.095-10.653-23.748-23.748-23.748s-23.748 10.653-23.748 23.748v318.734c.001 13.807-11.192 25-24.999 25z" fill="url(#SVGID_2_)"/><path d="m185.252 50c13.095 0 23.748 10.653 23.748 23.748 0 13.79 11.164 24.971 24.946 25 14.135.03 25.269-12.054 25.044-26.187-.099-6.23-.974-12.274-2.534-18.04-5.236-19.365-22.942-32.723-43.002-32.723-28.691 0-51.95 23.259-51.95 51.95.001-13.095 10.654-23.748 23.748-23.748z" fill="url(#SVGID_3_)"/></g><g><path d="m161.505 152.965h-25.151l25.151 25.15z" fill="url(#SVGID_4_)"/><path d="m378.355 159.465h-226c-12.15 0-22-9.85-22-22 0-12.15 9.85-22 22-22h226c12.15 0 22 9.85 22 22-.001 12.15-9.85 22-22 22z" fill="url(#SVGID_5_)"/></g><g><path d="m161.505 228.965h-25.151l25.151 25.15z" fill="url(#SVGID_6_)"/><path d="m378.355 235.465h-226c-12.15 0-22-9.85-22-22 0-12.15 9.85-22 22-22h226c12.15 0 22 9.85 22 22-.001 12.15-9.85 22-22 22z" fill="url(#SVGID_7_)"/></g><g><path d="m161.505 304.965h-25.151l25.151 25.15z" fill="url(#SVGID_8_)"/><path d="m378.355 311.465h-226c-12.15 0-22-9.85-22-22 0-12.15 9.85-22 22-22h226c12.15 0 22 9.85 22 22-.001 12.15-9.85 22-22 22z" fill="url(#SVGID_9_)"/></g><g><path d="m387.505 417.482c-13.807 0-25-11.193-25-25v-318.734c0-40.665 33.083-73.748 73.747-73.748s73.748 33.083 73.748 73.748c0 13.808-11.193 25-25 25s-25-11.192-25-25c0-13.095-10.653-23.748-23.748-23.748s-23.748 10.653-23.748 23.748v318.734c.001 13.807-11.192 25-24.999 25z" fill="url(#SVGID_10_)"/><path d="m362.505 311.333v81.149c0 13.807 11.193 25 25 25s25-11.193 25-25v-81.149z" fill="url(#SVGID_11_)"/><path d="m436.252 50c13.095 0 23.748 10.653 23.748 23.748 0 13.79 11.164 24.971 24.946 25 14.135.03 25.269-12.054 25.044-26.187-.099-6.23-.974-12.274-2.534-18.04-5.236-19.365-22.942-32.723-43.002-32.723-28.691 0-51.95 23.259-51.95 51.95.001-13.095 10.654-23.748 23.748-23.748z" fill="url(#SVGID_12_)"/></g></g><g><g><path d="m510 410.079v74.443c0 14.071-11.407 25.478-25.478 25.478h-459.044c-14.071 0-25.478-11.407-25.478-25.478v-158.123c0-10.44 6.96-19.6 17.01-22.4 84.47-23.54 174.81-12.82 251.42 29.84l12.02 6.69c54.52 30.36 115.89 46.29 178.3 46.29h27.99c12.85 0 23.26 10.42 23.26 23.26z" fill="url(#SVGID_13_)"/><path d="m0 446.999v37.523c0 14.071 11.407 25.478 25.478 25.478h459.044c14.071 0 25.478-11.407 25.478-25.478v-37.523z" fill="url(#SVGID_14_)"/></g></g></g></svg>