<svg id="Capa_1" enable-background="new 0 0 510 510" height="512" viewBox="0 0 510 510" width="512" xmlns="http://www.w3.org/2000/svg" xmlns:xlink="http://www.w3.org/1999/xlink"><linearGradient id="lg1"><stop offset="0" stop-color="#edf5ff"/><stop offset="1" stop-color="#d5e8fe"/></linearGradient><linearGradient id="SVGID_1_" gradientUnits="userSpaceOnUse" x1="234.003" x2="287.426" xlink:href="#lg1" y1="354.405" y2="369.143"/><linearGradient id="lg2"><stop offset="0" stop-color="#b5dbff" stop-opacity="0"/><stop offset=".2428" stop-color="#93cef6" stop-opacity=".243"/><stop offset=".5763" stop-color="#6abfec" stop-opacity=".576"/><stop offset=".8403" stop-color="#51b5e5" stop-opacity=".84"/><stop offset="1" stop-color="#48b2e3"/></linearGradient><linearGradient id="SVGID_2_" gradientUnits="userSpaceOnUse" x1="274.819" x2="226.733" xlink:href="#lg2" y1="310.899" y2="138.804"/><linearGradient id="SVGID_3_" gradientUnits="userSpaceOnUse" x1="248.16" x2="273.295" xlink:href="#lg1" y1="481.993" y2="551.112"/><linearGradient id="SVGID_4_" gradientUnits="userSpaceOnUse" x1="255" x2="255" xlink:href="#lg2" y1="489.904" y2="522.992"/><linearGradient id="SVGID_5_" gradientUnits="userSpaceOnUse" x1="237.096" x2="392.247" xlink:href="#lg1" y1="31.18" y2="186.33"/><linearGradient id="SVGID_6_" gradientUnits="userSpaceOnUse" x1="260.969" x2="280.981" xlink:href="#lg2" y1="185.888" y2="290.799"/><linearGradient id="SVGID_7_" gradientUnits="userSpaceOnUse" x1="255" x2="255" xlink:href="#lg1" y1="-4.908" y2="85.266"/><linearGradient id="SVGID_8_" gradientUnits="userSpaceOnUse" x1="255" x2="255" xlink:href="#lg2" y1="8.63" y2="83.114"/><linearGradient id="lg3"><stop offset="0" stop-color="#ffda2d"/><stop offset="1" stop-color="#fdbf00"/></linearGradient><linearGradient id="SVGID_9_" gradientUnits="userSpaceOnUse" x1="242.574" x2="350.258" xlink:href="#lg3" y1="94.55" y2="202.235"/><linearGradient id="SVGID_10_" gradientUnits="userSpaceOnUse" x1="255" x2="255" xlink:href="#lg3" y1="77.976" y2="133.863"/><linearGradient id="lg4"><stop offset="0" stop-color="#ff9100" stop-opacity="0"/><stop offset="1" stop-color="#ff9100"/></linearGradient><linearGradient id="SVGID_11_" gradientUnits="userSpaceOnUse" x1="255" x2="255" xlink:href="#lg4" y1="194.823" y2="237.273"/><linearGradient id="SVGID_12_" gradientUnits="userSpaceOnUse" x1="210.748" x2="202.321" xlink:href="#lg4" y1="94.249" y2="102.677"/><linearGradient id="SVGID_13_" gradientUnits="userSpaceOnUse" x1="226.537" x2="291.626" y1="114.291" y2="202.83"><stop offset="0" stop-color="#b9dd39" stop-opacity="0"/><stop offset="1" stop-color="#90cc1c"/></linearGradient><linearGradient id="SVGID_14_" gradientUnits="userSpaceOnUse" x1="266.475" x2="291.945" xlink:href="#lg4" y1="176.395" y2="182.055"/><g><g><path d="m328.015 481.499c-24.494-7.917-41.09-30.723-41.09-56.465v-197.473h-63.85v197.473c0 25.742-16.596 48.548-41.09 56.465z" fill="url(#SVGID_1_)"/><path d="m223.075 252.376 63.85 63.849v-88.664h-63.85z" fill="url(#SVGID_2_)"/><path d="m356.057 510h-202.114c-4.249 0-7.694-3.445-7.694-7.694 0-13.641 11.058-24.698 24.698-24.698h168.105c13.641 0 24.698 11.058 24.698 24.698.001 4.249-3.444 7.694-7.693 7.694z" fill="url(#SVGID_3_)"/><path d="m356.057 510h-202.114c-4.249 0-7.694-3.445-7.694-7.694 0-13.641 11.058-24.698 24.698-24.698h168.105c13.641 0 24.698 11.058 24.698 24.698.001 4.249-3.444 7.694-7.693 7.694z" fill="url(#SVGID_4_)"/></g><g><g><path d="m255 32.504h-239.179s74.415 139.265 205.119 218.286c20.929 12.654 47.191 12.654 68.12 0 130.704-79.021 205.119-218.286 205.119-218.286z" fill="url(#SVGID_5_)"/><path d="m105.509 154.597c31.122 33.75 69.848 68.635 115.431 96.193 20.929 12.654 47.191 12.654 68.12 0 45.583-27.559 84.309-62.443 115.431-96.193z" fill="url(#SVGID_6_)"/><g><path d="m493.763 32.504c0-43.339-477.526-43.339-477.526 0s477.526 43.339 477.526 0z" fill="url(#SVGID_7_)"/><path d="m466.893 29.524c0-27.859-423.786-27.859-423.786 0s423.786 27.86 423.786 0z" fill="url(#SVGID_8_)"/></g></g><path d="m255 101.162h-171.699s53.42 86.312 147.248 135.287c15.024 7.842 33.877 7.842 48.901 0 93.828-48.975 147.248-135.287 147.248-135.287z" fill="url(#SVGID_9_)"/><path d="m426.4 101.162c0-26.86-342.8-26.86-342.8 0s342.8 26.86 342.8 0z" fill="url(#SVGID_10_)"/><path d="m374.367 165.108h-238.734c24.081 24.325 56.023 51.04 94.917 71.341 15.024 7.842 33.876 7.842 48.901 0 38.893-20.301 70.836-47.015 94.916-71.341z" fill="url(#SVGID_11_)"/><g><path d="m220.575 105.476c-2.474 1.467-4.779 3.25-6.877 5.336-1.031 1.031-1.989 2.122-2.85 3.251-4.063-4.354-7.944-8.914-11.607-13.669-1.577-2.086-3.129-4.197-4.633-6.355-2.583-3.736 1.989-8.235 5.676-5.604 2.147 1.54 4.233 3.117 6.295 4.73 4.887 3.882 9.544 7.981 13.996 12.311z" fill="url(#SVGID_12_)"/><g><path d="m283.427 118.721c21.436 21.436 24.975 52.653 7.904 69.724s-48.288 13.533-69.724-7.904-24.975-52.653-7.903-69.724 48.287-13.533 69.723 7.904z" fill="url(#SVGID_13_)"/><path d="m289.146 173.847c2.469 2.469 1.692 7.25-1.736 10.678s-8.208 4.205-10.678 1.736c-2.469-2.469-1.692-7.25 1.736-10.678 3.428-3.429 8.209-4.206 10.678-1.736z" fill="url(#SVGID_14_)"/></g></g></g></g></svg>