<svg id="Capa_1" enable-background="new 0 0 510 510" height="512" viewBox="0 0 510 510" width="512" xmlns="http://www.w3.org/2000/svg" xmlns:xlink="http://www.w3.org/1999/xlink"><linearGradient id="lg1"><stop offset="0" stop-color="#ff9100"/><stop offset="1" stop-color="#e63950"/></linearGradient><linearGradient id="SVGID_1_" gradientTransform="matrix(.738 .675 -.675 .738 238.453 -105.368)" gradientUnits="userSpaceOnUse" x1="245.14" x2="266.221" xlink:href="#lg1" y1="26.076" y2="112.879"/><linearGradient id="lg2"><stop offset="0" stop-color="#e63950" stop-opacity="0"/><stop offset=".0467" stop-color="#e4354b" stop-opacity=".047"/><stop offset=".4669" stop-color="#d31822" stop-opacity=".467"/><stop offset=".7991" stop-color="#c90709" stop-opacity=".799"/><stop offset="1" stop-color="#c50000"/></linearGradient><linearGradient id="SVGID_2_" gradientTransform="matrix(.738 .675 -.675 .738 238.453 -105.368)" gradientUnits="userSpaceOnUse" x1="252.78" x2="252.78" xlink:href="#lg2" y1="38.139" y2="168.441"/><linearGradient id="lg3"><stop offset="0" stop-color="#ffda2d"/><stop offset="1" stop-color="#fdbf00"/></linearGradient><linearGradient id="SVGID_5_" gradientTransform="matrix(.738 .675 -.675 .738 238.453 -105.368)" gradientUnits="userSpaceOnUse" x1="244.492" x2="274.354" xlink:href="#lg3" y1="467.061" y2="537.919"/><linearGradient id="SVGID_6_" gradientTransform="matrix(.738 .675 -.675 .738 238.453 -105.368)" gradientUnits="userSpaceOnUse" x1="250.109" x2="254.946" xlink:href="#lg3" y1="445.323" y2="481.872"/><linearGradient id="lg4"><stop offset="0" stop-color="#ff9100" stop-opacity="0"/><stop offset="1" stop-color="#ff9100"/></linearGradient><linearGradient id="SVGID_7_" gradientTransform="matrix(.738 .675 -.675 .738 238.453 -105.368)" gradientUnits="userSpaceOnUse" x1="252.78" x2="252.78" xlink:href="#lg4" y1="516.557" y2="548.806"/><linearGradient id="SVGID_8_" gradientTransform="matrix(.738 .675 -.675 .738 238.453 -105.368)" gradientUnits="userSpaceOnUse" x1="252.78" x2="252.78" xlink:href="#lg3" y1="495.416" y2="474.606"/><linearGradient id="SVGID_9_" gradientTransform="matrix(.738 .675 -.675 .738 238.453 -105.368)" gradientUnits="userSpaceOnUse" x1="255.941" x2="255.941" xlink:href="#lg4" y1="509.928" y2="412.729"/><linearGradient id="SVGID_10_" gradientTransform="matrix(.738 .675 -.675 .738 238.453 -105.368)" gradientUnits="userSpaceOnUse" x1="167.682" x2="515.704" xlink:href="#lg1" y1="253.192" y2="253.192"/><linearGradient id="SVGID_11_" gradientTransform="matrix(.738 .675 -.675 .738 238.453 -105.368)" gradientUnits="userSpaceOnUse" x1="229.605" x2="293.173" xlink:href="#lg3" y1="182.719" y2="246.287"/><linearGradient id="SVGID_12_" gradientTransform="matrix(.738 .675 -.675 .738 238.453 -105.368)" gradientUnits="userSpaceOnUse" x1="236.236" x2="352.418" xlink:href="#lg4" y1="180.872" y2="356.582"/><linearGradient id="SVGID_13_" gradientTransform="matrix(.738 .675 -.675 .738 238.453 -105.368)" gradientUnits="userSpaceOnUse" x1="262.589" x2="170.218" y1="219.713" y2="89.573"><stop offset="0" stop-color="#fff" stop-opacity="0"/><stop offset="1" stop-color="#fff"/></linearGradient><linearGradient id="SVGID_14_" gradientTransform="matrix(.738 .675 -.675 .738 238.453 -105.368)" gradientUnits="userSpaceOnUse" x1="248.9" x2="259.544" xlink:href="#lg3" y1="114.877" y2="125.521"/><linearGradient id="SVGID_15_" gradientTransform="matrix(.738 .675 -.675 .738 238.453 -105.368)" gradientUnits="userSpaceOnUse" x1="248.9" x2="259.544" xlink:href="#lg3" y1="289.15" y2="299.794"/><linearGradient id="SVGID_16_" gradientTransform="matrix(-.675 .738 -.738 -.675 -1023.93 -2699.903)" gradientUnits="userSpaceOnUse" x1="1266.014" x2="1276.657" xlink:href="#lg3" y1="-3025.797" y2="-3015.153"/><linearGradient id="SVGID_17_" gradientTransform="matrix(-.675 .738 -.738 -.675 -1023.93 -2699.903)" gradientUnits="userSpaceOnUse" x1="1266.014" x2="1276.657" xlink:href="#lg3" y1="-2851.524" y2="-2840.88"/><linearGradient id="SVGID_18_" gradientTransform="matrix(.045 .999 -.999 .045 -930.085 -1141.188)" gradientUnits="userSpaceOnUse" x1="1407.912" x2="1418.555" xlink:href="#lg3" y1="-1244.809" y2="-1234.165"/><linearGradient id="SVGID_19_" gradientTransform="matrix(.045 .999 -.999 .045 -930.085 -1141.188)" gradientUnits="userSpaceOnUse" x1="1407.912" x2="1418.555" xlink:href="#lg3" y1="-1070.536" y2="-1059.892"/><linearGradient id="SVGID_20_" gradientTransform="matrix(-.999 .045 -.045 -.999 11.889 -3868.44)" gradientUnits="userSpaceOnUse" x1="-93.672" x2="-83.029" xlink:href="#lg3" y1="-4184.809" y2="-4174.165"/><linearGradient id="SVGID_21_" gradientTransform="matrix(-.999 .045 -.045 -.999 11.889 -3868.44)" gradientUnits="userSpaceOnUse" x1="-93.672" x2="-83.029" xlink:href="#lg3" y1="-4010.536" y2="-3999.892"/><linearGradient id="SVGID_22_" gradientTransform="matrix(.943 .334 -.334 .943 1042.378 1.758)" gradientUnits="userSpaceOnUse" x1="-641.325" x2="-633.257" xlink:href="#lg3" y1="370.314" y2="378.383"/><linearGradient id="SVGID_23_" gradientTransform="matrix(.943 .334 -.334 .943 1042.378 1.758)" gradientUnits="userSpaceOnUse" x1="-641.325" x2="-633.257" xlink:href="#lg3" y1="539.661" y2="547.73"/><linearGradient id="SVGID_24_" gradientTransform="matrix(-.334 .943 -.943 -.334 -1131.057 -1895.977)" gradientUnits="userSpaceOnUse" x1="1518.988" x2="1527.056" xlink:href="#lg3" y1="-2125.964" y2="-2117.895"/><linearGradient id="SVGID_25_" gradientTransform="matrix(-.334 .943 -.943 -.334 -1131.057 -1895.977)" gradientUnits="userSpaceOnUse" x1="1518.988" x2="1527.056" xlink:href="#lg3" y1="-1956.617" y2="-1948.549"/><linearGradient id="SVGID_26_" gradientTransform="matrix(.903 -.431 .431 .903 2441.379 -691.925)" gradientUnits="userSpaceOnUse" x1="-2336.88" x2="-2328.811" xlink:href="#lg3" y1="-192.846" y2="-184.778"/><linearGradient id="SVGID_27_" gradientTransform="matrix(.903 -.431 .431 .903 2441.379 -691.925)" gradientUnits="userSpaceOnUse" x1="-2336.88" x2="-2328.811" xlink:href="#lg3" y1="-23.5" y2="-15.431"/><linearGradient id="SVGID_28_" gradientTransform="matrix(.431 .903 -.903 .431 -437.373 -496.976)" gradientUnits="userSpaceOnUse" x1="955.827" x2="963.896" xlink:href="#lg3" y1="-430.409" y2="-422.341"/><linearGradient id="SVGID_29_" gradientTransform="matrix(.431 .903 -.903 .431 -437.373 -496.976)" gradientUnits="userSpaceOnUse" x1="955.827" x2="963.896" xlink:href="#lg3" y1="-261.063" y2="-252.994"/><linearGradient id="SVGID_30_" gradientTransform="matrix(.738 .675 -.675 .738 238.453 -105.368)" gradientUnits="userSpaceOnUse" x1="252.78" x2="252.78" xlink:href="#lg2" y1="417.482" y2="466.261"/><g><g><path d="m467.29 212.958-193.245-176.552 30.419-33.295c3.561-3.898 9.607-4.17 13.505-.61l179.131 163.657c3.898 3.561 4.17 9.607.61 13.505z" fill="url(#SVGID_1_)"/><g fill="url(#SVGID_2_)"><path d="m443.444 191.173-145.553-132.981 31.271-34.227c3.09-3.383 8.338-3.619 11.72-.529l133.304 121.789c3.383 3.09 3.619 8.338.529 11.72z"/><path d="m414.215 164.468-87.095-79.571 32.538-35.614c2.391-2.617 6.45-2.8 9.066-.409l77.619 70.914c2.617 2.391 2.8 6.45.409 9.066z"/><path d="m387.923 140.447-34.511-31.53 34.142-37.37c1.505-1.647 4.06-1.762 5.707-.258l28.546 26.081c1.647 1.505 1.762 4.06.258 5.707z"/></g></g><g><path d="m106.012 506.074-91.34-83.45c-6.116-5.587-6.544-15.075-.957-21.19l52.635-57.611c5.587-6.116 15.075-6.544 21.19-.957l91.34 83.45c6.116 5.587 6.544 15.075.957 21.19l-52.635 57.611c-5.587 6.116-15.075 6.545-21.19.957z" fill="url(#SVGID_5_)"/><path d="m155.151 474.526 24.686-27.02c5.587-6.116 5.159-15.603-.957-21.19l-91.34-83.45c-6.116-5.587-15.603-5.159-21.19.957l-24.686 27.02z" fill="url(#SVGID_6_)"/><path d="m25.713 388.302-11.997 13.132c-5.587 6.116-5.159 15.603.957 21.19l91.34 83.45c6.116 5.587 15.603 5.159 21.19-.957l11.997-13.132z" fill="url(#SVGID_7_)"/><path d="m93.194 401.177 27.102 24.761c4.186 3.824 4.479 10.317.655 14.503l-3.191 3.492c-3.824 4.186-10.317 4.479-14.503.655l-27.102-24.761c-4.186-3.824-4.479-10.317-.655-14.503l3.191-3.492c3.824-4.186 10.318-4.479 14.503-.655z" fill="url(#SVGID_8_)"/></g><path d="m179.839 447.504-52.639 57.616c-5.583 6.111-15.075 6.539-21.185.956l-17.102-15.625-6.787-150.349-2.855-1.05c2.976.36 5.879 1.629 8.268 3.812l91.345 83.455c6.11 5.582 6.538 15.074.955 21.185z" fill="url(#SVGID_9_)"/><path d="m151.977 418.481-54.21-49.527c-18.271-16.692-21.509-44.27-7.601-64.74l180.25-265.316c7.079-10.42 21.752-12.143 31.052-3.646l164.502 150.291c9.3 8.497 8.907 23.265-.833 31.254l-247.998 203.422c-19.134 15.695-46.891 14.955-65.162-1.738z" fill="url(#SVGID_10_)"/><g><circle cx="286.198" cy="217.138" fill="url(#SVGID_11_)" r="66.908"/><circle cx="286.198" cy="217.138" fill="url(#SVGID_12_)" r="48.62"/><circle cx="286.198" cy="217.138" fill="url(#SVGID_13_)" r="61.17"/><g><g><path d="m348.76 156.269c-5.582 6.11-11.803 9.513-13.896 7.601-2.092-1.912.737-8.414 6.319-14.524s11.803-9.513 13.896-7.601c2.092 1.912-.737 8.414-6.319 14.524z" fill="url(#SVGID_14_)"/><path d="m231.213 284.93c-5.582 6.11-11.803 9.513-13.896 7.601s.737-8.414 6.319-14.524 11.803-9.513 13.896-7.601-.737 8.415-6.319 14.524z" fill="url(#SVGID_15_)"/></g><g><path d="m347.067 279.701c-6.11-5.582-9.513-11.803-7.601-13.896 1.912-2.092 8.414.737 14.524 6.319s9.513 11.803 7.601 13.896c-1.911 2.092-8.414-.737-14.524-6.319z" fill="url(#SVGID_16_)"/><path d="m218.406 162.153c-6.11-5.582-9.513-11.803-7.601-13.896 1.912-2.092 8.414.737 14.524 6.319s9.513 11.803 7.601 13.896c-1.912 2.092-8.414-.737-14.524-6.319z" fill="url(#SVGID_17_)"/></g></g><g><g><path d="m373.477 218.336c-8.267.373-15.073-1.619-15.201-4.451s6.471-5.429 14.738-5.802 15.073 1.619 15.201 4.451-6.47 5.428-14.738 5.802z" fill="url(#SVGID_18_)"/><path d="m199.382 226.194c-8.267.373-15.073-1.619-15.201-4.451-.128-2.831 6.471-5.429 14.738-5.802s15.073 1.619 15.201 4.451-6.471 5.429-14.738 5.802z" fill="url(#SVGID_19_)"/></g><g><path d="m285.001 304.418c-.373-8.267 1.619-15.073 4.451-15.201 2.831-.128 5.429 6.471 5.802 14.738s-1.62 15.073-4.451 15.201c-2.831.127-5.429-6.471-5.802-14.738z" fill="url(#SVGID_20_)"/><path d="m277.142 130.322c-.373-8.267 1.62-15.073 4.451-15.201s5.429 6.471 5.802 14.738-1.619 15.073-4.451 15.201c-2.831.128-5.429-6.471-5.802-14.738z" fill="url(#SVGID_21_)"/></g></g><g><g><path d="m318.701 138.822c-1.551 4.382-4.714 7.259-7.065 6.427s-3-5.059-1.45-9.44c1.551-4.382 4.714-7.259 7.065-6.427 2.352.831 3.001 5.058 1.45 9.44z" fill="url(#SVGID_22_)"/><path d="m262.209 298.468c-1.551 4.382-4.714 7.259-7.065 6.427s-3-5.059-1.45-9.44c1.551-4.382 4.714-7.259 7.065-6.427 2.352.832 3.001 5.058 1.45 9.44z" fill="url(#SVGID_23_)"/></g><g><path d="m364.515 249.642c-4.382-1.551-7.259-4.714-6.427-7.065s5.059-3 9.44-1.45c4.382 1.551 7.259 4.714 6.427 7.065s-5.059 3-9.44 1.45z" fill="url(#SVGID_24_)"/><path d="m204.868 193.15c-4.382-1.551-7.259-4.714-6.427-7.065s5.059-3 9.44-1.45c4.382 1.551 7.259 4.714 6.427 7.065-.831 2.351-5.058 3-9.44 1.45z" fill="url(#SVGID_25_)"/></g><g><path d="m253.803 138.777c2.002 4.195 1.8 8.466-.451 9.54s-5.698-1.455-7.7-5.65-1.8-8.466.451-9.54c2.25-1.074 5.698 1.455 7.7 5.65z" fill="url(#SVGID_26_)"/><path d="m326.744 291.61c2.002 4.195 1.8 8.466-.451 9.54s-5.698-1.455-7.7-5.65-1.8-8.466.451-9.54 5.698 1.455 7.7 5.65z" fill="url(#SVGID_27_)"/></g><g><path d="m364.559 184.743c-4.195 2.002-8.466 1.8-9.54-.451s1.455-5.698 5.65-7.7 8.466-1.8 9.54.451c1.075 2.251-1.455 5.698-5.65 7.7z" fill="url(#SVGID_28_)"/><path d="m211.727 257.685c-4.195 2.002-8.466 1.8-9.54-.451s1.455-5.698 5.65-7.7 8.466-1.8 9.54.451-1.456 5.698-5.65 7.7z" fill="url(#SVGID_29_)"/></g></g></g><path d="m205.775 378.814-73.349-67.014c-2.975-2.718-3.183-7.333-.465-10.308l14.326-15.68c2.718-2.975 7.333-3.183 10.308-.465l73.349 67.013c2.975 2.718 3.183 7.333.465 10.308l-14.326 15.68c-2.717 2.976-7.333 3.184-10.308.466z" fill="#fdbf00"/><path d="m91.268 302.591-1.103 1.623c-13.907 20.47-10.669 48.048 7.601 64.74l54.21 49.527c18.271 16.692 46.028 17.432 65.162 1.737l1.517-1.244z" fill="url(#SVGID_30_)"/></g></svg>