<svg id="Capa_1" enable-background="new 0 0 510 510" height="512" viewBox="0 0 510 510" width="512" xmlns="http://www.w3.org/2000/svg" xmlns:xlink="http://www.w3.org/1999/xlink"><linearGradient id="lg1"><stop offset="0" stop-color="#6b0"/><stop offset="1" stop-color="#0b799d"/></linearGradient><linearGradient id="SVGID_1_" gradientUnits="userSpaceOnUse" x1="115.769" x2="205.987" xlink:href="#lg1" y1="119.435" y2="150.544"/><linearGradient id="lg2"><stop offset="0" stop-color="#07485e" stop-opacity="0"/><stop offset="1" stop-color="#03232e"/></linearGradient><linearGradient id="SVGID_2_" gradientUnits="userSpaceOnUse" x1="167.929" x2="85.799" xlink:href="#lg2" y1="133.336" y2="122.137"/><linearGradient id="SVGID_3_" gradientTransform="matrix(.979 -.206 .206 .979 -65.499 139.165)" gradientUnits="userSpaceOnUse" x1="148.398" x2="238.616" xlink:href="#lg1" y1="33.18" y2="64.289"/><linearGradient id="SVGID_4_" gradientTransform="matrix(.979 -.206 .206 .979 -65.499 139.165)" gradientUnits="userSpaceOnUse" x1="200.557" x2="118.428" xlink:href="#lg2" y1="47.081" y2="35.881"/><linearGradient id="SVGID_5_" gradientTransform="matrix(.899 -.438 .438 .899 -90.857 293.08)" gradientUnits="userSpaceOnUse" x1="191.004" x2="281.221" xlink:href="#lg1" y1="-38.457" y2="-7.348"/><linearGradient id="SVGID_6_" gradientTransform="matrix(.899 -.438 .438 .899 -90.857 293.08)" gradientUnits="userSpaceOnUse" x1="243.163" x2="161.034" xlink:href="#lg2" y1="-24.556" y2="-35.756"/><linearGradient id="lg3"><stop offset="0" stop-color="#ffda2d"/><stop offset="1" stop-color="#fdbf00"/></linearGradient><linearGradient id="SVGID_7_" gradientUnits="userSpaceOnUse" x1="249.452" x2="283.602" xlink:href="#lg3" y1="74.615" y2="112.559"/><linearGradient id="lg4"><stop offset="0" stop-color="#ff9100" stop-opacity="0"/><stop offset="1" stop-color="#ff9100"/></linearGradient><linearGradient id="SVGID_8_" gradientUnits="userSpaceOnUse" x1="313.791" x2="326.123" xlink:href="#lg4" y1="5.819" y2="41.234"/><linearGradient id="SVGID_9_" gradientUnits="userSpaceOnUse" x1="313.959" x2="325.383" xlink:href="#lg4" y1="5.431" y2="38.239"/><linearGradient id="SVGID_10_" gradientUnits="userSpaceOnUse" x1="252.826" x2="252.826" xlink:href="#lg4" y1="98.142" y2="150.448"/><linearGradient id="SVGID_11_" gradientUnits="userSpaceOnUse" x1="220.4" x2="274.61" y1="148.48" y2="317.681"><stop offset="0" stop-color="#ffdecf"/><stop offset="1" stop-color="#faa68e"/></linearGradient><linearGradient id="lg5"><stop offset="0" stop-color="#faa68e" stop-opacity="0"/><stop offset="1" stop-color="#faa68e"/></linearGradient><linearGradient id="SVGID_12_" gradientUnits="userSpaceOnUse" x1="352.741" x2="268.459" xlink:href="#lg5" y1="219.184" y2="171.424"/><linearGradient id="SVGID_13_" gradientUnits="userSpaceOnUse" x1="238.388" x2="146.494" xlink:href="#lg5" y1="227.919" y2="183.86"/><linearGradient id="SVGID_14_" gradientUnits="userSpaceOnUse" x1="237.378" x2="375.867" y1="314.627" y2="464.499"><stop offset="0" stop-color="#b9dd39"/><stop offset="1" stop-color="#90cc1c"/></linearGradient><linearGradient id="lg6"><stop offset="0" stop-color="#6b0" stop-opacity="0"/><stop offset="1" stop-color="#6b0"/></linearGradient><linearGradient id="SVGID_15_" gradientUnits="userSpaceOnUse" x1="302.27" x2="68.924" xlink:href="#lg6" y1="398.618" y2="262.025"/><linearGradient id="SVGID_16_" gradientUnits="userSpaceOnUse" x1="254.993" x2="254.993" xlink:href="#lg6" y1="448.661" y2="505.606"/><linearGradient id="SVGID_17_" gradientUnits="userSpaceOnUse" x1="469.463" x2="353.463" xlink:href="#lg6" y1="344.778" y2="288.111"/><linearGradient id="lg7"><stop offset="0" stop-color="#edf5ff"/><stop offset="1" stop-color="#d5e8fe"/></linearGradient><linearGradient id="SVGID_18_" gradientTransform="matrix(.363 -.932 .932 .363 73.171 456.023)" gradientUnits="userSpaceOnUse" x1="307.192" x2="341.782" xlink:href="#lg7" y1="131.242" y2="165.832"/><linearGradient id="lg8"><stop offset="0" stop-color="#b5dbff" stop-opacity="0"/><stop offset=".1734" stop-color="#8fc5e9" stop-opacity=".173"/><stop offset=".4541" stop-color="#56a4c8" stop-opacity=".454"/><stop offset=".6955" stop-color="#2d8db1" stop-opacity=".696"/><stop offset=".8853" stop-color="#147ea2" stop-opacity=".885"/><stop offset="1" stop-color="#0b799d"/></linearGradient><linearGradient id="SVGID_19_" gradientTransform="matrix(.363 -.932 .932 .363 73.171 456.023)" gradientUnits="userSpaceOnUse" x1="324.031" x2="277.198" xlink:href="#lg8" y1="139.186" y2="164.686"/><linearGradient id="SVGID_20_" gradientTransform="matrix(-.778 -.629 .629 -.778 543.447 638.571)" gradientUnits="userSpaceOnUse" x1="391.114" x2="425.704" xlink:href="#lg7" y1="152.544" y2="187.135"/><linearGradient id="SVGID_21_" gradientTransform="matrix(-.778 -.629 .629 -.778 543.447 638.571)" gradientUnits="userSpaceOnUse" x1="407.953" x2="361.12" xlink:href="#lg8" y1="160.489" y2="185.989"/><linearGradient id="SVGID_22_" gradientTransform="matrix(-.75 .661 -.661 -.75 921.763 98.23)" gradientUnits="userSpaceOnUse" x1="495.765" x2="530.356" xlink:href="#lg7" y1="219.13" y2="253.721"/><linearGradient id="SVGID_23_" gradientTransform="matrix(-.75 .661 -.661 -.75 921.763 98.23)" gradientUnits="userSpaceOnUse" x1="512.605" x2="465.771" xlink:href="#lg8" y1="227.075" y2="252.575"/><linearGradient id="SVGID_24_" gradientTransform="matrix(.339 .941 -.941 .339 466.005 -314.52)" gradientUnits="userSpaceOnUse" x1="465.441" x2="500.031" xlink:href="#lg7" y1="225.543" y2="260.133"/><linearGradient id="SVGID_25_" gradientTransform="matrix(.339 .941 -.941 .339 466.005 -314.52)" gradientUnits="userSpaceOnUse" x1="482.28" x2="435.447" xlink:href="#lg8" y1="233.487" y2="258.987"/><linearGradient id="SVGID_26_" gradientUnits="userSpaceOnUse" x1="353.167" x2="387.757" xlink:href="#lg7" y1="172.5" y2="207.091"/><linearGradient id="SVGID_27_" gradientUnits="userSpaceOnUse" x1="370.006" x2="323.173" xlink:href="#lg8" y1="180.445" y2="205.945"/><linearGradient id="SVGID_28_" gradientUnits="userSpaceOnUse" x1="350.292" x2="375.041" xlink:href="#lg3" y1="213.626" y2="238.374"/><g><g><g><path d="m121.842 130.755c0 44.664 5.796 86.527 15.918 122.56 3.069 10.926 18.604 10.926 21.673 0 10.121-36.033 15.918-77.897 15.918-122.56s-5.796-86.527-15.918-122.56c-3.069-10.926-18.604-10.926-21.673 0-10.121 36.032-15.918 77.896-15.918 122.56z" fill="url(#SVGID_1_)"/><path d="m159.433 253.315c10.121-36.033 15.917-77.897 15.917-122.56s-5.796-86.527-15.917-122.56c-1.534-5.463-6.185-8.195-10.836-8.195v261.509c4.651 0 9.302-2.731 10.836-8.194z" fill="url(#SVGID_2_)"/></g><g><path d="m94.826 150.891c9.2 43.706 23.496 83.478 40.822 116.653 5.254 10.059 20.456 6.859 21.208-4.464 2.482-37.345-.469-79.505-9.67-123.211s-23.496-83.478-40.822-116.653c-5.254-10.059-20.456-6.859-21.208 4.464-2.482 37.346.47 79.506 9.67 123.211z" fill="url(#SVGID_3_)"/><path d="m156.856 263.08c2.482-37.345-.47-79.505-9.67-123.211s-23.496-83.478-40.822-116.653c-2.627-5.03-7.741-6.744-12.292-5.786l53.868 255.901c4.551-.958 8.54-4.589 8.916-10.251z" fill="url(#SVGID_4_)"/></g><g><path d="m74.464 182.425c19.548 40.159 43.082 75.263 67.953 103.231 7.541 8.481 21.51 1.681 19.487-9.486-6.67-36.828-19.781-77.006-39.329-117.165s-43.082-75.262-67.953-103.231c-7.541-8.481-21.51-1.681-19.487 9.486 6.67 36.828 19.781 77.006 39.329 117.165z" fill="url(#SVGID_5_)"/><path d="m161.905 276.17c-6.671-36.828-19.781-77.006-39.329-117.165s-43.083-75.262-67.954-103.231c-3.771-4.24-9.148-4.66-13.33-2.625l114.456 235.132c4.181-2.036 7.168-6.527 6.157-12.111z" fill="url(#SVGID_6_)"/></g></g><g><path d="m225.282 241.967c-1.845 0-3.72-.325-5.549-1.011-8.176-3.066-12.318-12.179-9.252-20.355l71.427-190.474c5.095-13.584 15.972-23.812 29.842-28.063 13.868-4.25 28.608-1.874 40.438 6.522l52.986 37.603c7.121 5.053 8.797 14.923 3.744 22.043-5.054 7.121-14.922 8.796-22.044 3.743l-52.986-37.603c-3.766-2.672-8.456-3.429-12.873-2.076-4.416 1.354-7.878 4.61-9.5 8.935l-71.427 190.473c-2.38 6.347-8.405 10.263-14.806 10.263z" fill="url(#SVGID_7_)"/><path d="m311.75 2.065c-8.428 2.583-15.739 7.383-21.331 13.792l24.491 20.118c1.678-1.678 3.749-2.955 6.105-3.678 2.817-.863 5.743-.859 8.471-.056l9.912-30.044c-8.865-2.837-18.446-2.952-27.648-.132z" fill="url(#SVGID_8_)"/><path d="m320.395.314c-2.896.316-5.789.875-8.646 1.75-2.189.671-4.298 1.498-6.326 2.458l14.157 28.313c.468-.199.941-.388 1.434-.539.624-.191 1.253-.333 1.884-.439z" fill="url(#SVGID_9_)"/></g><path d="m262.411 82.121-51.93 138.48c-3.066 8.176 1.076 17.289 9.252 20.355 1.829.686 3.704 1.011 5.549 1.011 6.401 0 12.426-3.916 14.806-10.263l56.094-149.583z" fill="url(#SVGID_10_)"/><g><path d="m466.958 256.633c-1.885-8.144-6.165-15.537-12.29-21.226l-78.695-73.101c-15.024-13.956-34.772-21.713-55.278-21.713h-131.44c-20.506 0-40.254 7.757-55.278 21.713l-78.695 73.101c-6.124 5.689-10.405 13.082-12.29 21.226 12.387 24.163 37.256 39.361 64.409 39.361h295.146c27.155 0 52.024-15.198 64.411-39.361z" fill="url(#SVGID_11_)"/><path d="m466.958 256.633c-12.383 24.158-37.261 39.361-64.404 39.361h-42.308c.822-3.01 1.581-6.16 2.264-9.448l-1.467-15.722-46.492-107.064c-6.107-14.063-19.976-23.16-35.307-23.16h41.449c20.505 0 40.252 7.756 55.276 21.711l78.701 73.102c6.122 5.686 10.401 13.074 12.288 21.214z" fill="url(#SVGID_12_)"/><path d="m147.442 286.541c.68 3.29 1.439 6.438 2.261 9.453h210.547c.822-3.015 1.58-6.164 2.26-9.453l-1.467-15.717-45.833-105.56c-6.504-14.979-21.277-24.67-37.607-24.67h-45.254c-16.33 0-31.103 9.691-37.607 24.67l-45.833 105.56z" fill="url(#SVGID_13_)"/><g><path d="m387.048 491.913v.013c-.051.038-.114.089-.164.127-10.359 7.753-22.729 12.37-35.617 13.597-29.382 2.795-61.95 4.351-96.265 4.351s-66.883-1.556-96.265-4.351c-12.888-1.227-25.258-5.843-35.617-13.597-.051-.038-.114-.089-.164-.127 0-.013 0-.013 0-.013-53.451-40.145-88.018-104.056-88.018-176.049 0-20.515 2.808-40.385 8.057-59.231 3.617 1.834 7.817 3.124 12.37 3.719 29.167 3.794 60.648 6.754 93.836 8.803 33.707 2.074 69.185 3.187 105.801 3.187s72.094-1.113 105.789-3.187c33.201-2.049 64.682-5.009 93.849-8.803 4.54-.595 8.702-1.872 12.319-3.693 4.933 17.606 7.728 36.11 8.069 55.209 1.303 73.624-33.543 139.154-87.98 180.045z" fill="url(#SVGID_14_)"/><path d="m319.949 491.913v.013c-.025.038-.051.089-.076.127-5.097 7.753-11.181 12.37-17.518 13.597-14.457 2.795-30.482 4.351-47.355 4.351s-32.898-1.556-47.355-4.351c-6.337-1.227-12.42-5.843-17.518-13.597-.025-.038-.051-.089-.076-.127 0-.013 0-.013 0-.013-26.295-40.145-43.307-104.056-43.307-176.049 0-16.025.847-31.658 2.454-46.709 33.707 2.074 69.185 3.187 105.801 3.187s72.094-1.113 105.789-3.187c1.48 13.799 2.315 28.079 2.441 42.713.647 73.624-16.491 139.154-43.28 180.045z" fill="url(#SVGID_15_)"/><path d="m62.245 422.101c15.11 27.353 35.866 51.153 60.71 69.812v.013c.051.038.114.089.164.127 10.359 7.753 22.729 12.37 35.617 13.597 29.382 2.795 61.95 4.351 96.265 4.351s66.883-1.556 96.265-4.351c12.888-1.227 25.258-5.843 35.617-13.597.051-.038.114-.089.164-.127 0-.013 0-.013 0-.013 24.842-18.66 45.584-42.463 60.693-69.812z" fill="url(#SVGID_16_)"/></g></g><path d="m475.028 311.867c-.342-19.099-3.137-37.603-8.069-55.209-.002.001-.003.001-.005.002-3.616 1.82-7.776 3.097-12.314 3.691-29.167 3.794-60.648 6.754-93.849 8.803-18.925 1.165-38.43 2.015-58.365 2.546 1.755 6.364 5.345 12.282 10.685 16.893l135.085 132.69c17.715-32.393 27.534-69.723 26.832-109.416z" fill="url(#SVGID_17_)"/><g><g><circle cx="319.25" cy="212" fill="url(#SVGID_18_)" r="34.5"/><path d="m287.167 199.326 64.288 25.038c6.803-17.716-1.981-37.617-19.684-44.512s-37.633 1.823-44.604 19.474z" fill="url(#SVGID_19_)"/></g><g><circle cx="333.833" cy="260.667" fill="url(#SVGID_20_)" r="34.5"/><path d="m312.013 287.385 43.382-53.646c-14.813-11.862-36.442-9.538-48.387 5.235s-9.694 36.408 5.005 48.411z" fill="url(#SVGID_21_)"/></g><g><circle cx="391.5" cy="260.667" fill="url(#SVGID_22_)" r="34.5"/><path d="m414.177 286.661-45.605-51.769c-14.18 12.612-15.518 34.324-2.96 48.58 12.559 14.255 34.266 15.666 48.565 3.189z" fill="url(#SVGID_23_)"/></g><g><circle cx="406.083" cy="212" fill="url(#SVGID_24_)" r="34.5"/><path d="m438.589 200.451-64.898 23.413c6.525 17.82 26.229 27.037 44.1 20.59 17.871-6.448 27.153-26.122 20.798-44.003z" fill="url(#SVGID_25_)"/></g><g><circle cx="362.667" cy="182" fill="url(#SVGID_26_)" r="34.5"/><path d="m362.833 147.504v68.992c18.977-.09 34.333-15.498 34.333-34.496s-15.356-34.406-34.333-34.496z" fill="url(#SVGID_27_)"/></g><circle cx="362.667" cy="226" fill="url(#SVGID_28_)" r="17.5"/></g></g></svg>