<svg id="Capa_1" enable-background="new 0 0 510 510" height="512" viewBox="0 0 510 510" width="512" xmlns="http://www.w3.org/2000/svg" xmlns:xlink="http://www.w3.org/1999/xlink"><linearGradient id="lg1"><stop offset="0" stop-color="#edf5ff"/><stop offset="1" stop-color="#d5e8fe"/></linearGradient><linearGradient id="SVGID_1_" gradientUnits="userSpaceOnUse" x1="264.346" x2="305.912" xlink:href="#lg1" y1="431.574" y2="443.04"/><linearGradient id="lg2"><stop offset="0" stop-color="#b5dbff" stop-opacity="0"/><stop offset=".2428" stop-color="#93cef6" stop-opacity=".243"/><stop offset=".5763" stop-color="#6abfec" stop-opacity=".576"/><stop offset=".8403" stop-color="#51b5e5" stop-opacity=".84"/><stop offset="1" stop-color="#48b2e3"/></linearGradient><linearGradient id="SVGID_2_" gradientUnits="userSpaceOnUse" x1="296.306" x2="271.94" xlink:href="#lg2" y1="443.588" y2="342.898"/><linearGradient id="SVGID_3_" gradientUnits="userSpaceOnUse" x1="276.013" x2="299.447" xlink:href="#lg1" y1="483.887" y2="548.331"/><linearGradient id="SVGID_4_" gradientUnits="userSpaceOnUse" x1="282.39" x2="282.39" xlink:href="#lg2" y1="491.264" y2="522.113"/><linearGradient id="SVGID_5_" gradientUnits="userSpaceOnUse" x1="175.043" x2="420.01" xlink:href="#lg1" y1="246.753" y2="246.753"/><linearGradient id="SVGID_6_" gradientUnits="userSpaceOnUse" x1="282.391" x2="282.391" xlink:href="#lg2" y1="324.02" y2="435.706"/><linearGradient id="lg3"><stop offset="0" stop-color="#76e2f8"/><stop offset="1" stop-color="#48b2e3"/></linearGradient><linearGradient id="SVGID_7_" gradientUnits="userSpaceOnUse" x1="185.696" x2="406.348" xlink:href="#lg3" y1="284.383" y2="284.383"/><linearGradient id="SVGID_8_" gradientUnits="userSpaceOnUse" x1="282.389" x2="282.389" y1="330.667" y2="488.667"><stop offset="0" stop-color="#07485e" stop-opacity="0"/><stop offset=".3884" stop-color="#05394a" stop-opacity=".388"/><stop offset="1" stop-color="#03232e"/></linearGradient><linearGradient id="SVGID_9_" gradientUnits="userSpaceOnUse" x1="282.39" x2="282.39" xlink:href="#lg1" y1="74.632" y2="128.853"/><linearGradient id="SVGID_10_" gradientUnits="userSpaceOnUse" x1="282.39" x2="282.39" xlink:href="#lg2" y1="82.773" y2="127.559"/><linearGradient id="SVGID_11_" gradientUnits="userSpaceOnUse" x1="282.388" x2="282.388" xlink:href="#lg3" y1="186.684" y2="231.482"/><linearGradient id="SVGID_12_" gradientUnits="userSpaceOnUse" x1="305.951" x2="250.052" y1="170.382" y2="192.419"><stop offset="0" stop-color="#ff9100" stop-opacity="0"/><stop offset=".4606" stop-color="#fea400" stop-opacity=".461"/><stop offset="1" stop-color="#fdbf00"/></linearGradient><linearGradient id="lg4"><stop offset="0" stop-color="#fff" stop-opacity="0"/><stop offset="1" stop-color="#fff"/></linearGradient><linearGradient id="SVGID_13_" gradientTransform="matrix(1 -.002 .002 1 -.566 -3.084)" gradientUnits="userSpaceOnUse" x1="274.016" x2="122.017" xlink:href="#lg4" y1="242.239" y2="381.572"/><linearGradient id="SVGID_14_" gradientUnits="userSpaceOnUse" x1="235.977" x2="175.778" y1="11.789" y2="104.237"><stop offset="0" stop-color="#ffda2d"/><stop offset="1" stop-color="#fdbf00"/></linearGradient><linearGradient id="lg5"><stop offset="0" stop-color="#ff9100" stop-opacity="0"/><stop offset="1" stop-color="#ff9100"/></linearGradient><linearGradient id="SVGID_15_" gradientTransform="matrix(-1 0 0 1 621.218 0)" gradientUnits="userSpaceOnUse" x1="410.298" x2="423.555" xlink:href="#lg5" y1="6.255" y2="44.325"/><linearGradient id="SVGID_16_" gradientTransform="matrix(-1 0 0 1 621.218 0)" gradientUnits="userSpaceOnUse" x1="410.478" x2="422.759" xlink:href="#lg5" y1="5.838" y2="41.105"/><linearGradient id="SVGID_17_" gradientUnits="userSpaceOnUse" x1="228.471" x2="237.577" xlink:href="#lg4" y1="315.944" y2="364.867"/><linearGradient id="SVGID_18_" gradientUnits="userSpaceOnUse" x1="255.17" x2="290.358" xlink:href="#lg4" y1="317.394" y2="366.78"/><linearGradient id="SVGID_19_" gradientUnits="userSpaceOnUse" x1="241.188" x2="252.715" xlink:href="#lg4" y1="290.944" y2="329.367"/><linearGradient id="SVGID_20_" gradientTransform="matrix(.707 .707 -.707 .707 -2526.267 477.275)" gradientUnits="userSpaceOnUse" x1="1881.75" x2="1890.856" xlink:href="#lg4" y1="-2146.167" y2="-2097.244"/><linearGradient id="SVGID_21_" gradientTransform="matrix(.707 .707 -.707 .707 -2526.267 477.275)" gradientUnits="userSpaceOnUse" x1="1908.45" x2="1943.637" xlink:href="#lg4" y1="-2144.716" y2="-2095.331"/><linearGradient id="SVGID_22_" gradientTransform="matrix(.707 .707 -.707 .707 -2526.267 477.275)" gradientUnits="userSpaceOnUse" x1="1894.467" x2="1905.994" xlink:href="#lg4" y1="-2171.167" y2="-2132.743"/><linearGradient id="SVGID_23_" gradientTransform="matrix(.707 -.707 .707 .707 1448.665 -2166.338)" gradientUnits="userSpaceOnUse" x1="-2550.192" x2="-2541.087" xlink:href="#lg4" y1="884.481" y2="933.404"/><linearGradient id="SVGID_24_" gradientTransform="matrix(.707 -.707 .707 .707 1448.665 -2166.338)" gradientUnits="userSpaceOnUse" x1="-2523.493" x2="-2488.305" xlink:href="#lg4" y1="885.932" y2="935.317"/><linearGradient id="SVGID_25_" gradientTransform="matrix(.707 -.707 .707 .707 1448.665 -2166.338)" gradientUnits="userSpaceOnUse" x1="-2537.475" x2="-2525.948" xlink:href="#lg4" y1="859.481" y2="897.904"/><g><g><path d="m350.466 483.427c-22.837-7.382-38.311-28.645-38.311-52.645v-51.674h-59.531v51.674c0 24-15.474 45.264-38.311 52.645z" fill="url(#SVGID_1_)"/><path d="m252.625 379.108v13.95l69.761 69.761c-6.496-9.143-10.23-20.259-10.23-32.038v-51.674h-59.531z" fill="url(#SVGID_2_)"/><path d="m376.611 510h-188.442c-3.962 0-7.173-3.212-7.173-7.173 0-12.718 10.31-23.028 23.028-23.028h156.734c12.718 0 23.028 10.31 23.028 23.028-.001 3.961-3.213 7.173-7.175 7.173z" fill="url(#SVGID_3_)"/><path d="m376.611 510h-188.442c-3.962 0-7.173-3.212-7.173-7.173 0-12.718 10.31-23.028 23.028-23.028h156.734c12.718 0 23.028 10.31 23.028 23.028-.001 3.961-3.213 7.173-7.175 7.173z" fill="url(#SVGID_4_)"/></g><path d="m388.868 177.103 5.166-80.597h-223.288l5.119 79.861c1.225 19.105-1.277 38.33-7.923 56.283-4.851 13.105-7.516 27.27-7.552 42.054-.158 66.49 53.722 121.328 120.205 122.283 68.201.98 123.795-54.011 123.795-121.987 0-14.507-2.532-28.422-7.179-41.327-6.528-18.134-9.576-37.336-8.343-56.57z" fill="url(#SVGID_5_)"/><path d="m160.404 275.99c.536 65.909 54.138 120.048 120.192 120.997 67.869.975 123.244-53.479 123.782-120.997z" fill="url(#SVGID_6_)"/><path d="m392.278 272.2c0 61.22-50.07 110.75-111.5 109.87-59.89-.86-108.42-50.25-108.28-110.14.04-13.32 2.44-26.08 6.81-37.88 4.02-10.87 6.36-22.26 7.12-33.79.05-.75.09-1.5.13-2.25 9.01-15.11 182.81-15.1 191.68.02.03.73.08 1.46.13 2.19.84 11.84 3.4 23.52 7.44 34.75 4.19 11.63 6.47 24.16 6.47 37.23z" fill="url(#SVGID_7_)"/><path d="m392.206 275.99h-219.634c2.004 58.046 49.676 105.24 108.206 106.08 60.157.862 109.411-46.62 111.428-106.08z" fill="url(#SVGID_8_)"/><g><path d="m393.829 97.128c0-26.059-222.879-26.059-222.879 0s222.879 26.059 222.879 0z" fill="url(#SVGID_9_)"/><path d="m381.288 95.336c0-16.751-197.796-16.751-197.796 0s197.796 16.751 197.796 0z" fill="url(#SVGID_10_)"/></g><path d="m378.598 199.25c0 .33-.07.64-.23.97 0 .01 0 .03-.01.04-7.42 15.41-184.51 15.41-191.93 0-.16-.34-.25-.67-.25-1.01 0-.35.09-.68.25-1.01.04-.08.08-.15.13-.23 9.01-15.11 182.81-15.1 191.68.02.05.07.09.14.12.21.16.33.24.66.24 1.01z" fill="url(#SVGID_11_)"/><path d="m312.027 259.026c-1.967.731-3.977 1.086-5.966 1.086-6.88 0-13.351-4.214-15.91-11.04l-53.416-142.445c11.481.699 24.015 1.107 36.753 1.225l48.482 129.288c3.301 8.793-1.15 18.586-9.943 21.886z" fill="url(#SVGID_12_)"/><path d="m202.594 233.806c-4.607 12.857-7.116 26.71-7.116 41.148 0 2.923.104 5.823.31 8.697 9.166 128.336 199.819 128.042 208.414-.334.189-2.83.282-5.686.276-8.565-.035-14.507-2.6-28.416-7.277-41.31-6.572-18.118-9.665-37.313-8.478-56.549l4.974-80.609-188.287.449 5.372 80.795c1.271 19.126-1.722 38.232-8.188 56.278z" fill="url(#SVGID_13_)"/><g><path d="m273.489 107.852c-12.738-.118-25.273-.527-36.753-1.225l-8.267-22.027-15.103-40.279c-1.742-4.644-5.461-8.148-10.212-9.6-4.751-1.462-9.793-.645-13.835 2.225l-56.963 40.43c-7.654 5.429-18.264 3.623-23.692-4.031-5.439-7.654-3.633-18.264 4.02-23.692l56.963-40.419c12.717-9.03 28.562-11.577 43.472-7.02 14.91 4.579 26.595 15.566 32.077 30.175l18.963 50.578z" fill="url(#SVGID_14_)"/><path d="m213.114 2.219c9.059 2.777 16.919 7.937 22.93 14.826l-26.327 21.626c-1.804-1.804-4.03-3.177-6.563-3.953-3.028-.928-6.173-.923-9.106-.06l-10.654-32.297c9.529-3.05 19.828-3.173 29.72-.142z" fill="url(#SVGID_15_)"/><path d="m203.821.337c3.114.34 6.224.941 9.294 1.881 2.353.721 4.621 1.611 6.8 2.642l-15.218 30.436c-.503-.214-1.011-.417-1.542-.58-.67-.205-1.347-.358-2.025-.472z" fill="url(#SVGID_16_)"/></g><g><g><path d="m245.592 307.237v40.465c-.537.019-1.074-.056-1.593-.222l-27.529-8.917c-1.963-.63-3.287-2.454-3.287-4.51v-34.103c0-1.065.361-2.074.982-2.889z" fill="url(#SVGID_17_)"/><path d="m273.14 300.394v33.835c0 1.963-1.204 3.713-3.028 4.426-.009 0-.019.009-.028.009l-22.927 8.741c-.018.009-.046.019-.065.019-.481.176-.991.268-1.5.278v-40.465l26.335-10.028c.759.852 1.213 1.972 1.213 3.185z" fill="url(#SVGID_18_)"/><path d="m271.927 297.209-25.05 9.539c-.831.317-1.746.34-2.592.066l-30.12-9.753c.491-.639 1.139-1.158 1.908-1.482.028-.019.056-.028.083-.037l19.399-7.834c.009-.009.028-.009.037-.009.852-.343 1.769-.426 2.667-.25.093.019.194.046.296.074l31.057 8.278c.028.009.046.009.074.028.879.241 1.648.741 2.241 1.38z" fill="url(#SVGID_19_)"/></g><g><path d="m340.164 296.253-28.613 28.613c-.393-.367-.72-.799-.969-1.283l-13.161-25.772c-.943-1.833-.589-4.06.864-5.513l24.115-24.115c.753-.753 1.722-1.211 2.737-1.349z" fill="url(#SVGID_20_)"/><path d="m364.482 310.894-23.925 23.925c-1.388 1.388-3.477 1.774-5.271.989-.007-.007-.02-.007-.026-.013l-22.393-10.031c-.02-.007-.046-.02-.059-.033-.465-.216-.89-.511-1.257-.864l28.613-28.613 25.713 11.53c-.066 1.139-.538 2.252-1.395 3.11z" fill="url(#SVGID_21_)"/><path d="m365.876 307.784-24.458-10.968c-.812-.364-1.475-.994-1.879-1.787l-14.402-28.195c.799-.105 1.624-.013 2.396.301.033.007.059.02.085.033l19.257 8.178c.013 0 .026.013.033.02.845.36 1.552.949 2.063 1.709.052.079.105.17.157.262l16.107 27.815c.013.026.026.039.033.072.451.792.641 1.689.608 2.56z" fill="url(#SVGID_22_)"/></g><g><path d="m276.779 244.08 28.613 28.613c-.367.393-.799.72-1.283.969l-25.772 13.161c-1.833.943-4.06.589-5.513-.864l-24.115-24.115c-.753-.753-1.211-1.722-1.349-2.737z" fill="url(#SVGID_23_)"/><path d="m291.419 219.762 23.925 23.925c1.388 1.388 1.774 3.477.989 5.271-.007.007-.007.02-.013.026l-10.031 22.393c-.007.02-.02.046-.033.059-.216.465-.511.89-.864 1.257l-28.613-28.613 11.53-25.713c1.139.066 2.252.537 3.11 1.395z" fill="url(#SVGID_24_)"/><path d="m288.309 218.367-10.968 24.458c-.364.812-.994 1.475-1.787 1.879l-28.195 14.402c-.105-.799-.013-1.624.301-2.396.007-.033.02-.059.033-.085l8.178-19.257c0-.013.013-.026.02-.033.36-.845.949-1.552 1.709-2.063.079-.052.17-.105.262-.157l27.815-16.107c.026-.013.039-.026.072-.033.792-.451 1.689-.641 2.56-.608z" fill="url(#SVGID_25_)"/></g></g></g></svg>