<svg id="Capa_1" enable-background="new 0 0 510 510" height="512" viewBox="0 0 510 510" width="512" xmlns="http://www.w3.org/2000/svg" xmlns:xlink="http://www.w3.org/1999/xlink"><linearGradient id="SVGID_1_" gradientUnits="userSpaceOnUse" x1="96.171" x2="386.116" y1="79.059" y2="369.004"><stop offset="0" stop-color="#ffda2d"/><stop offset="1" stop-color="#fdbf00"/></linearGradient><linearGradient id="lg1"><stop offset="0" stop-color="#c59b6d"/><stop offset="1" stop-color="#a57c52"/></linearGradient><linearGradient id="SVGID_2_" gradientTransform="matrix(.921 -.39 .39 .921 -269.193 -704.265)" gradientUnits="userSpaceOnUse" x1="5.503" x2="5.503" xlink:href="#lg1" y1="1150.436" y2="1261.257"/><linearGradient id="SVGID_3_" gradientTransform="matrix(.921 -.39 .39 .921 -269.193 -704.265)" gradientUnits="userSpaceOnUse" x1="-100.792" x2="-100.792" xlink:href="#lg1" y1="1196.375" y2="1159.16"/><linearGradient id="lg2"><stop offset="0" stop-color="#ff9100" stop-opacity="0"/><stop offset="1" stop-color="#ff9100"/></linearGradient><linearGradient id="SVGID_4_" gradientUnits="userSpaceOnUse" x1="111.628" x2="156.628" xlink:href="#lg2" y1="446.239" y2="378.239"/><linearGradient id="SVGID_5_" gradientTransform="matrix(.921 -.39 .39 .921 -269.193 -704.265)" gradientUnits="userSpaceOnUse" x1="129.319" x2="129.319" xlink:href="#lg1" y1="1227.114" y2="1197.714"/><linearGradient id="SVGID_6_" gradientTransform="matrix(-.921 -.39 -.39 .921 -3579.185 -704.265)" gradientUnits="userSpaceOnUse" x1="-4008.626" x2="-4008.626" xlink:href="#lg1" y1="-547.276" y2="-436.455"/><linearGradient id="SVGID_7_" gradientTransform="matrix(-.921 -.39 -.39 .921 -3579.185 -704.265)" gradientUnits="userSpaceOnUse" x1="-4114.921" x2="-4114.921" xlink:href="#lg1" y1="-501.337" y2="-538.552"/><linearGradient id="SVGID_8_" gradientUnits="userSpaceOnUse" x1="397.105" x2="344.105" xlink:href="#lg2" y1="442.406" y2="377.406"/><linearGradient id="SVGID_9_" gradientTransform="matrix(-.921 -.39 -.39 .921 -3579.185 -704.265)" gradientUnits="userSpaceOnUse" x1="-3884.81" x2="-3884.81" xlink:href="#lg1" y1="-470.598" y2="-499.998"/><linearGradient id="SVGID_10_" gradientUnits="userSpaceOnUse" x1="220.483" x2="304.641" xlink:href="#lg1" y1="399.137" y2="399.137"/><linearGradient id="SVGID_11_" gradientUnits="userSpaceOnUse" x1="262.651" x2="205.521" xlink:href="#lg1" y1="393.059" y2="393.059"/><linearGradient id="SVGID_12_" gradientUnits="userSpaceOnUse" x1="278.48" x2="231.552" xlink:href="#lg1" y1="506.085" y2="428.042"/><linearGradient id="SVGID_13_" gradientUnits="userSpaceOnUse" x1="237.154" x2="316.154" xlink:href="#lg2" y1="206.176" y2="410.176"/><linearGradient id="SVGID_14_" gradientUnits="userSpaceOnUse" x1="290.356" x2="85.356" y1="309.055" y2="107.055"><stop offset="0" stop-color="#ffda2d" stop-opacity="0"/><stop offset="1" stop-color="#fbed21"/></linearGradient><linearGradient id="SVGID_15_" gradientUnits="userSpaceOnUse" x1="239.895" x2="364.895" y1="317.693" y2="470.693"><stop offset="0" stop-color="#e63950" stop-opacity="0"/><stop offset=".0467" stop-color="#e4354b" stop-opacity=".047"/><stop offset=".4669" stop-color="#d31822" stop-opacity=".467"/><stop offset=".7991" stop-color="#c90709" stop-opacity=".799"/><stop offset="1" stop-color="#c50000"/></linearGradient><linearGradient id="lg3"><stop offset="0" stop-color="#ffda2d"/><stop offset="1" stop-color="#ff9100"/></linearGradient><linearGradient id="SVGID_16_" gradientUnits="userSpaceOnUse" x1="112.682" x2="147.182" xlink:href="#lg3" y1="69.077" y2="94.577"/><linearGradient id="SVGID_17_" gradientUnits="userSpaceOnUse" x1="318.2" x2="338.713" xlink:href="#lg3" y1="27" y2="42.163"/><linearGradient id="SVGID_18_" gradientUnits="userSpaceOnUse" x1="254.149" x2="254.149" xlink:href="#lg2" y1="468.667" y2="425.953"/><g><path d="m442.22 282.861c0-203.861-99.554-239.542-93.554-222.889s-30.666 31.456-62.666-2.467 28-54.277-32-57.361c-60-3.084-80.667 44.409-77.333 69.697 3.333 25.288-5.333 71.548-32.667 69.08-9.404-.849-15.573-4.326-19.619-8.522-7.846-8.137-20.514-6.779-26.85 2.766-36.68 55.259-29.751 149.696-29.751 149.696 0 86.785 83.821 157.139 187.22 157.139s187.22-70.354 187.22-157.139z" fill="url(#SVGID_1_)"/><g><g><path d="m373.114 377.797-303.155 128.214c-25.603 10.829-55.138-1.149-65.966-26.752-10.829-25.603 1.149-55.138 26.752-65.966l303.155-128.215c25.603-10.829 55.137 1.149 65.966 26.752 10.829 25.604-1.149 55.138-26.752 65.967z" fill="url(#SVGID_2_)"/><path d="m193.82 370.409c2.822 6.671-.306 14.363-6.977 17.184l-25.332 10.714c-4.707 1.991-8.918 4.868-12.427 8.435-3.509 3.566-6.331 7.817-8.25 12.55-3.83 9.462-11.272 17.007-20.668 20.981l-111.737 47.257c-1.707-2.568-3.195-5.328-4.439-8.269-5.416-12.807-5.13-26.586-.288-38.525.721-1.778 1.545-3.522 2.471-5.21l170.453-72.09c3.336-1.411 6.933-1.337 10.039-.07 3.116 1.263 5.745 3.707 7.155 7.043z" fill="url(#SVGID_3_)"/><path d="m108.302 380.492-77.556 32.801c-25.604 10.828-37.582 40.362-26.753 65.966 10.829 25.604 40.363 37.581 65.966 26.752l159.528-67.47c-48.953-5.599-91.884-27.074-121.185-58.049z" fill="url(#SVGID_4_)"/><path d="m399.863 311.833c5.416 12.807 5.13 26.586.288 38.525-.461 1.137-.971 2.261-1.512 3.364l-133.988 56.668c-9.8 4.145-21.098-.437-25.242-10.237-4.145-9.8.433-21.107 10.233-25.252l150.045-63.459c.065.128.12.26.176.391z" fill="url(#SVGID_5_)"/></g><g><path d="m136.886 377.797 303.155 128.214c25.603 10.829 55.138-1.149 65.966-26.752 10.829-25.603-1.149-55.138-26.752-65.966l-303.155-128.215c-25.603-10.829-55.137 1.149-65.966 26.752-10.829 25.604 1.149 55.138 26.752 65.967z" fill="url(#SVGID_6_)"/><path d="m316.18 370.409c-2.822 6.671.306 14.363 6.977 17.184l25.332 10.714c4.707 1.991 8.918 4.868 12.427 8.435 3.509 3.566 6.331 7.817 8.25 12.55 3.83 9.462 11.272 17.007 20.668 20.981l111.737 47.258c1.707-2.568 3.195-5.328 4.439-8.269 5.416-12.807 5.13-26.586.288-38.525-.721-1.778-1.545-3.522-2.471-5.21l-170.453-72.09c-3.336-1.411-6.933-1.337-10.039-.07-3.116 1.262-5.745 3.706-7.155 7.042z" fill="url(#SVGID_7_)"/><path d="m479.255 413.293-77.556-32.801c-29.302 30.975-72.232 52.451-121.185 58.05l159.528 67.47c25.603 10.829 55.137-1.149 65.966-26.752 10.828-25.605-1.15-55.139-26.753-65.967z" fill="url(#SVGID_8_)"/><path d="m110.137 311.833c-5.416 12.807-5.13 26.586-.288 38.525.461 1.137.971 2.261 1.512 3.364l133.987 56.668c9.8 4.145 21.098-.437 25.242-10.237 4.145-9.8-.433-21.107-10.233-25.252l-150.045-63.459c-.064.128-.119.26-.175.391z" fill="url(#SVGID_9_)"/></g><path d="m254.149 510c-24.509 0-44.378-19.869-44.378-44.378v-132.97c0-24.509 19.869-44.378 44.378-44.378 24.509 0 44.378 19.869 44.378 44.378v132.97c0 24.509-19.868 44.378-44.378 44.378z" fill="url(#SVGID_10_)"/><path d="m264.616 464.255.423-123.066c.037-10.64-8.554-19.29-19.195-19.327-10.641-.036-19.301 8.554-19.337 19.195l-.423 123.198z" fill="url(#SVGID_11_)"/><path d="m254.149 510c-24.509 0-44.378-19.869-44.378-44.378 0-24.509 19.869-44.378 44.378-44.378 24.509 0 44.378 19.869 44.378 44.378 0 24.509-19.868 44.378-44.378 44.378z" fill="url(#SVGID_12_)"/></g><path d="m442.22 282.861c0-203.861-99.554-239.542-93.554-222.889s-30.666 31.456-62.666-2.467 28-54.277-32-57.361c-60-3.084-80.667 44.409-77.333 69.697 3.333 25.288-5.333 71.548-32.667 69.08-9.404-.849-15.573-4.326-19.619-8.522-7.846-8.137-20.514-6.779-26.85 2.766-36.68 55.259-29.751 149.696-29.751 149.696 0 86.785 83.821 157.139 187.22 157.139s187.22-70.354 187.22-157.139z" fill="url(#SVGID_13_)"/><ellipse cx="255" cy="274.217" fill="url(#SVGID_14_)" rx="114.176" ry="156.439"/><ellipse cx="255" cy="336.182" fill="url(#SVGID_15_)" rx="72.977" ry="94.475"/><path d="m154 95c0 10.862-8.805 19.667-19.667 19.667s-19.666-8.805-19.666-19.667 8.471-43 19.333-43 20 32.138 20 43z" fill="url(#SVGID_16_)"/><path d="m344 41.559c0 5.951-5.82 10.775-13 10.775s-13-4.824-13-10.775 5.6-23.559 12.78-23.559c7.179 0 13.22 17.608 13.22 23.559z" fill="url(#SVGID_17_)"/><path d="m255 440c-15.597 0-30.743-1.611-45.228-4.627v30.25c0 24.509 19.869 44.378 44.378 44.378 24.509 0 44.378-19.869 44.378-44.378v-29.901c-13.97 2.791-28.541 4.278-43.528 4.278z" fill="url(#SVGID_18_)"/></g></svg>