<svg id="Capa_1" enable-background="new 0 0 510 510" height="512" viewBox="0 0 510 510" width="512" xmlns="http://www.w3.org/2000/svg" xmlns:xlink="http://www.w3.org/1999/xlink"><linearGradient id="lg1"><stop offset="0" stop-color="#ff637b"/><stop offset="1" stop-color="#e63950"/></linearGradient><linearGradient id="SVGID_1_" gradientUnits="userSpaceOnUse" x1="55.75" x2="55.75" xlink:href="#lg1" y1="165" y2="181.008"/><linearGradient id="SVGID_2_" gradientUnits="userSpaceOnUse" x1="454.25" x2="454.25" xlink:href="#lg1" y1="165" y2="181.008"/><linearGradient id="SVGID_3_" gradientUnits="userSpaceOnUse" x1="241.562" x2="275.216" xlink:href="#lg1" y1="378.528" y2="378.528"/><linearGradient id="SVGID_4_" gradientUnits="userSpaceOnUse" x1="233.403" x2="315.644" xlink:href="#lg1" y1="126.429" y2="305.574"/><linearGradient id="lg2"><stop offset="0" stop-color="#e63950" stop-opacity="0"/><stop offset=".0467" stop-color="#e4354b" stop-opacity=".047"/><stop offset=".4669" stop-color="#d31822" stop-opacity=".467"/><stop offset=".7991" stop-color="#c90709" stop-opacity=".799"/><stop offset="1" stop-color="#c50000"/></linearGradient><linearGradient id="SVGID_5_" gradientUnits="userSpaceOnUse" x1="255" x2="255" xlink:href="#lg2" y1="281.708" y2="353.406"/><linearGradient id="SVGID_6_" gradientUnits="userSpaceOnUse" x1="240.553" x2="267.945" xlink:href="#lg1" y1="109.766" y2="191.943"/><linearGradient id="lg3"><stop offset="0" stop-color="#edf5ff"/><stop offset="1" stop-color="#d5e8fe"/></linearGradient><linearGradient id="SVGID_7_" gradientUnits="userSpaceOnUse" x1="255" x2="255" xlink:href="#lg3" y1="109.43" y2="169.446"/><linearGradient id="SVGID_8_" gradientUnits="userSpaceOnUse" x1="255" x2="255" y1="126.303" y2="197.81"><stop offset="0" stop-color="#b5dbff" stop-opacity="0"/><stop offset=".2428" stop-color="#93cef6" stop-opacity=".243"/><stop offset=".5763" stop-color="#6abfec" stop-opacity=".576"/><stop offset=".8403" stop-color="#51b5e5" stop-opacity=".84"/><stop offset="1" stop-color="#48b2e3"/></linearGradient><linearGradient id="SVGID_9_" gradientUnits="userSpaceOnUse" x1="109.881" x2="118.993" xlink:href="#lg3" y1="129.605" y2="135.26"/><linearGradient id="SVGID_10_" gradientUnits="userSpaceOnUse" x1="177.288" x2="193.376" xlink:href="#lg3" y1="132.91" y2="137.602"/><linearGradient id="SVGID_11_" gradientUnits="userSpaceOnUse" x1="243.974" x2="260.872" xlink:href="#lg3" y1="134.035" y2="134.035"/><linearGradient id="SVGID_12_" gradientUnits="userSpaceOnUse" x1="331.975" x2="313.399" xlink:href="#lg3" y1="133.126" y2="138.867"/><linearGradient id="SVGID_13_" gradientUnits="userSpaceOnUse" x1="399.57" x2="387.949" xlink:href="#lg3" y1="130.181" y2="135.842"/><linearGradient id="lg4"><stop offset="0" stop-color="#ff9100"/><stop offset="1" stop-color="#e63950"/></linearGradient><linearGradient id="SVGID_14_" gradientUnits="userSpaceOnUse" x1="255" x2="255" xlink:href="#lg4" y1="114.937" y2="187.458"/><linearGradient id="SVGID_15_" gradientUnits="userSpaceOnUse" x1="256.06" x2="256.06" xlink:href="#lg4" y1="108.242" y2="152.285"/><linearGradient id="SVGID_16_" gradientUnits="userSpaceOnUse" x1="268.273" x2="225.893" xlink:href="#lg2" y1="105.083" y2="-15.167"/><linearGradient id="SVGID_17_" gradientUnits="userSpaceOnUse" x1="309.279" x2="266.209" xlink:href="#lg2" y1="119.797" y2="1.27"/><linearGradient id="SVGID_18_" gradientUnits="userSpaceOnUse" x1="214.96" x2="154.959" xlink:href="#lg2" y1="316.398" y2="333.376"/><linearGradient id="SVGID_19_" gradientUnits="userSpaceOnUse" x1="255" x2="255" xlink:href="#lg1" y1="387.831" y2="408.608"/><linearGradient id="SVGID_20_" gradientTransform="matrix(.962 .272 -.272 .962 119.557 -20.598)" gradientUnits="userSpaceOnUse" x1="113.518" x2="158.759" xlink:href="#lg1" y1="401.19" y2="401.19"/><linearGradient id="SVGID_21_" gradientTransform="matrix(-.962 .272 .272 .962 158.762 -20.598)" gradientUnits="userSpaceOnUse" x1="-109.409" x2="-64.168" xlink:href="#lg1" y1="464.273" y2="464.273"/><linearGradient id="SVGID_22_" gradientUnits="userSpaceOnUse" x1="200.924" x2="228.45" xlink:href="#lg3" y1="53.251" y2="53.251"/><linearGradient id="SVGID_23_" gradientUnits="userSpaceOnUse" x1="240.203" x2="267.729" xlink:href="#lg3" y1="38.779" y2="38.779"/><linearGradient id="SVGID_24_" gradientUnits="userSpaceOnUse" x1="281.55" x2="309.076" xlink:href="#lg3" y1="54.284" y2="54.284"/><g><path d="m69 184.5h-26.5c-6.075 0-11-4.925-11-11 0-6.075 4.925-11 11-11h26.5c6.075 0 11 4.925 11 11 0 6.075-4.925 11-11 11z" fill="url(#SVGID_1_)"/><path d="m467.5 184.5h-26.5c-6.075 0-11-4.925-11-11 0-6.075 4.925-11 11-11h26.5c6.075 0 11 4.925 11 11 0 6.075-4.925 11-11 11z" fill="url(#SVGID_2_)"/></g><g><g><path d="m255 455.364c-8.944 0-16.194-7.25-16.194-16.194v-137.478h32.388v137.478c0 8.944-7.25 16.194-16.194 16.194z" fill="url(#SVGID_3_)"/><path d="m448.803 153.163c0 107.035-86.769 193.803-193.803 193.803s-193.803-86.768-193.803-193.803c0-47.523 387.606-46.489 387.606 0z" fill="url(#SVGID_4_)"/><path d="m88.32 252.076c33.787 56.813 95.782 94.89 166.68 94.89s132.893-38.077 166.68-94.89z" fill="url(#SVGID_5_)"/><path d="m448.803 153.163c0 48.091-387.606 44.473-387.606 0 0-47.523 387.606-46.489 387.606 0z" fill="url(#SVGID_6_)"/><ellipse cx="255" cy="138.976" fill="url(#SVGID_7_)" rx="193.467" ry="32.819"/><ellipse cx="255" cy="134.798" fill="url(#SVGID_8_)" rx="175.145" ry="25.306"/><g><path d="m134.777 131.951-15.27 19.108c-10.802-1.819-19.908-3.866-26.937-6.078l25.71-25.871c1.486-1.496 3.411-2.47 5.494-2.798.59-.093 1.185-.185 1.784-.276 8.887-1.357 14.832 8.891 9.219 15.915z" fill="url(#SVGID_9_)"/><path d="m204.301 126.003-11.404 32.488c-11.66-.63-22.761-1.426-33.129-2.377l21.856-40.071c2.043-3.745 5.871-6.166 10.131-6.401.084-.005.167-.009.251-.014 8.757-.479 15.2 8.099 12.295 16.375z" fill="url(#SVGID_10_)"/><path d="m272.355 159.98c-5.706.083-11.505.124-17.355.124s-11.649-.041-17.355-.124l3.92-40.293c.646-6.636 6.213-11.718 12.881-11.721h.554s.369 0 .554 0c6.668.003 12.235 5.085 12.881 11.721z" fill="url(#SVGID_11_)"/><path d="m350.232 156.114c-10.367.951-21.469 1.747-33.129 2.377l-11.404-32.488c-2.905-8.276 3.538-16.854 12.295-16.374.084.005.167.009.251.014 4.26.234 8.088 2.655 10.131 6.401z" fill="url(#SVGID_12_)"/><path d="m417.431 144.981c-7.029 2.212-16.136 4.259-26.937 6.078l-15.27-19.108c-5.613-7.024.332-17.272 9.22-15.915.599.091 1.194.184 1.783.276 2.083.328 4.008 1.302 5.494 2.798z" fill="url(#SVGID_13_)"/></g><g><path d="m140.979 105.443c-8.808 11.561-30.829 31.472 1.258 37.253s171.763 10.277 217.693 1.927c45.929-8.35 15.1-36.611 7.55-41.749s-217.693-8.992-226.501 2.569z" fill="url(#SVGID_14_)"/><path d="m359.93 124.467c4.484-.815 8.234-1.82 11.346-2.975 5.422-2.013 6.932-8.945 2.82-13.012-2.606-2.578-5.087-4.565-6.616-5.605-7.55-5.138-217.693-8.992-226.501 2.569-1.016 1.334-2.209 2.779-3.473 4.301-3.831 4.611-1.324 11.689 4.573 12.767.053.01.105.019.158.029 32.088 5.78 171.764 10.276 217.693 1.926z" fill="url(#SVGID_15_)"/><path d="m359.93 124.467c4.484-.815 8.234-1.82 11.346-2.975 5.422-2.013 6.932-8.945 2.82-13.012-2.606-2.578-5.088-4.565-6.616-5.605-4.478-3.048-80.226-5.643-142.963-4.839l-54.505 27.522c53.027 3.99 152.53 5.706 189.918-1.091z" fill="url(#SVGID_16_)"/><path d="m242.779 128.742c45.614.905 93.651-.004 117.151-4.276 4.484-.815 8.234-1.82 11.346-2.975 5.422-2.013 6.932-8.945 2.82-13.012-2.606-2.578-5.088-4.565-6.616-5.605-2.639-1.796-30.033-3.435-64.928-4.314z" fill="url(#SVGID_17_)"/></g><path d="m175.408 298.161-6.964 28.435c16.422 8.212 34.169 14.166 52.84 17.441z" fill="url(#SVGID_18_)"/><path d="m138.195 390.588h233.609v24.119h-233.609z" fill="url(#SVGID_19_)"/><g><path d="m105.84 509.371c-8.789-2.487-13.898-11.628-11.411-20.417l52.603-184.553c2.487-8.789 11.628-13.898 20.417-11.411 8.789 2.487 13.898 11.628 11.411 20.417l-52.603 184.553c-2.487 8.789-11.628 13.898-20.417 11.411z" fill="url(#SVGID_20_)"/><path d="m404.16 509.371c8.789-2.487 13.898-11.628 11.411-20.417l-52.603-184.553c-2.487-8.789-11.628-13.898-20.417-11.411-8.789 2.487-13.898 11.628-11.411 20.417l52.603 184.553c2.487 8.789 11.628 13.898 20.417 11.411z" fill="url(#SVGID_21_)"/></g></g><g><path d="m210.185 92.03c-2.113 0-4.228-.807-5.841-2.419-3.225-3.227-3.225-8.456 0-11.681l3.223-3.222c5.515-5.516 5.892-14.505.86-20.464-8.442-10-9.888-23.905-3.685-35.428 2.163-4.013 7.174-5.52 11.188-3.356 4.017 2.162 5.52 7.172 3.357 11.188-2.965 5.509-2.273 12.158 1.763 16.938 10.525 12.466 9.733 31.267-1.803 42.802l-3.222 3.223c-1.612 1.612-3.727 2.419-5.84 2.419z" fill="url(#SVGID_22_)"/><path d="m249.464 77.559c-2.113 0-4.228-.807-5.841-2.419-3.225-3.227-3.225-8.456 0-11.681l3.223-3.222c5.515-5.516 5.892-14.505.86-20.464-8.442-10-9.888-23.905-3.685-35.428 2.163-4.013 7.174-5.52 11.188-3.356 4.017 2.162 5.52 7.172 3.357 11.188-2.965 5.509-2.273 12.158 1.763 16.938 10.525 12.466 9.733 31.267-1.803 42.802l-3.222 3.223c-1.611 1.612-3.726 2.419-5.84 2.419z" fill="url(#SVGID_23_)"/><path d="m290.811 93.064c-2.113 0-4.228-.807-5.841-2.419-3.225-3.227-3.225-8.456 0-11.681l3.223-3.222c5.515-5.516 5.892-14.505.86-20.464-8.442-10-9.888-23.905-3.685-35.428 2.163-4.013 7.174-5.52 11.188-3.356 4.017 2.162 5.52 7.172 3.357 11.188-2.965 5.509-2.273 12.158 1.763 16.938 10.525 12.466 9.733 31.267-1.803 42.802l-3.222 3.223c-1.612 1.612-3.726 2.419-5.84 2.419z" fill="url(#SVGID_24_)"/></g></g></svg>