<svg id="Capa_1" enable-background="new 0 0 510 510" height="512" viewBox="0 0 510 510" width="512" xmlns="http://www.w3.org/2000/svg" xmlns:xlink="http://www.w3.org/1999/xlink"><linearGradient id="SVGID_1_" gradientUnits="userSpaceOnUse" x1="-55.845" x2="81.3" y1="275.056" y2="275.056"><stop offset="0" stop-color="#9b62cd"/><stop offset="1" stop-color="#833ac1"/></linearGradient><linearGradient id="lg1"><stop offset="0" stop-color="#8300b3" stop-opacity="0"/><stop offset="1" stop-color="#8300b3"/></linearGradient><linearGradient id="SVGID_2_" gradientUnits="userSpaceOnUse" x1="206.571" x2="191.729" xlink:href="#lg1" y1="467.899" y2="426.886"/><linearGradient id="SVGID_3_" gradientUnits="userSpaceOnUse" x1="58.916" x2="43.293" xlink:href="#lg1" y1="144.173" y2="102.379"/><linearGradient id="SVGID_4_" gradientUnits="userSpaceOnUse" x1="58.916" x2="43.293" xlink:href="#lg1" y1="408.119" y2="366.325"/><linearGradient id="lg2"><stop offset="0" stop-color="#ff9100"/><stop offset="1" stop-color="#e63950"/></linearGradient><linearGradient id="SVGID_5_" gradientUnits="userSpaceOnUse" x1="16.415" x2="88.894" xlink:href="#lg2" y1="51.108" y2="51.108"/><linearGradient id="lg3"><stop offset="0" stop-color="#e63950" stop-opacity="0"/><stop offset=".0467" stop-color="#e4354b" stop-opacity=".047"/><stop offset=".4669" stop-color="#d31822" stop-opacity=".467"/><stop offset=".7991" stop-color="#c90709" stop-opacity=".799"/><stop offset="1" stop-color="#c50000"/></linearGradient><linearGradient id="SVGID_6_" gradientUnits="userSpaceOnUse" x1="39.07" x2="39.07" xlink:href="#lg3" y1="87.373" y2="27.397"/><linearGradient id="SVGID_7_" gradientUnits="userSpaceOnUse" x1="37.377" x2="41.673" xlink:href="#lg2" y1="41.508" y2="73.146"/><linearGradient id="SVGID_8_" gradientUnits="userSpaceOnUse" x1="37.441" x2="41.575" xlink:href="#lg2" y1="339.71" y2="370.158"/><linearGradient id="SVGID_9_" gradientUnits="userSpaceOnUse" x1="191.122" x2="198.934" xlink:href="#lg2" y1="392.53" y2="450.339"/><linearGradient id="SVGID_10_" gradientUnits="userSpaceOnUse" x1="227.298" x2="353.615" xlink:href="#lg2" y1="332.146" y2="332.146"/><linearGradient id="lg4"><stop offset="0" stop-color="#ff637b"/><stop offset="1" stop-color="#e63950"/></linearGradient><linearGradient id="SVGID_11_" gradientUnits="userSpaceOnUse" x1="145.251" x2="460.488" xlink:href="#lg4" y1="95.044" y2="410.281"/><linearGradient id="SVGID_12_" gradientUnits="userSpaceOnUse" x1="471.58" x2="46.953" xlink:href="#lg4" y1="421.695" y2="-2.932"/><linearGradient id="SVGID_13_" gradientUnits="userSpaceOnUse" x1="270.654" x2="270.654" xlink:href="#lg3" y1="303.601" y2="363.1"/><linearGradient id="SVGID_14_" gradientUnits="userSpaceOnUse" x1="235.471" x2="287.811" y1="132.184" y2="263.425"><stop offset="0" stop-color="#edf5ff"/><stop offset="1" stop-color="#d5e8fe"/></linearGradient><linearGradient id="lg5"><stop offset="0" stop-color="#fff" stop-opacity="0"/><stop offset="1" stop-color="#fff"/></linearGradient><linearGradient id="SVGID_15_" gradientUnits="userSpaceOnUse" x1="391.519" x2="330.586" xlink:href="#lg5" y1="258.64" y2="99.276"/><linearGradient id="SVGID_16_" gradientUnits="userSpaceOnUse" x1="290.253" x2="205.192" xlink:href="#lg5" y1="271.662" y2="49.194"/><g><g><path d="m115.823 510c-55.244 0-100.188-44.944-100.188-100.188v-369.701h46.872v369.701c0 29.399 23.918 53.317 53.317 53.317s53.317-23.918 53.317-53.317h46.872c-.002 55.244-44.946 100.188-100.19 100.188z" fill="url(#SVGID_1_)"/><path d="m163.623 433.395 34.065 34.065c11.524-16.317 18.323-36.198 18.323-57.648h-46.872c0 8.463-1.991 16.468-5.516 23.583z" fill="url(#SVGID_2_)"/><path d="m15.634 100.654 46.872 46.871v-66.011h-46.872z" fill="url(#SVGID_3_)"/><path d="m15.634 364.6 46.872 46.872v-66.011h-46.872z" fill="url(#SVGID_4_)"/><path d="m55.596 102.216h-33.052c-8.131 0-14.722-6.591-14.722-14.722v-72.772c0-8.131 6.592-14.722 14.722-14.722h33.051c8.131 0 14.722 6.591 14.722 14.722v72.772c.001 8.131-6.59 14.722-14.721 14.722z" fill="url(#SVGID_5_)"/><path d="m7.822 56.907v9.374l35.935 35.935h11.838c8.131 0 14.722-6.591 14.722-14.722v-30.587z" fill="url(#SVGID_6_)"/><path d="m66.845 67.062h-55.55c-4.507 0-8.16-3.653-8.16-8.16v-9.85c0-4.507 3.653-8.16 8.16-8.16h55.55c4.507 0 8.16 3.653 8.16 8.16v9.85c0 4.507-3.653 8.16-8.16 8.16z" fill="url(#SVGID_7_)"/><path d="m62.194 364.795h-46.248c-4.163 0-7.537-3.375-7.537-7.537v-11.095c0-4.163 3.375-7.537 7.537-7.537h46.248c4.163 0 7.537 3.375 7.537 7.537v11.095c0 4.163-3.374 7.537-7.537 7.537z" fill="url(#SVGID_8_)"/><path d="m243.656 404.929c0 18.552-22.734 33.591-50.778 33.591s-50.778-15.039-50.778-33.591 101.556-18.552 101.556 0z" fill="url(#SVGID_9_)"/></g><g><path d="m270.654 271.682-74.574 74.574c-4.27 4.27-4.27 11.194 0 15.465 41.186 41.186 107.961 41.186 149.147 0 4.27-4.27 4.27-11.194 0-15.465z" fill="url(#SVGID_10_)"/><path d="m52.093 129.017c-23.545 61.046-23.53 121.821.031 182.855 8.293 21.481 27.263 37.083 49.936 41.102 19.042 3.376 38.136 6.243 57.327 8.597 22.014 2.7 43.887-6.013 58.209-22.949 10.976-12.979 22.444-25.542 34.119-37.908 10.277-10.885 27.586-10.903 37.886-.038 11.712 12.355 23.239 24.912 34.223 37.911 14.451 17.102 36.568 25.639 58.789 22.899 18.959-2.338 37.822-5.177 56.635-8.512 22.673-4.019 41.643-19.621 49.936-41.103 23.562-61.034 23.577-121.809.031-182.854-8.367-21.694-27.647-37.247-50.558-41.21-111.862-19.346-224.148-19.346-336.006 0-22.911 3.963-42.19 19.516-50.558 41.21z" fill="url(#SVGID_11_)"/><path d="m161.505 334.083c-1.08 0-2.173-.071-3.246-.21-19.352-2.503-38.976-5.606-58.326-9.223-9.408-1.758-17.384-8.676-20.817-18.053-21.148-57.765-21.158-113.925-.029-171.688 3.443-9.414 11.604-16.36 21.296-18.128 56.435-10.291 113.723-15.51 170.272-15.51s113.837 5.218 170.273 15.51c9.692 1.768 17.852 8.714 21.295 18.128 21.129 57.763 21.119 113.923-.028 171.687-3.433 9.378-11.41 16.295-20.817 18.053-19.122 3.575-38.509 6.647-57.623 9.133-1.162.151-2.343.227-3.509.227-8.263 0-16.018-3.763-21.276-10.324-10.666-13.311-22.661-27.327-37.749-44.111-13.093-14.563-31.515-22.914-50.542-22.914-19.082 0-37.538 8.39-50.639 23.021-14.786 16.513-26.724 30.504-37.572 44.031-5.286 6.59-12.927 10.371-20.963 10.371z" fill="url(#SVGID_12_)"/><path d="m42.213 280.946c2.637 10.303 5.93 20.61 9.912 30.925 8.293 21.481 27.263 37.083 49.936 41.102 19.042 3.376 38.136 6.243 57.328 8.597 22.014 2.7 43.887-6.013 58.209-22.949 10.976-12.979 22.444-25.542 34.119-37.908 10.277-10.885 27.586-10.903 37.886-.038 11.712 12.355 23.239 24.912 34.223 37.91 14.451 17.102 36.568 25.639 58.789 22.899 18.959-2.338 37.822-5.177 56.635-8.512 22.673-4.019 41.643-19.621 49.936-41.103 3.982-10.315 7.275-20.622 9.912-30.925h-456.885z" fill="url(#SVGID_13_)"/><path d="m167.314 316.337c-.785 0-1.579-.049-2.361-.145-18.219-2.234-36.695-5.005-54.912-8.235-6.9-1.223-12.75-6.032-15.265-12.551-19.475-50.447-19.483-99.492-.027-149.938 2.523-6.542 8.537-11.374 15.694-12.612 53.102-9.184 107.005-13.841 160.211-13.841s107.109 4.657 160.212 13.841c7.157 1.238 13.171 6.071 15.694 12.612 19.456 50.445 19.448 99.49-.026 149.937-2.516 6.518-8.366 11.328-15.266 12.55-18.001 3.192-36.253 5.935-54.25 8.155-.863.106-1.74.16-2.605.16-6.095 0-11.806-2.622-15.668-7.193-10.173-12.039-21.6-24.704-35.963-39.855-13.498-14.238-32.489-22.403-52.105-22.403-19.671 0-38.698 8.204-52.203 22.507-14.074 14.907-25.445 27.545-35.787 39.773-3.889 4.601-9.492 7.238-15.373 7.238z" fill="url(#SVGID_14_)"/><path d="m322.782 269.224c14.362 15.151 25.79 27.816 35.963 39.855 3.862 4.571 9.573 7.193 15.668 7.193.865 0 1.742-.054 2.605-.16 17.997-2.219 36.249-4.963 54.25-8.155 6.9-1.223 12.75-6.032 15.266-12.55 19.475-50.447 19.483-99.492.026-149.937-2.523-6.542-8.537-11.374-15.694-12.612-7.056-1.22-14.126-2.355-21.207-3.415l-119.979 119.978c12.524 3.455 24.051 10.255 33.102 19.803z" fill="url(#SVGID_15_)"/><path d="m322.782 269.224c14.362 15.151 25.79 27.816 35.963 39.855 3.862 4.571 9.573 7.193 15.668 7.193.865 0 1.742-.054 2.605-.16 17.997-2.219 36.249-4.963 54.25-8.155 6.9-1.223 12.75-6.032 15.266-12.55 19.475-50.447 19.483-99.492.026-149.937-2.523-6.542-8.537-11.374-15.694-12.612-53.103-9.184-107.006-13.841-160.212-13.841-9.563 0-19.148.156-28.747.456l-154.298 154.298c1.993 7.189 4.373 14.398 7.167 21.636 2.516 6.519 8.366 11.328 15.265 12.551 18.218 3.229 36.693 6 54.912 8.235.782.096 1.576.145 2.361.145 5.881 0 11.484-2.638 15.373-7.236 10.342-12.229 21.713-24.867 35.787-39.773 13.505-14.304 32.532-22.507 52.203-22.507 19.616-.001 38.607 8.163 52.105 22.402z" fill="url(#SVGID_16_)"/></g></g></svg>