<svg id="Capa_1" enable-background="new 0 0 510 510" height="512" viewBox="0 0 510 510" width="512" xmlns="http://www.w3.org/2000/svg" xmlns:xlink="http://www.w3.org/1999/xlink"><linearGradient id="lg1"><stop offset="0" stop-color="#ff637b"/><stop offset="1" stop-color="#e63950"/></linearGradient><linearGradient id="SVGID_1_" gradientUnits="userSpaceOnUse" x1="0" x2="282.211" xlink:href="#lg1" y1="198.69" y2="198.69"/><linearGradient id="SVGID_2_" gradientUnits="userSpaceOnUse" x1="118.474" x2="-10.64" xlink:href="#lg1" y1="221.949" y2="221.949"/><linearGradient id="SVGID_3_" gradientUnits="userSpaceOnUse" x1="237.908" x2="108.794" xlink:href="#lg1" y1="221.949" y2="221.949"/><linearGradient id="lg2"><stop offset="0" stop-color="#e63950" stop-opacity="0"/><stop offset=".0467" stop-color="#e4354b" stop-opacity=".047"/><stop offset=".4669" stop-color="#d31822" stop-opacity=".467"/><stop offset=".7991" stop-color="#c90709" stop-opacity=".799"/><stop offset="1" stop-color="#c50000"/></linearGradient><linearGradient id="SVGID_4_" gradientUnits="userSpaceOnUse" x1="141.106" x2="141.106" xlink:href="#lg2" y1="245.127" y2="449.93"/><linearGradient id="SVGID_5_" gradientUnits="userSpaceOnUse" x1="98.282" x2="248.684" xlink:href="#lg1" y1="360.734" y2="511.135"/><linearGradient id="SVGID_6_" gradientTransform="matrix(-1 0 0 -1 510 849.333)" gradientUnits="userSpaceOnUse" x1="336.687" x2="449.801" xlink:href="#lg1" y1="413.569" y2="526.683"/><linearGradient id="lg3"><stop offset="0" stop-color="#0b799d"/><stop offset="1" stop-color="#07485e"/></linearGradient><linearGradient id="SVGID_7_" gradientTransform="matrix(-1 0 0 -1 510 849.333)" gradientUnits="userSpaceOnUse" x1="346.932" x2="424.065" xlink:href="#lg3" y1="423.813" y2="500.947"/><linearGradient id="SVGID_8_" gradientUnits="userSpaceOnUse" x1="227.789" x2="510" xlink:href="#lg1" y1="198.69" y2="198.69"/><linearGradient id="SVGID_9_" gradientUnits="userSpaceOnUse" x1="346.263" x2="217.149" xlink:href="#lg1" y1="221.949" y2="221.949"/><linearGradient id="SVGID_10_" gradientUnits="userSpaceOnUse" x1="465.697" x2="336.583" xlink:href="#lg1" y1="221.949" y2="221.949"/><linearGradient id="SVGID_11_" gradientUnits="userSpaceOnUse" x1="368.895" x2="368.895" xlink:href="#lg2" y1="245.127" y2="449.93"/><linearGradient id="SVGID_12_" gradientUnits="userSpaceOnUse" x1="326.071" x2="476.473" xlink:href="#lg1" y1="360.734" y2="511.135"/><linearGradient id="SVGID_13_" gradientTransform="matrix(-1 0 0 -1 510 849.333)" gradientUnits="userSpaceOnUse" x1="108.898" x2="222.012" xlink:href="#lg1" y1="413.569" y2="526.683"/><linearGradient id="SVGID_14_" gradientTransform="matrix(-1 0 0 -1 510 849.333)" gradientUnits="userSpaceOnUse" x1="119.143" x2="196.276" xlink:href="#lg3" y1="423.813" y2="500.947"/><g><g><path d="m281.297 83.863-54.727 309.105h-170.929l-54.728-309.105c-2.702-15.261.644-30.975 9.329-43.811l.822-1.215c8.969-13.256 22.939-22.092 38.632-25.238 4.365-.875 8.664-2.184 12.833-3.93 8.378-3.504 17.281-5.257 26.185-5.257s17.807 1.752 26.196 5.257c8.378 3.504 17.281 5.257 26.196 5.257 8.903 0 17.807-1.752 26.185-5.257 8.378-3.504 17.281-5.257 26.185-5.257 8.914 0 17.818 1.752 26.196 5.257h.011c4.174 1.748 8.48 3.06 12.851 3.936 15.687 3.144 29.65 11.983 38.615 25.234l.82 1.212c8.685 12.837 12.03 28.551 9.328 43.812z" fill="url(#SVGID_1_)"/><g><path d="m124.723 392.971h-49.785l-36.59-298.617c-2.828-23.079 15.18-43.428 38.431-43.428 20.926 0 38.066 16.627 38.701 37.544z" fill="url(#SVGID_2_)"/><path d="m243.864 94.354-36.59 298.617h-49.785l9.242-304.501c.635-20.917 17.775-37.544 38.701-37.544 23.252 0 41.26 20.349 38.432 43.428z" fill="url(#SVGID_3_)"/></g><path d="m24.614 217.749 31.027 175.222h170.93l31.026-175.222z" fill="url(#SVGID_4_)"/><circle cx="141.106" cy="403.558" fill="url(#SVGID_5_)" r="102.031"/><circle cx="141.106" cy="403.558" fill="url(#SVGID_6_)" r="76.735"/><circle cx="141.106" cy="403.558" fill="url(#SVGID_7_)" r="52.326"/></g><g><path d="m509.087 83.863-54.727 309.105h-170.93l-54.727-309.105c-2.702-15.261.644-30.975 9.329-43.811l.822-1.215c8.969-13.256 22.939-22.092 38.632-25.238 4.365-.875 8.664-2.184 12.833-3.93 8.378-3.504 17.281-5.257 26.185-5.257s17.807 1.752 26.196 5.257c8.378 3.504 17.281 5.257 26.196 5.257 8.904 0 17.807-1.752 26.185-5.257 8.378-3.504 17.281-5.257 26.185-5.257 8.914 0 17.818 1.752 26.196 5.257h.011c4.174 1.748 8.48 3.06 12.851 3.936 15.687 3.144 29.65 11.983 38.615 25.234l.82 1.212c8.684 12.837 12.03 28.551 9.328 43.812z" fill="url(#SVGID_8_)"/><g><path d="m352.512 392.971h-49.785l-36.59-298.617c-2.828-23.079 15.18-43.428 38.431-43.428 20.926 0 38.066 16.627 38.701 37.544z" fill="url(#SVGID_9_)"/><path d="m471.653 94.354-36.59 298.617h-49.785l9.242-304.501c.635-20.917 17.775-37.544 38.701-37.544 23.252 0 41.26 20.349 38.432 43.428z" fill="url(#SVGID_10_)"/></g><path d="m252.403 217.749 31.027 175.222h170.93l31.026-175.222z" fill="url(#SVGID_11_)"/><circle cx="368.895" cy="403.558" fill="url(#SVGID_12_)" r="102.031"/><circle cx="368.895" cy="403.558" fill="url(#SVGID_13_)" r="76.735"/><circle cx="368.895" cy="403.558" fill="url(#SVGID_14_)" r="52.326"/></g></g></svg>