<svg id="Capa_1" enable-background="new 0 0 511.885 511.885" height="512" viewBox="0 0 511.885 511.885" width="512" xmlns="http://www.w3.org/2000/svg"><g id="XMLID_157_"><path id="XMLID_1375_" d="m0 .276h511.885v511.333h-511.885z" fill="#fff0b3"/><path id="XMLID_317_" d="m265.943 511.609h-265.943v-255.942h255.942z" fill="#ffe470"/><path id="XMLID_332_" d="m511.885 266.218-255.942-10v-255.942h255.942z" fill="#ffe470"/><path id="XMLID_320_" d="m255.943 255.667h255.942v255.942h-255.942z" fill="#ffda2e"/><path id="XMLID_800_" d="m132.184 149.205h-30v-48.388h29.413c6.134 0 11.124-4.99 11.124-11.123s-4.99-11.124-11.124-11.124h-29.413v-30h29.413c22.676 0 41.124 18.448 41.124 41.124 0 22.479-18.132 40.803-40.537 41.119z" fill="#0079c2"/><path id="XMLID_768_" d="m102.184 179.201h30v28.872h-30z" fill="#0079c2"/><path id="XMLID_767_" d="m386.151 406.702h-30v-48.388h29.414c6.133 0 11.123-4.99 11.123-11.123s-4.99-11.124-11.123-11.124h-29.414v-30h29.414c22.676 0 41.123 18.448 41.123 41.124 0 22.48-18.13 40.805-40.537 41.119z" fill="#005285"/><path id="XMLID_766_" d="m356.151 436.699h30v28.872h-30z" fill="#005285"/><path id="XMLID_334_" d="m127.971 323.634 24.813 35.658 38.006 9.983-28.841 28.207 4.847 45.641-38.825-18.224-38.824 18.224 4.846-45.641-28.841-28.207 38.007-9.983z" fill="#ff7cb8"/><path id="XMLID_350_" d="m383.914 67.769 24.812 35.658 38.007 9.983-28.841 28.207 4.846 45.641-38.824-18.224-38.825 18.224 4.847-45.641-28.841-28.207 38.006-9.983z" fill="#ff5ca8"/></g></svg>